999
T004 1F PLAN - hand-written DXF
0
SECTION
2
HEADER
9
$ACADVER
1
AC1021
9
$HANDSEED
5
FFFFFF
9
$INSBASE
10
0.0
20
0.0
30
0.0
9
$EXTMIN
10
-3200.0
20
-4200.0
30
0.0
9
$EXTMAX
10
11200.0
20
9400.0
30
0.0
9
$LIMMIN
10
-3200.0
20
-4200.0
9
$LIMMAX
10
11200.0
20
9400.0
9
$LUNITS
70
2
9
$LUPREC
70
2
9
$AUNITS
70
0
9
$AUPREC
70
2
9
$INSUNITS
70
4
9
$MEASUREMENT
70
1
9
$DIMSTYLE
2
STD100
9
$TEXTSTYLE
2
STD
9
$CLAYER
8
0
9
$CELTYPE
6
ByLayer
9
$CECOLOR
62
256
9
$LTSCALE
40
1.0
9
$PDMODE
70
0
9
$PDSIZE
40
0.0
0
ENDSEC
0
SECTION
2
TABLES
0
TABLE
2
VPORT
5
100
330
0
100
AcDbSymbolTable
70
1
0
VPORT
5
101
330
100
100
AcDbSymbolTableRecord
100
AcDbViewportTableRecord
2
*ACTIVE
70
0
10
0.0
20
0.0
11
1.0
21
1.0
12
4550.0
22
2600.0
13
0.0
23
0.0
14
910.0
24
910.0
15
910.0
25
910.0
16
0.0
26
0.0
36
1.0
17
0.0
27
0.0
37
0.0
40
15000.0
41
1.6
42
50.0
43
0.0
44
0.0
50
0.0
51
0.0
71
0
72
100
73
1
74
3
75
0
76
1
77
0
78
0
0
ENDTAB
0
TABLE
2
LTYPE
5
110
330
0
100
AcDbSymbolTable
70
4
0
LTYPE
5
111
330
110
100
AcDbSymbolTableRecord
100
AcDbLinetypeTableRecord
2
ByBlock
70
0
3

72
65
73
0
40
0.0
0
LTYPE
5
112
330
110
100
AcDbSymbolTableRecord
100
AcDbLinetypeTableRecord
2
ByLayer
70
0
3

72
65
73
0
40
0.0
0
LTYPE
5
113
330
110
100
AcDbSymbolTableRecord
100
AcDbLinetypeTableRecord
2
CONTINUOUS
70
0
3
Solid line
72
65
73
0
40
0.0
0
LTYPE
5
114
330
110
100
AcDbSymbolTableRecord
100
AcDbLinetypeTableRecord
2
CENTER
70
0
3
Center ____ _ ____ _ ____ _ ____ _ ____
72
65
73
4
40
100.0
49
62.5
74
0
49
-12.5
74
0
49
12.5
74
0
49
-12.5
74
0
0
ENDTAB
0
TABLE
2
LAYER
5
120
330
0
100
AcDbSymbolTable
70
8
0
LAYER
5
121
330
120
100
AcDbSymbolTableRecord
100
AcDbLayerTableRecord
2
0
70
0
62
7
6
CONTINUOUS
370
-3
0
LAYER
5
122
330
120
100
AcDbSymbolTableRecord
100
AcDbLayerTableRecord
2
GRID
70
0
62
1
6
CENTER
370
9
0
LAYER
5
123
330
120
100
AcDbSymbolTableRecord
100
AcDbLayerTableRecord
2
WALL
70
0
62
7
6
CONTINUOUS
370
50
0
LAYER
5
124
330
120
100
AcDbSymbolTableRecord
100
AcDbLayerTableRecord
2
OPENING
70
0
62
4
6
CONTINUOUS
370
18
0
LAYER
5
125
330
120
100
AcDbSymbolTableRecord
100
AcDbLayerTableRecord
2
DIM
70
0
62
3
6
CONTINUOUS
370
9
0
LAYER
5
126
330
120
100
AcDbSymbolTableRecord
100
AcDbLayerTableRecord
2
ROOM
70
0
62
5
6
CONTINUOUS
370
18
0
LAYER
5
127
330
120
100
AcDbSymbolTableRecord
100
AcDbLayerTableRecord
2
TEXT
70
0
62
7
6
CONTINUOUS
370
18
0
LAYER
5
128
330
120
100
AcDbSymbolTableRecord
100
AcDbLayerTableRecord
2
STAIR
70
0
62
6
6
CONTINUOUS
370
18
0
ENDTAB
0
TABLE
2
STYLE
5
130
330
0
100
AcDbSymbolTable
70
2
0
STYLE
5
131
330
130
100
AcDbSymbolTableRecord
100
AcDbTextStyleTableRecord
2
STANDARD
70
0
40
0.0
41
1.0
50
0.0
71
0
42
2.5
3
txt
4

0
STYLE
5
132
330
130
100
AcDbSymbolTableRecord
100
AcDbTextStyleTableRecord
2
STD
70
0
40
0.0
41
1.0
50
0.0
71
0
42
2.5
3
msgothic.ttc
4

0
ENDTAB
0
TABLE
2
VIEW
5
140
330
0
100
AcDbSymbolTable
70
0
0
ENDTAB
0
TABLE
2
UCS
5
150
330
0
100
AcDbSymbolTable
70
0
0
ENDTAB
0
TABLE
2
APPID
5
160
330
0
100
AcDbSymbolTable
70
1
0
APPID
5
161
330
160
100
AcDbSymbolTableRecord
100
AcDbRegAppTableRecord
2
ACAD
70
0
0
ENDTAB
0
TABLE
2
DIMSTYLE
5
170
330
0
100
AcDbSymbolTable
70
2
100
AcDbDimStyleTable
71
2
0
DIMSTYLE
105
171
330
170
100
AcDbSymbolTableRecord
100
AcDbDimStyleTableRecord
2
STANDARD
70
0
40
1.0
41
2.5
42
0.625
43
3.75
44
1.25
140
2.5
141
2.5
147
0.625
73
0
74
0
77
1
78
8
271
2
272
2
277
2
279
0
280
0
340
131
0
DIMSTYLE
105
172
330
170
100
AcDbSymbolTableRecord
100
AcDbDimStyleTableRecord
2
STD100
70
0
40
100.0
41
2.5
42
0.625
43
9.0
44
0.0
140
2.5
141
2.5
142
1.25
147
0.625
73
0
74
0
77
1
78
8
271
0
272
0
277
2
279
0
280
0
340
132
0
ENDTAB
0
TABLE
2
BLOCK_RECORD
5
180
330
0
100
AcDbSymbolTable
70
36
0
BLOCK_RECORD
5
181
330
180
100
AcDbSymbolTableRecord
100
AcDbBlockTableRecord
2
*Model_Space
340
503
70
0
280
1
281
0
0
BLOCK_RECORD
5
182
330
180
100
AcDbSymbolTableRecord
100
AcDbBlockTableRecord
2
*Paper_Space
340
504
70
0
280
1
281
0
0
BLOCK_RECORD
5
201
330
180
100
AcDbSymbolTableRecord
100
AcDbBlockTableRecord
2
*D1
70
0
280
1
281
0
0
BLOCK_RECORD
5
202
330
180
100
AcDbSymbolTableRecord
100
AcDbBlockTableRecord
2
*D2
70
0
280
1
281
0
0
BLOCK_RECORD
5
203
330
180
100
AcDbSymbolTableRecord
100
AcDbBlockTableRecord
2
*D3
70
0
280
1
281
0
0
BLOCK_RECORD
5
204
330
180
100
AcDbSymbolTableRecord
100
AcDbBlockTableRecord
2
*D4
70
0
280
1
281
0
0
BLOCK_RECORD
5
205
330
180
100
AcDbSymbolTableRecord
100
AcDbBlockTableRecord
2
*D5
70
0
280
1
281
0
0
BLOCK_RECORD
5
206
330
180
100
AcDbSymbolTableRecord
100
AcDbBlockTableRecord
2
*D6
70
0
280
1
281
0
0
BLOCK_RECORD
5
207
330
180
100
AcDbSymbolTableRecord
100
AcDbBlockTableRecord
2
*D7
70
0
280
1
281
0
0
BLOCK_RECORD
5
208
330
180
100
AcDbSymbolTableRecord
100
AcDbBlockTableRecord
2
*D8
70
0
280
1
281
0
0
BLOCK_RECORD
5
209
330
180
100
AcDbSymbolTableRecord
100
AcDbBlockTableRecord
2
*D9
70
0
280
1
281
0
0
BLOCK_RECORD
5
210
330
180
100
AcDbSymbolTableRecord
100
AcDbBlockTableRecord
2
*D10
70
0
280
1
281
0
0
BLOCK_RECORD
5
211
330
180
100
AcDbSymbolTableRecord
100
AcDbBlockTableRecord
2
*D11
70
0
280
1
281
0
0
BLOCK_RECORD
5
212
330
180
100
AcDbSymbolTableRecord
100
AcDbBlockTableRecord
2
*D12
70
0
280
1
281
0
0
BLOCK_RECORD
5
213
330
180
100
AcDbSymbolTableRecord
100
AcDbBlockTableRecord
2
*D13
70
0
280
1
281
0
0
BLOCK_RECORD
5
214
330
180
100
AcDbSymbolTableRecord
100
AcDbBlockTableRecord
2
*D14
70
0
280
1
281
0
0
BLOCK_RECORD
5
215
330
180
100
AcDbSymbolTableRecord
100
AcDbBlockTableRecord
2
*D15
70
0
280
1
281
0
0
BLOCK_RECORD
5
216
330
180
100
AcDbSymbolTableRecord
100
AcDbBlockTableRecord
2
*D16
70
0
280
1
281
0
0
BLOCK_RECORD
5
217
330
180
100
AcDbSymbolTableRecord
100
AcDbBlockTableRecord
2
*D17
70
0
280
1
281
0
0
BLOCK_RECORD
5
218
330
180
100
AcDbSymbolTableRecord
100
AcDbBlockTableRecord
2
*D18
70
0
280
1
281
0
0
BLOCK_RECORD
5
219
330
180
100
AcDbSymbolTableRecord
100
AcDbBlockTableRecord
2
*D19
70
0
280
1
281
0
0
BLOCK_RECORD
5
220
330
180
100
AcDbSymbolTableRecord
100
AcDbBlockTableRecord
2
*D20
70
0
280
1
281
0
0
BLOCK_RECORD
5
221
330
180
100
AcDbSymbolTableRecord
100
AcDbBlockTableRecord
2
*D21
70
0
280
1
281
0
0
BLOCK_RECORD
5
222
330
180
100
AcDbSymbolTableRecord
100
AcDbBlockTableRecord
2
*D22
70
0
280
1
281
0
0
BLOCK_RECORD
5
223
330
180
100
AcDbSymbolTableRecord
100
AcDbBlockTableRecord
2
*D23
70
0
280
1
281
0
0
BLOCK_RECORD
5
224
330
180
100
AcDbSymbolTableRecord
100
AcDbBlockTableRecord
2
*D24
70
0
280
1
281
0
0
BLOCK_RECORD
5
225
330
180
100
AcDbSymbolTableRecord
100
AcDbBlockTableRecord
2
*D25
70
0
280
1
281
0
0
BLOCK_RECORD
5
226
330
180
100
AcDbSymbolTableRecord
100
AcDbBlockTableRecord
2
*D26
70
0
280
1
281
0
0
BLOCK_RECORD
5
227
330
180
100
AcDbSymbolTableRecord
100
AcDbBlockTableRecord
2
*D27
70
0
280
1
281
0
0
BLOCK_RECORD
5
228
330
180
100
AcDbSymbolTableRecord
100
AcDbBlockTableRecord
2
*D28
70
0
280
1
281
0
0
BLOCK_RECORD
5
229
330
180
100
AcDbSymbolTableRecord
100
AcDbBlockTableRecord
2
*D29
70
0
280
1
281
0
0
BLOCK_RECORD
5
230
330
180
100
AcDbSymbolTableRecord
100
AcDbBlockTableRecord
2
*D30
70
0
280
1
281
0
0
BLOCK_RECORD
5
231
330
180
100
AcDbSymbolTableRecord
100
AcDbBlockTableRecord
2
*D31
70
0
280
1
281
0
0
BLOCK_RECORD
5
232
330
180
100
AcDbSymbolTableRecord
100
AcDbBlockTableRecord
2
*D32
70
0
280
1
281
0
0
BLOCK_RECORD
5
233
330
180
100
AcDbSymbolTableRecord
100
AcDbBlockTableRecord
2
*D33
70
0
280
1
281
0
0
BLOCK_RECORD
5
234
330
180
100
AcDbSymbolTableRecord
100
AcDbBlockTableRecord
2
*D34
70
0
280
1
281
0
0
ENDTAB
0
ENDSEC
0
SECTION
2
BLOCKS
0
BLOCK
5
301
330
181
100
AcDbEntity
8
0
100
AcDbBlockBegin
2
*Model_Space
70
0
10
0.0
20
0.0
30
0.0
3
*Model_Space
1

0
ENDBLK
5
302
330
181
100
AcDbEntity
8
0
100
AcDbBlockEnd
0
BLOCK
5
303
330
182
100
AcDbEntity
67
1
8
0
100
AcDbBlockBegin
2
*Paper_Space
70
0
10
0.0
20
0.0
30
0.0
3
*Paper_Space
1

0
ENDBLK
5
304
330
182
100
AcDbEntity
67
1
8
0
100
AcDbBlockEnd
0
BLOCK
5
401
330
201
100
AcDbEntity
8
DIM
100
AcDbBlockBegin
2
*D1
70
1
10
0.0
20
0.0
30
0.0
3
*D1
1

0
LWPOLYLINE
5
200001
330
201
100
AcDbEntity
8
DIM
100
AcDbPolyline
90
4
70
0
10
0.0
20
-62.5
10
0.0
20
-600.0
10
455.0
20
-600.0
10
455.0
20
-62.5
0
LINE
5
200002
330
201
100
AcDbEntity
8
DIM
100
AcDbLine
10
-90.0
20
-690.0
30
0.0
11
90.0
21
-510.0
31
0.0
0
LINE
5
200003
330
201
100
AcDbEntity
8
DIM
100
AcDbLine
10
365.0
20
-690.0
30
0.0
11
545.0
21
-510.0
31
0.0
0
MTEXT
5
200004
330
201
100
AcDbEntity
8
DIM
100
AcDbMText
10
227.5
20
-410.0
30
0.0
40
250.0
41
0.0
71
5
72
1
1
455
7
STD
50
0.0
0
ENDBLK
5
441
330
201
100
AcDbEntity
8
DIM
100
AcDbBlockEnd
0
BLOCK
5
402
330
202
100
AcDbEntity
8
DIM
100
AcDbBlockBegin
2
*D2
70
1
10
0.0
20
0.0
30
0.0
3
*D2
1

0
LWPOLYLINE
5
200011
330
202
100
AcDbEntity
8
DIM
100
AcDbPolyline
90
4
70
0
10
455.0
20
-62.5
10
455.0
20
-600.0
10
1365.0
20
-600.0
10
1365.0
20
-62.5
0
LINE
5
200012
330
202
100
AcDbEntity
8
DIM
100
AcDbLine
10
365.0
20
-690.0
30
0.0
11
545.0
21
-510.0
31
0.0
0
LINE
5
200013
330
202
100
AcDbEntity
8
DIM
100
AcDbLine
10
1275.0
20
-690.0
30
0.0
11
1455.0
21
-510.0
31
0.0
0
MTEXT
5
200014
330
202
100
AcDbEntity
8
DIM
100
AcDbMText
10
910.0
20
-410.0
30
0.0
40
250.0
41
0.0
71
5
72
1
1
910
7
STD
50
0.0
0
ENDBLK
5
442
330
202
100
AcDbEntity
8
DIM
100
AcDbBlockEnd
0
BLOCK
5
403
330
203
100
AcDbEntity
8
DIM
100
AcDbBlockBegin
2
*D3
70
1
10
0.0
20
0.0
30
0.0
3
*D3
1

0
LWPOLYLINE
5
200021
330
203
100
AcDbEntity
8
DIM
100
AcDbPolyline
90
4
70
0
10
1365.0
20
-62.5
10
1365.0
20
-600.0
10
5915.0
20
-600.0
10
5915.0
20
-62.5
0
LINE
5
200022
330
203
100
AcDbEntity
8
DIM
100
AcDbLine
10
1275.0
20
-690.0
30
0.0
11
1455.0
21
-510.0
31
0.0
0
LINE
5
200023
330
203
100
AcDbEntity
8
DIM
100
AcDbLine
10
5825.0
20
-690.0
30
0.0
11
6005.0
21
-510.0
31
0.0
0
MTEXT
5
200024
330
203
100
AcDbEntity
8
DIM
100
AcDbMText
10
3640.0
20
-410.0
30
0.0
40
250.0
41
0.0
71
5
72
1
1
4550
7
STD
50
0.0
0
ENDBLK
5
443
330
203
100
AcDbEntity
8
DIM
100
AcDbBlockEnd
0
BLOCK
5
404
330
204
100
AcDbEntity
8
DIM
100
AcDbBlockBegin
2
*D4
70
1
10
0.0
20
0.0
30
0.0
3
*D4
1

0
LWPOLYLINE
5
200031
330
204
100
AcDbEntity
8
DIM
100
AcDbPolyline
90
4
70
0
10
5915.0
20
-62.5
10
5915.0
20
-600.0
10
8645.0
20
-600.0
10
8645.0
20
-62.5
0
LINE
5
200032
330
204
100
AcDbEntity
8
DIM
100
AcDbLine
10
5825.0
20
-690.0
30
0.0
11
6005.0
21
-510.0
31
0.0
0
LINE
5
200033
330
204
100
AcDbEntity
8
DIM
100
AcDbLine
10
8555.0
20
-690.0
30
0.0
11
8735.0
21
-510.0
31
0.0
0
MTEXT
5
200034
330
204
100
AcDbEntity
8
DIM
100
AcDbMText
10
7280.0
20
-410.0
30
0.0
40
250.0
41
0.0
71
5
72
1
1
2730
7
STD
50
0.0
0
ENDBLK
5
444
330
204
100
AcDbEntity
8
DIM
100
AcDbBlockEnd
0
BLOCK
5
405
330
205
100
AcDbEntity
8
DIM
100
AcDbBlockBegin
2
*D5
70
1
10
0.0
20
0.0
30
0.0
3
*D5
1

0
LWPOLYLINE
5
200041
330
205
100
AcDbEntity
8
DIM
100
AcDbPolyline
90
4
70
0
10
8645.0
20
-62.5
10
8645.0
20
-600.0
10
9100.0
20
-600.0
10
9100.0
20
-62.5
0
LINE
5
200042
330
205
100
AcDbEntity
8
DIM
100
AcDbLine
10
8555.0
20
-690.0
30
0.0
11
8735.0
21
-510.0
31
0.0
0
LINE
5
200043
330
205
100
AcDbEntity
8
DIM
100
AcDbLine
10
9010.0
20
-690.0
30
0.0
11
9190.0
21
-510.0
31
0.0
0
MTEXT
5
200044
330
205
100
AcDbEntity
8
DIM
100
AcDbMText
10
8872.5
20
-410.0
30
0.0
40
250.0
41
0.0
71
5
72
1
1
455
7
STD
50
0.0
0
ENDBLK
5
445
330
205
100
AcDbEntity
8
DIM
100
AcDbBlockEnd
0
BLOCK
5
406
330
206
100
AcDbEntity
8
DIM
100
AcDbBlockBegin
2
*D6
70
1
10
0.0
20
0.0
30
0.0
3
*D6
1

0
LWPOLYLINE
5
200051
330
206
100
AcDbEntity
8
DIM
100
AcDbPolyline
90
4
70
0
10
0.0
20
-62.5
10
0.0
20
-1600.0
10
910.0
20
-1600.0
10
910.0
20
-62.5
0
LINE
5
200052
330
206
100
AcDbEntity
8
DIM
100
AcDbLine
10
-90.0
20
-1690.0
30
0.0
11
90.0
21
-1510.0
31
0.0
0
LINE
5
200053
330
206
100
AcDbEntity
8
DIM
100
AcDbLine
10
820.0
20
-1690.0
30
0.0
11
1000.0
21
-1510.0
31
0.0
0
MTEXT
5
200054
330
206
100
AcDbEntity
8
DIM
100
AcDbMText
10
455.0
20
-1410.0
30
0.0
40
250.0
41
0.0
71
5
72
1
1
910
7
STD
50
0.0
0
ENDBLK
5
446
330
206
100
AcDbEntity
8
DIM
100
AcDbBlockEnd
0
BLOCK
5
407
330
207
100
AcDbEntity
8
DIM
100
AcDbBlockBegin
2
*D7
70
1
10
0.0
20
0.0
30
0.0
3
*D7
1

0
LWPOLYLINE
5
200061
330
207
100
AcDbEntity
8
DIM
100
AcDbPolyline
90
4
70
0
10
910.0
20
-62.5
10
910.0
20
-1600.0
10
1820.0
20
-1600.0
10
1820.0
20
-62.5
0
LINE
5
200062
330
207
100
AcDbEntity
8
DIM
100
AcDbLine
10
820.0
20
-1690.0
30
0.0
11
1000.0
21
-1510.0
31
0.0
0
LINE
5
200063
330
207
100
AcDbEntity
8
DIM
100
AcDbLine
10
1730.0
20
-1690.0
30
0.0
11
1910.0
21
-1510.0
31
0.0
0
MTEXT
5
200064
330
207
100
AcDbEntity
8
DIM
100
AcDbMText
10
1365.0
20
-1410.0
30
0.0
40
250.0
41
0.0
71
5
72
1
1
910
7
STD
50
0.0
0
ENDBLK
5
447
330
207
100
AcDbEntity
8
DIM
100
AcDbBlockEnd
0
BLOCK
5
408
330
208
100
AcDbEntity
8
DIM
100
AcDbBlockBegin
2
*D8
70
1
10
0.0
20
0.0
30
0.0
3
*D8
1

0
LWPOLYLINE
5
200071
330
208
100
AcDbEntity
8
DIM
100
AcDbPolyline
90
4
70
0
10
1820.0
20
-62.5
10
1820.0
20
-1600.0
10
2730.0
20
-1600.0
10
2730.0
20
-62.5
0
LINE
5
200072
330
208
100
AcDbEntity
8
DIM
100
AcDbLine
10
1730.0
20
-1690.0
30
0.0
11
1910.0
21
-1510.0
31
0.0
0
LINE
5
200073
330
208
100
AcDbEntity
8
DIM
100
AcDbLine
10
2640.0
20
-1690.0
30
0.0
11
2820.0
21
-1510.0
31
0.0
0
MTEXT
5
200074
330
208
100
AcDbEntity
8
DIM
100
AcDbMText
10
2275.0
20
-1410.0
30
0.0
40
250.0
41
0.0
71
5
72
1
1
910
7
STD
50
0.0
0
ENDBLK
5
448
330
208
100
AcDbEntity
8
DIM
100
AcDbBlockEnd
0
BLOCK
5
409
330
209
100
AcDbEntity
8
DIM
100
AcDbBlockBegin
2
*D9
70
1
10
0.0
20
0.0
30
0.0
3
*D9
1

0
LWPOLYLINE
5
200081
330
209
100
AcDbEntity
8
DIM
100
AcDbPolyline
90
4
70
0
10
2730.0
20
-62.5
10
2730.0
20
-1600.0
10
3640.0
20
-1600.0
10
3640.0
20
-62.5
0
LINE
5
200082
330
209
100
AcDbEntity
8
DIM
100
AcDbLine
10
2640.0
20
-1690.0
30
0.0
11
2820.0
21
-1510.0
31
0.0
0
LINE
5
200083
330
209
100
AcDbEntity
8
DIM
100
AcDbLine
10
3550.0
20
-1690.0
30
0.0
11
3730.0
21
-1510.0
31
0.0
0
MTEXT
5
200084
330
209
100
AcDbEntity
8
DIM
100
AcDbMText
10
3185.0
20
-1410.0
30
0.0
40
250.0
41
0.0
71
5
72
1
1
910
7
STD
50
0.0
0
ENDBLK
5
449
330
209
100
AcDbEntity
8
DIM
100
AcDbBlockEnd
0
BLOCK
5
410
330
210
100
AcDbEntity
8
DIM
100
AcDbBlockBegin
2
*D10
70
1
10
0.0
20
0.0
30
0.0
3
*D10
1

0
LWPOLYLINE
5
200091
330
210
100
AcDbEntity
8
DIM
100
AcDbPolyline
90
4
70
0
10
3640.0
20
-62.5
10
3640.0
20
-1600.0
10
4550.0
20
-1600.0
10
4550.0
20
-62.5
0
LINE
5
200092
330
210
100
AcDbEntity
8
DIM
100
AcDbLine
10
3550.0
20
-1690.0
30
0.0
11
3730.0
21
-1510.0
31
0.0
0
LINE
5
200093
330
210
100
AcDbEntity
8
DIM
100
AcDbLine
10
4460.0
20
-1690.0
30
0.0
11
4640.0
21
-1510.0
31
0.0
0
MTEXT
5
200094
330
210
100
AcDbEntity
8
DIM
100
AcDbMText
10
4095.0
20
-1410.0
30
0.0
40
250.0
41
0.0
71
5
72
1
1
910
7
STD
50
0.0
0
ENDBLK
5
450
330
210
100
AcDbEntity
8
DIM
100
AcDbBlockEnd
0
BLOCK
5
411
330
211
100
AcDbEntity
8
DIM
100
AcDbBlockBegin
2
*D11
70
1
10
0.0
20
0.0
30
0.0
3
*D11
1

0
LWPOLYLINE
5
200101
330
211
100
AcDbEntity
8
DIM
100
AcDbPolyline
90
4
70
0
10
4550.0
20
-62.5
10
4550.0
20
-1600.0
10
5460.0
20
-1600.0
10
5460.0
20
-62.5
0
LINE
5
200102
330
211
100
AcDbEntity
8
DIM
100
AcDbLine
10
4460.0
20
-1690.0
30
0.0
11
4640.0
21
-1510.0
31
0.0
0
LINE
5
200103
330
211
100
AcDbEntity
8
DIM
100
AcDbLine
10
5370.0
20
-1690.0
30
0.0
11
5550.0
21
-1510.0
31
0.0
0
MTEXT
5
200104
330
211
100
AcDbEntity
8
DIM
100
AcDbMText
10
5005.0
20
-1410.0
30
0.0
40
250.0
41
0.0
71
5
72
1
1
910
7
STD
50
0.0
0
ENDBLK
5
451
330
211
100
AcDbEntity
8
DIM
100
AcDbBlockEnd
0
BLOCK
5
412
330
212
100
AcDbEntity
8
DIM
100
AcDbBlockBegin
2
*D12
70
1
10
0.0
20
0.0
30
0.0
3
*D12
1

0
LWPOLYLINE
5
200111
330
212
100
AcDbEntity
8
DIM
100
AcDbPolyline
90
4
70
0
10
5460.0
20
-62.5
10
5460.0
20
-1600.0
10
6370.0
20
-1600.0
10
6370.0
20
-62.5
0
LINE
5
200112
330
212
100
AcDbEntity
8
DIM
100
AcDbLine
10
5370.0
20
-1690.0
30
0.0
11
5550.0
21
-1510.0
31
0.0
0
LINE
5
200113
330
212
100
AcDbEntity
8
DIM
100
AcDbLine
10
6280.0
20
-1690.0
30
0.0
11
6460.0
21
-1510.0
31
0.0
0
MTEXT
5
200114
330
212
100
AcDbEntity
8
DIM
100
AcDbMText
10
5915.0
20
-1410.0
30
0.0
40
250.0
41
0.0
71
5
72
1
1
910
7
STD
50
0.0
0
ENDBLK
5
452
330
212
100
AcDbEntity
8
DIM
100
AcDbBlockEnd
0
BLOCK
5
413
330
213
100
AcDbEntity
8
DIM
100
AcDbBlockBegin
2
*D13
70
1
10
0.0
20
0.0
30
0.0
3
*D13
1

0
LWPOLYLINE
5
200121
330
213
100
AcDbEntity
8
DIM
100
AcDbPolyline
90
4
70
0
10
6370.0
20
-62.5
10
6370.0
20
-1600.0
10
7280.0
20
-1600.0
10
7280.0
20
-62.5
0
LINE
5
200122
330
213
100
AcDbEntity
8
DIM
100
AcDbLine
10
6280.0
20
-1690.0
30
0.0
11
6460.0
21
-1510.0
31
0.0
0
LINE
5
200123
330
213
100
AcDbEntity
8
DIM
100
AcDbLine
10
7190.0
20
-1690.0
30
0.0
11
7370.0
21
-1510.0
31
0.0
0
MTEXT
5
200124
330
213
100
AcDbEntity
8
DIM
100
AcDbMText
10
6825.0
20
-1410.0
30
0.0
40
250.0
41
0.0
71
5
72
1
1
910
7
STD
50
0.0
0
ENDBLK
5
453
330
213
100
AcDbEntity
8
DIM
100
AcDbBlockEnd
0
BLOCK
5
414
330
214
100
AcDbEntity
8
DIM
100
AcDbBlockBegin
2
*D14
70
1
10
0.0
20
0.0
30
0.0
3
*D14
1

0
LWPOLYLINE
5
200131
330
214
100
AcDbEntity
8
DIM
100
AcDbPolyline
90
4
70
0
10
7280.0
20
-62.5
10
7280.0
20
-1600.0
10
8190.0
20
-1600.0
10
8190.0
20
-62.5
0
LINE
5
200132
330
214
100
AcDbEntity
8
DIM
100
AcDbLine
10
7190.0
20
-1690.0
30
0.0
11
7370.0
21
-1510.0
31
0.0
0
LINE
5
200133
330
214
100
AcDbEntity
8
DIM
100
AcDbLine
10
8100.0
20
-1690.0
30
0.0
11
8280.0
21
-1510.0
31
0.0
0
MTEXT
5
200134
330
214
100
AcDbEntity
8
DIM
100
AcDbMText
10
7735.0
20
-1410.0
30
0.0
40
250.0
41
0.0
71
5
72
1
1
910
7
STD
50
0.0
0
ENDBLK
5
454
330
214
100
AcDbEntity
8
DIM
100
AcDbBlockEnd
0
BLOCK
5
415
330
215
100
AcDbEntity
8
DIM
100
AcDbBlockBegin
2
*D15
70
1
10
0.0
20
0.0
30
0.0
3
*D15
1

0
LWPOLYLINE
5
200141
330
215
100
AcDbEntity
8
DIM
100
AcDbPolyline
90
4
70
0
10
8190.0
20
-62.5
10
8190.0
20
-1600.0
10
9100.0
20
-1600.0
10
9100.0
20
-62.5
0
LINE
5
200142
330
215
100
AcDbEntity
8
DIM
100
AcDbLine
10
8100.0
20
-1690.0
30
0.0
11
8280.0
21
-1510.0
31
0.0
0
LINE
5
200143
330
215
100
AcDbEntity
8
DIM
100
AcDbLine
10
9010.0
20
-1690.0
30
0.0
11
9190.0
21
-1510.0
31
0.0
0
MTEXT
5
200144
330
215
100
AcDbEntity
8
DIM
100
AcDbMText
10
8645.0
20
-1410.0
30
0.0
40
250.0
41
0.0
71
5
72
1
1
910
7
STD
50
0.0
0
ENDBLK
5
455
330
215
100
AcDbEntity
8
DIM
100
AcDbBlockEnd
0
BLOCK
5
416
330
216
100
AcDbEntity
8
DIM
100
AcDbBlockBegin
2
*D16
70
1
10
0.0
20
0.0
30
0.0
3
*D16
1

0
LWPOLYLINE
5
200151
330
216
100
AcDbEntity
8
DIM
100
AcDbPolyline
90
4
70
0
10
0.0
20
-62.5
10
0.0
20
-2600.0
10
9100.0
20
-2600.0
10
9100.0
20
-62.5
0
LINE
5
200152
330
216
100
AcDbEntity
8
DIM
100
AcDbLine
10
-90.0
20
-2690.0
30
0.0
11
90.0
21
-2510.0
31
0.0
0
LINE
5
200153
330
216
100
AcDbEntity
8
DIM
100
AcDbLine
10
9010.0
20
-2690.0
30
0.0
11
9190.0
21
-2510.0
31
0.0
0
MTEXT
5
200154
330
216
100
AcDbEntity
8
DIM
100
AcDbMText
10
4550.0
20
-2410.0
30
0.0
40
250.0
41
0.0
71
5
72
1
1
9100
7
STD
50
0.0
0
ENDBLK
5
456
330
216
100
AcDbEntity
8
DIM
100
AcDbBlockEnd
0
BLOCK
5
417
330
217
100
AcDbEntity
8
DIM
100
AcDbBlockBegin
2
*D17
70
1
10
0.0
20
0.0
30
0.0
3
*D17
1

0
LWPOLYLINE
5
200161
330
217
100
AcDbEntity
8
DIM
100
AcDbPolyline
90
4
70
0
10
-62.5
20
0.0
10
-600.0
20
0.0
10
-600.0
20
910.0
10
-62.5
20
910.0
0
LINE
5
200162
330
217
100
AcDbEntity
8
DIM
100
AcDbLine
10
-690.0
20
-90.0
30
0.0
11
-510.0
21
90.0
31
0.0
0
LINE
5
200163
330
217
100
AcDbEntity
8
DIM
100
AcDbLine
10
-690.0
20
820.0
30
0.0
11
-510.0
21
1000.0
31
0.0
0
MTEXT
5
200164
330
217
100
AcDbEntity
8
DIM
100
AcDbMText
10
-790.0
20
455.0
30
0.0
40
250.0
41
0.0
71
5
72
1
1
910
7
STD
50
90.0
0
ENDBLK
5
457
330
217
100
AcDbEntity
8
DIM
100
AcDbBlockEnd
0
BLOCK
5
418
330
218
100
AcDbEntity
8
DIM
100
AcDbBlockBegin
2
*D18
70
1
10
0.0
20
0.0
30
0.0
3
*D18
1

0
LWPOLYLINE
5
200171
330
218
100
AcDbEntity
8
DIM
100
AcDbPolyline
90
4
70
0
10
-62.5
20
910.0
10
-600.0
20
910.0
10
-600.0
20
1820.0
10
-62.5
20
1820.0
0
LINE
5
200172
330
218
100
AcDbEntity
8
DIM
100
AcDbLine
10
-690.0
20
820.0
30
0.0
11
-510.0
21
1000.0
31
0.0
0
LINE
5
200173
330
218
100
AcDbEntity
8
DIM
100
AcDbLine
10
-690.0
20
1730.0
30
0.0
11
-510.0
21
1910.0
31
0.0
0
MTEXT
5
200174
330
218
100
AcDbEntity
8
DIM
100
AcDbMText
10
-790.0
20
1365.0
30
0.0
40
250.0
41
0.0
71
5
72
1
1
910
7
STD
50
90.0
0
ENDBLK
5
458
330
218
100
AcDbEntity
8
DIM
100
AcDbBlockEnd
0
BLOCK
5
419
330
219
100
AcDbEntity
8
DIM
100
AcDbBlockBegin
2
*D19
70
1
10
0.0
20
0.0
30
0.0
3
*D19
1

0
LWPOLYLINE
5
200181
330
219
100
AcDbEntity
8
DIM
100
AcDbPolyline
90
4
70
0
10
-62.5
20
1820.0
10
-600.0
20
1820.0
10
-600.0
20
2730.0
10
-62.5
20
2730.0
0
LINE
5
200182
330
219
100
AcDbEntity
8
DIM
100
AcDbLine
10
-690.0
20
1730.0
30
0.0
11
-510.0
21
1910.0
31
0.0
0
LINE
5
200183
330
219
100
AcDbEntity
8
DIM
100
AcDbLine
10
-690.0
20
2640.0
30
0.0
11
-510.0
21
2820.0
31
0.0
0
MTEXT
5
200184
330
219
100
AcDbEntity
8
DIM
100
AcDbMText
10
-790.0
20
2275.0
30
0.0
40
250.0
41
0.0
71
5
72
1
1
910
7
STD
50
90.0
0
ENDBLK
5
459
330
219
100
AcDbEntity
8
DIM
100
AcDbBlockEnd
0
BLOCK
5
420
330
220
100
AcDbEntity
8
DIM
100
AcDbBlockBegin
2
*D20
70
1
10
0.0
20
0.0
30
0.0
3
*D20
1

0
LWPOLYLINE
5
200191
330
220
100
AcDbEntity
8
DIM
100
AcDbPolyline
90
4
70
0
10
-62.5
20
2730.0
10
-600.0
20
2730.0
10
-600.0
20
3640.0
10
-62.5
20
3640.0
0
LINE
5
200192
330
220
100
AcDbEntity
8
DIM
100
AcDbLine
10
-690.0
20
2640.0
30
0.0
11
-510.0
21
2820.0
31
0.0
0
LINE
5
200193
330
220
100
AcDbEntity
8
DIM
100
AcDbLine
10
-690.0
20
3550.0
30
0.0
11
-510.0
21
3730.0
31
0.0
0
MTEXT
5
200194
330
220
100
AcDbEntity
8
DIM
100
AcDbMText
10
-790.0
20
3185.0
30
0.0
40
250.0
41
0.0
71
5
72
1
1
910
7
STD
50
90.0
0
ENDBLK
5
460
330
220
100
AcDbEntity
8
DIM
100
AcDbBlockEnd
0
BLOCK
5
421
330
221
100
AcDbEntity
8
DIM
100
AcDbBlockBegin
2
*D21
70
1
10
0.0
20
0.0
30
0.0
3
*D21
1

0
LWPOLYLINE
5
200201
330
221
100
AcDbEntity
8
DIM
100
AcDbPolyline
90
4
70
0
10
-62.5
20
3640.0
10
-600.0
20
3640.0
10
-600.0
20
4550.0
10
-62.5
20
4550.0
0
LINE
5
200202
330
221
100
AcDbEntity
8
DIM
100
AcDbLine
10
-690.0
20
3550.0
30
0.0
11
-510.0
21
3730.0
31
0.0
0
LINE
5
200203
330
221
100
AcDbEntity
8
DIM
100
AcDbLine
10
-690.0
20
4460.0
30
0.0
11
-510.0
21
4640.0
31
0.0
0
MTEXT
5
200204
330
221
100
AcDbEntity
8
DIM
100
AcDbMText
10
-790.0
20
4095.0
30
0.0
40
250.0
41
0.0
71
5
72
1
1
910
7
STD
50
90.0
0
ENDBLK
5
461
330
221
100
AcDbEntity
8
DIM
100
AcDbBlockEnd
0
BLOCK
5
422
330
222
100
AcDbEntity
8
DIM
100
AcDbBlockBegin
2
*D22
70
1
10
0.0
20
0.0
30
0.0
3
*D22
1

0
LWPOLYLINE
5
200211
330
222
100
AcDbEntity
8
DIM
100
AcDbPolyline
90
4
70
0
10
-62.5
20
4550.0
10
-600.0
20
4550.0
10
-600.0
20
5460.0
10
-62.5
20
5460.0
0
LINE
5
200212
330
222
100
AcDbEntity
8
DIM
100
AcDbLine
10
-690.0
20
4460.0
30
0.0
11
-510.0
21
4640.0
31
0.0
0
LINE
5
200213
330
222
100
AcDbEntity
8
DIM
100
AcDbLine
10
-690.0
20
5370.0
30
0.0
11
-510.0
21
5550.0
31
0.0
0
MTEXT
5
200214
330
222
100
AcDbEntity
8
DIM
100
AcDbMText
10
-790.0
20
5005.0
30
0.0
40
250.0
41
0.0
71
5
72
1
1
910
7
STD
50
90.0
0
ENDBLK
5
462
330
222
100
AcDbEntity
8
DIM
100
AcDbBlockEnd
0
BLOCK
5
423
330
223
100
AcDbEntity
8
DIM
100
AcDbBlockBegin
2
*D23
70
1
10
0.0
20
0.0
30
0.0
3
*D23
1

0
LWPOLYLINE
5
200221
330
223
100
AcDbEntity
8
DIM
100
AcDbPolyline
90
4
70
0
10
-62.5
20
5460.0
10
-600.0
20
5460.0
10
-600.0
20
6370.0
10
-62.5
20
6370.0
0
LINE
5
200222
330
223
100
AcDbEntity
8
DIM
100
AcDbLine
10
-690.0
20
5370.0
30
0.0
11
-510.0
21
5550.0
31
0.0
0
LINE
5
200223
330
223
100
AcDbEntity
8
DIM
100
AcDbLine
10
-690.0
20
6280.0
30
0.0
11
-510.0
21
6460.0
31
0.0
0
MTEXT
5
200224
330
223
100
AcDbEntity
8
DIM
100
AcDbMText
10
-790.0
20
5915.0
30
0.0
40
250.0
41
0.0
71
5
72
1
1
910
7
STD
50
90.0
0
ENDBLK
5
463
330
223
100
AcDbEntity
8
DIM
100
AcDbBlockEnd
0
BLOCK
5
424
330
224
100
AcDbEntity
8
DIM
100
AcDbBlockBegin
2
*D24
70
1
10
0.0
20
0.0
30
0.0
3
*D24
1

0
LWPOLYLINE
5
200231
330
224
100
AcDbEntity
8
DIM
100
AcDbPolyline
90
4
70
0
10
-62.5
20
6370.0
10
-600.0
20
6370.0
10
-600.0
20
7280.0
10
-62.5
20
7280.0
0
LINE
5
200232
330
224
100
AcDbEntity
8
DIM
100
AcDbLine
10
-690.0
20
6280.0
30
0.0
11
-510.0
21
6460.0
31
0.0
0
LINE
5
200233
330
224
100
AcDbEntity
8
DIM
100
AcDbLine
10
-690.0
20
7190.0
30
0.0
11
-510.0
21
7370.0
31
0.0
0
MTEXT
5
200234
330
224
100
AcDbEntity
8
DIM
100
AcDbMText
10
-790.0
20
6825.0
30
0.0
40
250.0
41
0.0
71
5
72
1
1
910
7
STD
50
90.0
0
ENDBLK
5
464
330
224
100
AcDbEntity
8
DIM
100
AcDbBlockEnd
0
BLOCK
5
425
330
225
100
AcDbEntity
8
DIM
100
AcDbBlockBegin
2
*D25
70
1
10
0.0
20
0.0
30
0.0
3
*D25
1

0
LWPOLYLINE
5
200241
330
225
100
AcDbEntity
8
DIM
100
AcDbPolyline
90
4
70
0
10
-62.5
20
7280.0
10
-600.0
20
7280.0
10
-600.0
20
8190.0
10
-62.5
20
8190.0
0
LINE
5
200242
330
225
100
AcDbEntity
8
DIM
100
AcDbLine
10
-690.0
20
7190.0
30
0.0
11
-510.0
21
7370.0
31
0.0
0
LINE
5
200243
330
225
100
AcDbEntity
8
DIM
100
AcDbLine
10
-690.0
20
8100.0
30
0.0
11
-510.0
21
8280.0
31
0.0
0
MTEXT
5
200244
330
225
100
AcDbEntity
8
DIM
100
AcDbMText
10
-790.0
20
7735.0
30
0.0
40
250.0
41
0.0
71
5
72
1
1
910
7
STD
50
90.0
0
ENDBLK
5
465
330
225
100
AcDbEntity
8
DIM
100
AcDbBlockEnd
0
BLOCK
5
426
330
226
100
AcDbEntity
8
DIM
100
AcDbBlockBegin
2
*D26
70
1
10
0.0
20
0.0
30
0.0
3
*D26
1

0
LWPOLYLINE
5
200251
330
226
100
AcDbEntity
8
DIM
100
AcDbPolyline
90
4
70
0
10
-62.5
20
0.0
10
-1600.0
20
0.0
10
-1600.0
20
8190.0
10
-62.5
20
8190.0
0
LINE
5
200252
330
226
100
AcDbEntity
8
DIM
100
AcDbLine
10
-1690.0
20
-90.0
30
0.0
11
-1510.0
21
90.0
31
0.0
0
LINE
5
200253
330
226
100
AcDbEntity
8
DIM
100
AcDbLine
10
-1690.0
20
8100.0
30
0.0
11
-1510.0
21
8280.0
31
0.0
0
MTEXT
5
200254
330
226
100
AcDbEntity
8
DIM
100
AcDbMText
10
-1790.0
20
4095.0
30
0.0
40
250.0
41
0.0
71
5
72
1
1
8190
7
STD
50
90.0
0
ENDBLK
5
466
330
226
100
AcDbEntity
8
DIM
100
AcDbBlockEnd
0
BLOCK
5
427
330
227
100
AcDbEntity
8
DIM
100
AcDbBlockBegin
2
*D27
70
1
10
0.0
20
0.0
30
0.0
3
*D27
1

0
LWPOLYLINE
5
200261
330
227
100
AcDbEntity
8
DIM
100
AcDbPolyline
90
4
70
0
10
9162.5
20
0.0
10
9700.0
20
0.0
10
9700.0
20
910.0
10
9162.5
20
910.0
0
LINE
5
200262
330
227
100
AcDbEntity
8
DIM
100
AcDbLine
10
9610.0
20
-90.0
30
0.0
11
9790.0
21
90.0
31
0.0
0
LINE
5
200263
330
227
100
AcDbEntity
8
DIM
100
AcDbLine
10
9610.0
20
820.0
30
0.0
11
9790.0
21
1000.0
31
0.0
0
MTEXT
5
200264
330
227
100
AcDbEntity
8
DIM
100
AcDbMText
10
9510.0
20
455.0
30
0.0
40
250.0
41
0.0
71
5
72
1
1
910
7
STD
50
90.0
0
ENDBLK
5
467
330
227
100
AcDbEntity
8
DIM
100
AcDbBlockEnd
0
BLOCK
5
428
330
228
100
AcDbEntity
8
DIM
100
AcDbBlockBegin
2
*D28
70
1
10
0.0
20
0.0
30
0.0
3
*D28
1

0
LWPOLYLINE
5
200271
330
228
100
AcDbEntity
8
DIM
100
AcDbPolyline
90
4
70
0
10
9162.5
20
910.0
10
9700.0
20
910.0
10
9700.0
20
1820.0
10
9162.5
20
1820.0
0
LINE
5
200272
330
228
100
AcDbEntity
8
DIM
100
AcDbLine
10
9610.0
20
820.0
30
0.0
11
9790.0
21
1000.0
31
0.0
0
LINE
5
200273
330
228
100
AcDbEntity
8
DIM
100
AcDbLine
10
9610.0
20
1730.0
30
0.0
11
9790.0
21
1910.0
31
0.0
0
MTEXT
5
200274
330
228
100
AcDbEntity
8
DIM
100
AcDbMText
10
9510.0
20
1365.0
30
0.0
40
250.0
41
0.0
71
5
72
1
1
910
7
STD
50
90.0
0
ENDBLK
5
468
330
228
100
AcDbEntity
8
DIM
100
AcDbBlockEnd
0
BLOCK
5
429
330
229
100
AcDbEntity
8
DIM
100
AcDbBlockBegin
2
*D29
70
1
10
0.0
20
0.0
30
0.0
3
*D29
1

0
LWPOLYLINE
5
200281
330
229
100
AcDbEntity
8
DIM
100
AcDbPolyline
90
4
70
0
10
9162.5
20
1820.0
10
9700.0
20
1820.0
10
9700.0
20
2730.0
10
9162.5
20
2730.0
0
LINE
5
200282
330
229
100
AcDbEntity
8
DIM
100
AcDbLine
10
9610.0
20
1730.0
30
0.0
11
9790.0
21
1910.0
31
0.0
0
LINE
5
200283
330
229
100
AcDbEntity
8
DIM
100
AcDbLine
10
9610.0
20
2640.0
30
0.0
11
9790.0
21
2820.0
31
0.0
0
MTEXT
5
200284
330
229
100
AcDbEntity
8
DIM
100
AcDbMText
10
9510.0
20
2275.0
30
0.0
40
250.0
41
0.0
71
5
72
1
1
910
7
STD
50
90.0
0
ENDBLK
5
469
330
229
100
AcDbEntity
8
DIM
100
AcDbBlockEnd
0
BLOCK
5
430
330
230
100
AcDbEntity
8
DIM
100
AcDbBlockBegin
2
*D30
70
1
10
0.0
20
0.0
30
0.0
3
*D30
1

0
LWPOLYLINE
5
200291
330
230
100
AcDbEntity
8
DIM
100
AcDbPolyline
90
4
70
0
10
9162.5
20
2730.0
10
9700.0
20
2730.0
10
9700.0
20
3640.0
10
9162.5
20
3640.0
0
LINE
5
200292
330
230
100
AcDbEntity
8
DIM
100
AcDbLine
10
9610.0
20
2640.0
30
0.0
11
9790.0
21
2820.0
31
0.0
0
LINE
5
200293
330
230
100
AcDbEntity
8
DIM
100
AcDbLine
10
9610.0
20
3550.0
30
0.0
11
9790.0
21
3730.0
31
0.0
0
MTEXT
5
200294
330
230
100
AcDbEntity
8
DIM
100
AcDbMText
10
9510.0
20
3185.0
30
0.0
40
250.0
41
0.0
71
5
72
1
1
910
7
STD
50
90.0
0
ENDBLK
5
470
330
230
100
AcDbEntity
8
DIM
100
AcDbBlockEnd
0
BLOCK
5
431
330
231
100
AcDbEntity
8
DIM
100
AcDbBlockBegin
2
*D31
70
1
10
0.0
20
0.0
30
0.0
3
*D31
1

0
LWPOLYLINE
5
200301
330
231
100
AcDbEntity
8
DIM
100
AcDbPolyline
90
4
70
0
10
9162.5
20
3640.0
10
9700.0
20
3640.0
10
9700.0
20
4550.0
10
9162.5
20
4550.0
0
LINE
5
200302
330
231
100
AcDbEntity
8
DIM
100
AcDbLine
10
9610.0
20
3550.0
30
0.0
11
9790.0
21
3730.0
31
0.0
0
LINE
5
200303
330
231
100
AcDbEntity
8
DIM
100
AcDbLine
10
9610.0
20
4460.0
30
0.0
11
9790.0
21
4640.0
31
0.0
0
MTEXT
5
200304
330
231
100
AcDbEntity
8
DIM
100
AcDbMText
10
9510.0
20
4095.0
30
0.0
40
250.0
41
0.0
71
5
72
1
1
910
7
STD
50
90.0
0
ENDBLK
5
471
330
231
100
AcDbEntity
8
DIM
100
AcDbBlockEnd
0
BLOCK
5
432
330
232
100
AcDbEntity
8
DIM
100
AcDbBlockBegin
2
*D32
70
1
10
0.0
20
0.0
30
0.0
3
*D32
1

0
LWPOLYLINE
5
200311
330
232
100
AcDbEntity
8
DIM
100
AcDbPolyline
90
4
70
0
10
9162.5
20
4550.0
10
9700.0
20
4550.0
10
9700.0
20
5460.0
10
9162.5
20
5460.0
0
LINE
5
200312
330
232
100
AcDbEntity
8
DIM
100
AcDbLine
10
9610.0
20
4460.0
30
0.0
11
9790.0
21
4640.0
31
0.0
0
LINE
5
200313
330
232
100
AcDbEntity
8
DIM
100
AcDbLine
10
9610.0
20
5370.0
30
0.0
11
9790.0
21
5550.0
31
0.0
0
MTEXT
5
200314
330
232
100
AcDbEntity
8
DIM
100
AcDbMText
10
9510.0
20
5005.0
30
0.0
40
250.0
41
0.0
71
5
72
1
1
910
7
STD
50
90.0
0
ENDBLK
5
472
330
232
100
AcDbEntity
8
DIM
100
AcDbBlockEnd
0
BLOCK
5
433
330
233
100
AcDbEntity
8
DIM
100
AcDbBlockBegin
2
*D33
70
1
10
0.0
20
0.0
30
0.0
3
*D33
1

0
LWPOLYLINE
5
200321
330
233
100
AcDbEntity
8
DIM
100
AcDbPolyline
90
4
70
0
10
9162.5
20
5460.0
10
9700.0
20
5460.0
10
9700.0
20
6370.0
10
9162.5
20
6370.0
0
LINE
5
200322
330
233
100
AcDbEntity
8
DIM
100
AcDbLine
10
9610.0
20
5370.0
30
0.0
11
9790.0
21
5550.0
31
0.0
0
LINE
5
200323
330
233
100
AcDbEntity
8
DIM
100
AcDbLine
10
9610.0
20
6280.0
30
0.0
11
9790.0
21
6460.0
31
0.0
0
MTEXT
5
200324
330
233
100
AcDbEntity
8
DIM
100
AcDbMText
10
9510.0
20
5915.0
30
0.0
40
250.0
41
0.0
71
5
72
1
1
910
7
STD
50
90.0
0
ENDBLK
5
473
330
233
100
AcDbEntity
8
DIM
100
AcDbBlockEnd
0
BLOCK
5
434
330
234
100
AcDbEntity
8
DIM
100
AcDbBlockBegin
2
*D34
70
1
10
0.0
20
0.0
30
0.0
3
*D34
1

0
LWPOLYLINE
5
200331
330
234
100
AcDbEntity
8
DIM
100
AcDbPolyline
90
4
70
0
10
9162.5
20
0.0
10
10700.0
20
0.0
10
10700.0
20
6370.0
10
9162.5
20
6370.0
0
LINE
5
200332
330
234
100
AcDbEntity
8
DIM
100
AcDbLine
10
10610.0
20
-90.0
30
0.0
11
10790.0
21
90.0
31
0.0
0
LINE
5
200333
330
234
100
AcDbEntity
8
DIM
100
AcDbLine
10
10610.0
20
6280.0
30
0.0
11
10790.0
21
6460.0
31
0.0
0
MTEXT
5
200334
330
234
100
AcDbEntity
8
DIM
100
AcDbMText
10
10510.0
20
3185.0
30
0.0
40
250.0
41
0.0
71
5
72
1
1
6370
7
STD
50
90.0
0
ENDBLK
5
474
330
234
100
AcDbEntity
8
DIM
100
AcDbBlockEnd
0
ENDSEC
0
SECTION
2
ENTITIES
0
LINE
5
100001
330
181
100
AcDbEntity
8
GRID
100
AcDbLine
10
0.0
20
-3200.0
30
0.0
11
0.0
21
8700.0
31
0.0
0
LINE
5
100002
330
181
100
AcDbEntity
8
GRID
100
AcDbLine
10
910.0
20
-3200.0
30
0.0
11
910.0
21
8700.0
31
0.0
0
LINE
5
100003
330
181
100
AcDbEntity
8
GRID
100
AcDbLine
10
1820.0
20
-3200.0
30
0.0
11
1820.0
21
8700.0
31
0.0
0
LINE
5
100004
330
181
100
AcDbEntity
8
GRID
100
AcDbLine
10
2730.0
20
-3200.0
30
0.0
11
2730.0
21
8700.0
31
0.0
0
LINE
5
100005
330
181
100
AcDbEntity
8
GRID
100
AcDbLine
10
3640.0
20
-3200.0
30
0.0
11
3640.0
21
8700.0
31
0.0
0
LINE
5
100006
330
181
100
AcDbEntity
8
GRID
100
AcDbLine
10
4550.0
20
-3200.0
30
0.0
11
4550.0
21
8700.0
31
0.0
0
LINE
5
100007
330
181
100
AcDbEntity
8
GRID
100
AcDbLine
10
5460.0
20
-3200.0
30
0.0
11
5460.0
21
8700.0
31
0.0
0
LINE
5
100008
330
181
100
AcDbEntity
8
GRID
100
AcDbLine
10
6370.0
20
-3200.0
30
0.0
11
6370.0
21
8700.0
31
0.0
0
LINE
5
100009
330
181
100
AcDbEntity
8
GRID
100
AcDbLine
10
7280.0
20
-3200.0
30
0.0
11
7280.0
21
8700.0
31
0.0
0
LINE
5
100010
330
181
100
AcDbEntity
8
GRID
100
AcDbLine
10
8190.0
20
-3200.0
30
0.0
11
8190.0
21
8700.0
31
0.0
0
LINE
5
100011
330
181
100
AcDbEntity
8
GRID
100
AcDbLine
10
9100.0
20
-3200.0
30
0.0
11
9100.0
21
8700.0
31
0.0
0
LINE
5
100012
330
181
100
AcDbEntity
8
GRID
100
AcDbLine
10
-2400.0
20
0.0
30
0.0
11
9500.0
21
0.0
31
0.0
0
LINE
5
100013
330
181
100
AcDbEntity
8
GRID
100
AcDbLine
10
-2400.0
20
910.0
30
0.0
11
9500.0
21
910.0
31
0.0
0
LINE
5
100014
330
181
100
AcDbEntity
8
GRID
100
AcDbLine
10
-2400.0
20
1820.0
30
0.0
11
9500.0
21
1820.0
31
0.0
0
LINE
5
100015
330
181
100
AcDbEntity
8
GRID
100
AcDbLine
10
-2400.0
20
2730.0
30
0.0
11
9500.0
21
2730.0
31
0.0
0
LINE
5
100016
330
181
100
AcDbEntity
8
GRID
100
AcDbLine
10
-2400.0
20
3640.0
30
0.0
11
9500.0
21
3640.0
31
0.0
0
LINE
5
100017
330
181
100
AcDbEntity
8
GRID
100
AcDbLine
10
-2400.0
20
4550.0
30
0.0
11
9500.0
21
4550.0
31
0.0
0
LINE
5
100018
330
181
100
AcDbEntity
8
GRID
100
AcDbLine
10
-2400.0
20
5460.0
30
0.0
11
9500.0
21
5460.0
31
0.0
0
LINE
5
100019
330
181
100
AcDbEntity
8
GRID
100
AcDbLine
10
-2400.0
20
6370.0
30
0.0
11
9500.0
21
6370.0
31
0.0
0
LINE
5
100020
330
181
100
AcDbEntity
8
GRID
100
AcDbLine
10
-2400.0
20
7280.0
30
0.0
11
9500.0
21
7280.0
31
0.0
0
LINE
5
100021
330
181
100
AcDbEntity
8
GRID
100
AcDbLine
10
-2400.0
20
8190.0
30
0.0
11
9500.0
21
8190.0
31
0.0
0
MTEXT
5
100022
330
181
100
AcDbEntity
8
GRID
100
AcDbMText
10
0.0
20
8950.0
30
0.0
40
300.0
41
0.0
71
5
72
1
1
X1
7
STD
0
MTEXT
5
100023
330
181
100
AcDbEntity
8
GRID
100
AcDbMText
10
910.0
20
8950.0
30
0.0
40
300.0
41
0.0
71
5
72
1
1
X2
7
STD
0
MTEXT
5
100024
330
181
100
AcDbEntity
8
GRID
100
AcDbMText
10
1820.0
20
8950.0
30
0.0
40
300.0
41
0.0
71
5
72
1
1
X3
7
STD
0
MTEXT
5
100025
330
181
100
AcDbEntity
8
GRID
100
AcDbMText
10
2730.0
20
8950.0
30
0.0
40
300.0
41
0.0
71
5
72
1
1
X4
7
STD
0
MTEXT
5
100026
330
181
100
AcDbEntity
8
GRID
100
AcDbMText
10
3640.0
20
8950.0
30
0.0
40
300.0
41
0.0
71
5
72
1
1
X5
7
STD
0
MTEXT
5
100027
330
181
100
AcDbEntity
8
GRID
100
AcDbMText
10
4550.0
20
8950.0
30
0.0
40
300.0
41
0.0
71
5
72
1
1
X6
7
STD
0
MTEXT
5
100028
330
181
100
AcDbEntity
8
GRID
100
AcDbMText
10
5460.0
20
8950.0
30
0.0
40
300.0
41
0.0
71
5
72
1
1
X7
7
STD
0
MTEXT
5
100029
330
181
100
AcDbEntity
8
GRID
100
AcDbMText
10
6370.0
20
8950.0
30
0.0
40
300.0
41
0.0
71
5
72
1
1
X8
7
STD
0
MTEXT
5
100030
330
181
100
AcDbEntity
8
GRID
100
AcDbMText
10
7280.0
20
8950.0
30
0.0
40
300.0
41
0.0
71
5
72
1
1
X9
7
STD
0
MTEXT
5
100031
330
181
100
AcDbEntity
8
GRID
100
AcDbMText
10
8190.0
20
8950.0
30
0.0
40
300.0
41
0.0
71
5
72
1
1
X10
7
STD
0
MTEXT
5
100032
330
181
100
AcDbEntity
8
GRID
100
AcDbMText
10
9100.0
20
8950.0
30
0.0
40
300.0
41
0.0
71
5
72
1
1
X11
7
STD
0
MTEXT
5
100033
330
181
100
AcDbEntity
8
GRID
100
AcDbMText
10
-2650.0
20
0.0
30
0.0
40
300.0
41
0.0
71
5
72
1
1
Y1
7
STD
0
MTEXT
5
100034
330
181
100
AcDbEntity
8
GRID
100
AcDbMText
10
-2650.0
20
910.0
30
0.0
40
300.0
41
0.0
71
5
72
1
1
Y2
7
STD
0
MTEXT
5
100035
330
181
100
AcDbEntity
8
GRID
100
AcDbMText
10
-2650.0
20
1820.0
30
0.0
40
300.0
41
0.0
71
5
72
1
1
Y3
7
STD
0
MTEXT
5
100036
330
181
100
AcDbEntity
8
GRID
100
AcDbMText
10
-2650.0
20
2730.0
30
0.0
40
300.0
41
0.0
71
5
72
1
1
Y4
7
STD
0
MTEXT
5
100037
330
181
100
AcDbEntity
8
GRID
100
AcDbMText
10
-2650.0
20
3640.0
30
0.0
40
300.0
41
0.0
71
5
72
1
1
Y5
7
STD
0
MTEXT
5
100038
330
181
100
AcDbEntity
8
GRID
100
AcDbMText
10
-2650.0
20
4550.0
30
0.0
40
300.0
41
0.0
71
5
72
1
1
Y6
7
STD
0
MTEXT
5
100039
330
181
100
AcDbEntity
8
GRID
100
AcDbMText
10
-2650.0
20
5460.0
30
0.0
40
300.0
41
0.0
71
5
72
1
1
Y7
7
STD
0
MTEXT
5
100040
330
181
100
AcDbEntity
8
GRID
100
AcDbMText
10
-2650.0
20
6370.0
30
0.0
40
300.0
41
0.0
71
5
72
1
1
Y8
7
STD
0
MTEXT
5
100041
330
181
100
AcDbEntity
8
GRID
100
AcDbMText
10
-2650.0
20
7280.0
30
0.0
40
300.0
41
0.0
71
5
72
1
1
Y9
7
STD
0
MTEXT
5
100042
330
181
100
AcDbEntity
8
GRID
100
AcDbMText
10
-2650.0
20
8190.0
30
0.0
40
300.0
41
0.0
71
5
72
1
1
Y10
7
STD
0
LINE
5
100101
330
181
100
AcDbEntity
8
WALL
100
AcDbLine
10
-60.0
20
-60.0
30
0.0
11
455.0
21
-60.0
31
0.0
0
LINE
5
100102
330
181
100
AcDbEntity
8
WALL
100
AcDbLine
10
1365.0
20
-60.0
30
0.0
11
5915.0
21
-60.0
31
0.0
0
LINE
5
100103
330
181
100
AcDbEntity
8
WALL
100
AcDbLine
10
8645.0
20
-60.0
30
0.0
11
9160.0
21
-60.0
31
0.0
0
LINE
5
100104
330
181
100
AcDbEntity
8
WALL
100
AcDbLine
10
60.0
20
60.0
30
0.0
11
455.0
21
60.0
31
0.0
0
LINE
5
100105
330
181
100
AcDbEntity
8
WALL
100
AcDbLine
10
1365.0
20
60.0
30
0.0
11
1760.0
21
60.0
31
0.0
0
LINE
5
100106
330
181
100
AcDbEntity
8
WALL
100
AcDbLine
10
1880.0
20
60.0
30
0.0
11
3580.0
21
60.0
31
0.0
0
LINE
5
100107
330
181
100
AcDbEntity
8
WALL
100
AcDbLine
10
3700.0
20
60.0
30
0.0
11
5400.0
21
60.0
31
0.0
0
LINE
5
100108
330
181
100
AcDbEntity
8
WALL
100
AcDbLine
10
5520.0
20
60.0
30
0.0
11
5915.0
21
60.0
31
0.0
0
LINE
5
100109
330
181
100
AcDbEntity
8
WALL
100
AcDbLine
10
8645.0
20
60.0
30
0.0
11
9040.0
21
60.0
31
0.0
0
LINE
5
100110
330
181
100
AcDbEntity
8
WALL
100
AcDbLine
10
455.0
20
-60.0
30
0.0
11
455.0
21
60.0
31
0.0
0
LINE
5
100111
330
181
100
AcDbEntity
8
WALL
100
AcDbLine
10
1365.0
20
-60.0
30
0.0
11
1365.0
21
60.0
31
0.0
0
LINE
5
100112
330
181
100
AcDbEntity
8
WALL
100
AcDbLine
10
5915.0
20
-60.0
30
0.0
11
5915.0
21
60.0
31
0.0
0
LINE
5
100113
330
181
100
AcDbEntity
8
WALL
100
AcDbLine
10
8645.0
20
-60.0
30
0.0
11
8645.0
21
60.0
31
0.0
0
LINE
5
100114
330
181
100
AcDbEntity
8
WALL
100
AcDbLine
10
9160.0
20
-60.0
30
0.0
11
9160.0
21
1365.0
31
0.0
0
LINE
5
100115
330
181
100
AcDbEntity
8
WALL
100
AcDbLine
10
9160.0
20
3185.0
30
0.0
11
9160.0
21
6394.852813742385
31
0.0
0
LINE
5
100116
330
181
100
AcDbEntity
8
WALL
100
AcDbLine
10
9040.0
20
60.0
30
0.0
11
9040.0
21
1365.0
31
0.0
0
LINE
5
100117
330
181
100
AcDbEntity
8
WALL
100
AcDbLine
10
9040.0
20
3185.0
30
0.0
11
9040.0
21
4490.0
31
0.0
0
LINE
5
100118
330
181
100
AcDbEntity
8
WALL
100
AcDbLine
10
9040.0
20
4610.0
30
0.0
11
9040.0
21
6345.147186257615
31
0.0
0
LINE
5
100119
330
181
100
AcDbEntity
8
WALL
100
AcDbLine
10
9040.0
20
1365.0
30
0.0
11
9160.0
21
1365.0
31
0.0
0
LINE
5
100120
330
181
100
AcDbEntity
8
WALL
100
AcDbLine
10
9040.0
20
3185.0
30
0.0
11
9160.0
21
3185.0
31
0.0
0
LINE
5
100121
330
181
100
AcDbEntity
8
WALL
100
AcDbLine
10
9160.0
20
6394.852813742385
30
0.0
11
8656.690475583122
21
6898.162338159264
31
0.0
0
LINE
5
100122
330
181
100
AcDbEntity
8
WALL
100
AcDbLine
10
7808.162338159264
20
7746.690475583122
30
0.0
11
7304.852813742385
21
8250.0
31
0.0
0
LINE
5
100123
330
181
100
AcDbEntity
8
WALL
100
AcDbLine
10
9040.0
20
6345.147186257615
30
0.0
11
8571.837661840736
21
6813.309524416878
31
0.0
0
LINE
5
100124
330
181
100
AcDbEntity
8
WALL
100
AcDbLine
10
7723.309524416878
20
7661.837661840736
30
0.0
11
7255.147186257615
21
8130.0
31
0.0
0
LINE
5
100125
330
181
100
AcDbEntity
8
WALL
100
AcDbLine
10
8656.690475583122
20
6898.162338159264
30
0.0
11
8571.837661840736
21
6813.309524416878
31
0.0
0
LINE
5
100126
330
181
100
AcDbEntity
8
WALL
100
AcDbLine
10
7808.162338159264
20
7746.690475583122
30
0.0
11
7723.309524416878
21
7661.837661840736
31
0.0
0
LINE
5
100127
330
181
100
AcDbEntity
8
WALL
100
AcDbLine
10
-60.0
20
8250.0
30
0.0
11
1820.0
21
8250.0
31
0.0
0
LINE
5
100128
330
181
100
AcDbEntity
8
WALL
100
AcDbLine
10
5460.0
20
8250.0
30
0.0
11
7304.852813742385
21
8250.0
31
0.0
0
LINE
5
100129
330
181
100
AcDbEntity
8
WALL
100
AcDbLine
10
60.0
20
8130.0
30
0.0
11
1820.0
21
8130.0
31
0.0
0
LINE
5
100130
330
181
100
AcDbEntity
8
WALL
100
AcDbLine
10
5460.0
20
8130.0
30
0.0
11
7255.147186257615
21
8130.0
31
0.0
0
LINE
5
100131
330
181
100
AcDbEntity
8
WALL
100
AcDbLine
10
1820.0
20
8130.0
30
0.0
11
1820.0
21
8250.0
31
0.0
0
LINE
5
100132
330
181
100
AcDbEntity
8
WALL
100
AcDbLine
10
5460.0
20
8130.0
30
0.0
11
5460.0
21
8250.0
31
0.0
0
LINE
5
100133
330
181
100
AcDbEntity
8
WALL
100
AcDbLine
10
-60.0
20
-60.0
30
0.0
11
-60.0
21
8250.0
31
0.0
0
LINE
5
100134
330
181
100
AcDbEntity
8
WALL
100
AcDbLine
10
60.0
20
60.0
30
0.0
11
60.0
21
1760.0
31
0.0
0
LINE
5
100135
330
181
100
AcDbEntity
8
WALL
100
AcDbLine
10
60.0
20
1880.0
30
0.0
11
60.0
21
2215.0
31
0.0
0
LINE
5
100136
330
181
100
AcDbEntity
8
WALL
100
AcDbLine
10
60.0
20
2335.0
30
0.0
11
60.0
21
4490.0
31
0.0
0
LINE
5
100137
330
181
100
AcDbEntity
8
WALL
100
AcDbLine
10
60.0
20
4610.0
30
0.0
11
60.0
21
8130.0
31
0.0
0
LINE
5
100138
330
181
100
AcDbEntity
8
WALL
100
AcDbLine
10
1760.0
20
60.0
30
0.0
11
1760.0
21
455.0
31
0.0
0
LINE
5
100139
330
181
100
AcDbEntity
8
WALL
100
AcDbLine
10
1760.0
20
1365.0
30
0.0
11
1760.0
21
1760.0
31
0.0
0
LINE
5
100140
330
181
100
AcDbEntity
8
WALL
100
AcDbLine
10
1760.0
20
1880.0
30
0.0
11
1760.0
21
2215.0
31
0.0
0
LINE
5
100141
330
181
100
AcDbEntity
8
WALL
100
AcDbLine
10
1760.0
20
2335.0
30
0.0
11
1760.0
21
4490.0
31
0.0
0
LINE
5
100142
330
181
100
AcDbEntity
8
WALL
100
AcDbLine
10
1880.0
20
60.0
30
0.0
11
1880.0
21
455.0
31
0.0
0
LINE
5
100143
330
181
100
AcDbEntity
8
WALL
100
AcDbLine
10
1880.0
20
1365.0
30
0.0
11
1880.0
21
1760.0
31
0.0
0
LINE
5
100144
330
181
100
AcDbEntity
8
WALL
100
AcDbLine
10
1880.0
20
1880.0
30
0.0
11
1880.0
21
2670.0
31
0.0
0
LINE
5
100145
330
181
100
AcDbEntity
8
WALL
100
AcDbLine
10
1880.0
20
2790.0
30
0.0
11
1880.0
21
4490.0
31
0.0
0
LINE
5
100146
330
181
100
AcDbEntity
8
WALL
100
AcDbLine
10
1760.0
20
455.0
30
0.0
11
1880.0
21
455.0
31
0.0
0
LINE
5
100147
330
181
100
AcDbEntity
8
WALL
100
AcDbLine
10
1760.0
20
1365.0
30
0.0
11
1880.0
21
1365.0
31
0.0
0
LINE
5
100148
330
181
100
AcDbEntity
8
WALL
100
AcDbLine
10
3580.0
20
60.0
30
0.0
11
3580.0
21
1760.0
31
0.0
0
LINE
5
100149
330
181
100
AcDbEntity
8
WALL
100
AcDbLine
10
3580.0
20
1880.0
30
0.0
11
3580.0
21
2670.0
31
0.0
0
LINE
5
100150
330
181
100
AcDbEntity
8
WALL
100
AcDbLine
10
3580.0
20
2790.0
30
0.0
11
3580.0
21
4490.0
31
0.0
0
LINE
5
100151
330
181
100
AcDbEntity
8
WALL
100
AcDbLine
10
3700.0
20
60.0
30
0.0
11
3700.0
21
1760.0
31
0.0
0
LINE
5
100152
330
181
100
AcDbEntity
8
WALL
100
AcDbLine
10
3700.0
20
1880.0
30
0.0
11
3700.0
21
4490.0
31
0.0
0
LINE
5
100153
330
181
100
AcDbEntity
8
WALL
100
AcDbLine
10
5400.0
20
60.0
30
0.0
11
5400.0
21
1760.0
31
0.0
0
LINE
5
100154
330
181
100
AcDbEntity
8
WALL
100
AcDbLine
10
5400.0
20
1880.0
30
0.0
11
5400.0
21
4490.0
31
0.0
0
LINE
5
100155
330
181
100
AcDbEntity
8
WALL
100
AcDbLine
10
5520.0
20
60.0
30
0.0
11
5520.0
21
4490.0
31
0.0
0
LINE
5
100156
330
181
100
AcDbEntity
8
WALL
100
AcDbLine
10
60.0
20
1760.0
30
0.0
11
1760.0
21
1760.0
31
0.0
0
LINE
5
100157
330
181
100
AcDbEntity
8
WALL
100
AcDbLine
10
1880.0
20
1760.0
30
0.0
11
3580.0
21
1760.0
31
0.0
0
LINE
5
100158
330
181
100
AcDbEntity
8
WALL
100
AcDbLine
10
3700.0
20
1760.0
30
0.0
11
5400.0
21
1760.0
31
0.0
0
LINE
5
100159
330
181
100
AcDbEntity
8
WALL
100
AcDbLine
10
60.0
20
1880.0
30
0.0
11
1760.0
21
1880.0
31
0.0
0
LINE
5
100160
330
181
100
AcDbEntity
8
WALL
100
AcDbLine
10
1880.0
20
1880.0
30
0.0
11
3580.0
21
1880.0
31
0.0
0
LINE
5
100161
330
181
100
AcDbEntity
8
WALL
100
AcDbLine
10
3700.0
20
1880.0
30
0.0
11
5400.0
21
1880.0
31
0.0
0
LINE
5
100162
330
181
100
AcDbEntity
8
WALL
100
AcDbLine
10
60.0
20
2215.0
30
0.0
11
1760.0
21
2215.0
31
0.0
0
LINE
5
100163
330
181
100
AcDbEntity
8
WALL
100
AcDbLine
10
60.0
20
2335.0
30
0.0
11
1760.0
21
2335.0
31
0.0
0
LINE
5
100164
330
181
100
AcDbEntity
8
WALL
100
AcDbLine
10
1880.0
20
2670.0
30
0.0
11
3580.0
21
2670.0
31
0.0
0
LINE
5
100165
330
181
100
AcDbEntity
8
WALL
100
AcDbLine
10
1880.0
20
2790.0
30
0.0
11
3580.0
21
2790.0
31
0.0
0
LINE
5
100166
330
181
100
AcDbEntity
8
WALL
100
AcDbLine
10
60.0
20
4490.0
30
0.0
11
455.0
21
4490.0
31
0.0
0
LINE
5
100167
330
181
100
AcDbEntity
8
WALL
100
AcDbLine
10
1365.0
20
4490.0
30
0.0
11
1760.0
21
4490.0
31
0.0
0
LINE
5
100168
330
181
100
AcDbEntity
8
WALL
100
AcDbLine
10
1880.0
20
4490.0
30
0.0
11
3580.0
21
4490.0
31
0.0
0
LINE
5
100169
330
181
100
AcDbEntity
8
WALL
100
AcDbLine
10
3700.0
20
4490.0
30
0.0
11
5400.0
21
4490.0
31
0.0
0
LINE
5
100170
330
181
100
AcDbEntity
8
WALL
100
AcDbLine
10
5520.0
20
4490.0
30
0.0
11
6825.0
21
4490.0
31
0.0
0
LINE
5
100171
330
181
100
AcDbEntity
8
WALL
100
AcDbLine
10
7735.0
20
4490.0
30
0.0
11
9040.0
21
4490.0
31
0.0
0
LINE
5
100172
330
181
100
AcDbEntity
8
WALL
100
AcDbLine
10
60.0
20
4610.0
30
0.0
11
455.0
21
4610.0
31
0.0
0
LINE
5
100173
330
181
100
AcDbEntity
8
WALL
100
AcDbLine
10
1365.0
20
4610.0
30
0.0
11
6825.0
21
4610.0
31
0.0
0
LINE
5
100174
330
181
100
AcDbEntity
8
WALL
100
AcDbLine
10
7735.0
20
4610.0
30
0.0
11
9040.0
21
4610.0
31
0.0
0
LINE
5
100175
330
181
100
AcDbEntity
8
WALL
100
AcDbLine
10
455.0
20
4490.0
30
0.0
11
455.0
21
4610.0
31
0.0
0
LINE
5
100176
330
181
100
AcDbEntity
8
WALL
100
AcDbLine
10
1365.0
20
4490.0
30
0.0
11
1365.0
21
4610.0
31
0.0
0
LINE
5
100177
330
181
100
AcDbEntity
8
WALL
100
AcDbLine
10
6825.0
20
4490.0
30
0.0
11
6825.0
21
4610.0
31
0.0
0
LINE
5
100178
330
181
100
AcDbEntity
8
WALL
100
AcDbLine
10
7735.0
20
4490.0
30
0.0
11
7735.0
21
4610.0
31
0.0
0
LINE
5
100301
330
181
100
AcDbEntity
8
OPENING
100
AcDbLine
10
455.0
20
60.0
30
0.0
11
455.0
21
970.0
31
0.0
0
ARC
5
100302
330
181
100
AcDbEntity
8
OPENING
100
AcDbCircle
10
455.0
20
60.0
30
0.0
40
910.0
100
AcDbArc
50
0.0
51
90.0
0
LINE
5
100303
330
181
100
AcDbEntity
8
OPENING
100
AcDbLine
10
1880.0
20
455.0
30
0.0
11
2790.0
21
455.0
31
0.0
0
ARC
5
100304
330
181
100
AcDbEntity
8
OPENING
100
AcDbCircle
10
1880.0
20
455.0
30
0.0
40
910.0
100
AcDbArc
50
0.0
51
90.0
0
LINE
5
100305
330
181
100
AcDbEntity
8
OPENING
100
AcDbLine
10
455.0
20
4490.0
30
0.0
11
455.0
21
3580.0
31
0.0
0
ARC
5
100306
330
181
100
AcDbEntity
8
OPENING
100
AcDbCircle
10
455.0
20
4490.0
30
0.0
40
910.0
100
AcDbArc
50
270.0
51
360.0
0
LINE
5
100307
330
181
100
AcDbEntity
8
OPENING
100
AcDbLine
10
7735.0
20
4490.0
30
0.0
11
7735.0
21
3580.0
31
0.0
0
ARC
5
100308
330
181
100
AcDbEntity
8
OPENING
100
AcDbCircle
10
7735.0
20
4490.0
30
0.0
40
910.0
100
AcDbArc
50
180.0
51
270.0
0
LINE
5
100309
330
181
100
AcDbEntity
8
OPENING
100
AcDbLine
10
5915.0
20
-20.0
30
0.0
11
8645.0
21
-20.0
31
0.0
0
LINE
5
100310
330
181
100
AcDbEntity
8
OPENING
100
AcDbLine
10
5915.0
20
20.0
30
0.0
11
8645.0
21
20.0
31
0.0
0
LINE
5
100311
330
181
100
AcDbEntity
8
OPENING
100
AcDbLine
10
9080.0
20
1365.0
30
0.0
11
9080.0
21
3185.0
31
0.0
0
LINE
5
100312
330
181
100
AcDbEntity
8
OPENING
100
AcDbLine
10
9120.0
20
1365.0
30
0.0
11
9120.0
21
3185.0
31
0.0
0
LINE
5
100313
330
181
100
AcDbEntity
8
OPENING
100
AcDbLine
10
8628.40620433566
20
6869.878066911802
30
0.0
11
7779.878066911802
21
7718.40620433566
31
0.0
0
LINE
5
100314
330
181
100
AcDbEntity
8
OPENING
100
AcDbLine
10
8600.121933088198
20
6841.59379566434
30
0.0
11
7751.59379566434
21
7690.121933088198
31
0.0
0
LINE
5
100315
330
181
100
AcDbEntity
8
OPENING
100
AcDbLine
10
1820.0
20
8170.0
30
0.0
11
5460.0
21
8170.0
31
0.0
0
LINE
5
100316
330
181
100
AcDbEntity
8
OPENING
100
AcDbLine
10
1820.0
20
8210.0
30
0.0
11
5460.0
21
8210.0
31
0.0
0
MTEXT
5
100317
330
181
100
AcDbEntity
8
OPENING
100
AcDbMText
10
1450.0
20
300.0
30
0.0
40
250.0
41
0.0
71
5
72
1
1
D1
7
STD
0
MTEXT
5
100318
330
181
100
AcDbEntity
8
OPENING
100
AcDbMText
10
2400.0
20
1550.0
30
0.0
40
250.0
41
0.0
71
5
72
1
1
D2
7
STD
0
MTEXT
5
100319
330
181
100
AcDbEntity
8
OPENING
100
AcDbMText
10
1550.0
20
4300.0
30
0.0
40
250.0
41
0.0
71
5
72
1
1
D3
7
STD
0
MTEXT
5
100320
330
181
100
AcDbEntity
8
OPENING
100
AcDbMText
10
6400.0
20
4250.0
30
0.0
40
250.0
41
0.0
71
5
72
1
1
D4
7
STD
0
MTEXT
5
100321
330
181
100
AcDbEntity
8
OPENING
100
AcDbMText
10
7280.0
20
250.0
30
0.0
40
250.0
41
0.0
71
5
72
1
1
W1
7
STD
0
MTEXT
5
100322
330
181
100
AcDbEntity
8
OPENING
100
AcDbMText
10
8800.0
20
2275.0
30
0.0
40
250.0
41
0.0
71
5
72
1
1
W2
7
STD
0
MTEXT
5
100323
330
181
100
AcDbEntity
8
OPENING
100
AcDbMText
10
7942.5
20
7032.5
30
0.0
40
250.0
41
0.0
71
5
72
1
1
W3
7
STD
0
MTEXT
5
100324
330
181
100
AcDbEntity
8
OPENING
100
AcDbMText
10
3640.0
20
7900.0
30
0.0
40
250.0
41
0.0
71
5
72
1
1
W4
7
STD
0
LINE
5
100401
330
181
100
AcDbEntity
8
STAIR
100
AcDbLine
10
4600.0
20
280.0
30
0.0
11
5400.0
21
280.0
31
0.0
0
LINE
5
100402
330
181
100
AcDbEntity
8
STAIR
100
AcDbLine
10
4600.0
20
500.0
30
0.0
11
5400.0
21
500.0
31
0.0
0
LINE
5
100403
330
181
100
AcDbEntity
8
STAIR
100
AcDbLine
10
4600.0
20
720.0
30
0.0
11
5400.0
21
720.0
31
0.0
0
LINE
5
100404
330
181
100
AcDbEntity
8
STAIR
100
AcDbLine
10
4600.0
20
940.0
30
0.0
11
5400.0
21
940.0
31
0.0
0
LINE
5
100405
330
181
100
AcDbEntity
8
STAIR
100
AcDbLine
10
4550.0
20
960.0
30
0.0
11
5197.213595499958
21
1430.2282018339785
31
0.0
0
LINE
5
100406
330
181
100
AcDbEntity
8
STAIR
100
AcDbLine
10
4550.0
20
960.0
30
0.0
11
4797.213595499958
21
1720.8452130361228
31
0.0
0
LINE
5
100407
330
181
100
AcDbEntity
8
STAIR
100
AcDbLine
10
4550.0
20
960.0
30
0.0
11
4302.786404500042
21
1720.8452130361228
31
0.0
0
LINE
5
100408
330
181
100
AcDbEntity
8
STAIR
100
AcDbLine
10
4550.0
20
960.0
30
0.0
11
3902.786404500042
21
1430.2282018339785
31
0.0
0
LINE
5
100409
330
181
100
AcDbEntity
8
STAIR
100
AcDbLine
10
3700.0
20
740.0
30
0.0
11
4500.0
21
740.0
31
0.0
0
LINE
5
100410
330
181
100
AcDbEntity
8
STAIR
100
AcDbLine
10
3700.0
20
520.0
30
0.0
11
4500.0
21
520.0
31
0.0
0
LINE
5
100411
330
181
100
AcDbEntity
8
STAIR
100
AcDbLine
10
3700.0
20
300.0
30
0.0
11
4500.0
21
300.0
31
0.0
0
LINE
5
100412
330
181
100
AcDbEntity
8
STAIR
100
AcDbLine
10
3700.0
20
80.0
30
0.0
11
4500.0
21
80.0
31
0.0
0
MTEXT
5
100501
330
181
100
AcDbEntity
8
ROOM
100
AcDbMText
10
910.0
20
1010.0
30
0.0
40
300.0
41
0.0
71
5
72
1
1
玄関
7
STD
0
MTEXT
5
100502
330
181
100
AcDbEntity
8
ROOM
100
AcDbMText
10
910.0
20
660.0
30
0.0
40
250.0
41
0.0
71
5
72
1
1
3.31 m²
7
STD
0
MTEXT
5
100503
330
181
100
AcDbEntity
8
ROOM
100
AcDbMText
10
910.0
20
2130.0
30
0.0
40
150.0
41
0.0
71
5
72
1
1
収納
7
STD
0
MTEXT
5
100504
330
181
100
AcDbEntity
8
ROOM
100
AcDbMText
10
910.0
20
1955.0
30
0.0
40
140.0
41
0.0
71
5
72
1
1
0.83 m²
7
STD
0
MTEXT
5
100505
330
181
100
AcDbEntity
8
ROOM
100
AcDbMText
10
910.0
20
3550.0
30
0.0
40
250.0
41
0.0
71
5
72
1
1
洗面脱衣
7
STD
0
MTEXT
5
100506
330
181
100
AcDbEntity
8
ROOM
100
AcDbMText
10
910.0
20
3250.0
30
0.0
40
220.0
41
0.0
71
5
72
1
1
4.14 m²
7
STD
0
MTEXT
5
100507
330
181
100
AcDbEntity
8
ROOM
100
AcDbMText
10
2730.0
20
1010.0
30
0.0
40
300.0
41
0.0
71
5
72
1
1
ホール
7
STD
0
MTEXT
5
100508
330
181
100
AcDbEntity
8
ROOM
100
AcDbMText
10
2730.0
20
660.0
30
0.0
40
250.0
41
0.0
71
5
72
1
1
3.31 m²
7
STD
0
MTEXT
5
100509
330
181
100
AcDbEntity
8
ROOM
100
AcDbMText
10
2730.0
20
2380.0
30
0.0
40
220.0
41
0.0
71
5
72
1
1
便所
7
STD
0
MTEXT
5
100510
330
181
100
AcDbEntity
8
ROOM
100
AcDbMText
10
2730.0
20
2110.0
30
0.0
40
190.0
41
0.0
71
5
72
1
1
1.66 m²
7
STD
0
MTEXT
5
100511
330
181
100
AcDbEntity
8
ROOM
100
AcDbMText
10
2730.0
20
3760.0
30
0.0
40
300.0
41
0.0
71
5
72
1
1
浴室
7
STD
0
MTEXT
5
100512
330
181
100
AcDbEntity
8
ROOM
100
AcDbMText
10
2730.0
20
3450.0
30
0.0
40
250.0
41
0.0
71
5
72
1
1
3.31 m²
7
STD
0
MTEXT
5
100513
330
181
100
AcDbEntity
8
ROOM
100
AcDbMText
10
4550.0
20
1500.0
30
0.0
40
250.0
41
0.0
71
5
72
1
1
階段
7
STD
0
MTEXT
5
100514
330
181
100
AcDbEntity
8
ROOM
100
AcDbMText
10
4550.0
20
1250.0
30
0.0
40
200.0
41
0.0
71
5
72
1
1
3.31 m²
7
STD
0
MTEXT
5
100515
330
181
100
AcDbEntity
8
ROOM
100
AcDbMText
10
4550.0
20
3300.0
30
0.0
40
300.0
41
0.0
71
5
72
1
1
納戸
7
STD
0
MTEXT
5
100516
330
181
100
AcDbEntity
8
ROOM
100
AcDbMText
10
4550.0
20
3000.0
30
0.0
40
250.0
41
0.0
71
5
72
1
1
4.97 m²
7
STD
0
MTEXT
5
100517
330
181
100
AcDbEntity
8
ROOM
100
AcDbMText
10
7280.0
20
2420.0
30
0.0
40
400.0
41
0.0
71
5
72
1
1
和室
7
STD
0
MTEXT
5
100518
330
181
100
AcDbEntity
8
ROOM
100
AcDbMText
10
7280.0
20
2050.0
30
0.0
40
280.0
41
0.0
71
5
72
1
1
16.56 m²
7
STD
0
MTEXT
5
100519
330
181
100
AcDbEntity
8
ROOM
100
AcDbMText
10
4400.0
20
6420.0
30
0.0
40
400.0
41
0.0
71
5
72
1
1
LDK
7
STD
0
MTEXT
5
100520
330
181
100
AcDbEntity
8
ROOM
100
AcDbMText
10
4400.0
20
6050.0
30
0.0
40
280.0
41
0.0
71
5
72
1
1
31.47 m²
7
STD
0
MTEXT
5
100601
330
181
100
AcDbEntity
8
TEXT
100
AcDbMText
10
4550.0
20
-3600.0
30
0.0
40
400.0
41
0.0
71
5
72
1
1
1階床面積 合計 72.87 m²
7
STD
0
DIMENSION
5
100701
330
181
100
AcDbEntity
8
DIM
100
AcDbDimension
2
*D1
10
455.0
20
-600.0
30
0.0
11
227.5
21
-410.0
31
0.0
70
32
1
455
3
STD100
42
455.0
100
AcDbAlignedDimension
13
0.0
23
0.0
33
0.0
14
455.0
24
0.0
34
0.0
50
0.0
100
AcDbRotatedDimension
0
DIMENSION
5
100702
330
181
100
AcDbEntity
8
DIM
100
AcDbDimension
2
*D2
10
1365.0
20
-600.0
30
0.0
11
910.0
21
-410.0
31
0.0
70
32
1
910
3
STD100
42
910.0
100
AcDbAlignedDimension
13
455.0
23
0.0
33
0.0
14
1365.0
24
0.0
34
0.0
50
0.0
100
AcDbRotatedDimension
0
DIMENSION
5
100703
330
181
100
AcDbEntity
8
DIM
100
AcDbDimension
2
*D3
10
5915.0
20
-600.0
30
0.0
11
3640.0
21
-410.0
31
0.0
70
32
1
4550
3
STD100
42
4550.0
100
AcDbAlignedDimension
13
1365.0
23
0.0
33
0.0
14
5915.0
24
0.0
34
0.0
50
0.0
100
AcDbRotatedDimension
0
DIMENSION
5
100704
330
181
100
AcDbEntity
8
DIM
100
AcDbDimension
2
*D4
10
8645.0
20
-600.0
30
0.0
11
7280.0
21
-410.0
31
0.0
70
32
1
2730
3
STD100
42
2730.0
100
AcDbAlignedDimension
13
5915.0
23
0.0
33
0.0
14
8645.0
24
0.0
34
0.0
50
0.0
100
AcDbRotatedDimension
0
DIMENSION
5
100705
330
181
100
AcDbEntity
8
DIM
100
AcDbDimension
2
*D5
10
9100.0
20
-600.0
30
0.0
11
8872.5
21
-410.0
31
0.0
70
32
1
455
3
STD100
42
455.0
100
AcDbAlignedDimension
13
8645.0
23
0.0
33
0.0
14
9100.0
24
0.0
34
0.0
50
0.0
100
AcDbRotatedDimension
0
DIMENSION
5
100706
330
181
100
AcDbEntity
8
DIM
100
AcDbDimension
2
*D6
10
910.0
20
-1600.0
30
0.0
11
455.0
21
-1410.0
31
0.0
70
32
1
910
3
STD100
42
910.0
100
AcDbAlignedDimension
13
0.0
23
0.0
33
0.0
14
910.0
24
0.0
34
0.0
50
0.0
100
AcDbRotatedDimension
0
DIMENSION
5
100707
330
181
100
AcDbEntity
8
DIM
100
AcDbDimension
2
*D7
10
1820.0
20
-1600.0
30
0.0
11
1365.0
21
-1410.0
31
0.0
70
32
1
910
3
STD100
42
910.0
100
AcDbAlignedDimension
13
910.0
23
0.0
33
0.0
14
1820.0
24
0.0
34
0.0
50
0.0
100
AcDbRotatedDimension
0
DIMENSION
5
100708
330
181
100
AcDbEntity
8
DIM
100
AcDbDimension
2
*D8
10
2730.0
20
-1600.0
30
0.0
11
2275.0
21
-1410.0
31
0.0
70
32
1
910
3
STD100
42
910.0
100
AcDbAlignedDimension
13
1820.0
23
0.0
33
0.0
14
2730.0
24
0.0
34
0.0
50
0.0
100
AcDbRotatedDimension
0
DIMENSION
5
100709
330
181
100
AcDbEntity
8
DIM
100
AcDbDimension
2
*D9
10
3640.0
20
-1600.0
30
0.0
11
3185.0
21
-1410.0
31
0.0
70
32
1
910
3
STD100
42
910.0
100
AcDbAlignedDimension
13
2730.0
23
0.0
33
0.0
14
3640.0
24
0.0
34
0.0
50
0.0
100
AcDbRotatedDimension
0
DIMENSION
5
100710
330
181
100
AcDbEntity
8
DIM
100
AcDbDimension
2
*D10
10
4550.0
20
-1600.0
30
0.0
11
4095.0
21
-1410.0
31
0.0
70
32
1
910
3
STD100
42
910.0
100
AcDbAlignedDimension
13
3640.0
23
0.0
33
0.0
14
4550.0
24
0.0
34
0.0
50
0.0
100
AcDbRotatedDimension
0
DIMENSION
5
100711
330
181
100
AcDbEntity
8
DIM
100
AcDbDimension
2
*D11
10
5460.0
20
-1600.0
30
0.0
11
5005.0
21
-1410.0
31
0.0
70
32
1
910
3
STD100
42
910.0
100
AcDbAlignedDimension
13
4550.0
23
0.0
33
0.0
14
5460.0
24
0.0
34
0.0
50
0.0
100
AcDbRotatedDimension
0
DIMENSION
5
100712
330
181
100
AcDbEntity
8
DIM
100
AcDbDimension
2
*D12
10
6370.0
20
-1600.0
30
0.0
11
5915.0
21
-1410.0
31
0.0
70
32
1
910
3
STD100
42
910.0
100
AcDbAlignedDimension
13
5460.0
23
0.0
33
0.0
14
6370.0
24
0.0
34
0.0
50
0.0
100
AcDbRotatedDimension
0
DIMENSION
5
100713
330
181
100
AcDbEntity
8
DIM
100
AcDbDimension
2
*D13
10
7280.0
20
-1600.0
30
0.0
11
6825.0
21
-1410.0
31
0.0
70
32
1
910
3
STD100
42
910.0
100
AcDbAlignedDimension
13
6370.0
23
0.0
33
0.0
14
7280.0
24
0.0
34
0.0
50
0.0
100
AcDbRotatedDimension
0
DIMENSION
5
100714
330
181
100
AcDbEntity
8
DIM
100
AcDbDimension
2
*D14
10
8190.0
20
-1600.0
30
0.0
11
7735.0
21
-1410.0
31
0.0
70
32
1
910
3
STD100
42
910.0
100
AcDbAlignedDimension
13
7280.0
23
0.0
33
0.0
14
8190.0
24
0.0
34
0.0
50
0.0
100
AcDbRotatedDimension
0
DIMENSION
5
100715
330
181
100
AcDbEntity
8
DIM
100
AcDbDimension
2
*D15
10
9100.0
20
-1600.0
30
0.0
11
8645.0
21
-1410.0
31
0.0
70
32
1
910
3
STD100
42
910.0
100
AcDbAlignedDimension
13
8190.0
23
0.0
33
0.0
14
9100.0
24
0.0
34
0.0
50
0.0
100
AcDbRotatedDimension
0
DIMENSION
5
100716
330
181
100
AcDbEntity
8
DIM
100
AcDbDimension
2
*D16
10
9100.0
20
-2600.0
30
0.0
11
4550.0
21
-2410.0
31
0.0
70
32
1
9100
3
STD100
42
9100.0
100
AcDbAlignedDimension
13
0.0
23
0.0
33
0.0
14
9100.0
24
0.0
34
0.0
50
0.0
100
AcDbRotatedDimension
0
DIMENSION
5
100717
330
181
100
AcDbEntity
8
DIM
100
AcDbDimension
2
*D17
10
-600.0
20
910.0
30
0.0
11
-790.0
21
455.0
31
0.0
70
32
1
910
3
STD100
42
910.0
100
AcDbAlignedDimension
13
0.0
23
0.0
33
0.0
14
0.0
24
910.0
34
0.0
50
90.0
100
AcDbRotatedDimension
0
DIMENSION
5
100718
330
181
100
AcDbEntity
8
DIM
100
AcDbDimension
2
*D18
10
-600.0
20
1820.0
30
0.0
11
-790.0
21
1365.0
31
0.0
70
32
1
910
3
STD100
42
910.0
100
AcDbAlignedDimension
13
0.0
23
910.0
33
0.0
14
0.0
24
1820.0
34
0.0
50
90.0
100
AcDbRotatedDimension
0
DIMENSION
5
100719
330
181
100
AcDbEntity
8
DIM
100
AcDbDimension
2
*D19
10
-600.0
20
2730.0
30
0.0
11
-790.0
21
2275.0
31
0.0
70
32
1
910
3
STD100
42
910.0
100
AcDbAlignedDimension
13
0.0
23
1820.0
33
0.0
14
0.0
24
2730.0
34
0.0
50
90.0
100
AcDbRotatedDimension
0
DIMENSION
5
100720
330
181
100
AcDbEntity
8
DIM
100
AcDbDimension
2
*D20
10
-600.0
20
3640.0
30
0.0
11
-790.0
21
3185.0
31
0.0
70
32
1
910
3
STD100
42
910.0
100
AcDbAlignedDimension
13
0.0
23
2730.0
33
0.0
14
0.0
24
3640.0
34
0.0
50
90.0
100
AcDbRotatedDimension
0
DIMENSION
5
100721
330
181
100
AcDbEntity
8
DIM
100
AcDbDimension
2
*D21
10
-600.0
20
4550.0
30
0.0
11
-790.0
21
4095.0
31
0.0
70
32
1
910
3
STD100
42
910.0
100
AcDbAlignedDimension
13
0.0
23
3640.0
33
0.0
14
0.0
24
4550.0
34
0.0
50
90.0
100
AcDbRotatedDimension
0
DIMENSION
5
100722
330
181
100
AcDbEntity
8
DIM
100
AcDbDimension
2
*D22
10
-600.0
20
5460.0
30
0.0
11
-790.0
21
5005.0
31
0.0
70
32
1
910
3
STD100
42
910.0
100
AcDbAlignedDimension
13
0.0
23
4550.0
33
0.0
14
0.0
24
5460.0
34
0.0
50
90.0
100
AcDbRotatedDimension
0
DIMENSION
5
100723
330
181
100
AcDbEntity
8
DIM
100
AcDbDimension
2
*D23
10
-600.0
20
6370.0
30
0.0
11
-790.0
21
5915.0
31
0.0
70
32
1
910
3
STD100
42
910.0
100
AcDbAlignedDimension
13
0.0
23
5460.0
33
0.0
14
0.0
24
6370.0
34
0.0
50
90.0
100
AcDbRotatedDimension
0
DIMENSION
5
100724
330
181
100
AcDbEntity
8
DIM
100
AcDbDimension
2
*D24
10
-600.0
20
7280.0
30
0.0
11
-790.0
21
6825.0
31
0.0
70
32
1
910
3
STD100
42
910.0
100
AcDbAlignedDimension
13
0.0
23
6370.0
33
0.0
14
0.0
24
7280.0
34
0.0
50
90.0
100
AcDbRotatedDimension
0
DIMENSION
5
100725
330
181
100
AcDbEntity
8
DIM
100
AcDbDimension
2
*D25
10
-600.0
20
8190.0
30
0.0
11
-790.0
21
7735.0
31
0.0
70
32
1
910
3
STD100
42
910.0
100
AcDbAlignedDimension
13
0.0
23
7280.0
33
0.0
14
0.0
24
8190.0
34
0.0
50
90.0
100
AcDbRotatedDimension
0
DIMENSION
5
100726
330
181
100
AcDbEntity
8
DIM
100
AcDbDimension
2
*D26
10
-1600.0
20
8190.0
30
0.0
11
-1790.0
21
4095.0
31
0.0
70
32
1
8190
3
STD100
42
8190.0
100
AcDbAlignedDimension
13
0.0
23
0.0
33
0.0
14
0.0
24
8190.0
34
0.0
50
90.0
100
AcDbRotatedDimension
0
DIMENSION
5
100727
330
181
100
AcDbEntity
8
DIM
100
AcDbDimension
2
*D27
10
9700.0
20
910.0
30
0.0
11
9510.0
21
455.0
31
0.0
70
32
1
910
3
STD100
42
910.0
100
AcDbAlignedDimension
13
9100.0
23
0.0
33
0.0
14
9100.0
24
910.0
34
0.0
50
90.0
100
AcDbRotatedDimension
0
DIMENSION
5
100728
330
181
100
AcDbEntity
8
DIM
100
AcDbDimension
2
*D28
10
9700.0
20
1820.0
30
0.0
11
9510.0
21
1365.0
31
0.0
70
32
1
910
3
STD100
42
910.0
100
AcDbAlignedDimension
13
9100.0
23
910.0
33
0.0
14
9100.0
24
1820.0
34
0.0
50
90.0
100
AcDbRotatedDimension
0
DIMENSION
5
100729
330
181
100
AcDbEntity
8
DIM
100
AcDbDimension
2
*D29
10
9700.0
20
2730.0
30
0.0
11
9510.0
21
2275.0
31
0.0
70
32
1
910
3
STD100
42
910.0
100
AcDbAlignedDimension
13
9100.0
23
1820.0
33
0.0
14
9100.0
24
2730.0
34
0.0
50
90.0
100
AcDbRotatedDimension
0
DIMENSION
5
100730
330
181
100
AcDbEntity
8
DIM
100
AcDbDimension
2
*D30
10
9700.0
20
3640.0
30
0.0
11
9510.0
21
3185.0
31
0.0
70
32
1
910
3
STD100
42
910.0
100
AcDbAlignedDimension
13
9100.0
23
2730.0
33
0.0
14
9100.0
24
3640.0
34
0.0
50
90.0
100
AcDbRotatedDimension
0
DIMENSION
5
100731
330
181
100
AcDbEntity
8
DIM
100
AcDbDimension
2
*D31
10
9700.0
20
4550.0
30
0.0
11
9510.0
21
4095.0
31
0.0
70
32
1
910
3
STD100
42
910.0
100
AcDbAlignedDimension
13
9100.0
23
3640.0
33
0.0
14
9100.0
24
4550.0
34
0.0
50
90.0
100
AcDbRotatedDimension
0
DIMENSION
5
100732
330
181
100
AcDbEntity
8
DIM
100
AcDbDimension
2
*D32
10
9700.0
20
5460.0
30
0.0
11
9510.0
21
5005.0
31
0.0
70
32
1
910
3
STD100
42
910.0
100
AcDbAlignedDimension
13
9100.0
23
4550.0
33
0.0
14
9100.0
24
5460.0
34
0.0
50
90.0
100
AcDbRotatedDimension
0
DIMENSION
5
100733
330
181
100
AcDbEntity
8
DIM
100
AcDbDimension
2
*D33
10
9700.0
20
6370.0
30
0.0
11
9510.0
21
5915.0
31
0.0
70
32
1
910
3
STD100
42
910.0
100
AcDbAlignedDimension
13
9100.0
23
5460.0
33
0.0
14
9100.0
24
6370.0
34
0.0
50
90.0
100
AcDbRotatedDimension
0
DIMENSION
5
100734
330
181
100
AcDbEntity
8
DIM
100
AcDbDimension
2
*D34
10
10700.0
20
6370.0
30
0.0
11
10510.0
21
3185.0
31
0.0
70
32
1
6370
3
STD100
42
6370.0
100
AcDbAlignedDimension
13
9100.0
23
0.0
33
0.0
14
9100.0
24
6370.0
34
0.0
50
90.0
100
AcDbRotatedDimension
0
ENDSEC
0
SECTION
2
OBJECTS
0
DICTIONARY
5
500
330
0
100
AcDbDictionary
281
1
3
ACAD_GROUP
350
501
3
ACAD_LAYOUT
350
502
0
DICTIONARY
5
501
330
500
100
AcDbDictionary
281
1
0
DICTIONARY
5
502
330
500
100
AcDbDictionary
281
1
3
Layout1
350
504
3
Model
350
503
0
LAYOUT
5
503
330
502
100
AcDbPlotSettings
1

2
none_device
4

6

40
0.0
41
0.0
42
0.0
43
0.0
44
0.0
45
0.0
46
0.0
47
0.0
48
0.0
49
0.0
140
0.0
141
0.0
142
1.0
143
1.0
70
688
72
0
73
0
74
0
7

75
0
147
1.0
148
0.0
149
0.0
100
AcDbLayout
1
Model
70
1
71
0
10
0.0
20
0.0
11
420.0
21
297.0
12
0.0
22
0.0
32
0.0
14
-3200.0
24
-4200.0
34
0.0
15
11200.0
25
9400.0
35
0.0
146
0.0
13
0.0
23
0.0
33
0.0
16
1.0
26
0.0
36
0.0
17
0.0
27
1.0
37
0.0
76
0
330
181
0
LAYOUT
5
504
330
502
100
AcDbPlotSettings
1

2
none_device
4

6

40
0.0
41
0.0
42
0.0
43
0.0
44
0.0
45
0.0
46
0.0
47
0.0
48
0.0
49
0.0
140
0.0
141
0.0
142
1.0
143
1.0
70
688
72
0
73
0
74
0
7

75
0
147
1.0
148
0.0
149
0.0
100
AcDbLayout
1
Layout1
70
1
71
1
10
0.0
20
0.0
11
420.0
21
297.0
12
0.0
22
0.0
32
0.0
14
0.0
24
0.0
34
0.0
15
420.0
25
297.0
35
0.0
146
0.0
13
0.0
23
0.0
33
0.0
16
1.0
26
0.0
36
0.0
17
0.0
27
1.0
37
0.0
76
0
330
182
0
ENDSEC
0
EOF
