0
SECTION
2
HEADER
9
$ACADVER
1
AC1021
9
$HANDSEED
5
300
9
$INSUNITS
70
4
9
$MEASUREMENT
70
1
9
$LTSCALE
40
1.0
0
ENDSEC
0
SECTION
2
TABLES
0
TABLE
2
VPORT
5
8
330
0
100
AcDbSymbolTable
70
1
0
VPORT
5
100
330
8
100
AcDbSymbolTableRecord
100
AcDbViewportTableRecord
2
*Active
70
0
10
0.0
20
0.0
11
1.0
21
1.0
12
2730.0
22
2275.0
13
0.0
23
0.0
14
10.0
24
10.0
15
10.0
25
10.0
16
0.0
26
0.0
36
1.0
17
0.0
27
0.0
37
0.0
40
7000.0
41
1.5
42
50.0
43
0.0
44
0.0
50
0.0
51
0.0
71
0
72
100
73
1
74
1
75
0
76
0
77
0
78
0
0
ENDTAB
0
TABLE
2
LTYPE
5
9
330
0
100
AcDbSymbolTable
70
3
0
LTYPE
5
101
330
9
100
AcDbSymbolTableRecord
100
AcDbLinetypeTableRecord
2
ByBlock
70
0
3

72
65
73
0
40
0.0
0
LTYPE
5
102
330
9
100
AcDbSymbolTableRecord
100
AcDbLinetypeTableRecord
2
ByLayer
70
0
3

72
65
73
0
40
0.0
0
LTYPE
5
103
330
9
100
AcDbSymbolTableRecord
100
AcDbLinetypeTableRecord
2
Continuous
70
0
3
Solid line
72
65
73
0
40
0.0
0
ENDTAB
0
TABLE
2
LAYER
5
A
330
0
100
AcDbSymbolTable
70
7
0
LAYER
5
110
330
A
100
AcDbSymbolTableRecord
100
AcDbLayerTableRecord
2
0
70
0
62
7
6
Continuous
0
LAYER
5
111
330
A
100
AcDbSymbolTableRecord
100
AcDbLayerTableRecord
2
GRID
70
0
62
1
6
Continuous
0
LAYER
5
112
330
A
100
AcDbSymbolTableRecord
100
AcDbLayerTableRecord
2
WALL
70
0
62
7
6
Continuous
0
LAYER
5
113
330
A
100
AcDbSymbolTableRecord
100
AcDbLayerTableRecord
2
OPENING
70
0
62
3
6
Continuous
0
LAYER
5
114
330
A
100
AcDbSymbolTableRecord
100
AcDbLayerTableRecord
2
DIM
70
0
62
4
6
Continuous
0
LAYER
5
115
330
A
100
AcDbSymbolTableRecord
100
AcDbLayerTableRecord
2
ROOM
70
0
62
5
6
Continuous
0
LAYER
5
116
330
A
100
AcDbSymbolTableRecord
100
AcDbLayerTableRecord
2
TEXT
70
0
62
2
6
Continuous
0
ENDTAB
0
TABLE
2
STYLE
5
B
330
0
100
AcDbSymbolTable
70
1
0
STYLE
5
120
330
B
100
AcDbSymbolTableRecord
100
AcDbTextStyleTableRecord
2
Standard
70
0
40
0.0
41
1.0
50
0.0
71
0
42
2.5
3
txt
4

0
ENDTAB
0
TABLE
2
VIEW
5
C
330
0
100
AcDbSymbolTable
70
0
0
ENDTAB
0
TABLE
2
UCS
5
D
330
0
100
AcDbSymbolTable
70
0
0
ENDTAB
0
TABLE
2
APPID
5
E
330
0
100
AcDbSymbolTable
70
1
0
APPID
5
130
330
E
100
AcDbSymbolTableRecord
100
AcDbRegAppTableRecord
2
ACAD
70
0
0
ENDTAB
0
TABLE
2
DIMSTYLE
5
F
330
0
100
AcDbSymbolTable
70
1
0
DIMSTYLE
105
131
330
F
100
AcDbSymbolTableRecord
100
AcDbDimStyleTableRecord
2
Standard
70
0
40
100.0
41
2.5
42
0.625
44
1.25
140
2.5
147
0.625
73
0
77
1
271
0
0
ENDTAB
0
TABLE
2
BLOCK_RECORD
5
10
330
0
100
AcDbSymbolTable
70
2
0
BLOCK_RECORD
5
140
330
10
100
AcDbSymbolTableRecord
100
AcDbBlockTableRecord
2
*Model_Space
70
0
340
185
0
BLOCK_RECORD
5
141
330
10
100
AcDbSymbolTableRecord
100
AcDbBlockTableRecord
2
*Paper_Space
70
0
340
186
0
ENDTAB
0
ENDSEC
0
SECTION
2
BLOCKS
0
BLOCK
5
150
330
140
100
AcDbEntity
8
0
100
AcDbBlockBegin
2
*Model_Space
70
0
10
0.0
20
0.0
30
0.0
3
*Model_Space
1

0
ENDBLK
5
151
330
140
100
AcDbEntity
8
0
100
AcDbBlockEnd
0
BLOCK
5
152
330
141
100
AcDbEntity
8
0
100
AcDbBlockBegin
2
*Paper_Space
70
0
10
0.0
20
0.0
30
0.0
3
*Paper_Space
1

0
ENDBLK
5
153
330
141
100
AcDbEntity
8
0
100
AcDbBlockEnd
0
ENDSEC
0
SECTION
2
ENTITIES
0
LINE
5
200
330
140
100
AcDbEntity
8
WALL
100
AcDbLine
10
-60.0
20
-60.0
30
0.0
11
455.0
21
-60.0
31
0.0
0
LINE
5
201
330
140
100
AcDbEntity
8
WALL
100
AcDbLine
10
1365.0
20
-60.0
30
0.0
11
2730.0
21
-60.0
31
0.0
0
LINE
5
202
330
140
100
AcDbEntity
8
WALL
100
AcDbLine
10
4550.0
20
-60.0
30
0.0
11
5520.0
21
-60.0
31
0.0
0
LINE
5
203
330
140
100
AcDbEntity
8
WALL
100
AcDbLine
10
60.0
20
60.0
30
0.0
11
455.0
21
60.0
31
0.0
0
LINE
5
204
330
140
100
AcDbEntity
8
WALL
100
AcDbLine
10
1365.0
20
60.0
30
0.0
11
2730.0
21
60.0
31
0.0
0
LINE
5
205
330
140
100
AcDbEntity
8
WALL
100
AcDbLine
10
4550.0
20
60.0
30
0.0
11
5400.0
21
60.0
31
0.0
0
LINE
5
206
330
140
100
AcDbEntity
8
WALL
100
AcDbLine
10
5520.0
20
-60.0
30
0.0
11
5520.0
21
1820.0
31
0.0
0
LINE
5
207
330
140
100
AcDbEntity
8
WALL
100
AcDbLine
10
5520.0
20
3640.0
30
0.0
11
5520.0
21
4610.0
31
0.0
0
LINE
5
208
330
140
100
AcDbEntity
8
WALL
100
AcDbLine
10
5400.0
20
60.0
30
0.0
11
5400.0
21
1820.0
31
0.0
0
LINE
5
209
330
140
100
AcDbEntity
8
WALL
100
AcDbLine
10
5400.0
20
3640.0
30
0.0
11
5400.0
21
4490.0
31
0.0
0
LINE
5
20A
330
140
100
AcDbEntity
8
WALL
100
AcDbLine
10
-60.0
20
4610.0
30
0.0
11
5520.0
21
4610.0
31
0.0
0
LINE
5
20B
330
140
100
AcDbEntity
8
WALL
100
AcDbLine
10
60.0
20
4490.0
30
0.0
11
5400.0
21
4490.0
31
0.0
0
LINE
5
20C
330
140
100
AcDbEntity
8
WALL
100
AcDbLine
10
-60.0
20
-60.0
30
0.0
11
-60.0
21
4610.0
31
0.0
0
LINE
5
20D
330
140
100
AcDbEntity
8
WALL
100
AcDbLine
10
60.0
20
60.0
30
0.0
11
60.0
21
4490.0
31
0.0
0
LINE
5
20E
330
140
100
AcDbEntity
8
WALL
100
AcDbLine
10
1760.0
20
60.0
30
0.0
11
1760.0
21
455.0
31
0.0
0
LINE
5
20F
330
140
100
AcDbEntity
8
WALL
100
AcDbLine
10
1760.0
20
1365.0
30
0.0
11
1760.0
21
4490.0
31
0.0
0
LINE
5
210
330
140
100
AcDbEntity
8
WALL
100
AcDbLine
10
1880.0
20
60.0
30
0.0
11
1880.0
21
455.0
31
0.0
0
LINE
5
211
330
140
100
AcDbEntity
8
WALL
100
AcDbLine
10
1880.0
20
1365.0
30
0.0
11
1880.0
21
4490.0
31
0.0
0
LINE
5
212
330
140
100
AcDbEntity
8
WALL
100
AcDbLine
10
60.0
20
1760.0
30
0.0
11
1760.0
21
1760.0
31
0.0
0
LINE
5
213
330
140
100
AcDbEntity
8
WALL
100
AcDbLine
10
60.0
20
1880.0
30
0.0
11
1760.0
21
1880.0
31
0.0
0
LINE
5
214
330
140
100
AcDbEntity
8
WALL
100
AcDbLine
10
60.0
20
2670.0
30
0.0
11
1760.0
21
2670.0
31
0.0
0
LINE
5
215
330
140
100
AcDbEntity
8
WALL
100
AcDbLine
10
60.0
20
2790.0
30
0.0
11
1760.0
21
2790.0
31
0.0
0
LINE
5
216
330
140
100
AcDbEntity
8
OPENING
100
AcDbLine
10
455.0
20
-60.0
30
0.0
11
455.0
21
60.0
31
0.0
0
LINE
5
217
330
140
100
AcDbEntity
8
OPENING
100
AcDbLine
10
1365.0
20
-60.0
30
0.0
11
1365.0
21
60.0
31
0.0
0
LINE
5
218
330
140
100
AcDbEntity
8
OPENING
100
AcDbLine
10
2730.0
20
-60.0
30
0.0
11
2730.0
21
60.0
31
0.0
0
LINE
5
219
330
140
100
AcDbEntity
8
OPENING
100
AcDbLine
10
4550.0
20
-60.0
30
0.0
11
4550.0
21
60.0
31
0.0
0
LINE
5
21A
330
140
100
AcDbEntity
8
OPENING
100
AcDbLine
10
5400.0
20
1820.0
30
0.0
11
5520.0
21
1820.0
31
0.0
0
LINE
5
21B
330
140
100
AcDbEntity
8
OPENING
100
AcDbLine
10
5400.0
20
3640.0
30
0.0
11
5520.0
21
3640.0
31
0.0
0
LINE
5
21C
330
140
100
AcDbEntity
8
OPENING
100
AcDbLine
10
1760.0
20
455.0
30
0.0
11
1880.0
21
455.0
31
0.0
0
LINE
5
21D
330
140
100
AcDbEntity
8
OPENING
100
AcDbLine
10
1760.0
20
1365.0
30
0.0
11
1880.0
21
1365.0
31
0.0
0
LINE
5
21E
330
140
100
AcDbEntity
8
GRID
100
AcDbLine
10
0.0
20
-570.0
30
0.0
11
0.0
21
5000.0
31
0.0
0
LINE
5
21F
330
140
100
AcDbEntity
8
GRID
100
AcDbLine
10
910.0
20
-570.0
30
0.0
11
910.0
21
5000.0
31
0.0
0
LINE
5
220
330
140
100
AcDbEntity
8
GRID
100
AcDbLine
10
1820.0
20
-570.0
30
0.0
11
1820.0
21
5000.0
31
0.0
0
LINE
5
221
330
140
100
AcDbEntity
8
GRID
100
AcDbLine
10
2730.0
20
-570.0
30
0.0
11
2730.0
21
5000.0
31
0.0
0
LINE
5
222
330
140
100
AcDbEntity
8
GRID
100
AcDbLine
10
3640.0
20
-570.0
30
0.0
11
3640.0
21
5000.0
31
0.0
0
LINE
5
223
330
140
100
AcDbEntity
8
GRID
100
AcDbLine
10
4550.0
20
-570.0
30
0.0
11
4550.0
21
5000.0
31
0.0
0
LINE
5
224
330
140
100
AcDbEntity
8
GRID
100
AcDbLine
10
5460.0
20
-570.0
30
0.0
11
5460.0
21
5000.0
31
0.0
0
LINE
5
225
330
140
100
AcDbEntity
8
GRID
100
AcDbLine
10
-570.0
20
0.0
30
0.0
11
6030.0
21
0.0
31
0.0
0
LINE
5
226
330
140
100
AcDbEntity
8
GRID
100
AcDbLine
10
-570.0
20
910.0
30
0.0
11
6030.0
21
910.0
31
0.0
0
LINE
5
227
330
140
100
AcDbEntity
8
GRID
100
AcDbLine
10
-570.0
20
1820.0
30
0.0
11
6030.0
21
1820.0
31
0.0
0
LINE
5
228
330
140
100
AcDbEntity
8
GRID
100
AcDbLine
10
-570.0
20
2730.0
30
0.0
11
6030.0
21
2730.0
31
0.0
0
LINE
5
229
330
140
100
AcDbEntity
8
GRID
100
AcDbLine
10
-570.0
20
3640.0
30
0.0
11
6030.0
21
3640.0
31
0.0
0
LINE
5
22A
330
140
100
AcDbEntity
8
GRID
100
AcDbLine
10
-570.0
20
4550.0
30
0.0
11
6030.0
21
4550.0
31
0.0
0
CIRCLE
5
22B
330
140
100
AcDbEntity
8
GRID
100
AcDbCircle
10
0.0
20
-700.0
30
0.0
40
130.0
0
CIRCLE
5
22C
330
140
100
AcDbEntity
8
GRID
100
AcDbCircle
10
910.0
20
-700.0
30
0.0
40
130.0
0
CIRCLE
5
22D
330
140
100
AcDbEntity
8
GRID
100
AcDbCircle
10
1820.0
20
-700.0
30
0.0
40
130.0
0
CIRCLE
5
22E
330
140
100
AcDbEntity
8
GRID
100
AcDbCircle
10
2730.0
20
-700.0
30
0.0
40
130.0
0
CIRCLE
5
22F
330
140
100
AcDbEntity
8
GRID
100
AcDbCircle
10
3640.0
20
-700.0
30
0.0
40
130.0
0
CIRCLE
5
230
330
140
100
AcDbEntity
8
GRID
100
AcDbCircle
10
4550.0
20
-700.0
30
0.0
40
130.0
0
CIRCLE
5
231
330
140
100
AcDbEntity
8
GRID
100
AcDbCircle
10
5460.0
20
-700.0
30
0.0
40
130.0
0
CIRCLE
5
232
330
140
100
AcDbEntity
8
GRID
100
AcDbCircle
10
-700.0
20
0.0
30
0.0
40
130.0
0
CIRCLE
5
233
330
140
100
AcDbEntity
8
GRID
100
AcDbCircle
10
-700.0
20
910.0
30
0.0
40
130.0
0
CIRCLE
5
234
330
140
100
AcDbEntity
8
GRID
100
AcDbCircle
10
-700.0
20
1820.0
30
0.0
40
130.0
0
CIRCLE
5
235
330
140
100
AcDbEntity
8
GRID
100
AcDbCircle
10
-700.0
20
2730.0
30
0.0
40
130.0
0
CIRCLE
5
236
330
140
100
AcDbEntity
8
GRID
100
AcDbCircle
10
-700.0
20
3640.0
30
0.0
40
130.0
0
CIRCLE
5
237
330
140
100
AcDbEntity
8
GRID
100
AcDbCircle
10
-700.0
20
4550.0
30
0.0
40
130.0
0
TEXT
5
238
330
140
100
AcDbEntity
8
GRID
100
AcDbText
10
0.0
20
-700.0
30
0.0
40
180.0
1
X1
50
0.0
72
1
11
0.0
21
-700.0
31
0.0
100
AcDbText
73
2
0
TEXT
5
239
330
140
100
AcDbEntity
8
GRID
100
AcDbText
10
910.0
20
-700.0
30
0.0
40
180.0
1
X2
50
0.0
72
1
11
910.0
21
-700.0
31
0.0
100
AcDbText
73
2
0
TEXT
5
23A
330
140
100
AcDbEntity
8
GRID
100
AcDbText
10
1820.0
20
-700.0
30
0.0
40
180.0
1
X3
50
0.0
72
1
11
1820.0
21
-700.0
31
0.0
100
AcDbText
73
2
0
TEXT
5
23B
330
140
100
AcDbEntity
8
GRID
100
AcDbText
10
2730.0
20
-700.0
30
0.0
40
180.0
1
X4
50
0.0
72
1
11
2730.0
21
-700.0
31
0.0
100
AcDbText
73
2
0
TEXT
5
23C
330
140
100
AcDbEntity
8
GRID
100
AcDbText
10
3640.0
20
-700.0
30
0.0
40
180.0
1
X5
50
0.0
72
1
11
3640.0
21
-700.0
31
0.0
100
AcDbText
73
2
0
TEXT
5
23D
330
140
100
AcDbEntity
8
GRID
100
AcDbText
10
4550.0
20
-700.0
30
0.0
40
180.0
1
X6
50
0.0
72
1
11
4550.0
21
-700.0
31
0.0
100
AcDbText
73
2
0
TEXT
5
23E
330
140
100
AcDbEntity
8
GRID
100
AcDbText
10
5460.0
20
-700.0
30
0.0
40
180.0
1
X7
50
0.0
72
1
11
5460.0
21
-700.0
31
0.0
100
AcDbText
73
2
0
TEXT
5
23F
330
140
100
AcDbEntity
8
GRID
100
AcDbText
10
-700.0
20
0.0
30
0.0
40
180.0
1
Y1
50
0.0
72
1
11
-700.0
21
0.0
31
0.0
100
AcDbText
73
2
0
TEXT
5
240
330
140
100
AcDbEntity
8
GRID
100
AcDbText
10
-700.0
20
910.0
30
0.0
40
180.0
1
Y2
50
0.0
72
1
11
-700.0
21
910.0
31
0.0
100
AcDbText
73
2
0
TEXT
5
241
330
140
100
AcDbEntity
8
GRID
100
AcDbText
10
-700.0
20
1820.0
30
0.0
40
180.0
1
Y3
50
0.0
72
1
11
-700.0
21
1820.0
31
0.0
100
AcDbText
73
2
0
TEXT
5
242
330
140
100
AcDbEntity
8
GRID
100
AcDbText
10
-700.0
20
2730.0
30
0.0
40
180.0
1
Y4
50
0.0
72
1
11
-700.0
21
2730.0
31
0.0
100
AcDbText
73
2
0
TEXT
5
243
330
140
100
AcDbEntity
8
GRID
100
AcDbText
10
-700.0
20
3640.0
30
0.0
40
180.0
1
Y5
50
0.0
72
1
11
-700.0
21
3640.0
31
0.0
100
AcDbText
73
2
0
TEXT
5
244
330
140
100
AcDbEntity
8
GRID
100
AcDbText
10
-700.0
20
4550.0
30
0.0
40
180.0
1
Y6
50
0.0
72
1
11
-700.0
21
4550.0
31
0.0
100
AcDbText
73
2
0
TEXT
5
245
330
140
100
AcDbEntity
8
ROOM
100
AcDbText
10
910.0
20
910.0
30
0.0
40
300.0
1
玄関
50
0.0
72
1
11
910.0
21
910.0
31
0.0
100
AcDbText
73
2
0
TEXT
5
246
330
140
100
AcDbEntity
8
ROOM
100
AcDbText
10
910.0
20
2275.0
30
0.0
40
300.0
1
便所
50
0.0
72
1
11
910.0
21
2275.0
31
0.0
100
AcDbText
73
2
0
TEXT
5
247
330
140
100
AcDbEntity
8
ROOM
100
AcDbText
10
910.0
20
3640.0
30
0.0
40
300.0
1
洗面浴室
50
0.0
72
1
11
910.0
21
3640.0
31
0.0
100
AcDbText
73
2
0
TEXT
5
248
330
140
100
AcDbEntity
8
ROOM
100
AcDbText
10
3640.0
20
2275.0
30
0.0
40
300.0
1
LDK
50
0.0
72
1
11
3640.0
21
2275.0
31
0.0
100
AcDbText
73
2
0
DIMENSION
5
249
330
140
100
AcDbEntity
8
DIM
100
AcDbDimension
10
910.0
20
-1100.0
30
0.0
11
455.0
21
-1100.0
31
0.0
70
0
3
Standard
100
AcDbAlignedDimension
13
0.0
23
0.0
33
0.0
14
910.0
24
0.0
34
0.0
100
AcDbRotatedDimension
50
0.0
0
DIMENSION
5
24A
330
140
100
AcDbEntity
8
DIM
100
AcDbDimension
10
1820.0
20
-1100.0
30
0.0
11
1365.0
21
-1100.0
31
0.0
70
0
3
Standard
100
AcDbAlignedDimension
13
910.0
23
0.0
33
0.0
14
1820.0
24
0.0
34
0.0
100
AcDbRotatedDimension
50
0.0
0
DIMENSION
5
24B
330
140
100
AcDbEntity
8
DIM
100
AcDbDimension
10
2730.0
20
-1100.0
30
0.0
11
2275.0
21
-1100.0
31
0.0
70
0
3
Standard
100
AcDbAlignedDimension
13
1820.0
23
0.0
33
0.0
14
2730.0
24
0.0
34
0.0
100
AcDbRotatedDimension
50
0.0
0
DIMENSION
5
24C
330
140
100
AcDbEntity
8
DIM
100
AcDbDimension
10
3640.0
20
-1100.0
30
0.0
11
3185.0
21
-1100.0
31
0.0
70
0
3
Standard
100
AcDbAlignedDimension
13
2730.0
23
0.0
33
0.0
14
3640.0
24
0.0
34
0.0
100
AcDbRotatedDimension
50
0.0
0
DIMENSION
5
24D
330
140
100
AcDbEntity
8
DIM
100
AcDbDimension
10
4550.0
20
-1100.0
30
0.0
11
4095.0
21
-1100.0
31
0.0
70
0
3
Standard
100
AcDbAlignedDimension
13
3640.0
23
0.0
33
0.0
14
4550.0
24
0.0
34
0.0
100
AcDbRotatedDimension
50
0.0
0
DIMENSION
5
24E
330
140
100
AcDbEntity
8
DIM
100
AcDbDimension
10
5460.0
20
-1100.0
30
0.0
11
5005.0
21
-1100.0
31
0.0
70
0
3
Standard
100
AcDbAlignedDimension
13
4550.0
23
0.0
33
0.0
14
5460.0
24
0.0
34
0.0
100
AcDbRotatedDimension
50
0.0
0
DIMENSION
5
24F
330
140
100
AcDbEntity
8
DIM
100
AcDbDimension
10
5460.0
20
-1600.0
30
0.0
11
2730.0
21
-1600.0
31
0.0
70
0
3
Standard
100
AcDbAlignedDimension
13
0.0
23
0.0
33
0.0
14
5460.0
24
0.0
34
0.0
100
AcDbRotatedDimension
50
0.0
0
DIMENSION
5
250
330
140
100
AcDbEntity
8
DIM
100
AcDbDimension
10
-1100.0
20
910.0
30
0.0
11
-1100.0
21
455.0
31
0.0
70
0
3
Standard
100
AcDbAlignedDimension
13
0.0
23
0.0
33
0.0
14
0.0
24
910.0
34
0.0
100
AcDbRotatedDimension
50
90.0
0
DIMENSION
5
251
330
140
100
AcDbEntity
8
DIM
100
AcDbDimension
10
-1100.0
20
1820.0
30
0.0
11
-1100.0
21
1365.0
31
0.0
70
0
3
Standard
100
AcDbAlignedDimension
13
0.0
23
910.0
33
0.0
14
0.0
24
1820.0
34
0.0
100
AcDbRotatedDimension
50
90.0
0
DIMENSION
5
252
330
140
100
AcDbEntity
8
DIM
100
AcDbDimension
10
-1100.0
20
2730.0
30
0.0
11
-1100.0
21
2275.0
31
0.0
70
0
3
Standard
100
AcDbAlignedDimension
13
0.0
23
1820.0
33
0.0
14
0.0
24
2730.0
34
0.0
100
AcDbRotatedDimension
50
90.0
0
DIMENSION
5
253
330
140
100
AcDbEntity
8
DIM
100
AcDbDimension
10
-1100.0
20
3640.0
30
0.0
11
-1100.0
21
3185.0
31
0.0
70
0
3
Standard
100
AcDbAlignedDimension
13
0.0
23
2730.0
33
0.0
14
0.0
24
3640.0
34
0.0
100
AcDbRotatedDimension
50
90.0
0
DIMENSION
5
254
330
140
100
AcDbEntity
8
DIM
100
AcDbDimension
10
-1100.0
20
4550.0
30
0.0
11
-1100.0
21
4095.0
31
0.0
70
0
3
Standard
100
AcDbAlignedDimension
13
0.0
23
3640.0
33
0.0
14
0.0
24
4550.0
34
0.0
100
AcDbRotatedDimension
50
90.0
0
DIMENSION
5
255
330
140
100
AcDbEntity
8
DIM
100
AcDbDimension
10
-1600.0
20
4550.0
30
0.0
11
-1600.0
21
2275.0
31
0.0
70
0
3
Standard
100
AcDbAlignedDimension
13
0.0
23
0.0
33
0.0
14
0.0
24
4550.0
34
0.0
100
AcDbRotatedDimension
50
90.0
0
ENDSEC
0
SECTION
2
OBJECTS
0
DICTIONARY
5
180
330
0
100
AcDbDictionary
281
1
3
ACAD_GROUP
350
181
3
ACAD_LAYOUT
350
182
3
ACAD_MLINESTYLE
350
184
0
DICTIONARY
5
181
330
180
100
AcDbDictionary
281
1
0
DICTIONARY
5
184
330
180
100
AcDbDictionary
281
1
0
DICTIONARY
5
182
330
180
100
AcDbDictionary
281
1
3
Model
350
185
3
Layout1
350
186
0
LAYOUT
5
185
330
182
100
AcDbPlotSettings
100
AcDbLayout
1
Model
70
1
71
0
10
0.0
20
0.0
11
420.0
21
297.0
14
0.0
24
0.0
15
420.0
25
297.0
12
0.0
22
0.0
32
0.0
16
1.0
26
0.0
36
0.0
17
0.0
27
1.0
37
0.0
76
0
330
140
0
LAYOUT
5
186
330
182
100
AcDbPlotSettings
100
AcDbLayout
1
Layout1
70
1
71
1
10
0.0
20
0.0
11
420.0
21
297.0
14
0.0
24
0.0
15
420.0
25
297.0
12
0.0
22
0.0
32
0.0
16
1.0
26
0.0
36
0.0
17
0.0
27
1.0
37
0.0
76
0
330
141
0
ENDSEC
0
EOF
