0
SECTION
2
HEADER
9
$ACADVER
1
AC1021
9
$HANDSEED
5
FFFF0
9
$INSBASE
10
0.0
20
0.0
30
0.0
9
$EXTMIN
10
-2800.0
20
-4500.0
30
0.0
9
$EXTMAX
10
11000.0
20
8800.0
30
0.0
9
$LIMMIN
10
-2800.0
20
-4500.0
9
$LIMMAX
10
11000.0
20
8800.0
9
$INSUNITS
70
4
9
$MEASUREMENT
70
1
9
$LTSCALE
40
1.0
9
$LUNITS
70
2
9
$LUPREC
70
2
9
$AUNITS
70
0
9
$AUPREC
70
2
9
$CLAYER
8
WALL
9
$TEXTSTYLE
7
Standard
9
$CELTYPE
6
ByLayer
9
$CECOLOR
62
256
9
$DIMSTYLE
2
ARCH100
9
$DIMSCALE
40
100.0
9
$DIMASZ
40
2.5
9
$DIMTXT
40
2.5
9
$DIMTSZ
40
1.25
9
$DIMEXE
40
1.25
9
$DIMEXO
40
0.625
9
$DIMGAP
40
0.625
9
$DIMTAD
70
1
9
$DIMDEC
70
0
9
$DIMLUNIT
70
2
0
ENDSEC
0
SECTION
2
TABLES
0
TABLE
2
VPORT
5
10
100
AcDbSymbolTable
70
1
0
VPORT
5
11
330
10
100
AcDbSymbolTableRecord
100
AcDbViewportTableRecord
2
*Active
70
0
10
0.0
20
0.0
11
1.0
21
1.0
12
4100.0
22
2150.0
13
0.0
23
0.0
14
910.0
24
910.0
15
910.0
25
910.0
16
0.0
26
0.0
36
1.0
17
0.0
27
0.0
37
0.0
40
9000.0
41
1.9
42
50.0
43
0.0
44
0.0
50
0.0
51
0.0
71
0
72
100
73
1
74
3
75
0
76
0
77
0
78
0
0
ENDTAB
0
TABLE
2
LTYPE
5
12
100
AcDbSymbolTable
70
4
0
LTYPE
5
13
330
12
100
AcDbSymbolTableRecord
100
AcDbLinetypeTableRecord
2
ByBlock
70
0
3

72
65
73
0
40
0.0
0
LTYPE
5
14
330
12
100
AcDbSymbolTableRecord
100
AcDbLinetypeTableRecord
2
ByLayer
70
0
3

72
65
73
0
40
0.0
0
LTYPE
5
15
330
12
100
AcDbSymbolTableRecord
100
AcDbLinetypeTableRecord
2
Continuous
70
0
3
Solid line
72
65
73
0
40
0.0
0
LTYPE
5
16
330
12
100
AcDbSymbolTableRecord
100
AcDbLinetypeTableRecord
2
CENTER
70
0
3
Center ____ _ ____ _ ____ _ ____
72
65
73
4
40
900.0
49
600.0
74
0
49
-100.0
74
0
49
100.0
74
0
49
-100.0
74
0
0
ENDTAB
0
TABLE
2
LAYER
5
17
100
AcDbSymbolTable
70
8
0
LAYER
5
18
330
17
100
AcDbSymbolTableRecord
100
AcDbLayerTableRecord
2
0
70
0
62
7
6
Continuous
370
-3
0
LAYER
5
19
330
17
100
AcDbSymbolTableRecord
100
AcDbLayerTableRecord
2
GRID
70
0
62
1
6
Continuous
370
-3
0
LAYER
5
1A
330
17
100
AcDbSymbolTableRecord
100
AcDbLayerTableRecord
2
WALL
70
0
62
7
6
Continuous
370
-3
0
LAYER
5
1B
330
17
100
AcDbSymbolTableRecord
100
AcDbLayerTableRecord
2
OPENING
70
0
62
3
6
Continuous
370
-3
0
LAYER
5
1C
330
17
100
AcDbSymbolTableRecord
100
AcDbLayerTableRecord
2
DIM
70
0
62
4
6
Continuous
370
-3
0
LAYER
5
1D
330
17
100
AcDbSymbolTableRecord
100
AcDbLayerTableRecord
2
ROOM
70
0
62
2
6
Continuous
370
-3
0
LAYER
5
1E
330
17
100
AcDbSymbolTableRecord
100
AcDbLayerTableRecord
2
TEXT
70
0
62
6
6
Continuous
370
-3
0
LAYER
5
1F
330
17
100
AcDbSymbolTableRecord
100
AcDbLayerTableRecord
2
STAIR
70
0
62
5
6
Continuous
370
-3
0
ENDTAB
0
TABLE
2
STYLE
5
21
100
AcDbSymbolTable
70
2
0
STYLE
5
22
330
21
100
AcDbSymbolTableRecord
100
AcDbTextStyleTableRecord
2
Standard
70
0
40
0.0
41
1.0
50
0.0
71
0
42
2.5
3
txt
4

0
STYLE
5
23
330
21
100
AcDbSymbolTableRecord
100
AcDbTextStyleTableRecord
2
JP
70
0
40
0.0
41
1.0
50
0.0
71
0
42
2.5
3
msgothic.ttf
4

0
ENDTAB
0
TABLE
2
VIEW
5
24
100
AcDbSymbolTable
70
0
0
ENDTAB
0
TABLE
2
UCS
5
25
100
AcDbSymbolTable
70
0
0
ENDTAB
0
TABLE
2
APPID
5
26
100
AcDbSymbolTable
70
1
0
APPID
5
27
330
26
100
AcDbSymbolTableRecord
100
AcDbRegAppTableRecord
2
ACAD
70
0
0
ENDTAB
0
TABLE
2
DIMSTYLE
5
28
100
AcDbSymbolTable
70
2
100
AcDbDimStyleTable
71
2
0
DIMSTYLE
105
29
330
28
100
AcDbSymbolTableRecord
100
AcDbDimStyleTableRecord
2
Standard
70
0
40
1.0
41
2.5
42
0.625
43
3.75
44
1.25
45
0.0
46
0.0
47
0.0
48
0.0
140
2.5
141
2.5
142
0.0
143
0.03937007874016
144
1.0
145
0.0
146
1.0
147
0.625
71
0
72
0
73
0
74
0
75
0
76
0
77
0
78
8
170
0
171
2
172
0
173
0
174
0
175
0
176
0
177
0
178
0
271
2
272
2
273
2
274
2
275
0
277
2
278
46
280
0
281
0
282
0
283
1
284
8
285
0
286
0
288
0
289
3
340
22
0
DIMSTYLE
105
2A
330
28
100
AcDbSymbolTableRecord
100
AcDbDimStyleTableRecord
2
ARCH100
70
0
40
100.0
41
2.5
42
0.625
43
3.75
44
1.25
45
0.0
46
0.0
47
0.0
48
0.0
140
2.5
141
2.5
142
1.25
143
0.03937007874016
144
1.0
145
0.0
146
1.0
147
0.625
71
0
72
0
73
0
74
0
75
0
76
0
77
1
78
8
170
0
171
2
172
0
173
0
174
0
175
0
176
0
177
0
178
0
271
0
272
2
273
2
274
2
275
0
277
2
278
46
280
0
281
0
282
0
283
1
284
8
285
0
286
0
288
0
289
3
340
22
0
ENDTAB
0
TABLE
2
BLOCK_RECORD
5
2B
100
AcDbSymbolTable
70
36
0
BLOCK_RECORD
5
2C
330
2B
100
AcDbSymbolTableRecord
100
AcDbBlockTableRecord
2
*Model_Space
340
F06
0
BLOCK_RECORD
5
2D
330
2B
100
AcDbSymbolTableRecord
100
AcDbBlockTableRecord
2
*Paper_Space
340
F07
0
BLOCK_RECORD
5
4101
330
2B
100
AcDbSymbolTableRecord
100
AcDbBlockTableRecord
2
*D1
0
BLOCK_RECORD
5
4102
330
2B
100
AcDbSymbolTableRecord
100
AcDbBlockTableRecord
2
*D2
0
BLOCK_RECORD
5
4103
330
2B
100
AcDbSymbolTableRecord
100
AcDbBlockTableRecord
2
*D3
0
BLOCK_RECORD
5
4104
330
2B
100
AcDbSymbolTableRecord
100
AcDbBlockTableRecord
2
*D4
0
BLOCK_RECORD
5
4105
330
2B
100
AcDbSymbolTableRecord
100
AcDbBlockTableRecord
2
*D5
0
BLOCK_RECORD
5
4106
330
2B
100
AcDbSymbolTableRecord
100
AcDbBlockTableRecord
2
*D6
0
BLOCK_RECORD
5
4107
330
2B
100
AcDbSymbolTableRecord
100
AcDbBlockTableRecord
2
*D7
0
BLOCK_RECORD
5
4108
330
2B
100
AcDbSymbolTableRecord
100
AcDbBlockTableRecord
2
*D8
0
BLOCK_RECORD
5
4109
330
2B
100
AcDbSymbolTableRecord
100
AcDbBlockTableRecord
2
*D9
0
BLOCK_RECORD
5
4110
330
2B
100
AcDbSymbolTableRecord
100
AcDbBlockTableRecord
2
*D10
0
BLOCK_RECORD
5
4111
330
2B
100
AcDbSymbolTableRecord
100
AcDbBlockTableRecord
2
*D11
0
BLOCK_RECORD
5
4112
330
2B
100
AcDbSymbolTableRecord
100
AcDbBlockTableRecord
2
*D12
0
BLOCK_RECORD
5
4113
330
2B
100
AcDbSymbolTableRecord
100
AcDbBlockTableRecord
2
*D13
0
BLOCK_RECORD
5
4114
330
2B
100
AcDbSymbolTableRecord
100
AcDbBlockTableRecord
2
*D14
0
BLOCK_RECORD
5
4115
330
2B
100
AcDbSymbolTableRecord
100
AcDbBlockTableRecord
2
*D15
0
BLOCK_RECORD
5
4116
330
2B
100
AcDbSymbolTableRecord
100
AcDbBlockTableRecord
2
*D16
0
BLOCK_RECORD
5
4117
330
2B
100
AcDbSymbolTableRecord
100
AcDbBlockTableRecord
2
*D17
0
BLOCK_RECORD
5
4118
330
2B
100
AcDbSymbolTableRecord
100
AcDbBlockTableRecord
2
*D18
0
BLOCK_RECORD
5
4119
330
2B
100
AcDbSymbolTableRecord
100
AcDbBlockTableRecord
2
*D19
0
BLOCK_RECORD
5
4120
330
2B
100
AcDbSymbolTableRecord
100
AcDbBlockTableRecord
2
*D20
0
BLOCK_RECORD
5
4121
330
2B
100
AcDbSymbolTableRecord
100
AcDbBlockTableRecord
2
*D21
0
BLOCK_RECORD
5
4122
330
2B
100
AcDbSymbolTableRecord
100
AcDbBlockTableRecord
2
*D22
0
BLOCK_RECORD
5
4123
330
2B
100
AcDbSymbolTableRecord
100
AcDbBlockTableRecord
2
*D23
0
BLOCK_RECORD
5
4124
330
2B
100
AcDbSymbolTableRecord
100
AcDbBlockTableRecord
2
*D24
0
BLOCK_RECORD
5
4125
330
2B
100
AcDbSymbolTableRecord
100
AcDbBlockTableRecord
2
*D25
0
BLOCK_RECORD
5
4126
330
2B
100
AcDbSymbolTableRecord
100
AcDbBlockTableRecord
2
*D26
0
BLOCK_RECORD
5
4127
330
2B
100
AcDbSymbolTableRecord
100
AcDbBlockTableRecord
2
*D27
0
BLOCK_RECORD
5
4128
330
2B
100
AcDbSymbolTableRecord
100
AcDbBlockTableRecord
2
*D28
0
BLOCK_RECORD
5
4129
330
2B
100
AcDbSymbolTableRecord
100
AcDbBlockTableRecord
2
*D29
0
BLOCK_RECORD
5
4130
330
2B
100
AcDbSymbolTableRecord
100
AcDbBlockTableRecord
2
*D30
0
BLOCK_RECORD
5
4131
330
2B
100
AcDbSymbolTableRecord
100
AcDbBlockTableRecord
2
*D31
0
BLOCK_RECORD
5
4132
330
2B
100
AcDbSymbolTableRecord
100
AcDbBlockTableRecord
2
*D32
0
BLOCK_RECORD
5
4133
330
2B
100
AcDbSymbolTableRecord
100
AcDbBlockTableRecord
2
*D33
0
BLOCK_RECORD
5
4134
330
2B
100
AcDbSymbolTableRecord
100
AcDbBlockTableRecord
2
*D34
0
ENDTAB
0
ENDSEC
0
SECTION
2
BLOCKS
0
BLOCK
5
30
330
2C
100
AcDbEntity
8
0
100
AcDbBlockBegin
2
*Model_Space
70
0
10
0.0
20
0.0
30
0.0
3
*Model_Space
0
ENDBLK
5
31
330
2C
100
AcDbEntity
8
0
100
AcDbBlockEnd
0
BLOCK
5
32
330
2D
67
1
100
AcDbEntity
8
0
100
AcDbBlockBegin
2
*Paper_Space
70
0
10
0.0
20
0.0
30
0.0
3
*Paper_Space
0
ENDBLK
5
33
330
2D
67
1
100
AcDbEntity
8
0
100
AcDbBlockEnd
0
BLOCK
5
4201
330
4101
100
AcDbEntity
8
DIM
100
AcDbBlockBegin
2
*D1
70
1
10
0.0
20
0.0
30
0.0
3
*D1
0
LINE
5
5011
330
4101
100
AcDbEntity
8
DIM
100
AcDbLine
10
0.0
20
-60.0
30
0.0
11
0.0
21
-725.0
31
0.0
0
LINE
5
5012
330
4101
100
AcDbEntity
8
DIM
100
AcDbLine
10
455.0
20
-60.0
30
0.0
11
455.0
21
-725.0
31
0.0
0
LINE
5
5013
330
4101
100
AcDbEntity
8
DIM
100
AcDbLine
10
0.0
20
-600.0
30
0.0
11
455.0
21
-600.0
31
0.0
0
LINE
5
5014
330
4101
100
AcDbEntity
8
DIM
100
AcDbLine
10
-88.3883
20
-688.3883
30
0.0
11
88.3883
21
-511.6117
31
0.0
0
LINE
5
5015
330
4101
100
AcDbEntity
8
DIM
100
AcDbLine
10
366.6117
20
-688.3883
30
0.0
11
543.3883
21
-511.6117
31
0.0
0
MTEXT
5
5016
330
4101
100
AcDbEntity
8
DIM
100
AcDbMText
10
227.5
20
-410.0
30
0.0
40
250.0
41
0.0
71
5
72
1
1
455
7
Standard
50
0.0
0
ENDBLK
5
4301
330
4101
100
AcDbEntity
8
DIM
100
AcDbBlockEnd
0
BLOCK
5
4202
330
4102
100
AcDbEntity
8
DIM
100
AcDbBlockBegin
2
*D2
70
1
10
0.0
20
0.0
30
0.0
3
*D2
0
LINE
5
5021
330
4102
100
AcDbEntity
8
DIM
100
AcDbLine
10
455.0
20
-60.0
30
0.0
11
455.0
21
-725.0
31
0.0
0
LINE
5
5022
330
4102
100
AcDbEntity
8
DIM
100
AcDbLine
10
1365.0
20
-60.0
30
0.0
11
1365.0
21
-725.0
31
0.0
0
LINE
5
5023
330
4102
100
AcDbEntity
8
DIM
100
AcDbLine
10
455.0
20
-600.0
30
0.0
11
1365.0
21
-600.0
31
0.0
0
LINE
5
5024
330
4102
100
AcDbEntity
8
DIM
100
AcDbLine
10
366.6117
20
-688.3883
30
0.0
11
543.3883
21
-511.6117
31
0.0
0
LINE
5
5025
330
4102
100
AcDbEntity
8
DIM
100
AcDbLine
10
1276.6117
20
-688.3883
30
0.0
11
1453.3883
21
-511.6117
31
0.0
0
MTEXT
5
5026
330
4102
100
AcDbEntity
8
DIM
100
AcDbMText
10
910.0
20
-410.0
30
0.0
40
250.0
41
0.0
71
5
72
1
1
910
7
Standard
50
0.0
0
ENDBLK
5
4302
330
4102
100
AcDbEntity
8
DIM
100
AcDbBlockEnd
0
BLOCK
5
4203
330
4103
100
AcDbEntity
8
DIM
100
AcDbBlockBegin
2
*D3
70
1
10
0.0
20
0.0
30
0.0
3
*D3
0
LINE
5
5031
330
4103
100
AcDbEntity
8
DIM
100
AcDbLine
10
1365.0
20
-60.0
30
0.0
11
1365.0
21
-725.0
31
0.0
0
LINE
5
5032
330
4103
100
AcDbEntity
8
DIM
100
AcDbLine
10
6370.0
20
-60.0
30
0.0
11
6370.0
21
-725.0
31
0.0
0
LINE
5
5033
330
4103
100
AcDbEntity
8
DIM
100
AcDbLine
10
1365.0
20
-600.0
30
0.0
11
6370.0
21
-600.0
31
0.0
0
LINE
5
5034
330
4103
100
AcDbEntity
8
DIM
100
AcDbLine
10
1276.6117
20
-688.3883
30
0.0
11
1453.3883
21
-511.6117
31
0.0
0
LINE
5
5035
330
4103
100
AcDbEntity
8
DIM
100
AcDbLine
10
6281.6117
20
-688.3883
30
0.0
11
6458.3883
21
-511.6117
31
0.0
0
MTEXT
5
5036
330
4103
100
AcDbEntity
8
DIM
100
AcDbMText
10
3867.5
20
-410.0
30
0.0
40
250.0
41
0.0
71
5
72
1
1
5005
7
Standard
50
0.0
0
ENDBLK
5
4303
330
4103
100
AcDbEntity
8
DIM
100
AcDbBlockEnd
0
BLOCK
5
4204
330
4104
100
AcDbEntity
8
DIM
100
AcDbBlockBegin
2
*D4
70
1
10
0.0
20
0.0
30
0.0
3
*D4
0
LINE
5
5041
330
4104
100
AcDbEntity
8
DIM
100
AcDbLine
10
6370.0
20
-60.0
30
0.0
11
6370.0
21
-725.0
31
0.0
0
LINE
5
5042
330
4104
100
AcDbEntity
8
DIM
100
AcDbLine
10
8190.0
20
-60.0
30
0.0
11
8190.0
21
-725.0
31
0.0
0
LINE
5
5043
330
4104
100
AcDbEntity
8
DIM
100
AcDbLine
10
6370.0
20
-600.0
30
0.0
11
8190.0
21
-600.0
31
0.0
0
LINE
5
5044
330
4104
100
AcDbEntity
8
DIM
100
AcDbLine
10
6281.6117
20
-688.3883
30
0.0
11
6458.3883
21
-511.6117
31
0.0
0
LINE
5
5045
330
4104
100
AcDbEntity
8
DIM
100
AcDbLine
10
8101.6117
20
-688.3883
30
0.0
11
8278.3883
21
-511.6117
31
0.0
0
MTEXT
5
5046
330
4104
100
AcDbEntity
8
DIM
100
AcDbMText
10
7280.0
20
-410.0
30
0.0
40
250.0
41
0.0
71
5
72
1
1
1820
7
Standard
50
0.0
0
ENDBLK
5
4304
330
4104
100
AcDbEntity
8
DIM
100
AcDbBlockEnd
0
BLOCK
5
4205
330
4105
100
AcDbEntity
8
DIM
100
AcDbBlockBegin
2
*D5
70
1
10
0.0
20
0.0
30
0.0
3
*D5
0
LINE
5
5051
330
4105
100
AcDbEntity
8
DIM
100
AcDbLine
10
8190.0
20
-60.0
30
0.0
11
8190.0
21
-725.0
31
0.0
0
LINE
5
5052
330
4105
100
AcDbEntity
8
DIM
100
AcDbLine
10
9100.0
20
-60.0
30
0.0
11
9100.0
21
-725.0
31
0.0
0
LINE
5
5053
330
4105
100
AcDbEntity
8
DIM
100
AcDbLine
10
8190.0
20
-600.0
30
0.0
11
9100.0
21
-600.0
31
0.0
0
LINE
5
5054
330
4105
100
AcDbEntity
8
DIM
100
AcDbLine
10
8101.6117
20
-688.3883
30
0.0
11
8278.3883
21
-511.6117
31
0.0
0
LINE
5
5055
330
4105
100
AcDbEntity
8
DIM
100
AcDbLine
10
9011.6117
20
-688.3883
30
0.0
11
9188.3883
21
-511.6117
31
0.0
0
MTEXT
5
5056
330
4105
100
AcDbEntity
8
DIM
100
AcDbMText
10
8645.0
20
-410.0
30
0.0
40
250.0
41
0.0
71
5
72
1
1
910
7
Standard
50
0.0
0
ENDBLK
5
4305
330
4105
100
AcDbEntity
8
DIM
100
AcDbBlockEnd
0
BLOCK
5
4206
330
4106
100
AcDbEntity
8
DIM
100
AcDbBlockBegin
2
*D6
70
1
10
0.0
20
0.0
30
0.0
3
*D6
0
LINE
5
5061
330
4106
100
AcDbEntity
8
DIM
100
AcDbLine
10
0.0
20
-60.0
30
0.0
11
0.0
21
-1725.0
31
0.0
0
LINE
5
5062
330
4106
100
AcDbEntity
8
DIM
100
AcDbLine
10
910.0
20
-60.0
30
0.0
11
910.0
21
-1725.0
31
0.0
0
LINE
5
5063
330
4106
100
AcDbEntity
8
DIM
100
AcDbLine
10
0.0
20
-1600.0
30
0.0
11
910.0
21
-1600.0
31
0.0
0
LINE
5
5064
330
4106
100
AcDbEntity
8
DIM
100
AcDbLine
10
-88.3883
20
-1688.3883
30
0.0
11
88.3883
21
-1511.6117
31
0.0
0
LINE
5
5065
330
4106
100
AcDbEntity
8
DIM
100
AcDbLine
10
821.6117
20
-1688.3883
30
0.0
11
998.3883
21
-1511.6117
31
0.0
0
MTEXT
5
5066
330
4106
100
AcDbEntity
8
DIM
100
AcDbMText
10
455.0
20
-1410.0
30
0.0
40
250.0
41
0.0
71
5
72
1
1
910
7
Standard
50
0.0
0
ENDBLK
5
4306
330
4106
100
AcDbEntity
8
DIM
100
AcDbBlockEnd
0
BLOCK
5
4207
330
4107
100
AcDbEntity
8
DIM
100
AcDbBlockBegin
2
*D7
70
1
10
0.0
20
0.0
30
0.0
3
*D7
0
LINE
5
5071
330
4107
100
AcDbEntity
8
DIM
100
AcDbLine
10
910.0
20
-60.0
30
0.0
11
910.0
21
-1725.0
31
0.0
0
LINE
5
5072
330
4107
100
AcDbEntity
8
DIM
100
AcDbLine
10
1820.0
20
-60.0
30
0.0
11
1820.0
21
-1725.0
31
0.0
0
LINE
5
5073
330
4107
100
AcDbEntity
8
DIM
100
AcDbLine
10
910.0
20
-1600.0
30
0.0
11
1820.0
21
-1600.0
31
0.0
0
LINE
5
5074
330
4107
100
AcDbEntity
8
DIM
100
AcDbLine
10
821.6117
20
-1688.3883
30
0.0
11
998.3883
21
-1511.6117
31
0.0
0
LINE
5
5075
330
4107
100
AcDbEntity
8
DIM
100
AcDbLine
10
1731.6117
20
-1688.3883
30
0.0
11
1908.3883
21
-1511.6117
31
0.0
0
MTEXT
5
5076
330
4107
100
AcDbEntity
8
DIM
100
AcDbMText
10
1365.0
20
-1410.0
30
0.0
40
250.0
41
0.0
71
5
72
1
1
910
7
Standard
50
0.0
0
ENDBLK
5
4307
330
4107
100
AcDbEntity
8
DIM
100
AcDbBlockEnd
0
BLOCK
5
4208
330
4108
100
AcDbEntity
8
DIM
100
AcDbBlockBegin
2
*D8
70
1
10
0.0
20
0.0
30
0.0
3
*D8
0
LINE
5
5081
330
4108
100
AcDbEntity
8
DIM
100
AcDbLine
10
1820.0
20
-60.0
30
0.0
11
1820.0
21
-1725.0
31
0.0
0
LINE
5
5082
330
4108
100
AcDbEntity
8
DIM
100
AcDbLine
10
2730.0
20
-60.0
30
0.0
11
2730.0
21
-1725.0
31
0.0
0
LINE
5
5083
330
4108
100
AcDbEntity
8
DIM
100
AcDbLine
10
1820.0
20
-1600.0
30
0.0
11
2730.0
21
-1600.0
31
0.0
0
LINE
5
5084
330
4108
100
AcDbEntity
8
DIM
100
AcDbLine
10
1731.6117
20
-1688.3883
30
0.0
11
1908.3883
21
-1511.6117
31
0.0
0
LINE
5
5085
330
4108
100
AcDbEntity
8
DIM
100
AcDbLine
10
2641.6117
20
-1688.3883
30
0.0
11
2818.3883
21
-1511.6117
31
0.0
0
MTEXT
5
5086
330
4108
100
AcDbEntity
8
DIM
100
AcDbMText
10
2275.0
20
-1410.0
30
0.0
40
250.0
41
0.0
71
5
72
1
1
910
7
Standard
50
0.0
0
ENDBLK
5
4308
330
4108
100
AcDbEntity
8
DIM
100
AcDbBlockEnd
0
BLOCK
5
4209
330
4109
100
AcDbEntity
8
DIM
100
AcDbBlockBegin
2
*D9
70
1
10
0.0
20
0.0
30
0.0
3
*D9
0
LINE
5
5091
330
4109
100
AcDbEntity
8
DIM
100
AcDbLine
10
2730.0
20
-60.0
30
0.0
11
2730.0
21
-1725.0
31
0.0
0
LINE
5
5092
330
4109
100
AcDbEntity
8
DIM
100
AcDbLine
10
3640.0
20
-60.0
30
0.0
11
3640.0
21
-1725.0
31
0.0
0
LINE
5
5093
330
4109
100
AcDbEntity
8
DIM
100
AcDbLine
10
2730.0
20
-1600.0
30
0.0
11
3640.0
21
-1600.0
31
0.0
0
LINE
5
5094
330
4109
100
AcDbEntity
8
DIM
100
AcDbLine
10
2641.6117
20
-1688.3883
30
0.0
11
2818.3883
21
-1511.6117
31
0.0
0
LINE
5
5095
330
4109
100
AcDbEntity
8
DIM
100
AcDbLine
10
3551.6117
20
-1688.3883
30
0.0
11
3728.3883
21
-1511.6117
31
0.0
0
MTEXT
5
5096
330
4109
100
AcDbEntity
8
DIM
100
AcDbMText
10
3185.0
20
-1410.0
30
0.0
40
250.0
41
0.0
71
5
72
1
1
910
7
Standard
50
0.0
0
ENDBLK
5
4309
330
4109
100
AcDbEntity
8
DIM
100
AcDbBlockEnd
0
BLOCK
5
4210
330
4110
100
AcDbEntity
8
DIM
100
AcDbBlockBegin
2
*D10
70
1
10
0.0
20
0.0
30
0.0
3
*D10
0
LINE
5
5101
330
4110
100
AcDbEntity
8
DIM
100
AcDbLine
10
3640.0
20
-60.0
30
0.0
11
3640.0
21
-1725.0
31
0.0
0
LINE
5
5102
330
4110
100
AcDbEntity
8
DIM
100
AcDbLine
10
4550.0
20
-60.0
30
0.0
11
4550.0
21
-1725.0
31
0.0
0
LINE
5
5103
330
4110
100
AcDbEntity
8
DIM
100
AcDbLine
10
3640.0
20
-1600.0
30
0.0
11
4550.0
21
-1600.0
31
0.0
0
LINE
5
5104
330
4110
100
AcDbEntity
8
DIM
100
AcDbLine
10
3551.6117
20
-1688.3883
30
0.0
11
3728.3883
21
-1511.6117
31
0.0
0
LINE
5
5105
330
4110
100
AcDbEntity
8
DIM
100
AcDbLine
10
4461.6117
20
-1688.3883
30
0.0
11
4638.3883
21
-1511.6117
31
0.0
0
MTEXT
5
5106
330
4110
100
AcDbEntity
8
DIM
100
AcDbMText
10
4095.0
20
-1410.0
30
0.0
40
250.0
41
0.0
71
5
72
1
1
910
7
Standard
50
0.0
0
ENDBLK
5
4310
330
4110
100
AcDbEntity
8
DIM
100
AcDbBlockEnd
0
BLOCK
5
4211
330
4111
100
AcDbEntity
8
DIM
100
AcDbBlockBegin
2
*D11
70
1
10
0.0
20
0.0
30
0.0
3
*D11
0
LINE
5
5111
330
4111
100
AcDbEntity
8
DIM
100
AcDbLine
10
4550.0
20
-60.0
30
0.0
11
4550.0
21
-1725.0
31
0.0
0
LINE
5
5112
330
4111
100
AcDbEntity
8
DIM
100
AcDbLine
10
5460.0
20
-60.0
30
0.0
11
5460.0
21
-1725.0
31
0.0
0
LINE
5
5113
330
4111
100
AcDbEntity
8
DIM
100
AcDbLine
10
4550.0
20
-1600.0
30
0.0
11
5460.0
21
-1600.0
31
0.0
0
LINE
5
5114
330
4111
100
AcDbEntity
8
DIM
100
AcDbLine
10
4461.6117
20
-1688.3883
30
0.0
11
4638.3883
21
-1511.6117
31
0.0
0
LINE
5
5115
330
4111
100
AcDbEntity
8
DIM
100
AcDbLine
10
5371.6117
20
-1688.3883
30
0.0
11
5548.3883
21
-1511.6117
31
0.0
0
MTEXT
5
5116
330
4111
100
AcDbEntity
8
DIM
100
AcDbMText
10
5005.0
20
-1410.0
30
0.0
40
250.0
41
0.0
71
5
72
1
1
910
7
Standard
50
0.0
0
ENDBLK
5
4311
330
4111
100
AcDbEntity
8
DIM
100
AcDbBlockEnd
0
BLOCK
5
4212
330
4112
100
AcDbEntity
8
DIM
100
AcDbBlockBegin
2
*D12
70
1
10
0.0
20
0.0
30
0.0
3
*D12
0
LINE
5
5121
330
4112
100
AcDbEntity
8
DIM
100
AcDbLine
10
5460.0
20
-60.0
30
0.0
11
5460.0
21
-1725.0
31
0.0
0
LINE
5
5122
330
4112
100
AcDbEntity
8
DIM
100
AcDbLine
10
6370.0
20
-60.0
30
0.0
11
6370.0
21
-1725.0
31
0.0
0
LINE
5
5123
330
4112
100
AcDbEntity
8
DIM
100
AcDbLine
10
5460.0
20
-1600.0
30
0.0
11
6370.0
21
-1600.0
31
0.0
0
LINE
5
5124
330
4112
100
AcDbEntity
8
DIM
100
AcDbLine
10
5371.6117
20
-1688.3883
30
0.0
11
5548.3883
21
-1511.6117
31
0.0
0
LINE
5
5125
330
4112
100
AcDbEntity
8
DIM
100
AcDbLine
10
6281.6117
20
-1688.3883
30
0.0
11
6458.3883
21
-1511.6117
31
0.0
0
MTEXT
5
5126
330
4112
100
AcDbEntity
8
DIM
100
AcDbMText
10
5915.0
20
-1410.0
30
0.0
40
250.0
41
0.0
71
5
72
1
1
910
7
Standard
50
0.0
0
ENDBLK
5
4312
330
4112
100
AcDbEntity
8
DIM
100
AcDbBlockEnd
0
BLOCK
5
4213
330
4113
100
AcDbEntity
8
DIM
100
AcDbBlockBegin
2
*D13
70
1
10
0.0
20
0.0
30
0.0
3
*D13
0
LINE
5
5131
330
4113
100
AcDbEntity
8
DIM
100
AcDbLine
10
6370.0
20
-60.0
30
0.0
11
6370.0
21
-1725.0
31
0.0
0
LINE
5
5132
330
4113
100
AcDbEntity
8
DIM
100
AcDbLine
10
7280.0
20
-60.0
30
0.0
11
7280.0
21
-1725.0
31
0.0
0
LINE
5
5133
330
4113
100
AcDbEntity
8
DIM
100
AcDbLine
10
6370.0
20
-1600.0
30
0.0
11
7280.0
21
-1600.0
31
0.0
0
LINE
5
5134
330
4113
100
AcDbEntity
8
DIM
100
AcDbLine
10
6281.6117
20
-1688.3883
30
0.0
11
6458.3883
21
-1511.6117
31
0.0
0
LINE
5
5135
330
4113
100
AcDbEntity
8
DIM
100
AcDbLine
10
7191.6117
20
-1688.3883
30
0.0
11
7368.3883
21
-1511.6117
31
0.0
0
MTEXT
5
5136
330
4113
100
AcDbEntity
8
DIM
100
AcDbMText
10
6825.0
20
-1410.0
30
0.0
40
250.0
41
0.0
71
5
72
1
1
910
7
Standard
50
0.0
0
ENDBLK
5
4313
330
4113
100
AcDbEntity
8
DIM
100
AcDbBlockEnd
0
BLOCK
5
4214
330
4114
100
AcDbEntity
8
DIM
100
AcDbBlockBegin
2
*D14
70
1
10
0.0
20
0.0
30
0.0
3
*D14
0
LINE
5
5141
330
4114
100
AcDbEntity
8
DIM
100
AcDbLine
10
7280.0
20
-60.0
30
0.0
11
7280.0
21
-1725.0
31
0.0
0
LINE
5
5142
330
4114
100
AcDbEntity
8
DIM
100
AcDbLine
10
8190.0
20
-60.0
30
0.0
11
8190.0
21
-1725.0
31
0.0
0
LINE
5
5143
330
4114
100
AcDbEntity
8
DIM
100
AcDbLine
10
7280.0
20
-1600.0
30
0.0
11
8190.0
21
-1600.0
31
0.0
0
LINE
5
5144
330
4114
100
AcDbEntity
8
DIM
100
AcDbLine
10
7191.6117
20
-1688.3883
30
0.0
11
7368.3883
21
-1511.6117
31
0.0
0
LINE
5
5145
330
4114
100
AcDbEntity
8
DIM
100
AcDbLine
10
8101.6117
20
-1688.3883
30
0.0
11
8278.3883
21
-1511.6117
31
0.0
0
MTEXT
5
5146
330
4114
100
AcDbEntity
8
DIM
100
AcDbMText
10
7735.0
20
-1410.0
30
0.0
40
250.0
41
0.0
71
5
72
1
1
910
7
Standard
50
0.0
0
ENDBLK
5
4314
330
4114
100
AcDbEntity
8
DIM
100
AcDbBlockEnd
0
BLOCK
5
4215
330
4115
100
AcDbEntity
8
DIM
100
AcDbBlockBegin
2
*D15
70
1
10
0.0
20
0.0
30
0.0
3
*D15
0
LINE
5
5151
330
4115
100
AcDbEntity
8
DIM
100
AcDbLine
10
8190.0
20
-60.0
30
0.0
11
8190.0
21
-1725.0
31
0.0
0
LINE
5
5152
330
4115
100
AcDbEntity
8
DIM
100
AcDbLine
10
9100.0
20
-60.0
30
0.0
11
9100.0
21
-1725.0
31
0.0
0
LINE
5
5153
330
4115
100
AcDbEntity
8
DIM
100
AcDbLine
10
8190.0
20
-1600.0
30
0.0
11
9100.0
21
-1600.0
31
0.0
0
LINE
5
5154
330
4115
100
AcDbEntity
8
DIM
100
AcDbLine
10
8101.6117
20
-1688.3883
30
0.0
11
8278.3883
21
-1511.6117
31
0.0
0
LINE
5
5155
330
4115
100
AcDbEntity
8
DIM
100
AcDbLine
10
9011.6117
20
-1688.3883
30
0.0
11
9188.3883
21
-1511.6117
31
0.0
0
MTEXT
5
5156
330
4115
100
AcDbEntity
8
DIM
100
AcDbMText
10
8645.0
20
-1410.0
30
0.0
40
250.0
41
0.0
71
5
72
1
1
910
7
Standard
50
0.0
0
ENDBLK
5
4315
330
4115
100
AcDbEntity
8
DIM
100
AcDbBlockEnd
0
BLOCK
5
4216
330
4116
100
AcDbEntity
8
DIM
100
AcDbBlockBegin
2
*D16
70
1
10
0.0
20
0.0
30
0.0
3
*D16
0
LINE
5
5161
330
4116
100
AcDbEntity
8
DIM
100
AcDbLine
10
0.0
20
-60.0
30
0.0
11
0.0
21
-2725.0
31
0.0
0
LINE
5
5162
330
4116
100
AcDbEntity
8
DIM
100
AcDbLine
10
9100.0
20
-60.0
30
0.0
11
9100.0
21
-2725.0
31
0.0
0
LINE
5
5163
330
4116
100
AcDbEntity
8
DIM
100
AcDbLine
10
0.0
20
-2600.0
30
0.0
11
9100.0
21
-2600.0
31
0.0
0
LINE
5
5164
330
4116
100
AcDbEntity
8
DIM
100
AcDbLine
10
-88.3883
20
-2688.3883
30
0.0
11
88.3883
21
-2511.6117
31
0.0
0
LINE
5
5165
330
4116
100
AcDbEntity
8
DIM
100
AcDbLine
10
9011.6117
20
-2688.3883
30
0.0
11
9188.3883
21
-2511.6117
31
0.0
0
MTEXT
5
5166
330
4116
100
AcDbEntity
8
DIM
100
AcDbMText
10
4550.0
20
-2410.0
30
0.0
40
250.0
41
0.0
71
5
72
1
1
9100
7
Standard
50
0.0
0
ENDBLK
5
4316
330
4116
100
AcDbEntity
8
DIM
100
AcDbBlockEnd
0
BLOCK
5
4217
330
4117
100
AcDbEntity
8
DIM
100
AcDbBlockBegin
2
*D17
70
1
10
0.0
20
0.0
30
0.0
3
*D17
0
LINE
5
5171
330
4117
100
AcDbEntity
8
DIM
100
AcDbLine
10
-60.0
20
0.0
30
0.0
11
-725.0
21
0.0
31
0.0
0
LINE
5
5172
330
4117
100
AcDbEntity
8
DIM
100
AcDbLine
10
-60.0
20
910.0
30
0.0
11
-725.0
21
910.0
31
0.0
0
LINE
5
5173
330
4117
100
AcDbEntity
8
DIM
100
AcDbLine
10
-600.0
20
0.0
30
0.0
11
-600.0
21
910.0
31
0.0
0
LINE
5
5174
330
4117
100
AcDbEntity
8
DIM
100
AcDbLine
10
-688.3883
20
-88.3883
30
0.0
11
-511.6117
21
88.3883
31
0.0
0
LINE
5
5175
330
4117
100
AcDbEntity
8
DIM
100
AcDbLine
10
-688.3883
20
821.6117
30
0.0
11
-511.6117
21
998.3883
31
0.0
0
MTEXT
5
5176
330
4117
100
AcDbEntity
8
DIM
100
AcDbMText
10
-790.0
20
455.0
30
0.0
40
250.0
41
0.0
71
5
72
1
1
910
7
Standard
50
90.0
0
ENDBLK
5
4317
330
4117
100
AcDbEntity
8
DIM
100
AcDbBlockEnd
0
BLOCK
5
4218
330
4118
100
AcDbEntity
8
DIM
100
AcDbBlockBegin
2
*D18
70
1
10
0.0
20
0.0
30
0.0
3
*D18
0
LINE
5
5181
330
4118
100
AcDbEntity
8
DIM
100
AcDbLine
10
-60.0
20
910.0
30
0.0
11
-725.0
21
910.0
31
0.0
0
LINE
5
5182
330
4118
100
AcDbEntity
8
DIM
100
AcDbLine
10
-60.0
20
1820.0
30
0.0
11
-725.0
21
1820.0
31
0.0
0
LINE
5
5183
330
4118
100
AcDbEntity
8
DIM
100
AcDbLine
10
-600.0
20
910.0
30
0.0
11
-600.0
21
1820.0
31
0.0
0
LINE
5
5184
330
4118
100
AcDbEntity
8
DIM
100
AcDbLine
10
-688.3883
20
821.6117
30
0.0
11
-511.6117
21
998.3883
31
0.0
0
LINE
5
5185
330
4118
100
AcDbEntity
8
DIM
100
AcDbLine
10
-688.3883
20
1731.6117
30
0.0
11
-511.6117
21
1908.3883
31
0.0
0
MTEXT
5
5186
330
4118
100
AcDbEntity
8
DIM
100
AcDbMText
10
-790.0
20
1365.0
30
0.0
40
250.0
41
0.0
71
5
72
1
1
910
7
Standard
50
90.0
0
ENDBLK
5
4318
330
4118
100
AcDbEntity
8
DIM
100
AcDbBlockEnd
0
BLOCK
5
4219
330
4119
100
AcDbEntity
8
DIM
100
AcDbBlockBegin
2
*D19
70
1
10
0.0
20
0.0
30
0.0
3
*D19
0
LINE
5
5191
330
4119
100
AcDbEntity
8
DIM
100
AcDbLine
10
-60.0
20
1820.0
30
0.0
11
-725.0
21
1820.0
31
0.0
0
LINE
5
5192
330
4119
100
AcDbEntity
8
DIM
100
AcDbLine
10
-60.0
20
2730.0
30
0.0
11
-725.0
21
2730.0
31
0.0
0
LINE
5
5193
330
4119
100
AcDbEntity
8
DIM
100
AcDbLine
10
-600.0
20
1820.0
30
0.0
11
-600.0
21
2730.0
31
0.0
0
LINE
5
5194
330
4119
100
AcDbEntity
8
DIM
100
AcDbLine
10
-688.3883
20
1731.6117
30
0.0
11
-511.6117
21
1908.3883
31
0.0
0
LINE
5
5195
330
4119
100
AcDbEntity
8
DIM
100
AcDbLine
10
-688.3883
20
2641.6117
30
0.0
11
-511.6117
21
2818.3883
31
0.0
0
MTEXT
5
5196
330
4119
100
AcDbEntity
8
DIM
100
AcDbMText
10
-790.0
20
2275.0
30
0.0
40
250.0
41
0.0
71
5
72
1
1
910
7
Standard
50
90.0
0
ENDBLK
5
4319
330
4119
100
AcDbEntity
8
DIM
100
AcDbBlockEnd
0
BLOCK
5
4220
330
4120
100
AcDbEntity
8
DIM
100
AcDbBlockBegin
2
*D20
70
1
10
0.0
20
0.0
30
0.0
3
*D20
0
LINE
5
5201
330
4120
100
AcDbEntity
8
DIM
100
AcDbLine
10
-60.0
20
2730.0
30
0.0
11
-725.0
21
2730.0
31
0.0
0
LINE
5
5202
330
4120
100
AcDbEntity
8
DIM
100
AcDbLine
10
-60.0
20
3640.0
30
0.0
11
-725.0
21
3640.0
31
0.0
0
LINE
5
5203
330
4120
100
AcDbEntity
8
DIM
100
AcDbLine
10
-600.0
20
2730.0
30
0.0
11
-600.0
21
3640.0
31
0.0
0
LINE
5
5204
330
4120
100
AcDbEntity
8
DIM
100
AcDbLine
10
-688.3883
20
2641.6117
30
0.0
11
-511.6117
21
2818.3883
31
0.0
0
LINE
5
5205
330
4120
100
AcDbEntity
8
DIM
100
AcDbLine
10
-688.3883
20
3551.6117
30
0.0
11
-511.6117
21
3728.3883
31
0.0
0
MTEXT
5
5206
330
4120
100
AcDbEntity
8
DIM
100
AcDbMText
10
-790.0
20
3185.0
30
0.0
40
250.0
41
0.0
71
5
72
1
1
910
7
Standard
50
90.0
0
ENDBLK
5
4320
330
4120
100
AcDbEntity
8
DIM
100
AcDbBlockEnd
0
BLOCK
5
4221
330
4121
100
AcDbEntity
8
DIM
100
AcDbBlockBegin
2
*D21
70
1
10
0.0
20
0.0
30
0.0
3
*D21
0
LINE
5
5211
330
4121
100
AcDbEntity
8
DIM
100
AcDbLine
10
-60.0
20
3640.0
30
0.0
11
-725.0
21
3640.0
31
0.0
0
LINE
5
5212
330
4121
100
AcDbEntity
8
DIM
100
AcDbLine
10
-60.0
20
4550.0
30
0.0
11
-725.0
21
4550.0
31
0.0
0
LINE
5
5213
330
4121
100
AcDbEntity
8
DIM
100
AcDbLine
10
-600.0
20
3640.0
30
0.0
11
-600.0
21
4550.0
31
0.0
0
LINE
5
5214
330
4121
100
AcDbEntity
8
DIM
100
AcDbLine
10
-688.3883
20
3551.6117
30
0.0
11
-511.6117
21
3728.3883
31
0.0
0
LINE
5
5215
330
4121
100
AcDbEntity
8
DIM
100
AcDbLine
10
-688.3883
20
4461.6117
30
0.0
11
-511.6117
21
4638.3883
31
0.0
0
MTEXT
5
5216
330
4121
100
AcDbEntity
8
DIM
100
AcDbMText
10
-790.0
20
4095.0
30
0.0
40
250.0
41
0.0
71
5
72
1
1
910
7
Standard
50
90.0
0
ENDBLK
5
4321
330
4121
100
AcDbEntity
8
DIM
100
AcDbBlockEnd
0
BLOCK
5
4222
330
4122
100
AcDbEntity
8
DIM
100
AcDbBlockBegin
2
*D22
70
1
10
0.0
20
0.0
30
0.0
3
*D22
0
LINE
5
5221
330
4122
100
AcDbEntity
8
DIM
100
AcDbLine
10
-60.0
20
4550.0
30
0.0
11
-725.0
21
4550.0
31
0.0
0
LINE
5
5222
330
4122
100
AcDbEntity
8
DIM
100
AcDbLine
10
-60.0
20
5460.0
30
0.0
11
-725.0
21
5460.0
31
0.0
0
LINE
5
5223
330
4122
100
AcDbEntity
8
DIM
100
AcDbLine
10
-600.0
20
4550.0
30
0.0
11
-600.0
21
5460.0
31
0.0
0
LINE
5
5224
330
4122
100
AcDbEntity
8
DIM
100
AcDbLine
10
-688.3883
20
4461.6117
30
0.0
11
-511.6117
21
4638.3883
31
0.0
0
LINE
5
5225
330
4122
100
AcDbEntity
8
DIM
100
AcDbLine
10
-688.3883
20
5371.6117
30
0.0
11
-511.6117
21
5548.3883
31
0.0
0
MTEXT
5
5226
330
4122
100
AcDbEntity
8
DIM
100
AcDbMText
10
-790.0
20
5005.0
30
0.0
40
250.0
41
0.0
71
5
72
1
1
910
7
Standard
50
90.0
0
ENDBLK
5
4322
330
4122
100
AcDbEntity
8
DIM
100
AcDbBlockEnd
0
BLOCK
5
4223
330
4123
100
AcDbEntity
8
DIM
100
AcDbBlockBegin
2
*D23
70
1
10
0.0
20
0.0
30
0.0
3
*D23
0
LINE
5
5231
330
4123
100
AcDbEntity
8
DIM
100
AcDbLine
10
-60.0
20
5460.0
30
0.0
11
-725.0
21
5460.0
31
0.0
0
LINE
5
5232
330
4123
100
AcDbEntity
8
DIM
100
AcDbLine
10
-60.0
20
6370.0
30
0.0
11
-725.0
21
6370.0
31
0.0
0
LINE
5
5233
330
4123
100
AcDbEntity
8
DIM
100
AcDbLine
10
-600.0
20
5460.0
30
0.0
11
-600.0
21
6370.0
31
0.0
0
LINE
5
5234
330
4123
100
AcDbEntity
8
DIM
100
AcDbLine
10
-688.3883
20
5371.6117
30
0.0
11
-511.6117
21
5548.3883
31
0.0
0
LINE
5
5235
330
4123
100
AcDbEntity
8
DIM
100
AcDbLine
10
-688.3883
20
6281.6117
30
0.0
11
-511.6117
21
6458.3883
31
0.0
0
MTEXT
5
5236
330
4123
100
AcDbEntity
8
DIM
100
AcDbMText
10
-790.0
20
5915.0
30
0.0
40
250.0
41
0.0
71
5
72
1
1
910
7
Standard
50
90.0
0
ENDBLK
5
4323
330
4123
100
AcDbEntity
8
DIM
100
AcDbBlockEnd
0
BLOCK
5
4224
330
4124
100
AcDbEntity
8
DIM
100
AcDbBlockBegin
2
*D24
70
1
10
0.0
20
0.0
30
0.0
3
*D24
0
LINE
5
5241
330
4124
100
AcDbEntity
8
DIM
100
AcDbLine
10
-60.0
20
6370.0
30
0.0
11
-725.0
21
6370.0
31
0.0
0
LINE
5
5242
330
4124
100
AcDbEntity
8
DIM
100
AcDbLine
10
-60.0
20
7280.0
30
0.0
11
-725.0
21
7280.0
31
0.0
0
LINE
5
5243
330
4124
100
AcDbEntity
8
DIM
100
AcDbLine
10
-600.0
20
6370.0
30
0.0
11
-600.0
21
7280.0
31
0.0
0
LINE
5
5244
330
4124
100
AcDbEntity
8
DIM
100
AcDbLine
10
-688.3883
20
6281.6117
30
0.0
11
-511.6117
21
6458.3883
31
0.0
0
LINE
5
5245
330
4124
100
AcDbEntity
8
DIM
100
AcDbLine
10
-688.3883
20
7191.6117
30
0.0
11
-511.6117
21
7368.3883
31
0.0
0
MTEXT
5
5246
330
4124
100
AcDbEntity
8
DIM
100
AcDbMText
10
-790.0
20
6825.0
30
0.0
40
250.0
41
0.0
71
5
72
1
1
910
7
Standard
50
90.0
0
ENDBLK
5
4324
330
4124
100
AcDbEntity
8
DIM
100
AcDbBlockEnd
0
BLOCK
5
4225
330
4125
100
AcDbEntity
8
DIM
100
AcDbBlockBegin
2
*D25
70
1
10
0.0
20
0.0
30
0.0
3
*D25
0
LINE
5
5251
330
4125
100
AcDbEntity
8
DIM
100
AcDbLine
10
-60.0
20
7280.0
30
0.0
11
-725.0
21
7280.0
31
0.0
0
LINE
5
5252
330
4125
100
AcDbEntity
8
DIM
100
AcDbLine
10
-60.0
20
8190.0
30
0.0
11
-725.0
21
8190.0
31
0.0
0
LINE
5
5253
330
4125
100
AcDbEntity
8
DIM
100
AcDbLine
10
-600.0
20
7280.0
30
0.0
11
-600.0
21
8190.0
31
0.0
0
LINE
5
5254
330
4125
100
AcDbEntity
8
DIM
100
AcDbLine
10
-688.3883
20
7191.6117
30
0.0
11
-511.6117
21
7368.3883
31
0.0
0
LINE
5
5255
330
4125
100
AcDbEntity
8
DIM
100
AcDbLine
10
-688.3883
20
8101.6117
30
0.0
11
-511.6117
21
8278.3883
31
0.0
0
MTEXT
5
5256
330
4125
100
AcDbEntity
8
DIM
100
AcDbMText
10
-790.0
20
7735.0
30
0.0
40
250.0
41
0.0
71
5
72
1
1
910
7
Standard
50
90.0
0
ENDBLK
5
4325
330
4125
100
AcDbEntity
8
DIM
100
AcDbBlockEnd
0
BLOCK
5
4226
330
4126
100
AcDbEntity
8
DIM
100
AcDbBlockBegin
2
*D26
70
1
10
0.0
20
0.0
30
0.0
3
*D26
0
LINE
5
5261
330
4126
100
AcDbEntity
8
DIM
100
AcDbLine
10
-60.0
20
0.0
30
0.0
11
-1725.0
21
0.0
31
0.0
0
LINE
5
5262
330
4126
100
AcDbEntity
8
DIM
100
AcDbLine
10
-60.0
20
8190.0
30
0.0
11
-1725.0
21
8190.0
31
0.0
0
LINE
5
5263
330
4126
100
AcDbEntity
8
DIM
100
AcDbLine
10
-1600.0
20
0.0
30
0.0
11
-1600.0
21
8190.0
31
0.0
0
LINE
5
5264
330
4126
100
AcDbEntity
8
DIM
100
AcDbLine
10
-1688.3883
20
-88.3883
30
0.0
11
-1511.6117
21
88.3883
31
0.0
0
LINE
5
5265
330
4126
100
AcDbEntity
8
DIM
100
AcDbLine
10
-1688.3883
20
8101.6117
30
0.0
11
-1511.6117
21
8278.3883
31
0.0
0
MTEXT
5
5266
330
4126
100
AcDbEntity
8
DIM
100
AcDbMText
10
-1790.0
20
4095.0
30
0.0
40
250.0
41
0.0
71
5
72
1
1
8190
7
Standard
50
90.0
0
ENDBLK
5
4326
330
4126
100
AcDbEntity
8
DIM
100
AcDbBlockEnd
0
BLOCK
5
4227
330
4127
100
AcDbEntity
8
DIM
100
AcDbBlockBegin
2
*D27
70
1
10
0.0
20
0.0
30
0.0
3
*D27
0
LINE
5
5271
330
4127
100
AcDbEntity
8
DIM
100
AcDbLine
10
9160.0
20
0.0
30
0.0
11
9825.0
21
0.0
31
0.0
0
LINE
5
5272
330
4127
100
AcDbEntity
8
DIM
100
AcDbLine
10
9160.0
20
910.0
30
0.0
11
9825.0
21
910.0
31
0.0
0
LINE
5
5273
330
4127
100
AcDbEntity
8
DIM
100
AcDbLine
10
9700.0
20
0.0
30
0.0
11
9700.0
21
910.0
31
0.0
0
LINE
5
5274
330
4127
100
AcDbEntity
8
DIM
100
AcDbLine
10
9611.6117
20
-88.3883
30
0.0
11
9788.3883
21
88.3883
31
0.0
0
LINE
5
5275
330
4127
100
AcDbEntity
8
DIM
100
AcDbLine
10
9611.6117
20
821.6117
30
0.0
11
9788.3883
21
998.3883
31
0.0
0
MTEXT
5
5276
330
4127
100
AcDbEntity
8
DIM
100
AcDbMText
10
9510.0
20
455.0
30
0.0
40
250.0
41
0.0
71
5
72
1
1
910
7
Standard
50
90.0
0
ENDBLK
5
4327
330
4127
100
AcDbEntity
8
DIM
100
AcDbBlockEnd
0
BLOCK
5
4228
330
4128
100
AcDbEntity
8
DIM
100
AcDbBlockBegin
2
*D28
70
1
10
0.0
20
0.0
30
0.0
3
*D28
0
LINE
5
5281
330
4128
100
AcDbEntity
8
DIM
100
AcDbLine
10
9160.0
20
910.0
30
0.0
11
9825.0
21
910.0
31
0.0
0
LINE
5
5282
330
4128
100
AcDbEntity
8
DIM
100
AcDbLine
10
9160.0
20
1820.0
30
0.0
11
9825.0
21
1820.0
31
0.0
0
LINE
5
5283
330
4128
100
AcDbEntity
8
DIM
100
AcDbLine
10
9700.0
20
910.0
30
0.0
11
9700.0
21
1820.0
31
0.0
0
LINE
5
5284
330
4128
100
AcDbEntity
8
DIM
100
AcDbLine
10
9611.6117
20
821.6117
30
0.0
11
9788.3883
21
998.3883
31
0.0
0
LINE
5
5285
330
4128
100
AcDbEntity
8
DIM
100
AcDbLine
10
9611.6117
20
1731.6117
30
0.0
11
9788.3883
21
1908.3883
31
0.0
0
MTEXT
5
5286
330
4128
100
AcDbEntity
8
DIM
100
AcDbMText
10
9510.0
20
1365.0
30
0.0
40
250.0
41
0.0
71
5
72
1
1
910
7
Standard
50
90.0
0
ENDBLK
5
4328
330
4128
100
AcDbEntity
8
DIM
100
AcDbBlockEnd
0
BLOCK
5
4229
330
4129
100
AcDbEntity
8
DIM
100
AcDbBlockBegin
2
*D29
70
1
10
0.0
20
0.0
30
0.0
3
*D29
0
LINE
5
5291
330
4129
100
AcDbEntity
8
DIM
100
AcDbLine
10
9160.0
20
1820.0
30
0.0
11
9825.0
21
1820.0
31
0.0
0
LINE
5
5292
330
4129
100
AcDbEntity
8
DIM
100
AcDbLine
10
9160.0
20
2730.0
30
0.0
11
9825.0
21
2730.0
31
0.0
0
LINE
5
5293
330
4129
100
AcDbEntity
8
DIM
100
AcDbLine
10
9700.0
20
1820.0
30
0.0
11
9700.0
21
2730.0
31
0.0
0
LINE
5
5294
330
4129
100
AcDbEntity
8
DIM
100
AcDbLine
10
9611.6117
20
1731.6117
30
0.0
11
9788.3883
21
1908.3883
31
0.0
0
LINE
5
5295
330
4129
100
AcDbEntity
8
DIM
100
AcDbLine
10
9611.6117
20
2641.6117
30
0.0
11
9788.3883
21
2818.3883
31
0.0
0
MTEXT
5
5296
330
4129
100
AcDbEntity
8
DIM
100
AcDbMText
10
9510.0
20
2275.0
30
0.0
40
250.0
41
0.0
71
5
72
1
1
910
7
Standard
50
90.0
0
ENDBLK
5
4329
330
4129
100
AcDbEntity
8
DIM
100
AcDbBlockEnd
0
BLOCK
5
4230
330
4130
100
AcDbEntity
8
DIM
100
AcDbBlockBegin
2
*D30
70
1
10
0.0
20
0.0
30
0.0
3
*D30
0
LINE
5
5301
330
4130
100
AcDbEntity
8
DIM
100
AcDbLine
10
9160.0
20
2730.0
30
0.0
11
9825.0
21
2730.0
31
0.0
0
LINE
5
5302
330
4130
100
AcDbEntity
8
DIM
100
AcDbLine
10
9160.0
20
3640.0
30
0.0
11
9825.0
21
3640.0
31
0.0
0
LINE
5
5303
330
4130
100
AcDbEntity
8
DIM
100
AcDbLine
10
9700.0
20
2730.0
30
0.0
11
9700.0
21
3640.0
31
0.0
0
LINE
5
5304
330
4130
100
AcDbEntity
8
DIM
100
AcDbLine
10
9611.6117
20
2641.6117
30
0.0
11
9788.3883
21
2818.3883
31
0.0
0
LINE
5
5305
330
4130
100
AcDbEntity
8
DIM
100
AcDbLine
10
9611.6117
20
3551.6117
30
0.0
11
9788.3883
21
3728.3883
31
0.0
0
MTEXT
5
5306
330
4130
100
AcDbEntity
8
DIM
100
AcDbMText
10
9510.0
20
3185.0
30
0.0
40
250.0
41
0.0
71
5
72
1
1
910
7
Standard
50
90.0
0
ENDBLK
5
4330
330
4130
100
AcDbEntity
8
DIM
100
AcDbBlockEnd
0
BLOCK
5
4231
330
4131
100
AcDbEntity
8
DIM
100
AcDbBlockBegin
2
*D31
70
1
10
0.0
20
0.0
30
0.0
3
*D31
0
LINE
5
5311
330
4131
100
AcDbEntity
8
DIM
100
AcDbLine
10
9160.0
20
3640.0
30
0.0
11
9825.0
21
3640.0
31
0.0
0
LINE
5
5312
330
4131
100
AcDbEntity
8
DIM
100
AcDbLine
10
9160.0
20
4550.0
30
0.0
11
9825.0
21
4550.0
31
0.0
0
LINE
5
5313
330
4131
100
AcDbEntity
8
DIM
100
AcDbLine
10
9700.0
20
3640.0
30
0.0
11
9700.0
21
4550.0
31
0.0
0
LINE
5
5314
330
4131
100
AcDbEntity
8
DIM
100
AcDbLine
10
9611.6117
20
3551.6117
30
0.0
11
9788.3883
21
3728.3883
31
0.0
0
LINE
5
5315
330
4131
100
AcDbEntity
8
DIM
100
AcDbLine
10
9611.6117
20
4461.6117
30
0.0
11
9788.3883
21
4638.3883
31
0.0
0
MTEXT
5
5316
330
4131
100
AcDbEntity
8
DIM
100
AcDbMText
10
9510.0
20
4095.0
30
0.0
40
250.0
41
0.0
71
5
72
1
1
910
7
Standard
50
90.0
0
ENDBLK
5
4331
330
4131
100
AcDbEntity
8
DIM
100
AcDbBlockEnd
0
BLOCK
5
4232
330
4132
100
AcDbEntity
8
DIM
100
AcDbBlockBegin
2
*D32
70
1
10
0.0
20
0.0
30
0.0
3
*D32
0
LINE
5
5321
330
4132
100
AcDbEntity
8
DIM
100
AcDbLine
10
9160.0
20
4550.0
30
0.0
11
9825.0
21
4550.0
31
0.0
0
LINE
5
5322
330
4132
100
AcDbEntity
8
DIM
100
AcDbLine
10
9160.0
20
5460.0
30
0.0
11
9825.0
21
5460.0
31
0.0
0
LINE
5
5323
330
4132
100
AcDbEntity
8
DIM
100
AcDbLine
10
9700.0
20
4550.0
30
0.0
11
9700.0
21
5460.0
31
0.0
0
LINE
5
5324
330
4132
100
AcDbEntity
8
DIM
100
AcDbLine
10
9611.6117
20
4461.6117
30
0.0
11
9788.3883
21
4638.3883
31
0.0
0
LINE
5
5325
330
4132
100
AcDbEntity
8
DIM
100
AcDbLine
10
9611.6117
20
5371.6117
30
0.0
11
9788.3883
21
5548.3883
31
0.0
0
MTEXT
5
5326
330
4132
100
AcDbEntity
8
DIM
100
AcDbMText
10
9510.0
20
5005.0
30
0.0
40
250.0
41
0.0
71
5
72
1
1
910
7
Standard
50
90.0
0
ENDBLK
5
4332
330
4132
100
AcDbEntity
8
DIM
100
AcDbBlockEnd
0
BLOCK
5
4233
330
4133
100
AcDbEntity
8
DIM
100
AcDbBlockBegin
2
*D33
70
1
10
0.0
20
0.0
30
0.0
3
*D33
0
LINE
5
5331
330
4133
100
AcDbEntity
8
DIM
100
AcDbLine
10
9160.0
20
5460.0
30
0.0
11
9825.0
21
5460.0
31
0.0
0
LINE
5
5332
330
4133
100
AcDbEntity
8
DIM
100
AcDbLine
10
9160.0
20
6370.0
30
0.0
11
9825.0
21
6370.0
31
0.0
0
LINE
5
5333
330
4133
100
AcDbEntity
8
DIM
100
AcDbLine
10
9700.0
20
5460.0
30
0.0
11
9700.0
21
6370.0
31
0.0
0
LINE
5
5334
330
4133
100
AcDbEntity
8
DIM
100
AcDbLine
10
9611.6117
20
5371.6117
30
0.0
11
9788.3883
21
5548.3883
31
0.0
0
LINE
5
5335
330
4133
100
AcDbEntity
8
DIM
100
AcDbLine
10
9611.6117
20
6281.6117
30
0.0
11
9788.3883
21
6458.3883
31
0.0
0
MTEXT
5
5336
330
4133
100
AcDbEntity
8
DIM
100
AcDbMText
10
9510.0
20
5915.0
30
0.0
40
250.0
41
0.0
71
5
72
1
1
910
7
Standard
50
90.0
0
ENDBLK
5
4333
330
4133
100
AcDbEntity
8
DIM
100
AcDbBlockEnd
0
BLOCK
5
4234
330
4134
100
AcDbEntity
8
DIM
100
AcDbBlockBegin
2
*D34
70
1
10
0.0
20
0.0
30
0.0
3
*D34
0
LINE
5
5341
330
4134
100
AcDbEntity
8
DIM
100
AcDbLine
10
9160.0
20
0.0
30
0.0
11
10825.0
21
0.0
31
0.0
0
LINE
5
5342
330
4134
100
AcDbEntity
8
DIM
100
AcDbLine
10
9160.0
20
6370.0
30
0.0
11
10825.0
21
6370.0
31
0.0
0
LINE
5
5343
330
4134
100
AcDbEntity
8
DIM
100
AcDbLine
10
10700.0
20
0.0
30
0.0
11
10700.0
21
6370.0
31
0.0
0
LINE
5
5344
330
4134
100
AcDbEntity
8
DIM
100
AcDbLine
10
10611.6117
20
-88.3883
30
0.0
11
10788.3883
21
88.3883
31
0.0
0
LINE
5
5345
330
4134
100
AcDbEntity
8
DIM
100
AcDbLine
10
10611.6117
20
6281.6117
30
0.0
11
10788.3883
21
6458.3883
31
0.0
0
MTEXT
5
5346
330
4134
100
AcDbEntity
8
DIM
100
AcDbMText
10
10510.0
20
3185.0
30
0.0
40
250.0
41
0.0
71
5
72
1
1
6370
7
Standard
50
90.0
0
ENDBLK
5
4334
330
4134
100
AcDbEntity
8
DIM
100
AcDbBlockEnd
0
ENDSEC
0
SECTION
2
ENTITIES
0
LINE
5
10001
330
2C
100
AcDbEntity
8
GRID
6
CENTER
100
AcDbLine
10
0.0
20
-3100.0
30
0.0
11
0.0
21
8700.0
31
0.0
0
LINE
5
10002
330
2C
100
AcDbEntity
8
GRID
6
CENTER
100
AcDbLine
10
910.0
20
-3100.0
30
0.0
11
910.0
21
8700.0
31
0.0
0
LINE
5
10003
330
2C
100
AcDbEntity
8
GRID
6
CENTER
100
AcDbLine
10
1820.0
20
-3100.0
30
0.0
11
1820.0
21
8700.0
31
0.0
0
LINE
5
10004
330
2C
100
AcDbEntity
8
GRID
6
CENTER
100
AcDbLine
10
2730.0
20
-3100.0
30
0.0
11
2730.0
21
8700.0
31
0.0
0
LINE
5
10005
330
2C
100
AcDbEntity
8
GRID
6
CENTER
100
AcDbLine
10
3640.0
20
-3100.0
30
0.0
11
3640.0
21
8700.0
31
0.0
0
LINE
5
10006
330
2C
100
AcDbEntity
8
GRID
6
CENTER
100
AcDbLine
10
4550.0
20
-3100.0
30
0.0
11
4550.0
21
8700.0
31
0.0
0
LINE
5
10007
330
2C
100
AcDbEntity
8
GRID
6
CENTER
100
AcDbLine
10
5460.0
20
-3100.0
30
0.0
11
5460.0
21
8700.0
31
0.0
0
LINE
5
10008
330
2C
100
AcDbEntity
8
GRID
6
CENTER
100
AcDbLine
10
6370.0
20
-3100.0
30
0.0
11
6370.0
21
8700.0
31
0.0
0
LINE
5
10009
330
2C
100
AcDbEntity
8
GRID
6
CENTER
100
AcDbLine
10
7280.0
20
-3100.0
30
0.0
11
7280.0
21
8700.0
31
0.0
0
LINE
5
10010
330
2C
100
AcDbEntity
8
GRID
6
CENTER
100
AcDbLine
10
8190.0
20
-3100.0
30
0.0
11
8190.0
21
8700.0
31
0.0
0
LINE
5
10011
330
2C
100
AcDbEntity
8
GRID
6
CENTER
100
AcDbLine
10
9100.0
20
-3100.0
30
0.0
11
9100.0
21
8700.0
31
0.0
0
LINE
5
10012
330
2C
100
AcDbEntity
8
GRID
6
CENTER
100
AcDbLine
10
-2100.0
20
0.0
30
0.0
11
9600.0
21
0.0
31
0.0
0
LINE
5
10013
330
2C
100
AcDbEntity
8
GRID
6
CENTER
100
AcDbLine
10
-2100.0
20
910.0
30
0.0
11
9600.0
21
910.0
31
0.0
0
LINE
5
10014
330
2C
100
AcDbEntity
8
GRID
6
CENTER
100
AcDbLine
10
-2100.0
20
1820.0
30
0.0
11
9600.0
21
1820.0
31
0.0
0
LINE
5
10015
330
2C
100
AcDbEntity
8
GRID
6
CENTER
100
AcDbLine
10
-2100.0
20
2730.0
30
0.0
11
9600.0
21
2730.0
31
0.0
0
LINE
5
10016
330
2C
100
AcDbEntity
8
GRID
6
CENTER
100
AcDbLine
10
-2100.0
20
3640.0
30
0.0
11
9600.0
21
3640.0
31
0.0
0
LINE
5
10017
330
2C
100
AcDbEntity
8
GRID
6
CENTER
100
AcDbLine
10
-2100.0
20
4550.0
30
0.0
11
9600.0
21
4550.0
31
0.0
0
LINE
5
10018
330
2C
100
AcDbEntity
8
GRID
6
CENTER
100
AcDbLine
10
-2100.0
20
5460.0
30
0.0
11
9600.0
21
5460.0
31
0.0
0
LINE
5
10019
330
2C
100
AcDbEntity
8
GRID
6
CENTER
100
AcDbLine
10
-2100.0
20
6370.0
30
0.0
11
9600.0
21
6370.0
31
0.0
0
LINE
5
10020
330
2C
100
AcDbEntity
8
GRID
6
CENTER
100
AcDbLine
10
-2100.0
20
7280.0
30
0.0
11
9600.0
21
7280.0
31
0.0
0
LINE
5
10021
330
2C
100
AcDbEntity
8
GRID
6
CENTER
100
AcDbLine
10
-2100.0
20
8190.0
30
0.0
11
9600.0
21
8190.0
31
0.0
0
CIRCLE
5
10022
330
2C
100
AcDbEntity
8
GRID
100
AcDbCircle
10
0.0
20
-3400.0
30
0.0
40
280.0
0
CIRCLE
5
10023
330
2C
100
AcDbEntity
8
GRID
100
AcDbCircle
10
910.0
20
-3400.0
30
0.0
40
280.0
0
CIRCLE
5
10024
330
2C
100
AcDbEntity
8
GRID
100
AcDbCircle
10
1820.0
20
-3400.0
30
0.0
40
280.0
0
CIRCLE
5
10025
330
2C
100
AcDbEntity
8
GRID
100
AcDbCircle
10
2730.0
20
-3400.0
30
0.0
40
280.0
0
CIRCLE
5
10026
330
2C
100
AcDbEntity
8
GRID
100
AcDbCircle
10
3640.0
20
-3400.0
30
0.0
40
280.0
0
CIRCLE
5
10027
330
2C
100
AcDbEntity
8
GRID
100
AcDbCircle
10
4550.0
20
-3400.0
30
0.0
40
280.0
0
CIRCLE
5
10028
330
2C
100
AcDbEntity
8
GRID
100
AcDbCircle
10
5460.0
20
-3400.0
30
0.0
40
280.0
0
CIRCLE
5
10029
330
2C
100
AcDbEntity
8
GRID
100
AcDbCircle
10
6370.0
20
-3400.0
30
0.0
40
280.0
0
CIRCLE
5
10030
330
2C
100
AcDbEntity
8
GRID
100
AcDbCircle
10
7280.0
20
-3400.0
30
0.0
40
280.0
0
CIRCLE
5
10031
330
2C
100
AcDbEntity
8
GRID
100
AcDbCircle
10
8190.0
20
-3400.0
30
0.0
40
280.0
0
CIRCLE
5
10032
330
2C
100
AcDbEntity
8
GRID
100
AcDbCircle
10
9100.0
20
-3400.0
30
0.0
40
280.0
0
CIRCLE
5
10033
330
2C
100
AcDbEntity
8
GRID
100
AcDbCircle
10
-2400.0
20
0.0
30
0.0
40
280.0
0
CIRCLE
5
10034
330
2C
100
AcDbEntity
8
GRID
100
AcDbCircle
10
-2400.0
20
910.0
30
0.0
40
280.0
0
CIRCLE
5
10035
330
2C
100
AcDbEntity
8
GRID
100
AcDbCircle
10
-2400.0
20
1820.0
30
0.0
40
280.0
0
CIRCLE
5
10036
330
2C
100
AcDbEntity
8
GRID
100
AcDbCircle
10
-2400.0
20
2730.0
30
0.0
40
280.0
0
CIRCLE
5
10037
330
2C
100
AcDbEntity
8
GRID
100
AcDbCircle
10
-2400.0
20
3640.0
30
0.0
40
280.0
0
CIRCLE
5
10038
330
2C
100
AcDbEntity
8
GRID
100
AcDbCircle
10
-2400.0
20
4550.0
30
0.0
40
280.0
0
CIRCLE
5
10039
330
2C
100
AcDbEntity
8
GRID
100
AcDbCircle
10
-2400.0
20
5460.0
30
0.0
40
280.0
0
CIRCLE
5
10040
330
2C
100
AcDbEntity
8
GRID
100
AcDbCircle
10
-2400.0
20
6370.0
30
0.0
40
280.0
0
CIRCLE
5
10041
330
2C
100
AcDbEntity
8
GRID
100
AcDbCircle
10
-2400.0
20
7280.0
30
0.0
40
280.0
0
CIRCLE
5
10042
330
2C
100
AcDbEntity
8
GRID
100
AcDbCircle
10
-2400.0
20
8190.0
30
0.0
40
280.0
0
TEXT
5
10043
330
2C
100
AcDbEntity
8
GRID
100
AcDbText
10
0.0
20
-3400.0
30
0.0
40
200.0
1
X1
50
0.0
7
Standard
72
1
11
0.0
21
-3400.0
31
0.0
100
AcDbText
73
2
0
TEXT
5
10044
330
2C
100
AcDbEntity
8
GRID
100
AcDbText
10
910.0
20
-3400.0
30
0.0
40
200.0
1
X2
50
0.0
7
Standard
72
1
11
910.0
21
-3400.0
31
0.0
100
AcDbText
73
2
0
TEXT
5
10045
330
2C
100
AcDbEntity
8
GRID
100
AcDbText
10
1820.0
20
-3400.0
30
0.0
40
200.0
1
X3
50
0.0
7
Standard
72
1
11
1820.0
21
-3400.0
31
0.0
100
AcDbText
73
2
0
TEXT
5
10046
330
2C
100
AcDbEntity
8
GRID
100
AcDbText
10
2730.0
20
-3400.0
30
0.0
40
200.0
1
X4
50
0.0
7
Standard
72
1
11
2730.0
21
-3400.0
31
0.0
100
AcDbText
73
2
0
TEXT
5
10047
330
2C
100
AcDbEntity
8
GRID
100
AcDbText
10
3640.0
20
-3400.0
30
0.0
40
200.0
1
X5
50
0.0
7
Standard
72
1
11
3640.0
21
-3400.0
31
0.0
100
AcDbText
73
2
0
TEXT
5
10048
330
2C
100
AcDbEntity
8
GRID
100
AcDbText
10
4550.0
20
-3400.0
30
0.0
40
200.0
1
X6
50
0.0
7
Standard
72
1
11
4550.0
21
-3400.0
31
0.0
100
AcDbText
73
2
0
TEXT
5
10049
330
2C
100
AcDbEntity
8
GRID
100
AcDbText
10
5460.0
20
-3400.0
30
0.0
40
200.0
1
X7
50
0.0
7
Standard
72
1
11
5460.0
21
-3400.0
31
0.0
100
AcDbText
73
2
0
TEXT
5
10050
330
2C
100
AcDbEntity
8
GRID
100
AcDbText
10
6370.0
20
-3400.0
30
0.0
40
200.0
1
X8
50
0.0
7
Standard
72
1
11
6370.0
21
-3400.0
31
0.0
100
AcDbText
73
2
0
TEXT
5
10051
330
2C
100
AcDbEntity
8
GRID
100
AcDbText
10
7280.0
20
-3400.0
30
0.0
40
200.0
1
X9
50
0.0
7
Standard
72
1
11
7280.0
21
-3400.0
31
0.0
100
AcDbText
73
2
0
TEXT
5
10052
330
2C
100
AcDbEntity
8
GRID
100
AcDbText
10
8190.0
20
-3400.0
30
0.0
40
200.0
1
X10
50
0.0
7
Standard
72
1
11
8190.0
21
-3400.0
31
0.0
100
AcDbText
73
2
0
TEXT
5
10053
330
2C
100
AcDbEntity
8
GRID
100
AcDbText
10
9100.0
20
-3400.0
30
0.0
40
200.0
1
X11
50
0.0
7
Standard
72
1
11
9100.0
21
-3400.0
31
0.0
100
AcDbText
73
2
0
TEXT
5
10054
330
2C
100
AcDbEntity
8
GRID
100
AcDbText
10
-2400.0
20
0.0
30
0.0
40
200.0
1
Y1
50
0.0
7
Standard
72
1
11
-2400.0
21
0.0
31
0.0
100
AcDbText
73
2
0
TEXT
5
10055
330
2C
100
AcDbEntity
8
GRID
100
AcDbText
10
-2400.0
20
910.0
30
0.0
40
200.0
1
Y2
50
0.0
7
Standard
72
1
11
-2400.0
21
910.0
31
0.0
100
AcDbText
73
2
0
TEXT
5
10056
330
2C
100
AcDbEntity
8
GRID
100
AcDbText
10
-2400.0
20
1820.0
30
0.0
40
200.0
1
Y3
50
0.0
7
Standard
72
1
11
-2400.0
21
1820.0
31
0.0
100
AcDbText
73
2
0
TEXT
5
10057
330
2C
100
AcDbEntity
8
GRID
100
AcDbText
10
-2400.0
20
2730.0
30
0.0
40
200.0
1
Y4
50
0.0
7
Standard
72
1
11
-2400.0
21
2730.0
31
0.0
100
AcDbText
73
2
0
TEXT
5
10058
330
2C
100
AcDbEntity
8
GRID
100
AcDbText
10
-2400.0
20
3640.0
30
0.0
40
200.0
1
Y5
50
0.0
7
Standard
72
1
11
-2400.0
21
3640.0
31
0.0
100
AcDbText
73
2
0
TEXT
5
10059
330
2C
100
AcDbEntity
8
GRID
100
AcDbText
10
-2400.0
20
4550.0
30
0.0
40
200.0
1
Y6
50
0.0
7
Standard
72
1
11
-2400.0
21
4550.0
31
0.0
100
AcDbText
73
2
0
TEXT
5
10060
330
2C
100
AcDbEntity
8
GRID
100
AcDbText
10
-2400.0
20
5460.0
30
0.0
40
200.0
1
Y7
50
0.0
7
Standard
72
1
11
-2400.0
21
5460.0
31
0.0
100
AcDbText
73
2
0
TEXT
5
10061
330
2C
100
AcDbEntity
8
GRID
100
AcDbText
10
-2400.0
20
6370.0
30
0.0
40
200.0
1
Y8
50
0.0
7
Standard
72
1
11
-2400.0
21
6370.0
31
0.0
100
AcDbText
73
2
0
TEXT
5
10062
330
2C
100
AcDbEntity
8
GRID
100
AcDbText
10
-2400.0
20
7280.0
30
0.0
40
200.0
1
Y9
50
0.0
7
Standard
72
1
11
-2400.0
21
7280.0
31
0.0
100
AcDbText
73
2
0
TEXT
5
10063
330
2C
100
AcDbEntity
8
GRID
100
AcDbText
10
-2400.0
20
8190.0
30
0.0
40
200.0
1
Y10
50
0.0
7
Standard
72
1
11
-2400.0
21
8190.0
31
0.0
100
AcDbText
73
2
0
LINE
5
10064
330
2C
100
AcDbEntity
8
WALL
100
AcDbLine
10
-60.0
20
-60.0
30
0.0
11
455.0
21
-60.0
31
0.0
0
LINE
5
10065
330
2C
100
AcDbEntity
8
WALL
100
AcDbLine
10
1365.0
20
-60.0
30
0.0
11
6370.0
21
-60.0
31
0.0
0
LINE
5
10066
330
2C
100
AcDbEntity
8
WALL
100
AcDbLine
10
8190.0
20
-60.0
30
0.0
11
9160.0
21
-60.0
31
0.0
0
LINE
5
10067
330
2C
100
AcDbEntity
8
WALL
100
AcDbLine
10
60.0
20
60.0
30
0.0
11
455.0
21
60.0
31
0.0
0
LINE
5
10068
330
2C
100
AcDbEntity
8
WALL
100
AcDbLine
10
1365.0
20
60.0
30
0.0
11
1760.0
21
60.0
31
0.0
0
LINE
5
10069
330
2C
100
AcDbEntity
8
WALL
100
AcDbLine
10
1880.0
20
60.0
30
0.0
11
3580.0
21
60.0
31
0.0
0
LINE
5
10070
330
2C
100
AcDbEntity
8
WALL
100
AcDbLine
10
3700.0
20
60.0
30
0.0
11
5400.0
21
60.0
31
0.0
0
LINE
5
10071
330
2C
100
AcDbEntity
8
WALL
100
AcDbLine
10
5520.0
20
60.0
30
0.0
11
6370.0
21
60.0
31
0.0
0
LINE
5
10072
330
2C
100
AcDbEntity
8
WALL
100
AcDbLine
10
8190.0
20
60.0
30
0.0
11
9040.0
21
60.0
31
0.0
0
LINE
5
10073
330
2C
100
AcDbEntity
8
WALL
100
AcDbLine
10
455.0
20
-60.0
30
0.0
11
455.0
21
60.0
31
0.0
0
LINE
5
10074
330
2C
100
AcDbEntity
8
WALL
100
AcDbLine
10
1365.0
20
-60.0
30
0.0
11
1365.0
21
60.0
31
0.0
0
LINE
5
10075
330
2C
100
AcDbEntity
8
WALL
100
AcDbLine
10
6370.0
20
-60.0
30
0.0
11
6370.0
21
60.0
31
0.0
0
LINE
5
10076
330
2C
100
AcDbEntity
8
WALL
100
AcDbLine
10
8190.0
20
-60.0
30
0.0
11
8190.0
21
60.0
31
0.0
0
LINE
5
10077
330
2C
100
AcDbEntity
8
WALL
100
AcDbLine
10
9160.0
20
-60.0
30
0.0
11
9160.0
21
1365.0
31
0.0
0
LINE
5
10078
330
2C
100
AcDbEntity
8
WALL
100
AcDbLine
10
9160.0
20
3185.0
30
0.0
11
9160.0
21
6394.8528
31
0.0
0
LINE
5
10079
330
2C
100
AcDbEntity
8
WALL
100
AcDbLine
10
9040.0
20
60.0
30
0.0
11
9040.0
21
1365.0
31
0.0
0
LINE
5
10080
330
2C
100
AcDbEntity
8
WALL
100
AcDbLine
10
9040.0
20
3185.0
30
0.0
11
9040.0
21
4490.0
31
0.0
0
LINE
5
10081
330
2C
100
AcDbEntity
8
WALL
100
AcDbLine
10
9040.0
20
4610.0
30
0.0
11
9040.0
21
6345.1472
31
0.0
0
LINE
5
10082
330
2C
100
AcDbEntity
8
WALL
100
AcDbLine
10
9040.0
20
1365.0
30
0.0
11
9160.0
21
1365.0
31
0.0
0
LINE
5
10083
330
2C
100
AcDbEntity
8
WALL
100
AcDbLine
10
9040.0
20
3185.0
30
0.0
11
9160.0
21
3185.0
31
0.0
0
LINE
5
10084
330
2C
100
AcDbEntity
8
WALL
100
AcDbLine
10
9160.0
20
6394.8528
30
0.0
11
8647.4517
21
6907.4011
31
0.0
0
LINE
5
10085
330
2C
100
AcDbEntity
8
WALL
100
AcDbLine
10
7798.9235
20
7755.9293
30
0.0
11
7304.8528
21
8250.0
31
0.0
0
LINE
5
10086
330
2C
100
AcDbEntity
8
WALL
100
AcDbLine
10
9040.0
20
6345.1472
30
0.0
11
8562.5988
21
6822.5483
31
0.0
0
LINE
5
10087
330
2C
100
AcDbEntity
8
WALL
100
AcDbLine
10
7714.0707
20
7671.0765
30
0.0
11
7255.1472
21
8130.0
31
0.0
0
LINE
5
10088
330
2C
100
AcDbEntity
8
WALL
100
AcDbLine
10
8647.4517
20
6907.4011
30
0.0
11
8562.5988
21
6822.5483
31
0.0
0
LINE
5
10089
330
2C
100
AcDbEntity
8
WALL
100
AcDbLine
10
7798.9235
20
7755.9293
30
0.0
11
7714.0707
21
7671.0765
31
0.0
0
LINE
5
10090
330
2C
100
AcDbEntity
8
WALL
100
AcDbLine
10
-60.0
20
8250.0
30
0.0
11
2730.0
21
8250.0
31
0.0
0
LINE
5
10091
330
2C
100
AcDbEntity
8
WALL
100
AcDbLine
10
4550.0
20
8250.0
30
0.0
11
7304.8528
21
8250.0
31
0.0
0
LINE
5
10092
330
2C
100
AcDbEntity
8
WALL
100
AcDbLine
10
60.0
20
8130.0
30
0.0
11
2730.0
21
8130.0
31
0.0
0
LINE
5
10093
330
2C
100
AcDbEntity
8
WALL
100
AcDbLine
10
4550.0
20
8130.0
30
0.0
11
7255.1472
21
8130.0
31
0.0
0
LINE
5
10094
330
2C
100
AcDbEntity
8
WALL
100
AcDbLine
10
2730.0
20
8130.0
30
0.0
11
2730.0
21
8250.0
31
0.0
0
LINE
5
10095
330
2C
100
AcDbEntity
8
WALL
100
AcDbLine
10
4550.0
20
8130.0
30
0.0
11
4550.0
21
8250.0
31
0.0
0
LINE
5
10096
330
2C
100
AcDbEntity
8
WALL
100
AcDbLine
10
-60.0
20
-60.0
30
0.0
11
-60.0
21
8250.0
31
0.0
0
LINE
5
10097
330
2C
100
AcDbEntity
8
WALL
100
AcDbLine
10
60.0
20
60.0
30
0.0
11
60.0
21
1760.0
31
0.0
0
LINE
5
10098
330
2C
100
AcDbEntity
8
WALL
100
AcDbLine
10
60.0
20
1880.0
30
0.0
11
60.0
21
2215.0
31
0.0
0
LINE
5
10099
330
2C
100
AcDbEntity
8
WALL
100
AcDbLine
10
60.0
20
2335.0
30
0.0
11
60.0
21
4490.0
31
0.0
0
LINE
5
10100
330
2C
100
AcDbEntity
8
WALL
100
AcDbLine
10
60.0
20
4610.0
30
0.0
11
60.0
21
8130.0
31
0.0
0
LINE
5
10101
330
2C
100
AcDbEntity
8
WALL
100
AcDbLine
10
1760.0
20
60.0
30
0.0
11
1760.0
21
455.0
31
0.0
0
LINE
5
10102
330
2C
100
AcDbEntity
8
WALL
100
AcDbLine
10
1760.0
20
1365.0
30
0.0
11
1760.0
21
1760.0
31
0.0
0
LINE
5
10103
330
2C
100
AcDbEntity
8
WALL
100
AcDbLine
10
1760.0
20
1880.0
30
0.0
11
1760.0
21
2215.0
31
0.0
0
LINE
5
10104
330
2C
100
AcDbEntity
8
WALL
100
AcDbLine
10
1760.0
20
2335.0
30
0.0
11
1760.0
21
4490.0
31
0.0
0
LINE
5
10105
330
2C
100
AcDbEntity
8
WALL
100
AcDbLine
10
1880.0
20
60.0
30
0.0
11
1880.0
21
455.0
31
0.0
0
LINE
5
10106
330
2C
100
AcDbEntity
8
WALL
100
AcDbLine
10
1880.0
20
1365.0
30
0.0
11
1880.0
21
1760.0
31
0.0
0
LINE
5
10107
330
2C
100
AcDbEntity
8
WALL
100
AcDbLine
10
1880.0
20
1880.0
30
0.0
11
1880.0
21
2670.0
31
0.0
0
LINE
5
10108
330
2C
100
AcDbEntity
8
WALL
100
AcDbLine
10
1880.0
20
2790.0
30
0.0
11
1880.0
21
4490.0
31
0.0
0
LINE
5
10109
330
2C
100
AcDbEntity
8
WALL
100
AcDbLine
10
1760.0
20
455.0
30
0.0
11
1880.0
21
455.0
31
0.0
0
LINE
5
10110
330
2C
100
AcDbEntity
8
WALL
100
AcDbLine
10
1760.0
20
1365.0
30
0.0
11
1880.0
21
1365.0
31
0.0
0
LINE
5
10111
330
2C
100
AcDbEntity
8
WALL
100
AcDbLine
10
3580.0
20
60.0
30
0.0
11
3580.0
21
1760.0
31
0.0
0
LINE
5
10112
330
2C
100
AcDbEntity
8
WALL
100
AcDbLine
10
3580.0
20
1880.0
30
0.0
11
3580.0
21
2670.0
31
0.0
0
LINE
5
10113
330
2C
100
AcDbEntity
8
WALL
100
AcDbLine
10
3580.0
20
2790.0
30
0.0
11
3580.0
21
4490.0
31
0.0
0
LINE
5
10114
330
2C
100
AcDbEntity
8
WALL
100
AcDbLine
10
3700.0
20
60.0
30
0.0
11
3700.0
21
1760.0
31
0.0
0
LINE
5
10115
330
2C
100
AcDbEntity
8
WALL
100
AcDbLine
10
3700.0
20
1880.0
30
0.0
11
3700.0
21
4490.0
31
0.0
0
LINE
5
10116
330
2C
100
AcDbEntity
8
WALL
100
AcDbLine
10
5400.0
20
60.0
30
0.0
11
5400.0
21
1760.0
31
0.0
0
LINE
5
10117
330
2C
100
AcDbEntity
8
WALL
100
AcDbLine
10
5400.0
20
1880.0
30
0.0
11
5400.0
21
4490.0
31
0.0
0
LINE
5
10118
330
2C
100
AcDbEntity
8
WALL
100
AcDbLine
10
5520.0
20
60.0
30
0.0
11
5520.0
21
4490.0
31
0.0
0
LINE
5
10119
330
2C
100
AcDbEntity
8
WALL
100
AcDbLine
10
60.0
20
1760.0
30
0.0
11
1760.0
21
1760.0
31
0.0
0
LINE
5
10120
330
2C
100
AcDbEntity
8
WALL
100
AcDbLine
10
1880.0
20
1760.0
30
0.0
11
3580.0
21
1760.0
31
0.0
0
LINE
5
10121
330
2C
100
AcDbEntity
8
WALL
100
AcDbLine
10
3700.0
20
1760.0
30
0.0
11
5400.0
21
1760.0
31
0.0
0
LINE
5
10122
330
2C
100
AcDbEntity
8
WALL
100
AcDbLine
10
60.0
20
1880.0
30
0.0
11
1760.0
21
1880.0
31
0.0
0
LINE
5
10123
330
2C
100
AcDbEntity
8
WALL
100
AcDbLine
10
1880.0
20
1880.0
30
0.0
11
3580.0
21
1880.0
31
0.0
0
LINE
5
10124
330
2C
100
AcDbEntity
8
WALL
100
AcDbLine
10
3700.0
20
1880.0
30
0.0
11
5400.0
21
1880.0
31
0.0
0
LINE
5
10125
330
2C
100
AcDbEntity
8
WALL
100
AcDbLine
10
60.0
20
2215.0
30
0.0
11
1760.0
21
2215.0
31
0.0
0
LINE
5
10126
330
2C
100
AcDbEntity
8
WALL
100
AcDbLine
10
60.0
20
2335.0
30
0.0
11
1760.0
21
2335.0
31
0.0
0
LINE
5
10127
330
2C
100
AcDbEntity
8
WALL
100
AcDbLine
10
1880.0
20
2670.0
30
0.0
11
3580.0
21
2670.0
31
0.0
0
LINE
5
10128
330
2C
100
AcDbEntity
8
WALL
100
AcDbLine
10
1880.0
20
2790.0
30
0.0
11
3580.0
21
2790.0
31
0.0
0
LINE
5
10129
330
2C
100
AcDbEntity
8
WALL
100
AcDbLine
10
60.0
20
4490.0
30
0.0
11
455.0
21
4490.0
31
0.0
0
LINE
5
10130
330
2C
100
AcDbEntity
8
WALL
100
AcDbLine
10
1365.0
20
4490.0
30
0.0
11
1760.0
21
4490.0
31
0.0
0
LINE
5
10131
330
2C
100
AcDbEntity
8
WALL
100
AcDbLine
10
1880.0
20
4490.0
30
0.0
11
3580.0
21
4490.0
31
0.0
0
LINE
5
10132
330
2C
100
AcDbEntity
8
WALL
100
AcDbLine
10
3700.0
20
4490.0
30
0.0
11
5400.0
21
4490.0
31
0.0
0
LINE
5
10133
330
2C
100
AcDbEntity
8
WALL
100
AcDbLine
10
5520.0
20
4490.0
30
0.0
11
6825.0
21
4490.0
31
0.0
0
LINE
5
10134
330
2C
100
AcDbEntity
8
WALL
100
AcDbLine
10
7735.0
20
4490.0
30
0.0
11
9040.0
21
4490.0
31
0.0
0
LINE
5
10135
330
2C
100
AcDbEntity
8
WALL
100
AcDbLine
10
60.0
20
4610.0
30
0.0
11
455.0
21
4610.0
31
0.0
0
LINE
5
10136
330
2C
100
AcDbEntity
8
WALL
100
AcDbLine
10
1365.0
20
4610.0
30
0.0
11
6825.0
21
4610.0
31
0.0
0
LINE
5
10137
330
2C
100
AcDbEntity
8
WALL
100
AcDbLine
10
7735.0
20
4610.0
30
0.0
11
9040.0
21
4610.0
31
0.0
0
LINE
5
10138
330
2C
100
AcDbEntity
8
WALL
100
AcDbLine
10
455.0
20
4490.0
30
0.0
11
455.0
21
4610.0
31
0.0
0
LINE
5
10139
330
2C
100
AcDbEntity
8
WALL
100
AcDbLine
10
1365.0
20
4490.0
30
0.0
11
1365.0
21
4610.0
31
0.0
0
LINE
5
10140
330
2C
100
AcDbEntity
8
WALL
100
AcDbLine
10
6825.0
20
4490.0
30
0.0
11
6825.0
21
4610.0
31
0.0
0
LINE
5
10141
330
2C
100
AcDbEntity
8
WALL
100
AcDbLine
10
7735.0
20
4490.0
30
0.0
11
7735.0
21
4610.0
31
0.0
0
LINE
5
10142
330
2C
100
AcDbEntity
8
OPENING
100
AcDbLine
10
455.0
20
60.0
30
0.0
11
455.0
21
970.0
31
0.0
0
ARC
5
10143
330
2C
100
AcDbEntity
8
OPENING
100
AcDbCircle
10
455.0
20
60.0
30
0.0
40
910.0
100
AcDbArc
50
0.0
51
90.0
0
LINE
5
10144
330
2C
100
AcDbEntity
8
OPENING
100
AcDbLine
10
1880.0
20
455.0
30
0.0
11
2790.0
21
455.0
31
0.0
0
ARC
5
10145
330
2C
100
AcDbEntity
8
OPENING
100
AcDbCircle
10
1880.0
20
455.0
30
0.0
40
910.0
100
AcDbArc
50
0.0
51
90.0
0
LINE
5
10146
330
2C
100
AcDbEntity
8
OPENING
100
AcDbLine
10
455.0
20
4610.0
30
0.0
11
455.0
21
5520.0
31
0.0
0
ARC
5
10147
330
2C
100
AcDbEntity
8
OPENING
100
AcDbCircle
10
455.0
20
4610.0
30
0.0
40
910.0
100
AcDbArc
50
0.0
51
90.0
0
LINE
5
10148
330
2C
100
AcDbEntity
8
OPENING
100
AcDbLine
10
6825.0
20
4610.0
30
0.0
11
6825.0
21
5520.0
31
0.0
0
ARC
5
10149
330
2C
100
AcDbEntity
8
OPENING
100
AcDbCircle
10
6825.0
20
4610.0
30
0.0
40
910.0
100
AcDbArc
50
0.0
51
90.0
0
LINE
5
10150
330
2C
100
AcDbEntity
8
OPENING
100
AcDbLine
10
6370.0
20
-20.0
30
0.0
11
8190.0
21
-20.0
31
0.0
0
LINE
5
10151
330
2C
100
AcDbEntity
8
OPENING
100
AcDbLine
10
6370.0
20
20.0
30
0.0
11
8190.0
21
20.0
31
0.0
0
LINE
5
10152
330
2C
100
AcDbEntity
8
OPENING
100
AcDbLine
10
9080.0
20
1365.0
30
0.0
11
9080.0
21
3185.0
31
0.0
0
LINE
5
10153
330
2C
100
AcDbEntity
8
OPENING
100
AcDbLine
10
9120.0
20
1365.0
30
0.0
11
9120.0
21
3185.0
31
0.0
0
LINE
5
10154
330
2C
100
AcDbEntity
8
OPENING
100
AcDbLine
10
8619.1674
20
6879.1169
30
0.0
11
7770.6393
21
7727.645
31
0.0
0
LINE
5
10155
330
2C
100
AcDbEntity
8
OPENING
100
AcDbLine
10
8590.8831
20
6850.8326
30
0.0
11
7742.355
21
7699.3607
31
0.0
0
LINE
5
10156
330
2C
100
AcDbEntity
8
OPENING
100
AcDbLine
10
2730.0
20
8170.0
30
0.0
11
4550.0
21
8170.0
31
0.0
0
LINE
5
10157
330
2C
100
AcDbEntity
8
OPENING
100
AcDbLine
10
2730.0
20
8210.0
30
0.0
11
4550.0
21
8210.0
31
0.0
0
TEXT
5
10158
330
2C
100
AcDbEntity
8
OPENING
100
AcDbText
10
910.0
20
300.0
30
0.0
40
200.0
1
D1
50
0.0
7
Standard
72
1
11
910.0
21
300.0
31
0.0
100
AcDbText
73
2
0
TEXT
5
10159
330
2C
100
AcDbEntity
8
OPENING
100
AcDbText
10
2300.0
20
1500.0
30
0.0
40
200.0
1
D2
50
0.0
7
Standard
72
1
11
2300.0
21
1500.0
31
0.0
100
AcDbText
73
2
0
TEXT
5
10160
330
2C
100
AcDbEntity
8
OPENING
100
AcDbText
10
1700.0
20
4900.0
30
0.0
40
200.0
1
D3
50
0.0
7
Standard
72
1
11
1700.0
21
4900.0
31
0.0
100
AcDbText
73
2
0
TEXT
5
10161
330
2C
100
AcDbEntity
8
OPENING
100
AcDbText
10
8100.0
20
4900.0
30
0.0
40
200.0
1
D4
50
0.0
7
Standard
72
1
11
8100.0
21
4900.0
31
0.0
100
AcDbText
73
2
0
TEXT
5
10162
330
2C
100
AcDbEntity
8
OPENING
100
AcDbText
10
7280.0
20
300.0
30
0.0
40
200.0
1
W1
50
0.0
7
Standard
72
1
11
7280.0
21
300.0
31
0.0
100
AcDbText
73
2
0
TEXT
5
10163
330
2C
100
AcDbEntity
8
OPENING
100
AcDbText
10
8700.0
20
2275.0
30
0.0
40
200.0
1
W2
50
0.0
7
Standard
72
1
11
8700.0
21
2275.0
31
0.0
100
AcDbText
73
2
0
TEXT
5
10164
330
2C
100
AcDbEntity
8
OPENING
100
AcDbText
10
7827.0
20
6936.0
30
0.0
40
200.0
1
W3
50
0.0
7
Standard
72
1
11
7827.0
21
6936.0
31
0.0
100
AcDbText
73
2
0
TEXT
5
10165
330
2C
100
AcDbEntity
8
OPENING
100
AcDbText
10
3640.0
20
7850.0
30
0.0
40
200.0
1
W4
50
0.0
7
Standard
72
1
11
3640.0
21
7850.0
31
0.0
100
AcDbText
73
2
0
TEXT
5
10166
330
2C
100
AcDbEntity
8
ROOM
100
AcDbText
10
910.0
20
1010.0
30
0.0
40
200.0
1
玄関
50
0.0
7
JP
72
1
11
910.0
21
1010.0
31
0.0
100
AcDbText
73
2
0
TEXT
5
10167
330
2C
100
AcDbEntity
8
ROOM
100
AcDbText
10
910.0
20
730.0
30
0.0
40
180.0
1
3.31
50
0.0
7
Standard
72
1
11
910.0
21
730.0
31
0.0
100
AcDbText
73
2
0
TEXT
5
10168
330
2C
100
AcDbEntity
8
ROOM
100
AcDbText
10
910.0
20
2135.0
30
0.0
40
150.0
1
収納
50
0.0
7
JP
72
1
11
910.0
21
2135.0
31
0.0
100
AcDbText
73
2
0
TEXT
5
10169
330
2C
100
AcDbEntity
8
ROOM
100
AcDbText
10
910.0
20
1955.0
30
0.0
40
140.0
1
0.83
50
0.0
7
Standard
72
1
11
910.0
21
1955.0
31
0.0
100
AcDbText
73
2
0
TEXT
5
10170
330
2C
100
AcDbEntity
8
ROOM
100
AcDbText
10
910.0
20
3520.0
30
0.0
40
200.0
1
洗面脱衣
50
0.0
7
JP
72
1
11
910.0
21
3520.0
31
0.0
100
AcDbText
73
2
0
TEXT
5
10171
330
2C
100
AcDbEntity
8
ROOM
100
AcDbText
10
910.0
20
3240.0
30
0.0
40
180.0
1
4.14
50
0.0
7
Standard
72
1
11
910.0
21
3240.0
31
0.0
100
AcDbText
73
2
0
TEXT
5
10172
330
2C
100
AcDbEntity
8
ROOM
100
AcDbText
10
2730.0
20
1010.0
30
0.0
40
200.0
1
ホール
50
0.0
7
JP
72
1
11
2730.0
21
1010.0
31
0.0
100
AcDbText
73
2
0
TEXT
5
10173
330
2C
100
AcDbEntity
8
ROOM
100
AcDbText
10
2730.0
20
730.0
30
0.0
40
180.0
1
3.31
50
0.0
7
Standard
72
1
11
2730.0
21
730.0
31
0.0
100
AcDbText
73
2
0
TEXT
5
10174
330
2C
100
AcDbEntity
8
ROOM
100
AcDbText
10
2730.0
20
2370.0
30
0.0
40
200.0
1
便所
50
0.0
7
JP
72
1
11
2730.0
21
2370.0
31
0.0
100
AcDbText
73
2
0
TEXT
5
10175
330
2C
100
AcDbEntity
8
ROOM
100
AcDbText
10
2730.0
20
2150.0
30
0.0
40
180.0
1
1.66
50
0.0
7
Standard
72
1
11
2730.0
21
2150.0
31
0.0
100
AcDbText
73
2
0
TEXT
5
10176
330
2C
100
AcDbEntity
8
ROOM
100
AcDbText
10
2730.0
20
3740.0
30
0.0
40
200.0
1
浴室
50
0.0
7
JP
72
1
11
2730.0
21
3740.0
31
0.0
100
AcDbText
73
2
0
TEXT
5
10177
330
2C
100
AcDbEntity
8
ROOM
100
AcDbText
10
2730.0
20
3460.0
30
0.0
40
180.0
1
3.31
50
0.0
7
Standard
72
1
11
2730.0
21
3460.0
31
0.0
100
AcDbText
73
2
0
TEXT
5
10178
330
2C
100
AcDbEntity
8
ROOM
100
AcDbText
10
4550.0
20
1640.0
30
0.0
40
150.0
1
階段
50
0.0
7
JP
72
1
11
4550.0
21
1640.0
31
0.0
100
AcDbText
73
2
0
TEXT
5
10179
330
2C
100
AcDbEntity
8
ROOM
100
AcDbText
10
4550.0
20
1450.0
30
0.0
40
140.0
1
3.31
50
0.0
7
Standard
72
1
11
4550.0
21
1450.0
31
0.0
100
AcDbText
73
2
0
TEXT
5
10180
330
2C
100
AcDbEntity
8
ROOM
100
AcDbText
10
4550.0
20
3285.0
30
0.0
40
200.0
1
納戸
50
0.0
7
JP
72
1
11
4550.0
21
3285.0
31
0.0
100
AcDbText
73
2
0
TEXT
5
10181
330
2C
100
AcDbEntity
8
ROOM
100
AcDbText
10
4550.0
20
3005.0
30
0.0
40
180.0
1
4.97
50
0.0
7
Standard
72
1
11
4550.0
21
3005.0
31
0.0
100
AcDbText
73
2
0
TEXT
5
10182
330
2C
100
AcDbEntity
8
ROOM
100
AcDbText
10
7280.0
20
2400.0
30
0.0
40
250.0
1
和室
50
0.0
7
JP
72
1
11
7280.0
21
2400.0
31
0.0
100
AcDbText
73
2
0
TEXT
5
10183
330
2C
100
AcDbEntity
8
ROOM
100
AcDbText
10
7280.0
20
2100.0
30
0.0
40
200.0
1
16.56
50
0.0
7
Standard
72
1
11
7280.0
21
2100.0
31
0.0
100
AcDbText
73
2
0
TEXT
5
10184
330
2C
100
AcDbEntity
8
ROOM
100
AcDbText
10
4000.0
20
6400.0
30
0.0
40
300.0
1
LDK
50
0.0
7
Standard
72
1
11
4000.0
21
6400.0
31
0.0
100
AcDbText
73
2
0
TEXT
5
10185
330
2C
100
AcDbEntity
8
ROOM
100
AcDbText
10
4000.0
20
6050.0
30
0.0
40
220.0
1
31.47
50
0.0
7
Standard
72
1
11
4000.0
21
6050.0
31
0.0
100
AcDbText
73
2
0
TEXT
5
10186
330
2C
100
AcDbEntity
8
TEXT
100
AcDbText
10
0.0
20
-4300.0
30
0.0
40
300.0
1
1階床面積 72.87 m2
50
0.0
7
JP
72
0
11
0.0
21
-4300.0
31
0.0
100
AcDbText
73
0
0
LINE
5
10187
330
2C
100
AcDbEntity
8
STAIR
100
AcDbLine
10
3700.0
20
260.0
30
0.0
11
4550.0
21
260.0
31
0.0
0
LINE
5
10188
330
2C
100
AcDbEntity
8
STAIR
100
AcDbLine
10
3700.0
20
460.0
30
0.0
11
4550.0
21
460.0
31
0.0
0
LINE
5
10189
330
2C
100
AcDbEntity
8
STAIR
100
AcDbLine
10
3700.0
20
660.0
30
0.0
11
4550.0
21
660.0
31
0.0
0
LINE
5
10190
330
2C
100
AcDbEntity
8
STAIR
100
AcDbLine
10
3700.0
20
860.0
30
0.0
11
4550.0
21
860.0
31
0.0
0
LINE
5
10191
330
2C
100
AcDbEntity
8
STAIR
100
AcDbLine
10
3700.0
20
1060.0
30
0.0
11
4550.0
21
1060.0
31
0.0
0
LINE
5
10192
330
2C
100
AcDbEntity
8
STAIR
100
AcDbLine
10
3700.0
20
1260.0
30
0.0
11
4550.0
21
1260.0
31
0.0
0
LINE
5
10193
330
2C
100
AcDbEntity
8
STAIR
100
AcDbLine
10
4550.0
20
260.0
30
0.0
11
5400.0
21
260.0
31
0.0
0
LINE
5
10194
330
2C
100
AcDbEntity
8
STAIR
100
AcDbLine
10
4550.0
20
460.0
30
0.0
11
5400.0
21
460.0
31
0.0
0
LINE
5
10195
330
2C
100
AcDbEntity
8
STAIR
100
AcDbLine
10
4550.0
20
660.0
30
0.0
11
5400.0
21
660.0
31
0.0
0
LINE
5
10196
330
2C
100
AcDbEntity
8
STAIR
100
AcDbLine
10
4550.0
20
860.0
30
0.0
11
5400.0
21
860.0
31
0.0
0
LINE
5
10197
330
2C
100
AcDbEntity
8
STAIR
100
AcDbLine
10
4550.0
20
1060.0
30
0.0
11
5400.0
21
1060.0
31
0.0
0
LINE
5
10198
330
2C
100
AcDbEntity
8
STAIR
100
AcDbLine
10
4550.0
20
1260.0
30
0.0
11
5400.0
21
1260.0
31
0.0
0
LINE
5
10199
330
2C
100
AcDbEntity
8
STAIR
100
AcDbLine
10
3700.0
20
1360.0
30
0.0
11
5400.0
21
1360.0
31
0.0
0
LINE
5
10200
330
2C
100
AcDbEntity
8
STAIR
100
AcDbLine
10
4550.0
20
60.0
30
0.0
11
4550.0
21
1360.0
31
0.0
0
TEXT
5
10201
330
2C
100
AcDbEntity
8
STAIR
100
AcDbText
10
3760.0
20
140.0
30
0.0
40
150.0
1
UP
50
0.0
7
Standard
72
0
11
3760.0
21
140.0
31
0.0
100
AcDbText
73
2
0
DIMENSION
5
6001
330
2C
100
AcDbEntity
8
DIM
100
AcDbDimension
2
*D1
10
455.0
20
-600.0
30
0.0
11
227.5
21
-410.0
31
0.0
70
32
71
5
42
455.0
3
ARCH100
100
AcDbAlignedDimension
13
0.0
23
0.0
33
0.0
14
455.0
24
0.0
34
0.0
50
0.0
100
AcDbRotatedDimension
0
DIMENSION
5
6002
330
2C
100
AcDbEntity
8
DIM
100
AcDbDimension
2
*D2
10
1365.0
20
-600.0
30
0.0
11
910.0
21
-410.0
31
0.0
70
32
71
5
42
910.0
3
ARCH100
100
AcDbAlignedDimension
13
455.0
23
0.0
33
0.0
14
1365.0
24
0.0
34
0.0
50
0.0
100
AcDbRotatedDimension
0
DIMENSION
5
6003
330
2C
100
AcDbEntity
8
DIM
100
AcDbDimension
2
*D3
10
6370.0
20
-600.0
30
0.0
11
3867.5
21
-410.0
31
0.0
70
32
71
5
42
5005.0
3
ARCH100
100
AcDbAlignedDimension
13
1365.0
23
0.0
33
0.0
14
6370.0
24
0.0
34
0.0
50
0.0
100
AcDbRotatedDimension
0
DIMENSION
5
6004
330
2C
100
AcDbEntity
8
DIM
100
AcDbDimension
2
*D4
10
8190.0
20
-600.0
30
0.0
11
7280.0
21
-410.0
31
0.0
70
32
71
5
42
1820.0
3
ARCH100
100
AcDbAlignedDimension
13
6370.0
23
0.0
33
0.0
14
8190.0
24
0.0
34
0.0
50
0.0
100
AcDbRotatedDimension
0
DIMENSION
5
6005
330
2C
100
AcDbEntity
8
DIM
100
AcDbDimension
2
*D5
10
9100.0
20
-600.0
30
0.0
11
8645.0
21
-410.0
31
0.0
70
32
71
5
42
910.0
3
ARCH100
100
AcDbAlignedDimension
13
8190.0
23
0.0
33
0.0
14
9100.0
24
0.0
34
0.0
50
0.0
100
AcDbRotatedDimension
0
DIMENSION
5
6006
330
2C
100
AcDbEntity
8
DIM
100
AcDbDimension
2
*D6
10
910.0
20
-1600.0
30
0.0
11
455.0
21
-1410.0
31
0.0
70
32
71
5
42
910.0
3
ARCH100
100
AcDbAlignedDimension
13
0.0
23
0.0
33
0.0
14
910.0
24
0.0
34
0.0
50
0.0
100
AcDbRotatedDimension
0
DIMENSION
5
6007
330
2C
100
AcDbEntity
8
DIM
100
AcDbDimension
2
*D7
10
1820.0
20
-1600.0
30
0.0
11
1365.0
21
-1410.0
31
0.0
70
32
71
5
42
910.0
3
ARCH100
100
AcDbAlignedDimension
13
910.0
23
0.0
33
0.0
14
1820.0
24
0.0
34
0.0
50
0.0
100
AcDbRotatedDimension
0
DIMENSION
5
6008
330
2C
100
AcDbEntity
8
DIM
100
AcDbDimension
2
*D8
10
2730.0
20
-1600.0
30
0.0
11
2275.0
21
-1410.0
31
0.0
70
32
71
5
42
910.0
3
ARCH100
100
AcDbAlignedDimension
13
1820.0
23
0.0
33
0.0
14
2730.0
24
0.0
34
0.0
50
0.0
100
AcDbRotatedDimension
0
DIMENSION
5
6009
330
2C
100
AcDbEntity
8
DIM
100
AcDbDimension
2
*D9
10
3640.0
20
-1600.0
30
0.0
11
3185.0
21
-1410.0
31
0.0
70
32
71
5
42
910.0
3
ARCH100
100
AcDbAlignedDimension
13
2730.0
23
0.0
33
0.0
14
3640.0
24
0.0
34
0.0
50
0.0
100
AcDbRotatedDimension
0
DIMENSION
5
6010
330
2C
100
AcDbEntity
8
DIM
100
AcDbDimension
2
*D10
10
4550.0
20
-1600.0
30
0.0
11
4095.0
21
-1410.0
31
0.0
70
32
71
5
42
910.0
3
ARCH100
100
AcDbAlignedDimension
13
3640.0
23
0.0
33
0.0
14
4550.0
24
0.0
34
0.0
50
0.0
100
AcDbRotatedDimension
0
DIMENSION
5
6011
330
2C
100
AcDbEntity
8
DIM
100
AcDbDimension
2
*D11
10
5460.0
20
-1600.0
30
0.0
11
5005.0
21
-1410.0
31
0.0
70
32
71
5
42
910.0
3
ARCH100
100
AcDbAlignedDimension
13
4550.0
23
0.0
33
0.0
14
5460.0
24
0.0
34
0.0
50
0.0
100
AcDbRotatedDimension
0
DIMENSION
5
6012
330
2C
100
AcDbEntity
8
DIM
100
AcDbDimension
2
*D12
10
6370.0
20
-1600.0
30
0.0
11
5915.0
21
-1410.0
31
0.0
70
32
71
5
42
910.0
3
ARCH100
100
AcDbAlignedDimension
13
5460.0
23
0.0
33
0.0
14
6370.0
24
0.0
34
0.0
50
0.0
100
AcDbRotatedDimension
0
DIMENSION
5
6013
330
2C
100
AcDbEntity
8
DIM
100
AcDbDimension
2
*D13
10
7280.0
20
-1600.0
30
0.0
11
6825.0
21
-1410.0
31
0.0
70
32
71
5
42
910.0
3
ARCH100
100
AcDbAlignedDimension
13
6370.0
23
0.0
33
0.0
14
7280.0
24
0.0
34
0.0
50
0.0
100
AcDbRotatedDimension
0
DIMENSION
5
6014
330
2C
100
AcDbEntity
8
DIM
100
AcDbDimension
2
*D14
10
8190.0
20
-1600.0
30
0.0
11
7735.0
21
-1410.0
31
0.0
70
32
71
5
42
910.0
3
ARCH100
100
AcDbAlignedDimension
13
7280.0
23
0.0
33
0.0
14
8190.0
24
0.0
34
0.0
50
0.0
100
AcDbRotatedDimension
0
DIMENSION
5
6015
330
2C
100
AcDbEntity
8
DIM
100
AcDbDimension
2
*D15
10
9100.0
20
-1600.0
30
0.0
11
8645.0
21
-1410.0
31
0.0
70
32
71
5
42
910.0
3
ARCH100
100
AcDbAlignedDimension
13
8190.0
23
0.0
33
0.0
14
9100.0
24
0.0
34
0.0
50
0.0
100
AcDbRotatedDimension
0
DIMENSION
5
6016
330
2C
100
AcDbEntity
8
DIM
100
AcDbDimension
2
*D16
10
9100.0
20
-2600.0
30
0.0
11
4550.0
21
-2410.0
31
0.0
70
32
71
5
42
9100.0
3
ARCH100
100
AcDbAlignedDimension
13
0.0
23
0.0
33
0.0
14
9100.0
24
0.0
34
0.0
50
0.0
100
AcDbRotatedDimension
0
DIMENSION
5
6017
330
2C
100
AcDbEntity
8
DIM
100
AcDbDimension
2
*D17
10
-600.0
20
910.0
30
0.0
11
-790.0
21
455.0
31
0.0
70
32
71
5
42
910.0
3
ARCH100
100
AcDbAlignedDimension
13
0.0
23
0.0
33
0.0
14
0.0
24
910.0
34
0.0
50
90.0
100
AcDbRotatedDimension
0
DIMENSION
5
6018
330
2C
100
AcDbEntity
8
DIM
100
AcDbDimension
2
*D18
10
-600.0
20
1820.0
30
0.0
11
-790.0
21
1365.0
31
0.0
70
32
71
5
42
910.0
3
ARCH100
100
AcDbAlignedDimension
13
0.0
23
910.0
33
0.0
14
0.0
24
1820.0
34
0.0
50
90.0
100
AcDbRotatedDimension
0
DIMENSION
5
6019
330
2C
100
AcDbEntity
8
DIM
100
AcDbDimension
2
*D19
10
-600.0
20
2730.0
30
0.0
11
-790.0
21
2275.0
31
0.0
70
32
71
5
42
910.0
3
ARCH100
100
AcDbAlignedDimension
13
0.0
23
1820.0
33
0.0
14
0.0
24
2730.0
34
0.0
50
90.0
100
AcDbRotatedDimension
0
DIMENSION
5
6020
330
2C
100
AcDbEntity
8
DIM
100
AcDbDimension
2
*D20
10
-600.0
20
3640.0
30
0.0
11
-790.0
21
3185.0
31
0.0
70
32
71
5
42
910.0
3
ARCH100
100
AcDbAlignedDimension
13
0.0
23
2730.0
33
0.0
14
0.0
24
3640.0
34
0.0
50
90.0
100
AcDbRotatedDimension
0
DIMENSION
5
6021
330
2C
100
AcDbEntity
8
DIM
100
AcDbDimension
2
*D21
10
-600.0
20
4550.0
30
0.0
11
-790.0
21
4095.0
31
0.0
70
32
71
5
42
910.0
3
ARCH100
100
AcDbAlignedDimension
13
0.0
23
3640.0
33
0.0
14
0.0
24
4550.0
34
0.0
50
90.0
100
AcDbRotatedDimension
0
DIMENSION
5
6022
330
2C
100
AcDbEntity
8
DIM
100
AcDbDimension
2
*D22
10
-600.0
20
5460.0
30
0.0
11
-790.0
21
5005.0
31
0.0
70
32
71
5
42
910.0
3
ARCH100
100
AcDbAlignedDimension
13
0.0
23
4550.0
33
0.0
14
0.0
24
5460.0
34
0.0
50
90.0
100
AcDbRotatedDimension
0
DIMENSION
5
6023
330
2C
100
AcDbEntity
8
DIM
100
AcDbDimension
2
*D23
10
-600.0
20
6370.0
30
0.0
11
-790.0
21
5915.0
31
0.0
70
32
71
5
42
910.0
3
ARCH100
100
AcDbAlignedDimension
13
0.0
23
5460.0
33
0.0
14
0.0
24
6370.0
34
0.0
50
90.0
100
AcDbRotatedDimension
0
DIMENSION
5
6024
330
2C
100
AcDbEntity
8
DIM
100
AcDbDimension
2
*D24
10
-600.0
20
7280.0
30
0.0
11
-790.0
21
6825.0
31
0.0
70
32
71
5
42
910.0
3
ARCH100
100
AcDbAlignedDimension
13
0.0
23
6370.0
33
0.0
14
0.0
24
7280.0
34
0.0
50
90.0
100
AcDbRotatedDimension
0
DIMENSION
5
6025
330
2C
100
AcDbEntity
8
DIM
100
AcDbDimension
2
*D25
10
-600.0
20
8190.0
30
0.0
11
-790.0
21
7735.0
31
0.0
70
32
71
5
42
910.0
3
ARCH100
100
AcDbAlignedDimension
13
0.0
23
7280.0
33
0.0
14
0.0
24
8190.0
34
0.0
50
90.0
100
AcDbRotatedDimension
0
DIMENSION
5
6026
330
2C
100
AcDbEntity
8
DIM
100
AcDbDimension
2
*D26
10
-1600.0
20
8190.0
30
0.0
11
-1790.0
21
4095.0
31
0.0
70
32
71
5
42
8190.0
3
ARCH100
100
AcDbAlignedDimension
13
0.0
23
0.0
33
0.0
14
0.0
24
8190.0
34
0.0
50
90.0
100
AcDbRotatedDimension
0
DIMENSION
5
6027
330
2C
100
AcDbEntity
8
DIM
100
AcDbDimension
2
*D27
10
9700.0
20
910.0
30
0.0
11
9510.0
21
455.0
31
0.0
70
32
71
5
42
910.0
3
ARCH100
100
AcDbAlignedDimension
13
9100.0
23
0.0
33
0.0
14
9100.0
24
910.0
34
0.0
50
90.0
100
AcDbRotatedDimension
0
DIMENSION
5
6028
330
2C
100
AcDbEntity
8
DIM
100
AcDbDimension
2
*D28
10
9700.0
20
1820.0
30
0.0
11
9510.0
21
1365.0
31
0.0
70
32
71
5
42
910.0
3
ARCH100
100
AcDbAlignedDimension
13
9100.0
23
910.0
33
0.0
14
9100.0
24
1820.0
34
0.0
50
90.0
100
AcDbRotatedDimension
0
DIMENSION
5
6029
330
2C
100
AcDbEntity
8
DIM
100
AcDbDimension
2
*D29
10
9700.0
20
2730.0
30
0.0
11
9510.0
21
2275.0
31
0.0
70
32
71
5
42
910.0
3
ARCH100
100
AcDbAlignedDimension
13
9100.0
23
1820.0
33
0.0
14
9100.0
24
2730.0
34
0.0
50
90.0
100
AcDbRotatedDimension
0
DIMENSION
5
6030
330
2C
100
AcDbEntity
8
DIM
100
AcDbDimension
2
*D30
10
9700.0
20
3640.0
30
0.0
11
9510.0
21
3185.0
31
0.0
70
32
71
5
42
910.0
3
ARCH100
100
AcDbAlignedDimension
13
9100.0
23
2730.0
33
0.0
14
9100.0
24
3640.0
34
0.0
50
90.0
100
AcDbRotatedDimension
0
DIMENSION
5
6031
330
2C
100
AcDbEntity
8
DIM
100
AcDbDimension
2
*D31
10
9700.0
20
4550.0
30
0.0
11
9510.0
21
4095.0
31
0.0
70
32
71
5
42
910.0
3
ARCH100
100
AcDbAlignedDimension
13
9100.0
23
3640.0
33
0.0
14
9100.0
24
4550.0
34
0.0
50
90.0
100
AcDbRotatedDimension
0
DIMENSION
5
6032
330
2C
100
AcDbEntity
8
DIM
100
AcDbDimension
2
*D32
10
9700.0
20
5460.0
30
0.0
11
9510.0
21
5005.0
31
0.0
70
32
71
5
42
910.0
3
ARCH100
100
AcDbAlignedDimension
13
9100.0
23
4550.0
33
0.0
14
9100.0
24
5460.0
34
0.0
50
90.0
100
AcDbRotatedDimension
0
DIMENSION
5
6033
330
2C
100
AcDbEntity
8
DIM
100
AcDbDimension
2
*D33
10
9700.0
20
6370.0
30
0.0
11
9510.0
21
5915.0
31
0.0
70
32
71
5
42
910.0
3
ARCH100
100
AcDbAlignedDimension
13
9100.0
23
5460.0
33
0.0
14
9100.0
24
6370.0
34
0.0
50
90.0
100
AcDbRotatedDimension
0
DIMENSION
5
6034
330
2C
100
AcDbEntity
8
DIM
100
AcDbDimension
2
*D34
10
10700.0
20
6370.0
30
0.0
11
10510.0
21
3185.0
31
0.0
70
32
71
5
42
6370.0
3
ARCH100
100
AcDbAlignedDimension
13
9100.0
23
0.0
33
0.0
14
9100.0
24
6370.0
34
0.0
50
90.0
100
AcDbRotatedDimension
0
ENDSEC
0
SECTION
2
OBJECTS
0
DICTIONARY
5
F00
330
0
100
AcDbDictionary
281
1
3
ACAD_GROUP
350
F01
3
ACAD_LAYOUT
350
F02
3
ACAD_MLINESTYLE
350
F03
3
ACAD_PLOTSTYLENAME
350
F04
0
DICTIONARY
5
F01
330
F00
100
AcDbDictionary
281
1
0
DICTIONARY
5
F02
330
F00
100
AcDbDictionary
281
1
3
Model
350
F06
3
Layout1
350
F07
0
DICTIONARY
5
F03
330
F00
100
AcDbDictionary
281
1
3
Standard
350
F08
0
ACDBDICTIONARYWDFLT
5
F04
330
F00
100
AcDbDictionary
281
1
3
Normal
350
F09
100
AcDbDictionaryWithDefault
340
F09
0
ACDBPLACEHOLDER
5
F09
330
F04
0
LAYOUT
5
F06
330
F02
100
AcDbPlotSettings
1

2
none_device
4

6

40
0.0
41
0.0
42
0.0
43
0.0
44
0.0
45
0.0
46
0.0
47
0.0
48
0.0
49
0.0
140
0.0
141
0.0
142
1.0
143
1.0
70
1712
72
0
73
0
74
0
7

75
0
147
1.0
148
0.0
149
0.0
100
AcDbLayout
1
Model
70
1
71
0
10
0.0
20
0.0
11
420.0
21
297.0
12
0.0
22
0.0
32
0.0
14
0.0
24
0.0
34
0.0
15
0.0
25
0.0
35
0.0
146
0.0
13
0.0
23
0.0
33
0.0
16
1.0
26
0.0
36
0.0
17
0.0
27
1.0
37
0.0
76
0
330
2C
0
LAYOUT
5
F07
330
F02
100
AcDbPlotSettings
1

2
none_device
4

6

40
0.0
41
0.0
42
0.0
43
0.0
44
0.0
45
0.0
46
0.0
47
0.0
48
0.0
49
0.0
140
0.0
141
0.0
142
1.0
143
1.0
70
1712
72
0
73
0
74
0
7

75
0
147
1.0
148
0.0
149
0.0
100
AcDbLayout
1
Layout1
70
1
71
1
10
0.0
20
0.0
11
420.0
21
297.0
12
0.0
22
0.0
32
0.0
14
0.0
24
0.0
34
0.0
15
0.0
25
0.0
35
0.0
146
0.0
13
0.0
23
0.0
33
0.0
16
1.0
26
0.0
36
0.0
17
0.0
27
1.0
37
0.0
76
0
330
2D
0
MLINESTYLE
5
F08
330
F03
100
AcDbMlineStyle
2
Standard
70
0
3

62
256
51
90.0
52
90.0
71
2
49
0.5
62
256
6
BYLAYER
49
-0.5
62
256
6
BYLAYER
0
ENDSEC
0
EOF
