999
T004 1F PLAN - units mm - scale 1:100
0
SECTION
2
HEADER
9
$ACADVER
1
AC1021
9
$HANDSEED
5
20000
9
$INSBASE
10
0.0
20
0.0
30
0.0
9
$EXTMIN
10
-3300.0
20
-2900.0
30
0.0
9
$EXTMAX
10
11000.0
20
8800.0
30
0.0
9
$LIMMIN
10
-3300.0
20
-2900.0
9
$LIMMAX
10
11000.0
20
8800.0
9
$INSUNITS
70
4
9
$LTSCALE
40
1.0
9
$MEASUREMENT
70
1
9
$CLAYER
8
0
9
$TEXTSTYLE
7
Standard
9
$DIMSTYLE
2
Standard
9
$DIMTXT
40
200.0
9
$DIMASZ
40
100.0
9
$DIMEXE
40
60.0
9
$DIMEXO
40
80.0
9
$DIMSCALE
40
1.0
9
$DIMDEC
70
0
9
$PDMODE
70
0
0
ENDSEC
0
SECTION
2
TABLES
0
TABLE
2
VPORT
5
8
330
0
100
AcDbSymbolTable
70
1
0
VPORT
5
21
330
8
100
AcDbSymbolTableRecord
100
AcDbViewportTableRecord
2
*ACTIVE
70
0
10
0.0
20
0.0
11
1.0
21
1.0
12
4000.0
22
3000.0
13
0.0
23
0.0
14
910.0
24
910.0
15
0.0
25
0.0
16
0.0
26
0.0
36
1.0
17
0.0
27
0.0
37
0.0
40
10000.0
41
1.5
42
50.0
43
0.0
44
0.0
50
0.0
51
0.0
71
0
72
100
73
1
74
3
75
0
76
0
77
0
78
0
0
ENDTAB
0
TABLE
2
LTYPE
5
5
330
0
100
AcDbSymbolTable
70
4
0
LTYPE
5
14
330
5
100
AcDbSymbolTableRecord
100
AcDbLinetypeTableRecord
2
ByBlock
70
0
3

72
65
73
0
40
0.0
0
LTYPE
5
15
330
5
100
AcDbSymbolTableRecord
100
AcDbLinetypeTableRecord
2
ByLayer
70
0
3

72
65
73
0
40
0.0
0
LTYPE
5
16
330
5
100
AcDbSymbolTableRecord
100
AcDbLinetypeTableRecord
2
CONTINUOUS
70
0
3
Solid line
72
65
73
0
40
0.0
0
LTYPE
5
17
330
5
100
AcDbSymbolTableRecord
100
AcDbLinetypeTableRecord
2
CENTER
70
0
3
Center ____ _ ____ _ ____
72
65
73
4
40
800.0
49
600.0
74
0
49
-100.0
74
0
49
0.0
74
0
49
-100.0
74
0
0
ENDTAB
0
TABLE
2
LAYER
5
2
330
0
100
AcDbSymbolTable
70
8
0
LAYER
5
18
330
2
100
AcDbSymbolTableRecord
100
AcDbLayerTableRecord
2
0
70
0
62
7
6
CONTINUOUS
0
LAYER
5
19
330
2
100
AcDbSymbolTableRecord
100
AcDbLayerTableRecord
2
GRID
70
0
62
8
6
CENTER
0
LAYER
5
1A
330
2
100
AcDbSymbolTableRecord
100
AcDbLayerTableRecord
2
WALL
70
0
62
7
6
CONTINUOUS
370
50
0
LAYER
5
1B
330
2
100
AcDbSymbolTableRecord
100
AcDbLayerTableRecord
2
OPENING
70
0
62
4
6
CONTINUOUS
0
LAYER
5
1C
330
2
100
AcDbSymbolTableRecord
100
AcDbLayerTableRecord
2
DIM
70
0
62
3
6
CONTINUOUS
0
LAYER
5
1D
330
2
100
AcDbSymbolTableRecord
100
AcDbLayerTableRecord
2
ROOM
70
0
62
5
6
CONTINUOUS
0
LAYER
5
1E
330
2
100
AcDbSymbolTableRecord
100
AcDbLayerTableRecord
2
TEXT
70
0
62
7
6
CONTINUOUS
0
LAYER
5
1F
330
2
100
AcDbSymbolTableRecord
100
AcDbLayerTableRecord
2
STAIR
70
0
62
6
6
CONTINUOUS
0
ENDTAB
0
TABLE
2
STYLE
5
3
330
0
100
AcDbSymbolTable
70
1
0
STYLE
5
20
330
3
100
AcDbSymbolTableRecord
100
AcDbTextStyleTableRecord
2
Standard
70
0
40
0.0
41
1.0
50
0.0
71
0
42
200.0
3
msgothic.ttc
4

0
ENDTAB
0
TABLE
2
VIEW
5
6
330
0
100
AcDbSymbolTable
70
0
0
ENDTAB
0
TABLE
2
UCS
5
7
330
0
100
AcDbSymbolTable
70
0
0
ENDTAB
0
TABLE
2
APPID
5
9
330
0
100
AcDbSymbolTable
70
1
0
APPID
5
22
330
9
100
AcDbSymbolTableRecord
100
AcDbRegAppTableRecord
2
ACAD
70
0
0
ENDTAB
0
TABLE
2
DIMSTYLE
5
A
330
0
100
AcDbSymbolTable
70
1
100
AcDbDimStyleTable
71
1
0
DIMSTYLE
105
23
330
A
100
AcDbSymbolTableRecord
100
AcDbDimStyleTableRecord
2
Standard
70
0
40
1.0
41
100.0
42
80.0
43
900.0
44
60.0
140
200.0
141
100.0
147
80.0
171
3
172
0
271
0
272
0
340
20
0
ENDTAB
0
TABLE
2
BLOCK_RECORD
5
1
330
0
100
AcDbSymbolTable
70
36
0
BLOCK_RECORD
5
24
330
1
100
AcDbSymbolTableRecord
100
AcDbBlockTableRecord
2
*Model_Space
70
0
0
BLOCK_RECORD
5
25
330
1
100
AcDbSymbolTableRecord
100
AcDbBlockTableRecord
2
*Paper_Space
70
0
0
BLOCK_RECORD
5
26
330
1
100
AcDbSymbolTableRecord
100
AcDbBlockTableRecord
2
*D1
70
0
0
BLOCK_RECORD
5
27
330
1
100
AcDbSymbolTableRecord
100
AcDbBlockTableRecord
2
*D2
70
0
0
BLOCK_RECORD
5
28
330
1
100
AcDbSymbolTableRecord
100
AcDbBlockTableRecord
2
*D3
70
0
0
BLOCK_RECORD
5
29
330
1
100
AcDbSymbolTableRecord
100
AcDbBlockTableRecord
2
*D4
70
0
0
BLOCK_RECORD
5
2A
330
1
100
AcDbSymbolTableRecord
100
AcDbBlockTableRecord
2
*D5
70
0
0
BLOCK_RECORD
5
2B
330
1
100
AcDbSymbolTableRecord
100
AcDbBlockTableRecord
2
*D6
70
0
0
BLOCK_RECORD
5
2C
330
1
100
AcDbSymbolTableRecord
100
AcDbBlockTableRecord
2
*D7
70
0
0
BLOCK_RECORD
5
2D
330
1
100
AcDbSymbolTableRecord
100
AcDbBlockTableRecord
2
*D8
70
0
0
BLOCK_RECORD
5
2E
330
1
100
AcDbSymbolTableRecord
100
AcDbBlockTableRecord
2
*D9
70
0
0
BLOCK_RECORD
5
2F
330
1
100
AcDbSymbolTableRecord
100
AcDbBlockTableRecord
2
*D10
70
0
0
BLOCK_RECORD
5
30
330
1
100
AcDbSymbolTableRecord
100
AcDbBlockTableRecord
2
*D11
70
0
0
BLOCK_RECORD
5
31
330
1
100
AcDbSymbolTableRecord
100
AcDbBlockTableRecord
2
*D12
70
0
0
BLOCK_RECORD
5
32
330
1
100
AcDbSymbolTableRecord
100
AcDbBlockTableRecord
2
*D13
70
0
0
BLOCK_RECORD
5
33
330
1
100
AcDbSymbolTableRecord
100
AcDbBlockTableRecord
2
*D14
70
0
0
BLOCK_RECORD
5
34
330
1
100
AcDbSymbolTableRecord
100
AcDbBlockTableRecord
2
*D15
70
0
0
BLOCK_RECORD
5
35
330
1
100
AcDbSymbolTableRecord
100
AcDbBlockTableRecord
2
*D16
70
0
0
BLOCK_RECORD
5
36
330
1
100
AcDbSymbolTableRecord
100
AcDbBlockTableRecord
2
*D17
70
0
0
BLOCK_RECORD
5
37
330
1
100
AcDbSymbolTableRecord
100
AcDbBlockTableRecord
2
*D18
70
0
0
BLOCK_RECORD
5
38
330
1
100
AcDbSymbolTableRecord
100
AcDbBlockTableRecord
2
*D19
70
0
0
BLOCK_RECORD
5
39
330
1
100
AcDbSymbolTableRecord
100
AcDbBlockTableRecord
2
*D20
70
0
0
BLOCK_RECORD
5
3A
330
1
100
AcDbSymbolTableRecord
100
AcDbBlockTableRecord
2
*D21
70
0
0
BLOCK_RECORD
5
3B
330
1
100
AcDbSymbolTableRecord
100
AcDbBlockTableRecord
2
*D22
70
0
0
BLOCK_RECORD
5
3C
330
1
100
AcDbSymbolTableRecord
100
AcDbBlockTableRecord
2
*D23
70
0
0
BLOCK_RECORD
5
3D
330
1
100
AcDbSymbolTableRecord
100
AcDbBlockTableRecord
2
*D24
70
0
0
BLOCK_RECORD
5
3E
330
1
100
AcDbSymbolTableRecord
100
AcDbBlockTableRecord
2
*D25
70
0
0
BLOCK_RECORD
5
3F
330
1
100
AcDbSymbolTableRecord
100
AcDbBlockTableRecord
2
*D26
70
0
0
BLOCK_RECORD
5
40
330
1
100
AcDbSymbolTableRecord
100
AcDbBlockTableRecord
2
*D27
70
0
0
BLOCK_RECORD
5
41
330
1
100
AcDbSymbolTableRecord
100
AcDbBlockTableRecord
2
*D28
70
0
0
BLOCK_RECORD
5
42
330
1
100
AcDbSymbolTableRecord
100
AcDbBlockTableRecord
2
*D29
70
0
0
BLOCK_RECORD
5
43
330
1
100
AcDbSymbolTableRecord
100
AcDbBlockTableRecord
2
*D30
70
0
0
BLOCK_RECORD
5
44
330
1
100
AcDbSymbolTableRecord
100
AcDbBlockTableRecord
2
*D31
70
0
0
BLOCK_RECORD
5
45
330
1
100
AcDbSymbolTableRecord
100
AcDbBlockTableRecord
2
*D32
70
0
0
BLOCK_RECORD
5
46
330
1
100
AcDbSymbolTableRecord
100
AcDbBlockTableRecord
2
*D33
70
0
0
BLOCK_RECORD
5
47
330
1
100
AcDbSymbolTableRecord
100
AcDbBlockTableRecord
2
*D34
70
0
0
ENDTAB
0
ENDSEC
0
SECTION
2
BLOCKS
0
BLOCK
5
50
330
24
100
AcDbEntity
8
0
100
AcDbBlockBegin
2
*Model_Space
70
0
10
0.0
20
0.0
30
0.0
3
*Model_Space
1

0
ENDBLK
5
51
330
24
100
AcDbEntity
8
0
100
AcDbBlockEnd
0
BLOCK
5
52
330
25
100
AcDbEntity
67
1
8
0
100
AcDbBlockBegin
2
*Paper_Space
70
0
10
0.0
20
0.0
30
0.0
3
*Paper_Space
1

0
ENDBLK
5
53
330
25
100
AcDbEntity
67
1
8
0
100
AcDbBlockEnd
0
BLOCK
5
3001
330
26
100
AcDbEntity
8
0
100
AcDbBlockBegin
2
*D1
70
1
10
0.0
20
0.0
30
0.0
3
*D1
1

0
LINE
5
3201
330
26
100
AcDbEntity
8
DIM
100
AcDbLine
10
0.0
20
-80.0
11
0.0
21
-1700.0
0
LINE
5
3301
330
26
100
AcDbEntity
8
DIM
100
AcDbLine
10
910.0
20
-80.0
11
910.0
21
-1700.0
0
LINE
5
3401
330
26
100
AcDbEntity
8
DIM
100
AcDbLine
10
0.0
20
-1600.0
11
910.0
21
-1600.0
0
TEXT
5
3501
330
26
100
AcDbEntity
8
DIM
100
AcDbText
10
455.0
20
-1550.0
40
200.0
1
910
72
1
11
455.0
21
-1550.0
100
AcDbText
0
ENDBLK
5
3101
330
26
100
AcDbEntity
8
0
100
AcDbBlockEnd
0
BLOCK
5
3002
330
27
100
AcDbEntity
8
0
100
AcDbBlockBegin
2
*D2
70
1
10
0.0
20
0.0
30
0.0
3
*D2
1

0
LINE
5
3202
330
27
100
AcDbEntity
8
DIM
100
AcDbLine
10
910.0
20
-80.0
11
910.0
21
-1700.0
0
LINE
5
3302
330
27
100
AcDbEntity
8
DIM
100
AcDbLine
10
1820.0
20
-80.0
11
1820.0
21
-1700.0
0
LINE
5
3402
330
27
100
AcDbEntity
8
DIM
100
AcDbLine
10
910.0
20
-1600.0
11
1820.0
21
-1600.0
0
TEXT
5
3502
330
27
100
AcDbEntity
8
DIM
100
AcDbText
10
1365.0
20
-1550.0
40
200.0
1
910
72
1
11
1365.0
21
-1550.0
100
AcDbText
0
ENDBLK
5
3102
330
27
100
AcDbEntity
8
0
100
AcDbBlockEnd
0
BLOCK
5
3003
330
28
100
AcDbEntity
8
0
100
AcDbBlockBegin
2
*D3
70
1
10
0.0
20
0.0
30
0.0
3
*D3
1

0
LINE
5
3203
330
28
100
AcDbEntity
8
DIM
100
AcDbLine
10
1820.0
20
-80.0
11
1820.0
21
-1700.0
0
LINE
5
3303
330
28
100
AcDbEntity
8
DIM
100
AcDbLine
10
2730.0
20
-80.0
11
2730.0
21
-1700.0
0
LINE
5
3403
330
28
100
AcDbEntity
8
DIM
100
AcDbLine
10
1820.0
20
-1600.0
11
2730.0
21
-1600.0
0
TEXT
5
3503
330
28
100
AcDbEntity
8
DIM
100
AcDbText
10
2275.0
20
-1550.0
40
200.0
1
910
72
1
11
2275.0
21
-1550.0
100
AcDbText
0
ENDBLK
5
3103
330
28
100
AcDbEntity
8
0
100
AcDbBlockEnd
0
BLOCK
5
3004
330
29
100
AcDbEntity
8
0
100
AcDbBlockBegin
2
*D4
70
1
10
0.0
20
0.0
30
0.0
3
*D4
1

0
LINE
5
3204
330
29
100
AcDbEntity
8
DIM
100
AcDbLine
10
2730.0
20
-80.0
11
2730.0
21
-1700.0
0
LINE
5
3304
330
29
100
AcDbEntity
8
DIM
100
AcDbLine
10
3640.0
20
-80.0
11
3640.0
21
-1700.0
0
LINE
5
3404
330
29
100
AcDbEntity
8
DIM
100
AcDbLine
10
2730.0
20
-1600.0
11
3640.0
21
-1600.0
0
TEXT
5
3504
330
29
100
AcDbEntity
8
DIM
100
AcDbText
10
3185.0
20
-1550.0
40
200.0
1
910
72
1
11
3185.0
21
-1550.0
100
AcDbText
0
ENDBLK
5
3104
330
29
100
AcDbEntity
8
0
100
AcDbBlockEnd
0
BLOCK
5
3005
330
2A
100
AcDbEntity
8
0
100
AcDbBlockBegin
2
*D5
70
1
10
0.0
20
0.0
30
0.0
3
*D5
1

0
LINE
5
3205
330
2A
100
AcDbEntity
8
DIM
100
AcDbLine
10
3640.0
20
-80.0
11
3640.0
21
-1700.0
0
LINE
5
3305
330
2A
100
AcDbEntity
8
DIM
100
AcDbLine
10
4550.0
20
-80.0
11
4550.0
21
-1700.0
0
LINE
5
3405
330
2A
100
AcDbEntity
8
DIM
100
AcDbLine
10
3640.0
20
-1600.0
11
4550.0
21
-1600.0
0
TEXT
5
3505
330
2A
100
AcDbEntity
8
DIM
100
AcDbText
10
4095.0
20
-1550.0
40
200.0
1
910
72
1
11
4095.0
21
-1550.0
100
AcDbText
0
ENDBLK
5
3105
330
2A
100
AcDbEntity
8
0
100
AcDbBlockEnd
0
BLOCK
5
3006
330
2B
100
AcDbEntity
8
0
100
AcDbBlockBegin
2
*D6
70
1
10
0.0
20
0.0
30
0.0
3
*D6
1

0
LINE
5
3206
330
2B
100
AcDbEntity
8
DIM
100
AcDbLine
10
4550.0
20
-80.0
11
4550.0
21
-1700.0
0
LINE
5
3306
330
2B
100
AcDbEntity
8
DIM
100
AcDbLine
10
5460.0
20
-80.0
11
5460.0
21
-1700.0
0
LINE
5
3406
330
2B
100
AcDbEntity
8
DIM
100
AcDbLine
10
4550.0
20
-1600.0
11
5460.0
21
-1600.0
0
TEXT
5
3506
330
2B
100
AcDbEntity
8
DIM
100
AcDbText
10
5005.0
20
-1550.0
40
200.0
1
910
72
1
11
5005.0
21
-1550.0
100
AcDbText
0
ENDBLK
5
3106
330
2B
100
AcDbEntity
8
0
100
AcDbBlockEnd
0
BLOCK
5
3007
330
2C
100
AcDbEntity
8
0
100
AcDbBlockBegin
2
*D7
70
1
10
0.0
20
0.0
30
0.0
3
*D7
1

0
LINE
5
3207
330
2C
100
AcDbEntity
8
DIM
100
AcDbLine
10
5460.0
20
-80.0
11
5460.0
21
-1700.0
0
LINE
5
3307
330
2C
100
AcDbEntity
8
DIM
100
AcDbLine
10
6370.0
20
-80.0
11
6370.0
21
-1700.0
0
LINE
5
3407
330
2C
100
AcDbEntity
8
DIM
100
AcDbLine
10
5460.0
20
-1600.0
11
6370.0
21
-1600.0
0
TEXT
5
3507
330
2C
100
AcDbEntity
8
DIM
100
AcDbText
10
5915.0
20
-1550.0
40
200.0
1
910
72
1
11
5915.0
21
-1550.0
100
AcDbText
0
ENDBLK
5
3107
330
2C
100
AcDbEntity
8
0
100
AcDbBlockEnd
0
BLOCK
5
3008
330
2D
100
AcDbEntity
8
0
100
AcDbBlockBegin
2
*D8
70
1
10
0.0
20
0.0
30
0.0
3
*D8
1

0
LINE
5
3208
330
2D
100
AcDbEntity
8
DIM
100
AcDbLine
10
6370.0
20
-80.0
11
6370.0
21
-1700.0
0
LINE
5
3308
330
2D
100
AcDbEntity
8
DIM
100
AcDbLine
10
7280.0
20
-80.0
11
7280.0
21
-1700.0
0
LINE
5
3408
330
2D
100
AcDbEntity
8
DIM
100
AcDbLine
10
6370.0
20
-1600.0
11
7280.0
21
-1600.0
0
TEXT
5
3508
330
2D
100
AcDbEntity
8
DIM
100
AcDbText
10
6825.0
20
-1550.0
40
200.0
1
910
72
1
11
6825.0
21
-1550.0
100
AcDbText
0
ENDBLK
5
3108
330
2D
100
AcDbEntity
8
0
100
AcDbBlockEnd
0
BLOCK
5
3009
330
2E
100
AcDbEntity
8
0
100
AcDbBlockBegin
2
*D9
70
1
10
0.0
20
0.0
30
0.0
3
*D9
1

0
LINE
5
3209
330
2E
100
AcDbEntity
8
DIM
100
AcDbLine
10
7280.0
20
-80.0
11
7280.0
21
-1700.0
0
LINE
5
3309
330
2E
100
AcDbEntity
8
DIM
100
AcDbLine
10
8190.0
20
-80.0
11
8190.0
21
-1700.0
0
LINE
5
3409
330
2E
100
AcDbEntity
8
DIM
100
AcDbLine
10
7280.0
20
-1600.0
11
8190.0
21
-1600.0
0
TEXT
5
3509
330
2E
100
AcDbEntity
8
DIM
100
AcDbText
10
7735.0
20
-1550.0
40
200.0
1
910
72
1
11
7735.0
21
-1550.0
100
AcDbText
0
ENDBLK
5
3109
330
2E
100
AcDbEntity
8
0
100
AcDbBlockEnd
0
BLOCK
5
300A
330
2F
100
AcDbEntity
8
0
100
AcDbBlockBegin
2
*D10
70
1
10
0.0
20
0.0
30
0.0
3
*D10
1

0
LINE
5
320A
330
2F
100
AcDbEntity
8
DIM
100
AcDbLine
10
8190.0
20
-80.0
11
8190.0
21
-1700.0
0
LINE
5
330A
330
2F
100
AcDbEntity
8
DIM
100
AcDbLine
10
9100.0
20
-80.0
11
9100.0
21
-1700.0
0
LINE
5
340A
330
2F
100
AcDbEntity
8
DIM
100
AcDbLine
10
8190.0
20
-1600.0
11
9100.0
21
-1600.0
0
TEXT
5
350A
330
2F
100
AcDbEntity
8
DIM
100
AcDbText
10
8645.0
20
-1550.0
40
200.0
1
910
72
1
11
8645.0
21
-1550.0
100
AcDbText
0
ENDBLK
5
310A
330
2F
100
AcDbEntity
8
0
100
AcDbBlockEnd
0
BLOCK
5
300B
330
30
100
AcDbEntity
8
0
100
AcDbBlockBegin
2
*D11
70
1
10
0.0
20
0.0
30
0.0
3
*D11
1

0
LINE
5
320B
330
30
100
AcDbEntity
8
DIM
100
AcDbLine
10
0.0
20
-1750.0
11
0.0
21
-2700.0
0
LINE
5
330B
330
30
100
AcDbEntity
8
DIM
100
AcDbLine
10
9100.0
20
-1750.0
11
9100.0
21
-2700.0
0
LINE
5
340B
330
30
100
AcDbEntity
8
DIM
100
AcDbLine
10
0.0
20
-2600.0
11
9100.0
21
-2600.0
0
TEXT
5
350B
330
30
100
AcDbEntity
8
DIM
100
AcDbText
10
4550.0
20
-2550.0
40
200.0
1
9100
72
1
11
4550.0
21
-2550.0
100
AcDbText
0
ENDBLK
5
310B
330
30
100
AcDbEntity
8
0
100
AcDbBlockEnd
0
BLOCK
5
300C
330
31
100
AcDbEntity
8
0
100
AcDbBlockBegin
2
*D12
70
1
10
0.0
20
0.0
30
0.0
3
*D12
1

0
LINE
5
320C
330
31
100
AcDbEntity
8
DIM
100
AcDbLine
10
-80.0
20
0.0
11
-700.0
21
0.0
0
LINE
5
330C
330
31
100
AcDbEntity
8
DIM
100
AcDbLine
10
-80.0
20
910.0
11
-700.0
21
910.0
0
LINE
5
340C
330
31
100
AcDbEntity
8
DIM
100
AcDbLine
10
-600.0
20
0.0
11
-600.0
21
910.0
0
TEXT
5
350C
330
31
100
AcDbEntity
8
DIM
100
AcDbText
10
-650.0
20
455.0
40
200.0
1
910
50
90.0
72
1
11
-650.0
21
455.0
100
AcDbText
0
ENDBLK
5
310C
330
31
100
AcDbEntity
8
0
100
AcDbBlockEnd
0
BLOCK
5
300D
330
32
100
AcDbEntity
8
0
100
AcDbBlockBegin
2
*D13
70
1
10
0.0
20
0.0
30
0.0
3
*D13
1

0
LINE
5
320D
330
32
100
AcDbEntity
8
DIM
100
AcDbLine
10
-80.0
20
910.0
11
-700.0
21
910.0
0
LINE
5
330D
330
32
100
AcDbEntity
8
DIM
100
AcDbLine
10
-80.0
20
1820.0
11
-700.0
21
1820.0
0
LINE
5
340D
330
32
100
AcDbEntity
8
DIM
100
AcDbLine
10
-600.0
20
910.0
11
-600.0
21
1820.0
0
TEXT
5
350D
330
32
100
AcDbEntity
8
DIM
100
AcDbText
10
-650.0
20
1365.0
40
200.0
1
910
50
90.0
72
1
11
-650.0
21
1365.0
100
AcDbText
0
ENDBLK
5
310D
330
32
100
AcDbEntity
8
0
100
AcDbBlockEnd
0
BLOCK
5
300E
330
33
100
AcDbEntity
8
0
100
AcDbBlockBegin
2
*D14
70
1
10
0.0
20
0.0
30
0.0
3
*D14
1

0
LINE
5
320E
330
33
100
AcDbEntity
8
DIM
100
AcDbLine
10
-80.0
20
1820.0
11
-700.0
21
1820.0
0
LINE
5
330E
330
33
100
AcDbEntity
8
DIM
100
AcDbLine
10
-80.0
20
2730.0
11
-700.0
21
2730.0
0
LINE
5
340E
330
33
100
AcDbEntity
8
DIM
100
AcDbLine
10
-600.0
20
1820.0
11
-600.0
21
2730.0
0
TEXT
5
350E
330
33
100
AcDbEntity
8
DIM
100
AcDbText
10
-650.0
20
2275.0
40
200.0
1
910
50
90.0
72
1
11
-650.0
21
2275.0
100
AcDbText
0
ENDBLK
5
310E
330
33
100
AcDbEntity
8
0
100
AcDbBlockEnd
0
BLOCK
5
300F
330
34
100
AcDbEntity
8
0
100
AcDbBlockBegin
2
*D15
70
1
10
0.0
20
0.0
30
0.0
3
*D15
1

0
LINE
5
320F
330
34
100
AcDbEntity
8
DIM
100
AcDbLine
10
-80.0
20
2730.0
11
-700.0
21
2730.0
0
LINE
5
330F
330
34
100
AcDbEntity
8
DIM
100
AcDbLine
10
-80.0
20
3640.0
11
-700.0
21
3640.0
0
LINE
5
340F
330
34
100
AcDbEntity
8
DIM
100
AcDbLine
10
-600.0
20
2730.0
11
-600.0
21
3640.0
0
TEXT
5
350F
330
34
100
AcDbEntity
8
DIM
100
AcDbText
10
-650.0
20
3185.0
40
200.0
1
910
50
90.0
72
1
11
-650.0
21
3185.0
100
AcDbText
0
ENDBLK
5
310F
330
34
100
AcDbEntity
8
0
100
AcDbBlockEnd
0
BLOCK
5
3010
330
35
100
AcDbEntity
8
0
100
AcDbBlockBegin
2
*D16
70
1
10
0.0
20
0.0
30
0.0
3
*D16
1

0
LINE
5
3210
330
35
100
AcDbEntity
8
DIM
100
AcDbLine
10
-80.0
20
3640.0
11
-700.0
21
3640.0
0
LINE
5
3310
330
35
100
AcDbEntity
8
DIM
100
AcDbLine
10
-80.0
20
4550.0
11
-700.0
21
4550.0
0
LINE
5
3410
330
35
100
AcDbEntity
8
DIM
100
AcDbLine
10
-600.0
20
3640.0
11
-600.0
21
4550.0
0
TEXT
5
3510
330
35
100
AcDbEntity
8
DIM
100
AcDbText
10
-650.0
20
4095.0
40
200.0
1
910
50
90.0
72
1
11
-650.0
21
4095.0
100
AcDbText
0
ENDBLK
5
3110
330
35
100
AcDbEntity
8
0
100
AcDbBlockEnd
0
BLOCK
5
3011
330
36
100
AcDbEntity
8
0
100
AcDbBlockBegin
2
*D17
70
1
10
0.0
20
0.0
30
0.0
3
*D17
1

0
LINE
5
3211
330
36
100
AcDbEntity
8
DIM
100
AcDbLine
10
-80.0
20
4550.0
11
-700.0
21
4550.0
0
LINE
5
3311
330
36
100
AcDbEntity
8
DIM
100
AcDbLine
10
-80.0
20
5460.0
11
-700.0
21
5460.0
0
LINE
5
3411
330
36
100
AcDbEntity
8
DIM
100
AcDbLine
10
-600.0
20
4550.0
11
-600.0
21
5460.0
0
TEXT
5
3511
330
36
100
AcDbEntity
8
DIM
100
AcDbText
10
-650.0
20
5005.0
40
200.0
1
910
50
90.0
72
1
11
-650.0
21
5005.0
100
AcDbText
0
ENDBLK
5
3111
330
36
100
AcDbEntity
8
0
100
AcDbBlockEnd
0
BLOCK
5
3012
330
37
100
AcDbEntity
8
0
100
AcDbBlockBegin
2
*D18
70
1
10
0.0
20
0.0
30
0.0
3
*D18
1

0
LINE
5
3212
330
37
100
AcDbEntity
8
DIM
100
AcDbLine
10
-80.0
20
5460.0
11
-700.0
21
5460.0
0
LINE
5
3312
330
37
100
AcDbEntity
8
DIM
100
AcDbLine
10
-80.0
20
6370.0
11
-700.0
21
6370.0
0
LINE
5
3412
330
37
100
AcDbEntity
8
DIM
100
AcDbLine
10
-600.0
20
5460.0
11
-600.0
21
6370.0
0
TEXT
5
3512
330
37
100
AcDbEntity
8
DIM
100
AcDbText
10
-650.0
20
5915.0
40
200.0
1
910
50
90.0
72
1
11
-650.0
21
5915.0
100
AcDbText
0
ENDBLK
5
3112
330
37
100
AcDbEntity
8
0
100
AcDbBlockEnd
0
BLOCK
5
3013
330
38
100
AcDbEntity
8
0
100
AcDbBlockBegin
2
*D19
70
1
10
0.0
20
0.0
30
0.0
3
*D19
1

0
LINE
5
3213
330
38
100
AcDbEntity
8
DIM
100
AcDbLine
10
-80.0
20
6370.0
11
-700.0
21
6370.0
0
LINE
5
3313
330
38
100
AcDbEntity
8
DIM
100
AcDbLine
10
-80.0
20
7280.0
11
-700.0
21
7280.0
0
LINE
5
3413
330
38
100
AcDbEntity
8
DIM
100
AcDbLine
10
-600.0
20
6370.0
11
-600.0
21
7280.0
0
TEXT
5
3513
330
38
100
AcDbEntity
8
DIM
100
AcDbText
10
-650.0
20
6825.0
40
200.0
1
910
50
90.0
72
1
11
-650.0
21
6825.0
100
AcDbText
0
ENDBLK
5
3113
330
38
100
AcDbEntity
8
0
100
AcDbBlockEnd
0
BLOCK
5
3014
330
39
100
AcDbEntity
8
0
100
AcDbBlockBegin
2
*D20
70
1
10
0.0
20
0.0
30
0.0
3
*D20
1

0
LINE
5
3214
330
39
100
AcDbEntity
8
DIM
100
AcDbLine
10
-80.0
20
7280.0
11
-700.0
21
7280.0
0
LINE
5
3314
330
39
100
AcDbEntity
8
DIM
100
AcDbLine
10
-80.0
20
8190.0
11
-700.0
21
8190.0
0
LINE
5
3414
330
39
100
AcDbEntity
8
DIM
100
AcDbLine
10
-600.0
20
7280.0
11
-600.0
21
8190.0
0
TEXT
5
3514
330
39
100
AcDbEntity
8
DIM
100
AcDbText
10
-650.0
20
7735.0
40
200.0
1
910
50
90.0
72
1
11
-650.0
21
7735.0
100
AcDbText
0
ENDBLK
5
3114
330
39
100
AcDbEntity
8
0
100
AcDbBlockEnd
0
BLOCK
5
3015
330
3A
100
AcDbEntity
8
0
100
AcDbBlockBegin
2
*D21
70
1
10
0.0
20
0.0
30
0.0
3
*D21
1

0
LINE
5
3215
330
3A
100
AcDbEntity
8
DIM
100
AcDbLine
10
-750.0
20
0.0
11
-1700.0
21
0.0
0
LINE
5
3315
330
3A
100
AcDbEntity
8
DIM
100
AcDbLine
10
-750.0
20
8190.0
11
-1700.0
21
8190.0
0
LINE
5
3415
330
3A
100
AcDbEntity
8
DIM
100
AcDbLine
10
-1600.0
20
0.0
11
-1600.0
21
8190.0
0
TEXT
5
3515
330
3A
100
AcDbEntity
8
DIM
100
AcDbText
10
-1650.0
20
4095.0
40
200.0
1
8190
50
90.0
72
1
11
-1650.0
21
4095.0
100
AcDbText
0
ENDBLK
5
3115
330
3A
100
AcDbEntity
8
0
100
AcDbBlockEnd
0
BLOCK
5
3016
330
3B
100
AcDbEntity
8
0
100
AcDbBlockBegin
2
*D22
70
1
10
0.0
20
0.0
30
0.0
3
*D22
1

0
LINE
5
3216
330
3B
100
AcDbEntity
8
DIM
100
AcDbLine
10
9180.0
20
0.0
11
9780.0
21
0.0
0
LINE
5
3316
330
3B
100
AcDbEntity
8
DIM
100
AcDbLine
10
9180.0
20
910.0
11
9780.0
21
910.0
0
LINE
5
3416
330
3B
100
AcDbEntity
8
DIM
100
AcDbLine
10
9700.0
20
0.0
11
9700.0
21
910.0
0
TEXT
5
3516
330
3B
100
AcDbEntity
8
DIM
100
AcDbText
10
9900.0
20
455.0
40
200.0
1
910
50
90.0
72
1
11
9900.0
21
455.0
100
AcDbText
0
ENDBLK
5
3116
330
3B
100
AcDbEntity
8
0
100
AcDbBlockEnd
0
BLOCK
5
3017
330
3C
100
AcDbEntity
8
0
100
AcDbBlockBegin
2
*D23
70
1
10
0.0
20
0.0
30
0.0
3
*D23
1

0
LINE
5
3217
330
3C
100
AcDbEntity
8
DIM
100
AcDbLine
10
9180.0
20
910.0
11
9780.0
21
910.0
0
LINE
5
3317
330
3C
100
AcDbEntity
8
DIM
100
AcDbLine
10
9180.0
20
1820.0
11
9780.0
21
1820.0
0
LINE
5
3417
330
3C
100
AcDbEntity
8
DIM
100
AcDbLine
10
9700.0
20
910.0
11
9700.0
21
1820.0
0
TEXT
5
3517
330
3C
100
AcDbEntity
8
DIM
100
AcDbText
10
9900.0
20
1365.0
40
200.0
1
910
50
90.0
72
1
11
9900.0
21
1365.0
100
AcDbText
0
ENDBLK
5
3117
330
3C
100
AcDbEntity
8
0
100
AcDbBlockEnd
0
BLOCK
5
3018
330
3D
100
AcDbEntity
8
0
100
AcDbBlockBegin
2
*D24
70
1
10
0.0
20
0.0
30
0.0
3
*D24
1

0
LINE
5
3218
330
3D
100
AcDbEntity
8
DIM
100
AcDbLine
10
9180.0
20
1820.0
11
9780.0
21
1820.0
0
LINE
5
3318
330
3D
100
AcDbEntity
8
DIM
100
AcDbLine
10
9180.0
20
2730.0
11
9780.0
21
2730.0
0
LINE
5
3418
330
3D
100
AcDbEntity
8
DIM
100
AcDbLine
10
9700.0
20
1820.0
11
9700.0
21
2730.0
0
TEXT
5
3518
330
3D
100
AcDbEntity
8
DIM
100
AcDbText
10
9900.0
20
2275.0
40
200.0
1
910
50
90.0
72
1
11
9900.0
21
2275.0
100
AcDbText
0
ENDBLK
5
3118
330
3D
100
AcDbEntity
8
0
100
AcDbBlockEnd
0
BLOCK
5
3019
330
3E
100
AcDbEntity
8
0
100
AcDbBlockBegin
2
*D25
70
1
10
0.0
20
0.0
30
0.0
3
*D25
1

0
LINE
5
3219
330
3E
100
AcDbEntity
8
DIM
100
AcDbLine
10
9180.0
20
2730.0
11
9780.0
21
2730.0
0
LINE
5
3319
330
3E
100
AcDbEntity
8
DIM
100
AcDbLine
10
9180.0
20
3640.0
11
9780.0
21
3640.0
0
LINE
5
3419
330
3E
100
AcDbEntity
8
DIM
100
AcDbLine
10
9700.0
20
2730.0
11
9700.0
21
3640.0
0
TEXT
5
3519
330
3E
100
AcDbEntity
8
DIM
100
AcDbText
10
9900.0
20
3185.0
40
200.0
1
910
50
90.0
72
1
11
9900.0
21
3185.0
100
AcDbText
0
ENDBLK
5
3119
330
3E
100
AcDbEntity
8
0
100
AcDbBlockEnd
0
BLOCK
5
301A
330
3F
100
AcDbEntity
8
0
100
AcDbBlockBegin
2
*D26
70
1
10
0.0
20
0.0
30
0.0
3
*D26
1

0
LINE
5
321A
330
3F
100
AcDbEntity
8
DIM
100
AcDbLine
10
9180.0
20
3640.0
11
9780.0
21
3640.0
0
LINE
5
331A
330
3F
100
AcDbEntity
8
DIM
100
AcDbLine
10
9180.0
20
4550.0
11
9780.0
21
4550.0
0
LINE
5
341A
330
3F
100
AcDbEntity
8
DIM
100
AcDbLine
10
9700.0
20
3640.0
11
9700.0
21
4550.0
0
TEXT
5
351A
330
3F
100
AcDbEntity
8
DIM
100
AcDbText
10
9900.0
20
4095.0
40
200.0
1
910
50
90.0
72
1
11
9900.0
21
4095.0
100
AcDbText
0
ENDBLK
5
311A
330
3F
100
AcDbEntity
8
0
100
AcDbBlockEnd
0
BLOCK
5
301B
330
40
100
AcDbEntity
8
0
100
AcDbBlockBegin
2
*D27
70
1
10
0.0
20
0.0
30
0.0
3
*D27
1

0
LINE
5
321B
330
40
100
AcDbEntity
8
DIM
100
AcDbLine
10
9180.0
20
4550.0
11
9780.0
21
4550.0
0
LINE
5
331B
330
40
100
AcDbEntity
8
DIM
100
AcDbLine
10
9180.0
20
5460.0
11
9780.0
21
5460.0
0
LINE
5
341B
330
40
100
AcDbEntity
8
DIM
100
AcDbLine
10
9700.0
20
4550.0
11
9700.0
21
5460.0
0
TEXT
5
351B
330
40
100
AcDbEntity
8
DIM
100
AcDbText
10
9900.0
20
5005.0
40
200.0
1
910
50
90.0
72
1
11
9900.0
21
5005.0
100
AcDbText
0
ENDBLK
5
311B
330
40
100
AcDbEntity
8
0
100
AcDbBlockEnd
0
BLOCK
5
301C
330
41
100
AcDbEntity
8
0
100
AcDbBlockBegin
2
*D28
70
1
10
0.0
20
0.0
30
0.0
3
*D28
1

0
LINE
5
321C
330
41
100
AcDbEntity
8
DIM
100
AcDbLine
10
9180.0
20
5460.0
11
9780.0
21
5460.0
0
LINE
5
331C
330
41
100
AcDbEntity
8
DIM
100
AcDbLine
10
9180.0
20
6370.0
11
9780.0
21
6370.0
0
LINE
5
341C
330
41
100
AcDbEntity
8
DIM
100
AcDbLine
10
9700.0
20
5460.0
11
9700.0
21
6370.0
0
TEXT
5
351C
330
41
100
AcDbEntity
8
DIM
100
AcDbText
10
9900.0
20
5915.0
40
200.0
1
910
50
90.0
72
1
11
9900.0
21
5915.0
100
AcDbText
0
ENDBLK
5
311C
330
41
100
AcDbEntity
8
0
100
AcDbBlockEnd
0
BLOCK
5
301D
330
42
100
AcDbEntity
8
0
100
AcDbBlockBegin
2
*D29
70
1
10
0.0
20
0.0
30
0.0
3
*D29
1

0
LINE
5
321D
330
42
100
AcDbEntity
8
DIM
100
AcDbLine
10
9950.0
20
0.0
11
10780.0
21
0.0
0
LINE
5
331D
330
42
100
AcDbEntity
8
DIM
100
AcDbLine
10
9950.0
20
6370.0
11
10780.0
21
6370.0
0
LINE
5
341D
330
42
100
AcDbEntity
8
DIM
100
AcDbLine
10
10700.0
20
0.0
11
10700.0
21
6370.0
0
TEXT
5
351D
330
42
100
AcDbEntity
8
DIM
100
AcDbText
10
10900.0
20
3185.0
40
200.0
1
6370
50
90.0
72
1
11
10900.0
21
3185.0
100
AcDbText
0
ENDBLK
5
311D
330
42
100
AcDbEntity
8
0
100
AcDbBlockEnd
0
BLOCK
5
301E
330
43
100
AcDbEntity
8
0
100
AcDbBlockBegin
2
*D30
70
1
10
0.0
20
0.0
30
0.0
3
*D30
1

0
LINE
5
321E
330
43
100
AcDbEntity
8
DIM
100
AcDbLine
10
0.0
20
-80.0
11
0.0
21
-700.0
0
LINE
5
331E
330
43
100
AcDbEntity
8
DIM
100
AcDbLine
10
455.0
20
-80.0
11
455.0
21
-700.0
0
LINE
5
341E
330
43
100
AcDbEntity
8
DIM
100
AcDbLine
10
0.0
20
-600.0
11
455.0
21
-600.0
0
TEXT
5
351E
330
43
100
AcDbEntity
8
DIM
100
AcDbText
10
227.5
20
-550.0
40
200.0
1
455
72
1
11
227.5
21
-550.0
100
AcDbText
0
ENDBLK
5
311E
330
43
100
AcDbEntity
8
0
100
AcDbBlockEnd
0
BLOCK
5
301F
330
44
100
AcDbEntity
8
0
100
AcDbBlockBegin
2
*D31
70
1
10
0.0
20
0.0
30
0.0
3
*D31
1

0
LINE
5
321F
330
44
100
AcDbEntity
8
DIM
100
AcDbLine
10
455.0
20
-80.0
11
455.0
21
-700.0
0
LINE
5
331F
330
44
100
AcDbEntity
8
DIM
100
AcDbLine
10
1365.0
20
-80.0
11
1365.0
21
-700.0
0
LINE
5
341F
330
44
100
AcDbEntity
8
DIM
100
AcDbLine
10
455.0
20
-600.0
11
1365.0
21
-600.0
0
TEXT
5
351F
330
44
100
AcDbEntity
8
DIM
100
AcDbText
10
910.0
20
-550.0
40
200.0
1
910
72
1
11
910.0
21
-550.0
100
AcDbText
0
ENDBLK
5
311F
330
44
100
AcDbEntity
8
0
100
AcDbBlockEnd
0
BLOCK
5
3020
330
45
100
AcDbEntity
8
0
100
AcDbBlockBegin
2
*D32
70
1
10
0.0
20
0.0
30
0.0
3
*D32
1

0
LINE
5
3220
330
45
100
AcDbEntity
8
DIM
100
AcDbLine
10
1365.0
20
-80.0
11
1365.0
21
-700.0
0
LINE
5
3320
330
45
100
AcDbEntity
8
DIM
100
AcDbLine
10
5915.0
20
-80.0
11
5915.0
21
-700.0
0
LINE
5
3420
330
45
100
AcDbEntity
8
DIM
100
AcDbLine
10
1365.0
20
-600.0
11
5915.0
21
-600.0
0
TEXT
5
3520
330
45
100
AcDbEntity
8
DIM
100
AcDbText
10
3640.0
20
-550.0
40
200.0
1
4550
72
1
11
3640.0
21
-550.0
100
AcDbText
0
ENDBLK
5
3120
330
45
100
AcDbEntity
8
0
100
AcDbBlockEnd
0
BLOCK
5
3021
330
46
100
AcDbEntity
8
0
100
AcDbBlockBegin
2
*D33
70
1
10
0.0
20
0.0
30
0.0
3
*D33
1

0
LINE
5
3221
330
46
100
AcDbEntity
8
DIM
100
AcDbLine
10
5915.0
20
-80.0
11
5915.0
21
-700.0
0
LINE
5
3321
330
46
100
AcDbEntity
8
DIM
100
AcDbLine
10
8645.0
20
-80.0
11
8645.0
21
-700.0
0
LINE
5
3421
330
46
100
AcDbEntity
8
DIM
100
AcDbLine
10
5915.0
20
-600.0
11
8645.0
21
-600.0
0
TEXT
5
3521
330
46
100
AcDbEntity
8
DIM
100
AcDbText
10
7280.0
20
-550.0
40
200.0
1
2730
72
1
11
7280.0
21
-550.0
100
AcDbText
0
ENDBLK
5
3121
330
46
100
AcDbEntity
8
0
100
AcDbBlockEnd
0
BLOCK
5
3022
330
47
100
AcDbEntity
8
0
100
AcDbBlockBegin
2
*D34
70
1
10
0.0
20
0.0
30
0.0
3
*D34
1

0
LINE
5
3222
330
47
100
AcDbEntity
8
DIM
100
AcDbLine
10
8645.0
20
-80.0
11
8645.0
21
-700.0
0
LINE
5
3322
330
47
100
AcDbEntity
8
DIM
100
AcDbLine
10
9100.0
20
-80.0
11
9100.0
21
-700.0
0
LINE
5
3422
330
47
100
AcDbEntity
8
DIM
100
AcDbLine
10
8645.0
20
-600.0
11
9100.0
21
-600.0
0
TEXT
5
3522
330
47
100
AcDbEntity
8
DIM
100
AcDbText
10
8872.5
20
-550.0
40
200.0
1
455
72
1
11
8872.5
21
-550.0
100
AcDbText
0
ENDBLK
5
3122
330
47
100
AcDbEntity
8
0
100
AcDbBlockEnd
0
ENDSEC
0
SECTION
2
ENTITIES
0
LINE
5
1001
330
24
100
AcDbEntity
8
GRID
100
AcDbLine
10
0.0
20
-2900.0
11
0.0
21
8600.0
0
LINE
5
1002
330
24
100
AcDbEntity
8
GRID
100
AcDbLine
10
910.0
20
-2900.0
11
910.0
21
8600.0
0
LINE
5
1003
330
24
100
AcDbEntity
8
GRID
100
AcDbLine
10
1820.0
20
-2900.0
11
1820.0
21
8600.0
0
LINE
5
1004
330
24
100
AcDbEntity
8
GRID
100
AcDbLine
10
2730.0
20
-2900.0
11
2730.0
21
8600.0
0
LINE
5
1005
330
24
100
AcDbEntity
8
GRID
100
AcDbLine
10
3640.0
20
-2900.0
11
3640.0
21
8600.0
0
LINE
5
1006
330
24
100
AcDbEntity
8
GRID
100
AcDbLine
10
4550.0
20
-2900.0
11
4550.0
21
8600.0
0
LINE
5
1007
330
24
100
AcDbEntity
8
GRID
100
AcDbLine
10
5460.0
20
-2900.0
11
5460.0
21
8600.0
0
LINE
5
1008
330
24
100
AcDbEntity
8
GRID
100
AcDbLine
10
6370.0
20
-2900.0
11
6370.0
21
8600.0
0
LINE
5
1009
330
24
100
AcDbEntity
8
GRID
100
AcDbLine
10
7280.0
20
-2900.0
11
7280.0
21
8600.0
0
LINE
5
100A
330
24
100
AcDbEntity
8
GRID
100
AcDbLine
10
8190.0
20
-2900.0
11
8190.0
21
8600.0
0
LINE
5
100B
330
24
100
AcDbEntity
8
GRID
100
AcDbLine
10
9100.0
20
-2900.0
11
9100.0
21
8600.0
0
LINE
5
1010
330
24
100
AcDbEntity
8
GRID
100
AcDbLine
10
-2900.0
20
0.0
11
11000.0
21
0.0
0
LINE
5
1011
330
24
100
AcDbEntity
8
GRID
100
AcDbLine
10
-2900.0
20
910.0
11
11000.0
21
910.0
0
LINE
5
1012
330
24
100
AcDbEntity
8
GRID
100
AcDbLine
10
-2900.0
20
1820.0
11
11000.0
21
1820.0
0
LINE
5
1013
330
24
100
AcDbEntity
8
GRID
100
AcDbLine
10
-2900.0
20
2730.0
11
11000.0
21
2730.0
0
LINE
5
1014
330
24
100
AcDbEntity
8
GRID
100
AcDbLine
10
-2900.0
20
3640.0
11
11000.0
21
3640.0
0
LINE
5
1015
330
24
100
AcDbEntity
8
GRID
100
AcDbLine
10
-2900.0
20
4550.0
11
11000.0
21
4550.0
0
LINE
5
1016
330
24
100
AcDbEntity
8
GRID
100
AcDbLine
10
-2900.0
20
5460.0
11
11000.0
21
5460.0
0
LINE
5
1017
330
24
100
AcDbEntity
8
GRID
100
AcDbLine
10
-2900.0
20
6370.0
11
11000.0
21
6370.0
0
LINE
5
1018
330
24
100
AcDbEntity
8
GRID
100
AcDbLine
10
-2900.0
20
7280.0
11
11000.0
21
7280.0
0
LINE
5
1019
330
24
100
AcDbEntity
8
GRID
100
AcDbLine
10
-2900.0
20
8190.0
11
11000.0
21
8190.0
0
TEXT
5
1020
330
24
100
AcDbEntity
8
GRID
100
AcDbText
10
0.0
20
8700.0
40
250.0
1
X1
72
1
11
0.0
21
8700.0
100
AcDbText
0
TEXT
5
1021
330
24
100
AcDbEntity
8
GRID
100
AcDbText
10
910.0
20
8700.0
40
250.0
1
X2
72
1
11
910.0
21
8700.0
100
AcDbText
0
TEXT
5
1022
330
24
100
AcDbEntity
8
GRID
100
AcDbText
10
1820.0
20
8700.0
40
250.0
1
X3
72
1
11
1820.0
21
8700.0
100
AcDbText
0
TEXT
5
1023
330
24
100
AcDbEntity
8
GRID
100
AcDbText
10
2730.0
20
8700.0
40
250.0
1
X4
72
1
11
2730.0
21
8700.0
100
AcDbText
0
TEXT
5
1024
330
24
100
AcDbEntity
8
GRID
100
AcDbText
10
3640.0
20
8700.0
40
250.0
1
X5
72
1
11
3640.0
21
8700.0
100
AcDbText
0
TEXT
5
1025
330
24
100
AcDbEntity
8
GRID
100
AcDbText
10
4550.0
20
8700.0
40
250.0
1
X6
72
1
11
4550.0
21
8700.0
100
AcDbText
0
TEXT
5
1026
330
24
100
AcDbEntity
8
GRID
100
AcDbText
10
5460.0
20
8700.0
40
250.0
1
X7
72
1
11
5460.0
21
8700.0
100
AcDbText
0
TEXT
5
1027
330
24
100
AcDbEntity
8
GRID
100
AcDbText
10
6370.0
20
8700.0
40
250.0
1
X8
72
1
11
6370.0
21
8700.0
100
AcDbText
0
TEXT
5
1028
330
24
100
AcDbEntity
8
GRID
100
AcDbText
10
7280.0
20
8700.0
40
250.0
1
X9
72
1
11
7280.0
21
8700.0
100
AcDbText
0
TEXT
5
1029
330
24
100
AcDbEntity
8
GRID
100
AcDbText
10
8190.0
20
8700.0
40
250.0
1
X10
72
1
11
8190.0
21
8700.0
100
AcDbText
0
TEXT
5
102A
330
24
100
AcDbEntity
8
GRID
100
AcDbText
10
9100.0
20
8700.0
40
250.0
1
X11
72
1
11
9100.0
21
8700.0
100
AcDbText
0
TEXT
5
1030
330
24
100
AcDbEntity
8
GRID
100
AcDbText
10
-3100.0
20
-125.0
40
250.0
1
Y1
72
1
11
-3100.0
21
-125.0
100
AcDbText
0
TEXT
5
1031
330
24
100
AcDbEntity
8
GRID
100
AcDbText
10
-3100.0
20
785.0
40
250.0
1
Y2
72
1
11
-3100.0
21
785.0
100
AcDbText
0
TEXT
5
1032
330
24
100
AcDbEntity
8
GRID
100
AcDbText
10
-3100.0
20
1695.0
40
250.0
1
Y3
72
1
11
-3100.0
21
1695.0
100
AcDbText
0
TEXT
5
1033
330
24
100
AcDbEntity
8
GRID
100
AcDbText
10
-3100.0
20
2605.0
40
250.0
1
Y4
72
1
11
-3100.0
21
2605.0
100
AcDbText
0
TEXT
5
1034
330
24
100
AcDbEntity
8
GRID
100
AcDbText
10
-3100.0
20
3515.0
40
250.0
1
Y5
72
1
11
-3100.0
21
3515.0
100
AcDbText
0
TEXT
5
1035
330
24
100
AcDbEntity
8
GRID
100
AcDbText
10
-3100.0
20
4425.0
40
250.0
1
Y6
72
1
11
-3100.0
21
4425.0
100
AcDbText
0
TEXT
5
1036
330
24
100
AcDbEntity
8
GRID
100
AcDbText
10
-3100.0
20
5335.0
40
250.0
1
Y7
72
1
11
-3100.0
21
5335.0
100
AcDbText
0
TEXT
5
1037
330
24
100
AcDbEntity
8
GRID
100
AcDbText
10
-3100.0
20
6245.0
40
250.0
1
Y8
72
1
11
-3100.0
21
6245.0
100
AcDbText
0
TEXT
5
1038
330
24
100
AcDbEntity
8
GRID
100
AcDbText
10
-3100.0
20
7155.0
40
250.0
1
Y9
72
1
11
-3100.0
21
7155.0
100
AcDbText
0
TEXT
5
1039
330
24
100
AcDbEntity
8
GRID
100
AcDbText
10
-3100.0
20
8065.0
40
250.0
1
Y10
72
1
11
-3100.0
21
8065.0
100
AcDbText
0
LINE
5
1100
330
24
100
AcDbEntity
8
WALL
100
AcDbLine
10
-60.0
20
-60.0
11
455.0
21
-60.0
0
LINE
5
1101
330
24
100
AcDbEntity
8
WALL
100
AcDbLine
10
1365.0
20
-60.0
11
5915.0
21
-60.0
0
LINE
5
1102
330
24
100
AcDbEntity
8
WALL
100
AcDbLine
10
8645.0
20
-60.0
11
9160.0
21
-60.0
0
LINE
5
1103
330
24
100
AcDbEntity
8
WALL
100
AcDbLine
10
9160.0
20
-60.0
11
9160.0
21
1365.0
0
LINE
5
1104
330
24
100
AcDbEntity
8
WALL
100
AcDbLine
10
9160.0
20
3185.0
11
9160.0
21
6394.8528
0
LINE
5
1105
330
24
100
AcDbEntity
8
WALL
100
AcDbLine
10
9160.0
20
6394.8528
11
8875.8936
21
6678.9592
0
LINE
5
1106
330
24
100
AcDbEntity
8
WALL
100
AcDbLine
10
7588.9592
20
7965.8936
11
7304.8528
21
8250.0
0
LINE
5
1107
330
24
100
AcDbEntity
8
WALL
100
AcDbLine
10
-60.0
20
8250.0
11
2275.0
21
8250.0
0
LINE
5
1108
330
24
100
AcDbEntity
8
WALL
100
AcDbLine
10
5005.0
20
8250.0
11
7304.8528
21
8250.0
0
LINE
5
1109
330
24
100
AcDbEntity
8
WALL
100
AcDbLine
10
-60.0
20
-60.0
11
-60.0
21
8250.0
0
LINE
5
110A
330
24
100
AcDbEntity
8
WALL
100
AcDbLine
10
60.0
20
60.0
11
455.0
21
60.0
0
LINE
5
110B
330
24
100
AcDbEntity
8
WALL
100
AcDbLine
10
1365.0
20
60.0
11
1760.0
21
60.0
0
LINE
5
110C
330
24
100
AcDbEntity
8
WALL
100
AcDbLine
10
1880.0
20
60.0
11
3580.0
21
60.0
0
LINE
5
110D
330
24
100
AcDbEntity
8
WALL
100
AcDbLine
10
3700.0
20
60.0
11
5400.0
21
60.0
0
LINE
5
110E
330
24
100
AcDbEntity
8
WALL
100
AcDbLine
10
5520.0
20
60.0
11
5915.0
21
60.0
0
LINE
5
110F
330
24
100
AcDbEntity
8
WALL
100
AcDbLine
10
8645.0
20
60.0
11
9040.0
21
60.0
0
LINE
5
1110
330
24
100
AcDbEntity
8
WALL
100
AcDbLine
10
9040.0
20
60.0
11
9040.0
21
1365.0
0
LINE
5
1111
330
24
100
AcDbEntity
8
WALL
100
AcDbLine
10
9040.0
20
3185.0
11
9040.0
21
4490.0
0
LINE
5
1112
330
24
100
AcDbEntity
8
WALL
100
AcDbLine
10
9040.0
20
4610.0
11
9040.0
21
6345.1472
0
LINE
5
1113
330
24
100
AcDbEntity
8
WALL
100
AcDbLine
10
9040.0
20
6345.1472
11
8791.0408
21
6594.1064
0
LINE
5
1114
330
24
100
AcDbEntity
8
WALL
100
AcDbLine
10
7504.1064
20
7881.0408
11
7255.1472
21
8130.0
0
LINE
5
1115
330
24
100
AcDbEntity
8
WALL
100
AcDbLine
10
60.0
20
8130.0
11
2275.0
21
8130.0
0
LINE
5
1116
330
24
100
AcDbEntity
8
WALL
100
AcDbLine
10
5005.0
20
8130.0
11
7255.1472
21
8130.0
0
LINE
5
1117
330
24
100
AcDbEntity
8
WALL
100
AcDbLine
10
60.0
20
60.0
11
60.0
21
1760.0
0
LINE
5
1118
330
24
100
AcDbEntity
8
WALL
100
AcDbLine
10
60.0
20
1880.0
11
60.0
21
2215.0
0
LINE
5
1119
330
24
100
AcDbEntity
8
WALL
100
AcDbLine
10
60.0
20
2335.0
11
60.0
21
4490.0
0
LINE
5
111A
330
24
100
AcDbEntity
8
WALL
100
AcDbLine
10
60.0
20
4610.0
11
60.0
21
8130.0
0
LINE
5
111B
330
24
100
AcDbEntity
8
WALL
100
AcDbLine
10
455.0
20
-60.0
11
455.0
21
60.0
0
LINE
5
111C
330
24
100
AcDbEntity
8
WALL
100
AcDbLine
10
1365.0
20
-60.0
11
1365.0
21
60.0
0
LINE
5
111D
330
24
100
AcDbEntity
8
WALL
100
AcDbLine
10
5915.0
20
-60.0
11
5915.0
21
60.0
0
LINE
5
111E
330
24
100
AcDbEntity
8
WALL
100
AcDbLine
10
8645.0
20
-60.0
11
8645.0
21
60.0
0
LINE
5
111F
330
24
100
AcDbEntity
8
WALL
100
AcDbLine
10
9040.0
20
1365.0
11
9160.0
21
1365.0
0
LINE
5
1120
330
24
100
AcDbEntity
8
WALL
100
AcDbLine
10
9040.0
20
3185.0
11
9160.0
21
3185.0
0
LINE
5
1121
330
24
100
AcDbEntity
8
WALL
100
AcDbLine
10
8875.8936
20
6678.9592
11
8791.0408
21
6594.1064
0
LINE
5
1122
330
24
100
AcDbEntity
8
WALL
100
AcDbLine
10
7588.9592
20
7965.8936
11
7504.1064
21
7881.0408
0
LINE
5
1123
330
24
100
AcDbEntity
8
WALL
100
AcDbLine
10
2275.0
20
8130.0
11
2275.0
21
8250.0
0
LINE
5
1124
330
24
100
AcDbEntity
8
WALL
100
AcDbLine
10
5005.0
20
8130.0
11
5005.0
21
8250.0
0
LINE
5
1130
330
24
100
AcDbEntity
8
WALL
100
AcDbLine
10
1760.0
20
60.0
11
1760.0
21
455.0
0
LINE
5
1131
330
24
100
AcDbEntity
8
WALL
100
AcDbLine
10
1760.0
20
1365.0
11
1760.0
21
1760.0
0
LINE
5
1132
330
24
100
AcDbEntity
8
WALL
100
AcDbLine
10
1760.0
20
1880.0
11
1760.0
21
2215.0
0
LINE
5
1133
330
24
100
AcDbEntity
8
WALL
100
AcDbLine
10
1760.0
20
2335.0
11
1760.0
21
4490.0
0
LINE
5
1134
330
24
100
AcDbEntity
8
WALL
100
AcDbLine
10
1880.0
20
60.0
11
1880.0
21
455.0
0
LINE
5
1135
330
24
100
AcDbEntity
8
WALL
100
AcDbLine
10
1880.0
20
1365.0
11
1880.0
21
1760.0
0
LINE
5
1136
330
24
100
AcDbEntity
8
WALL
100
AcDbLine
10
1880.0
20
1880.0
11
1880.0
21
2670.0
0
LINE
5
1137
330
24
100
AcDbEntity
8
WALL
100
AcDbLine
10
1880.0
20
2790.0
11
1880.0
21
4490.0
0
LINE
5
1138
330
24
100
AcDbEntity
8
WALL
100
AcDbLine
10
1760.0
20
455.0
11
1880.0
21
455.0
0
LINE
5
1139
330
24
100
AcDbEntity
8
WALL
100
AcDbLine
10
1760.0
20
1365.0
11
1880.0
21
1365.0
0
LINE
5
113A
330
24
100
AcDbEntity
8
WALL
100
AcDbLine
10
3580.0
20
60.0
11
3580.0
21
1760.0
0
LINE
5
113B
330
24
100
AcDbEntity
8
WALL
100
AcDbLine
10
3580.0
20
1880.0
11
3580.0
21
2670.0
0
LINE
5
113C
330
24
100
AcDbEntity
8
WALL
100
AcDbLine
10
3580.0
20
2790.0
11
3580.0
21
4490.0
0
LINE
5
113D
330
24
100
AcDbEntity
8
WALL
100
AcDbLine
10
3700.0
20
60.0
11
3700.0
21
1760.0
0
LINE
5
113E
330
24
100
AcDbEntity
8
WALL
100
AcDbLine
10
3700.0
20
1880.0
11
3700.0
21
4490.0
0
LINE
5
113F
330
24
100
AcDbEntity
8
WALL
100
AcDbLine
10
5400.0
20
60.0
11
5400.0
21
1760.0
0
LINE
5
1140
330
24
100
AcDbEntity
8
WALL
100
AcDbLine
10
5400.0
20
1880.0
11
5400.0
21
4490.0
0
LINE
5
1141
330
24
100
AcDbEntity
8
WALL
100
AcDbLine
10
5520.0
20
60.0
11
5520.0
21
4490.0
0
LINE
5
1142
330
24
100
AcDbEntity
8
WALL
100
AcDbLine
10
60.0
20
1760.0
11
1760.0
21
1760.0
0
LINE
5
1143
330
24
100
AcDbEntity
8
WALL
100
AcDbLine
10
1880.0
20
1760.0
11
3580.0
21
1760.0
0
LINE
5
1144
330
24
100
AcDbEntity
8
WALL
100
AcDbLine
10
3700.0
20
1760.0
11
5400.0
21
1760.0
0
LINE
5
1145
330
24
100
AcDbEntity
8
WALL
100
AcDbLine
10
60.0
20
1880.0
11
1760.0
21
1880.0
0
LINE
5
1146
330
24
100
AcDbEntity
8
WALL
100
AcDbLine
10
1880.0
20
1880.0
11
3580.0
21
1880.0
0
LINE
5
1147
330
24
100
AcDbEntity
8
WALL
100
AcDbLine
10
3700.0
20
1880.0
11
5400.0
21
1880.0
0
LINE
5
1148
330
24
100
AcDbEntity
8
WALL
100
AcDbLine
10
60.0
20
2215.0
11
1760.0
21
2215.0
0
LINE
5
1149
330
24
100
AcDbEntity
8
WALL
100
AcDbLine
10
60.0
20
2335.0
11
1760.0
21
2335.0
0
LINE
5
114A
330
24
100
AcDbEntity
8
WALL
100
AcDbLine
10
1880.0
20
2670.0
11
3580.0
21
2670.0
0
LINE
5
114B
330
24
100
AcDbEntity
8
WALL
100
AcDbLine
10
1880.0
20
2790.0
11
3580.0
21
2790.0
0
LINE
5
114C
330
24
100
AcDbEntity
8
WALL
100
AcDbLine
10
60.0
20
4490.0
11
455.0
21
4490.0
0
LINE
5
114D
330
24
100
AcDbEntity
8
WALL
100
AcDbLine
10
1365.0
20
4490.0
11
1760.0
21
4490.0
0
LINE
5
114E
330
24
100
AcDbEntity
8
WALL
100
AcDbLine
10
1880.0
20
4490.0
11
3580.0
21
4490.0
0
LINE
5
114F
330
24
100
AcDbEntity
8
WALL
100
AcDbLine
10
3700.0
20
4490.0
11
5400.0
21
4490.0
0
LINE
5
1150
330
24
100
AcDbEntity
8
WALL
100
AcDbLine
10
5520.0
20
4490.0
11
6825.0
21
4490.0
0
LINE
5
1151
330
24
100
AcDbEntity
8
WALL
100
AcDbLine
10
7735.0
20
4490.0
11
9040.0
21
4490.0
0
LINE
5
1152
330
24
100
AcDbEntity
8
WALL
100
AcDbLine
10
60.0
20
4610.0
11
455.0
21
4610.0
0
LINE
5
1153
330
24
100
AcDbEntity
8
WALL
100
AcDbLine
10
1365.0
20
4610.0
11
6825.0
21
4610.0
0
LINE
5
1154
330
24
100
AcDbEntity
8
WALL
100
AcDbLine
10
7735.0
20
4610.0
11
9040.0
21
4610.0
0
LINE
5
1155
330
24
100
AcDbEntity
8
WALL
100
AcDbLine
10
455.0
20
4490.0
11
455.0
21
4610.0
0
LINE
5
1156
330
24
100
AcDbEntity
8
WALL
100
AcDbLine
10
1365.0
20
4490.0
11
1365.0
21
4610.0
0
LINE
5
1157
330
24
100
AcDbEntity
8
WALL
100
AcDbLine
10
6825.0
20
4490.0
11
6825.0
21
4610.0
0
LINE
5
1158
330
24
100
AcDbEntity
8
WALL
100
AcDbLine
10
7735.0
20
4490.0
11
7735.0
21
4610.0
0
LINE
5
1200
330
24
100
AcDbEntity
8
OPENING
100
AcDbLine
10
455.0
20
0.0
11
455.0
21
910.0
0
ARC
5
1201
330
24
100
AcDbEntity
8
OPENING
100
AcDbCircle
10
455.0
20
0.0
40
910.0
100
AcDbArc
50
0.0
51
90.0
0
LINE
5
1202
330
24
100
AcDbEntity
8
OPENING
100
AcDbLine
10
1820.0
20
455.0
11
2730.0
21
455.0
0
ARC
5
1203
330
24
100
AcDbEntity
8
OPENING
100
AcDbCircle
10
1820.0
20
455.0
40
910.0
100
AcDbArc
50
0.0
51
90.0
0
LINE
5
1204
330
24
100
AcDbEntity
8
OPENING
100
AcDbLine
10
455.0
20
4550.0
11
455.0
21
5460.0
0
ARC
5
1205
330
24
100
AcDbEntity
8
OPENING
100
AcDbCircle
10
455.0
20
4550.0
40
910.0
100
AcDbArc
50
0.0
51
90.0
0
LINE
5
1206
330
24
100
AcDbEntity
8
OPENING
100
AcDbLine
10
6825.0
20
4550.0
11
6825.0
21
5460.0
0
ARC
5
1207
330
24
100
AcDbEntity
8
OPENING
100
AcDbCircle
10
6825.0
20
4550.0
40
910.0
100
AcDbArc
50
0.0
51
90.0
0
LINE
5
1208
330
24
100
AcDbEntity
8
OPENING
100
AcDbLine
10
5915.0
20
-25.0
11
8645.0
21
-25.0
0
LINE
5
1209
330
24
100
AcDbEntity
8
OPENING
100
AcDbLine
10
5915.0
20
0.0
11
8645.0
21
0.0
0
LINE
5
120A
330
24
100
AcDbEntity
8
OPENING
100
AcDbLine
10
5915.0
20
25.0
11
8645.0
21
25.0
0
LINE
5
120B
330
24
100
AcDbEntity
8
OPENING
100
AcDbLine
10
9075.0
20
1365.0
11
9075.0
21
3185.0
0
LINE
5
120C
330
24
100
AcDbEntity
8
OPENING
100
AcDbLine
10
9100.0
20
1365.0
11
9100.0
21
3185.0
0
LINE
5
120D
330
24
100
AcDbEntity
8
OPENING
100
AcDbLine
10
9125.0
20
1365.0
11
9125.0
21
3185.0
0
LINE
5
120E
330
24
100
AcDbEntity
8
OPENING
100
AcDbLine
10
8851.1448
20
6654.2105
11
7564.2105
21
7941.1448
0
LINE
5
120F
330
24
100
AcDbEntity
8
OPENING
100
AcDbLine
10
8833.4672
20
6636.5328
11
7546.5328
21
7923.4672
0
LINE
5
1210
330
24
100
AcDbEntity
8
OPENING
100
AcDbLine
10
8815.7895
20
6618.8552
11
7528.8552
21
7905.7895
0
LINE
5
1211
330
24
100
AcDbEntity
8
OPENING
100
AcDbLine
10
2275.0
20
8165.0
11
5005.0
21
8165.0
0
LINE
5
1212
330
24
100
AcDbEntity
8
OPENING
100
AcDbLine
10
2275.0
20
8190.0
11
5005.0
21
8190.0
0
LINE
5
1213
330
24
100
AcDbEntity
8
OPENING
100
AcDbLine
10
2275.0
20
8215.0
11
5005.0
21
8215.0
0
TEXT
5
1214
330
24
100
AcDbEntity
8
OPENING
100
AcDbText
10
910.0
20
-330.0
40
180.0
1
D1
72
1
11
910.0
21
-330.0
100
AcDbText
0
TEXT
5
1215
330
24
100
AcDbEntity
8
OPENING
100
AcDbText
10
1500.0
20
910.0
40
180.0
1
D2
72
1
11
1500.0
21
910.0
100
AcDbText
0
TEXT
5
1216
330
24
100
AcDbEntity
8
OPENING
100
AcDbText
10
910.0
20
4250.0
40
180.0
1
D3
72
1
11
910.0
21
4250.0
100
AcDbText
0
TEXT
5
1217
330
24
100
AcDbEntity
8
OPENING
100
AcDbText
10
7280.0
20
4250.0
40
180.0
1
D4
72
1
11
7280.0
21
4250.0
100
AcDbText
0
TEXT
5
1218
330
24
100
AcDbEntity
8
OPENING
100
AcDbText
10
7280.0
20
-330.0
40
180.0
1
W1
72
1
11
7280.0
21
-330.0
100
AcDbText
0
TEXT
5
1219
330
24
100
AcDbEntity
8
OPENING
100
AcDbText
10
9400.0
20
2275.0
40
180.0
1
W2
72
1
11
9400.0
21
2275.0
100
AcDbText
0
TEXT
5
121A
330
24
100
AcDbEntity
8
OPENING
100
AcDbText
10
8367.0
20
7457.0
40
180.0
1
W3
72
1
11
8367.0
21
7457.0
100
AcDbText
0
TEXT
5
121B
330
24
100
AcDbEntity
8
OPENING
100
AcDbText
10
3640.0
20
8400.0
40
180.0
1
W4
72
1
11
3640.0
21
8400.0
100
AcDbText
0
LINE
5
1230
330
24
100
AcDbEntity
8
STAIR
100
AcDbLine
10
3700.0
20
240.0
11
4500.0
21
240.0
0
LINE
5
1231
330
24
100
AcDbEntity
8
STAIR
100
AcDbLine
10
3700.0
20
420.0
11
4500.0
21
420.0
0
LINE
5
1232
330
24
100
AcDbEntity
8
STAIR
100
AcDbLine
10
3700.0
20
600.0
11
4500.0
21
600.0
0
LINE
5
1233
330
24
100
AcDbEntity
8
STAIR
100
AcDbLine
10
3700.0
20
780.0
11
4500.0
21
780.0
0
LINE
5
1234
330
24
100
AcDbEntity
8
STAIR
100
AcDbLine
10
3700.0
20
960.0
11
4500.0
21
960.0
0
LINE
5
1235
330
24
100
AcDbEntity
8
STAIR
100
AcDbLine
10
3700.0
20
1140.0
11
4500.0
21
1140.0
0
LINE
5
1236
330
24
100
AcDbEntity
8
STAIR
100
AcDbLine
10
3700.0
20
1320.0
11
4500.0
21
1320.0
0
LINE
5
1237
330
24
100
AcDbEntity
8
STAIR
100
AcDbLine
10
4600.0
20
1140.0
11
5400.0
21
1140.0
0
LINE
5
1238
330
24
100
AcDbEntity
8
STAIR
100
AcDbLine
10
4600.0
20
960.0
11
5400.0
21
960.0
0
LINE
5
1239
330
24
100
AcDbEntity
8
STAIR
100
AcDbLine
10
4600.0
20
780.0
11
5400.0
21
780.0
0
LINE
5
123A
330
24
100
AcDbEntity
8
STAIR
100
AcDbLine
10
4600.0
20
600.0
11
5400.0
21
600.0
0
LINE
5
123B
330
24
100
AcDbEntity
8
STAIR
100
AcDbLine
10
4600.0
20
420.0
11
5400.0
21
420.0
0
LINE
5
123C
330
24
100
AcDbEntity
8
STAIR
100
AcDbLine
10
4600.0
20
240.0
11
5400.0
21
240.0
0
LINE
5
123D
330
24
100
AcDbEntity
8
STAIR
100
AcDbLine
10
4500.0
20
60.0
11
4500.0
21
1320.0
0
LINE
5
123E
330
24
100
AcDbEntity
8
STAIR
100
AcDbLine
10
4600.0
20
60.0
11
4600.0
21
1320.0
0
TEXT
5
123F
330
24
100
AcDbEntity
8
STAIR
100
AcDbText
10
5100.0
20
1480.0
40
150.0
1
UP
72
1
11
5100.0
21
1480.0
100
AcDbText
0
TEXT
5
1250
330
24
100
AcDbEntity
8
ROOM
100
AcDbText
10
910.0
20
1010.0
40
250.0
1
玄関
72
1
11
910.0
21
1010.0
100
AcDbText
0
TEXT
5
1251
330
24
100
AcDbEntity
8
ROOM
100
AcDbText
10
910.0
20
660.0
40
200.0
1
3.31 m²
72
1
11
910.0
21
660.0
100
AcDbText
0
TEXT
5
1252
330
24
100
AcDbEntity
8
ROOM
100
AcDbText
10
600.0
20
1990.0
40
150.0
1
収納
72
1
11
600.0
21
1990.0
100
AcDbText
0
TEXT
5
1253
330
24
100
AcDbEntity
8
ROOM
100
AcDbText
10
1300.0
20
1990.0
40
130.0
1
0.83 m²
72
1
11
1300.0
21
1990.0
100
AcDbText
0
TEXT
5
1254
330
24
100
AcDbEntity
8
ROOM
100
AcDbText
10
910.0
20
3500.0
40
250.0
1
洗面脱衣
72
1
11
910.0
21
3500.0
100
AcDbText
0
TEXT
5
1255
330
24
100
AcDbEntity
8
ROOM
100
AcDbText
10
910.0
20
3150.0
40
200.0
1
4.14 m²
72
1
11
910.0
21
3150.0
100
AcDbText
0
TEXT
5
1256
330
24
100
AcDbEntity
8
ROOM
100
AcDbText
10
2730.0
20
1010.0
40
250.0
1
ホール
72
1
11
2730.0
21
1010.0
100
AcDbText
0
TEXT
5
1257
330
24
100
AcDbEntity
8
ROOM
100
AcDbText
10
2730.0
20
660.0
40
200.0
1
3.31 m²
72
1
11
2730.0
21
660.0
100
AcDbText
0
TEXT
5
1258
330
24
100
AcDbEntity
8
ROOM
100
AcDbText
10
2730.0
20
2340.0
40
200.0
1
便所
72
1
11
2730.0
21
2340.0
100
AcDbText
0
TEXT
5
1259
330
24
100
AcDbEntity
8
ROOM
100
AcDbText
10
2730.0
20
2050.0
40
160.0
1
1.66 m²
72
1
11
2730.0
21
2050.0
100
AcDbText
0
TEXT
5
125A
330
24
100
AcDbEntity
8
ROOM
100
AcDbText
10
2730.0
20
3740.0
40
250.0
1
浴室
72
1
11
2730.0
21
3740.0
100
AcDbText
0
TEXT
5
125B
330
24
100
AcDbEntity
8
ROOM
100
AcDbText
10
2730.0
20
3390.0
40
200.0
1
3.31 m²
72
1
11
2730.0
21
3390.0
100
AcDbText
0
TEXT
5
125C
330
24
100
AcDbEntity
8
ROOM
100
AcDbText
10
4200.0
20
1560.0
40
150.0
1
階段
72
1
11
4200.0
21
1560.0
100
AcDbText
0
TEXT
5
125D
330
24
100
AcDbEntity
8
ROOM
100
AcDbText
10
4200.0
20
1370.0
40
130.0
1
3.31 m²
72
1
11
4200.0
21
1370.0
100
AcDbText
0
TEXT
5
125E
330
24
100
AcDbEntity
8
ROOM
100
AcDbText
10
4550.0
20
3285.0
40
250.0
1
納戸
72
1
11
4550.0
21
3285.0
100
AcDbText
0
TEXT
5
125F
330
24
100
AcDbEntity
8
ROOM
100
AcDbText
10
4550.0
20
2935.0
40
200.0
1
4.97 m²
72
1
11
4550.0
21
2935.0
100
AcDbText
0
TEXT
5
1260
330
24
100
AcDbEntity
8
ROOM
100
AcDbText
10
7280.0
20
2375.0
40
250.0
1
和室
72
1
11
7280.0
21
2375.0
100
AcDbText
0
TEXT
5
1261
330
24
100
AcDbEntity
8
ROOM
100
AcDbText
10
7280.0
20
2025.0
40
200.0
1
16.56 m²
72
1
11
7280.0
21
2025.0
100
AcDbText
0
TEXT
5
1262
330
24
100
AcDbEntity
8
ROOM
100
AcDbText
10
4000.0
20
6500.0
40
250.0
1
LDK
72
1
11
4000.0
21
6500.0
100
AcDbText
0
TEXT
5
1263
330
24
100
AcDbEntity
8
ROOM
100
AcDbText
10
4000.0
20
6150.0
40
200.0
1
31.47 m²
72
1
11
4000.0
21
6150.0
100
AcDbText
0
TEXT
5
1270
330
24
100
AcDbEntity
8
TEXT
100
AcDbText
10
-2900.0
20
-2000.0
40
250.0
1
1階床面積 合計 = 72.87 m²
72
0
11
-2900.0
21
-2000.0
100
AcDbText
0
DIMENSION
5
3601
330
24
100
AcDbEntity
8
DIM
100
AcDbDimension
2
*D1
10
910.0
20
-1600.0
11
455.0
21
-1550.0
70
32
71
5
3
Standard
100
AcDbAlignedDimension
13
0.0
23
0.0
14
910.0
24
0.0
50
0.0
100
AcDbRotatedDimension
0
DIMENSION
5
3602
330
24
100
AcDbEntity
8
DIM
100
AcDbDimension
2
*D2
10
1820.0
20
-1600.0
11
1365.0
21
-1550.0
70
32
71
5
3
Standard
100
AcDbAlignedDimension
13
910.0
23
0.0
14
1820.0
24
0.0
50
0.0
100
AcDbRotatedDimension
0
DIMENSION
5
3603
330
24
100
AcDbEntity
8
DIM
100
AcDbDimension
2
*D3
10
2730.0
20
-1600.0
11
2275.0
21
-1550.0
70
32
71
5
3
Standard
100
AcDbAlignedDimension
13
1820.0
23
0.0
14
2730.0
24
0.0
50
0.0
100
AcDbRotatedDimension
0
DIMENSION
5
3604
330
24
100
AcDbEntity
8
DIM
100
AcDbDimension
2
*D4
10
3640.0
20
-1600.0
11
3185.0
21
-1550.0
70
32
71
5
3
Standard
100
AcDbAlignedDimension
13
2730.0
23
0.0
14
3640.0
24
0.0
50
0.0
100
AcDbRotatedDimension
0
DIMENSION
5
3605
330
24
100
AcDbEntity
8
DIM
100
AcDbDimension
2
*D5
10
4550.0
20
-1600.0
11
4095.0
21
-1550.0
70
32
71
5
3
Standard
100
AcDbAlignedDimension
13
3640.0
23
0.0
14
4550.0
24
0.0
50
0.0
100
AcDbRotatedDimension
0
DIMENSION
5
3606
330
24
100
AcDbEntity
8
DIM
100
AcDbDimension
2
*D6
10
5460.0
20
-1600.0
11
5005.0
21
-1550.0
70
32
71
5
3
Standard
100
AcDbAlignedDimension
13
4550.0
23
0.0
14
5460.0
24
0.0
50
0.0
100
AcDbRotatedDimension
0
DIMENSION
5
3607
330
24
100
AcDbEntity
8
DIM
100
AcDbDimension
2
*D7
10
6370.0
20
-1600.0
11
5915.0
21
-1550.0
70
32
71
5
3
Standard
100
AcDbAlignedDimension
13
5460.0
23
0.0
14
6370.0
24
0.0
50
0.0
100
AcDbRotatedDimension
0
DIMENSION
5
3608
330
24
100
AcDbEntity
8
DIM
100
AcDbDimension
2
*D8
10
7280.0
20
-1600.0
11
6825.0
21
-1550.0
70
32
71
5
3
Standard
100
AcDbAlignedDimension
13
6370.0
23
0.0
14
7280.0
24
0.0
50
0.0
100
AcDbRotatedDimension
0
DIMENSION
5
3609
330
24
100
AcDbEntity
8
DIM
100
AcDbDimension
2
*D9
10
8190.0
20
-1600.0
11
7735.0
21
-1550.0
70
32
71
5
3
Standard
100
AcDbAlignedDimension
13
7280.0
23
0.0
14
8190.0
24
0.0
50
0.0
100
AcDbRotatedDimension
0
DIMENSION
5
360A
330
24
100
AcDbEntity
8
DIM
100
AcDbDimension
2
*D10
10
9100.0
20
-1600.0
11
8645.0
21
-1550.0
70
32
71
5
3
Standard
100
AcDbAlignedDimension
13
8190.0
23
0.0
14
9100.0
24
0.0
50
0.0
100
AcDbRotatedDimension
0
DIMENSION
5
360B
330
24
100
AcDbEntity
8
DIM
100
AcDbDimension
2
*D11
10
9100.0
20
-2600.0
11
4550.0
21
-2550.0
70
32
71
5
3
Standard
100
AcDbAlignedDimension
13
0.0
23
0.0
14
9100.0
24
0.0
50
0.0
100
AcDbRotatedDimension
0
DIMENSION
5
360C
330
24
100
AcDbEntity
8
DIM
100
AcDbDimension
2
*D12
10
-600.0
20
910.0
11
-650.0
21
455.0
70
32
71
5
3
Standard
100
AcDbAlignedDimension
13
0.0
23
0.0
14
0.0
24
910.0
50
90.0
100
AcDbRotatedDimension
0
DIMENSION
5
360D
330
24
100
AcDbEntity
8
DIM
100
AcDbDimension
2
*D13
10
-600.0
20
1820.0
11
-650.0
21
1365.0
70
32
71
5
3
Standard
100
AcDbAlignedDimension
13
0.0
23
910.0
14
0.0
24
1820.0
50
90.0
100
AcDbRotatedDimension
0
DIMENSION
5
360E
330
24
100
AcDbEntity
8
DIM
100
AcDbDimension
2
*D14
10
-600.0
20
2730.0
11
-650.0
21
2275.0
70
32
71
5
3
Standard
100
AcDbAlignedDimension
13
0.0
23
1820.0
14
0.0
24
2730.0
50
90.0
100
AcDbRotatedDimension
0
DIMENSION
5
360F
330
24
100
AcDbEntity
8
DIM
100
AcDbDimension
2
*D15
10
-600.0
20
3640.0
11
-650.0
21
3185.0
70
32
71
5
3
Standard
100
AcDbAlignedDimension
13
0.0
23
2730.0
14
0.0
24
3640.0
50
90.0
100
AcDbRotatedDimension
0
DIMENSION
5
3610
330
24
100
AcDbEntity
8
DIM
100
AcDbDimension
2
*D16
10
-600.0
20
4550.0
11
-650.0
21
4095.0
70
32
71
5
3
Standard
100
AcDbAlignedDimension
13
0.0
23
3640.0
14
0.0
24
4550.0
50
90.0
100
AcDbRotatedDimension
0
DIMENSION
5
3611
330
24
100
AcDbEntity
8
DIM
100
AcDbDimension
2
*D17
10
-600.0
20
5460.0
11
-650.0
21
5005.0
70
32
71
5
3
Standard
100
AcDbAlignedDimension
13
0.0
23
4550.0
14
0.0
24
5460.0
50
90.0
100
AcDbRotatedDimension
0
DIMENSION
5
3612
330
24
100
AcDbEntity
8
DIM
100
AcDbDimension
2
*D18
10
-600.0
20
6370.0
11
-650.0
21
5915.0
70
32
71
5
3
Standard
100
AcDbAlignedDimension
13
0.0
23
5460.0
14
0.0
24
6370.0
50
90.0
100
AcDbRotatedDimension
0
DIMENSION
5
3613
330
24
100
AcDbEntity
8
DIM
100
AcDbDimension
2
*D19
10
-600.0
20
7280.0
11
-650.0
21
6825.0
70
32
71
5
3
Standard
100
AcDbAlignedDimension
13
0.0
23
6370.0
14
0.0
24
7280.0
50
90.0
100
AcDbRotatedDimension
0
DIMENSION
5
3614
330
24
100
AcDbEntity
8
DIM
100
AcDbDimension
2
*D20
10
-600.0
20
8190.0
11
-650.0
21
7735.0
70
32
71
5
3
Standard
100
AcDbAlignedDimension
13
0.0
23
7280.0
14
0.0
24
8190.0
50
90.0
100
AcDbRotatedDimension
0
DIMENSION
5
3615
330
24
100
AcDbEntity
8
DIM
100
AcDbDimension
2
*D21
10
-1600.0
20
8190.0
11
-1650.0
21
4095.0
70
32
71
5
3
Standard
100
AcDbAlignedDimension
13
0.0
23
0.0
14
0.0
24
8190.0
50
90.0
100
AcDbRotatedDimension
0
DIMENSION
5
3616
330
24
100
AcDbEntity
8
DIM
100
AcDbDimension
2
*D22
10
9700.0
20
910.0
11
9900.0
21
455.0
70
32
71
5
3
Standard
100
AcDbAlignedDimension
13
9100.0
23
0.0
14
9100.0
24
910.0
50
90.0
100
AcDbRotatedDimension
0
DIMENSION
5
3617
330
24
100
AcDbEntity
8
DIM
100
AcDbDimension
2
*D23
10
9700.0
20
1820.0
11
9900.0
21
1365.0
70
32
71
5
3
Standard
100
AcDbAlignedDimension
13
9100.0
23
910.0
14
9100.0
24
1820.0
50
90.0
100
AcDbRotatedDimension
0
DIMENSION
5
3618
330
24
100
AcDbEntity
8
DIM
100
AcDbDimension
2
*D24
10
9700.0
20
2730.0
11
9900.0
21
2275.0
70
32
71
5
3
Standard
100
AcDbAlignedDimension
13
9100.0
23
1820.0
14
9100.0
24
2730.0
50
90.0
100
AcDbRotatedDimension
0
DIMENSION
5
3619
330
24
100
AcDbEntity
8
DIM
100
AcDbDimension
2
*D25
10
9700.0
20
3640.0
11
9900.0
21
3185.0
70
32
71
5
3
Standard
100
AcDbAlignedDimension
13
9100.0
23
2730.0
14
9100.0
24
3640.0
50
90.0
100
AcDbRotatedDimension
0
DIMENSION
5
361A
330
24
100
AcDbEntity
8
DIM
100
AcDbDimension
2
*D26
10
9700.0
20
4550.0
11
9900.0
21
4095.0
70
32
71
5
3
Standard
100
AcDbAlignedDimension
13
9100.0
23
3640.0
14
9100.0
24
4550.0
50
90.0
100
AcDbRotatedDimension
0
DIMENSION
5
361B
330
24
100
AcDbEntity
8
DIM
100
AcDbDimension
2
*D27
10
9700.0
20
5460.0
11
9900.0
21
5005.0
70
32
71
5
3
Standard
100
AcDbAlignedDimension
13
9100.0
23
4550.0
14
9100.0
24
5460.0
50
90.0
100
AcDbRotatedDimension
0
DIMENSION
5
361C
330
24
100
AcDbEntity
8
DIM
100
AcDbDimension
2
*D28
10
9700.0
20
6370.0
11
9900.0
21
5915.0
70
32
71
5
3
Standard
100
AcDbAlignedDimension
13
9100.0
23
5460.0
14
9100.0
24
6370.0
50
90.0
100
AcDbRotatedDimension
0
DIMENSION
5
361D
330
24
100
AcDbEntity
8
DIM
100
AcDbDimension
2
*D29
10
10700.0
20
6370.0
11
10900.0
21
3185.0
70
32
71
5
3
Standard
100
AcDbAlignedDimension
13
9100.0
23
0.0
14
9100.0
24
6370.0
50
90.0
100
AcDbRotatedDimension
0
DIMENSION
5
361E
330
24
100
AcDbEntity
8
DIM
100
AcDbDimension
2
*D30
10
455.0
20
-600.0
11
227.5
21
-550.0
70
32
71
5
3
Standard
100
AcDbAlignedDimension
13
0.0
23
0.0
14
455.0
24
0.0
50
0.0
100
AcDbRotatedDimension
0
DIMENSION
5
361F
330
24
100
AcDbEntity
8
DIM
100
AcDbDimension
2
*D31
10
1365.0
20
-600.0
11
910.0
21
-550.0
70
32
71
5
3
Standard
100
AcDbAlignedDimension
13
455.0
23
0.0
14
1365.0
24
0.0
50
0.0
100
AcDbRotatedDimension
0
DIMENSION
5
3620
330
24
100
AcDbEntity
8
DIM
100
AcDbDimension
2
*D32
10
5915.0
20
-600.0
11
3640.0
21
-550.0
70
32
71
5
3
Standard
100
AcDbAlignedDimension
13
1365.0
23
0.0
14
5915.0
24
0.0
50
0.0
100
AcDbRotatedDimension
0
DIMENSION
5
3621
330
24
100
AcDbEntity
8
DIM
100
AcDbDimension
2
*D33
10
8645.0
20
-600.0
11
7280.0
21
-550.0
70
32
71
5
3
Standard
100
AcDbAlignedDimension
13
5915.0
23
0.0
14
8645.0
24
0.0
50
0.0
100
AcDbRotatedDimension
0
DIMENSION
5
3622
330
24
100
AcDbEntity
8
DIM
100
AcDbDimension
2
*D34
10
9100.0
20
-600.0
11
8872.5
21
-550.0
70
32
71
5
3
Standard
100
AcDbAlignedDimension
13
8645.0
23
0.0
14
9100.0
24
0.0
50
0.0
100
AcDbRotatedDimension
0
ENDSEC
0
SECTION
2
OBJECTS
0
DICTIONARY
5
C
330
0
100
AcDbDictionary
281
1
3
ACAD_GROUP
350
D
3
ACAD_LAYOUT
350
E
0
DICTIONARY
5
D
330
C
100
AcDbDictionary
281
1
0
DICTIONARY
5
E
330
C
100
AcDbDictionary
281
1
3
Model
350
F
3
Layout1
350
10
0
LAYOUT
5
F
330
E
100
AcDbPlotSettings
1

2
none_device
40
0.0
41
0.0
42
0.0
43
0.0
44
0.0
45
0.0
46
0.0
47
0.0
48
0.0
49
0.0
140
0.0
141
0.0
142
1.0
143
1.0
70
1712
72
0
73
0
74
0
7

75
0
147
1.0
148
0.0
149
0.0
100
AcDbLayout
1
Model
70
1
71
0
10
0.0
20
0.0
11
420.0
21
297.0
12
0.0
22
0.0
32
0.0
14
-3300.0
24
-2900.0
34
0.0
15
11000.0
25
8800.0
35
0.0
146
0.0
13
0.0
23
0.0
33
0.0
16
1.0
26
0.0
36
0.0
17
0.0
27
1.0
37
0.0
76
0
330
24
0
LAYOUT
5
10
330
E
100
AcDbPlotSettings
1

2
none_device
40
0.0
41
0.0
42
0.0
43
0.0
44
0.0
45
0.0
46
0.0
47
0.0
48
0.0
49
0.0
140
0.0
141
0.0
142
1.0
143
1.0
70
1712
72
0
73
0
74
0
7

75
0
147
1.0
148
0.0
149
0.0
100
AcDbLayout
1
Layout1
70
1
71
1
10
0.0
20
0.0
11
420.0
21
297.0
12
0.0
22
0.0
32
0.0
14
0.0
24
0.0
34
0.0
15
420.0
25
297.0
35
0.0
146
0.0
13
0.0
23
0.0
33
0.0
16
1.0
26
0.0
36
0.0
17
0.0
27
1.0
37
0.0
76
0
330
25
0
ENDSEC
0
EOF
