999
1F Plan - T004 - hand-written DXF
0
SECTION
2
HEADER
9
$ACADVER
1
AC1021
9
$HANDSEED
5
FFFF
9
$INSBASE
10
0
20
0
30
0
9
$EXTMIN
10
-2600
20
-4300
30
0
9
$EXTMAX
10
11300
20
8800
30
0
9
$LIMMIN
10
-2600
20
-4300
9
$LIMMAX
10
11300
20
8800
9
$INSUNITS
70
4
9
$MEASUREMENT
70
1
9
$LUNITS
70
2
9
$LUPREC
70
2
9
$LTSCALE
40
1
9
$CLAYER
8
0
9
$TEXTSTYLE
7
Standard
9
$DIMSTYLE
2
Standard
9
$DIMSCALE
40
1
9
$DIMTXT
40
200
9
$DIMASZ
40
100
9
$DIMEXE
40
60
9
$DIMEXO
40
60
9
$DIMGAP
40
60
9
$DIMDEC
70
0
9
$PDMODE
70
0
9
$PDSIZE
40
0
0
ENDSEC
0
SECTION
2
TABLES
0
TABLE
2
VPORT
5
8
330
0
100
AcDbSymbolTable
70
1
0
VPORT
5
30
330
8
100
AcDbSymbolTableRecord
100
AcDbViewportTableRecord
2
*Active
70
0
10
0
20
0
11
1
21
1
12
4550
22
2700
13
0
23
0
14
910
24
910
15
455
25
455
16
0
26
0
36
1
17
0
27
0
37
0
40
14000
41
1.5
42
50
43
0
44
0
50
0
51
0
71
0
72
1000
73
1
74
3
75
0
76
1
77
0
78
0
0
ENDTAB
0
TABLE
2
LTYPE
5
5
330
0
100
AcDbSymbolTable
70
4
0
LTYPE
5
14
330
5
100
AcDbSymbolTableRecord
100
AcDbLinetypeTableRecord
2
ByBlock
70
0
3

72
65
73
0
40
0
0
LTYPE
5
15
330
5
100
AcDbSymbolTableRecord
100
AcDbLinetypeTableRecord
2
ByLayer
70
0
3

72
65
73
0
40
0
0
LTYPE
5
16
330
5
100
AcDbSymbolTableRecord
100
AcDbLinetypeTableRecord
2
Continuous
70
0
3
Solid line
72
65
73
0
40
0
0
LTYPE
5
17
330
5
100
AcDbSymbolTableRecord
100
AcDbLinetypeTableRecord
2
CENTER
70
0
3
Center line
72
65
73
4
40
1400
49
800
74
0
49
-200
74
0
49
200
74
0
49
-200
74
0
0
ENDTAB
0
TABLE
2
LAYER
5
2
330
0
100
AcDbSymbolTable
70
8
0
LAYER
5
20
330
2
100
AcDbSymbolTableRecord
100
AcDbLayerTableRecord
2
0
70
0
62
7
6
Continuous
0
LAYER
5
21
330
2
100
AcDbSymbolTableRecord
100
AcDbLayerTableRecord
2
GRID
70
0
62
8
6
CENTER
0
LAYER
5
22
330
2
100
AcDbSymbolTableRecord
100
AcDbLayerTableRecord
2
WALL
70
0
62
7
6
Continuous
0
LAYER
5
23
330
2
100
AcDbSymbolTableRecord
100
AcDbLayerTableRecord
2
OPENING
70
0
62
4
6
Continuous
0
LAYER
5
24
330
2
100
AcDbSymbolTableRecord
100
AcDbLayerTableRecord
2
DIM
70
0
62
6
6
Continuous
0
LAYER
5
25
330
2
100
AcDbSymbolTableRecord
100
AcDbLayerTableRecord
2
ROOM
70
0
62
3
6
Continuous
0
LAYER
5
26
330
2
100
AcDbSymbolTableRecord
100
AcDbLayerTableRecord
2
TEXT
70
0
62
7
6
Continuous
0
LAYER
5
27
330
2
100
AcDbSymbolTableRecord
100
AcDbLayerTableRecord
2
STAIR
70
0
62
5
6
Continuous
0
ENDTAB
0
TABLE
2
STYLE
5
3
330
0
100
AcDbSymbolTable
70
2
0
STYLE
5
40
330
3
100
AcDbSymbolTableRecord
100
AcDbTextStyleTableRecord
2
Standard
70
0
40
0
41
1
50
0
71
0
42
200
3
txt
4

0
STYLE
5
41
330
3
100
AcDbSymbolTableRecord
100
AcDbTextStyleTableRecord
2
JP
70
0
40
0
41
1
50
0
71
0
42
200
3
msgothic.ttc
4

0
ENDTAB
0
TABLE
2
VIEW
5
6
330
0
100
AcDbSymbolTable
70
0
0
ENDTAB
0
TABLE
2
UCS
5
7
330
0
100
AcDbSymbolTable
70
0
0
ENDTAB
0
TABLE
2
APPID
5
9
330
0
100
AcDbSymbolTable
70
1
0
APPID
5
50
330
9
100
AcDbSymbolTableRecord
100
AcDbRegAppTableRecord
2
ACAD
70
0
0
ENDTAB
0
TABLE
2
DIMSTYLE
5
A
330
0
100
AcDbSymbolTable
70
1
100
AcDbDimStyleTable
71
1
0
DIMSTYLE
105
60
330
A
100
AcDbSymbolTableRecord
100
AcDbDimStyleTableRecord
2
Standard
70
0
40
1
41
100
42
60
44
60
73
0
74
0
77
1
78
8
140
200
147
60
271
0
340
41
0
ENDTAB
0
TABLE
2
BLOCK_RECORD
5
1
330
0
100
AcDbSymbolTable
70
36
0
BLOCK_RECORD
5
70
330
1
100
AcDbSymbolTableRecord
100
AcDbBlockTableRecord
2
*Model_Space
340
F0
70
0
280
1
281
0
0
BLOCK_RECORD
5
71
330
1
100
AcDbSymbolTableRecord
100
AcDbBlockTableRecord
2
*Paper_Space
340
F1
70
0
280
1
281
0
0
BLOCK_RECORD
5
80
330
1
100
AcDbSymbolTableRecord
100
AcDbBlockTableRecord
2
*D1
70
0
280
1
281
0
0
BLOCK_RECORD
5
81
330
1
100
AcDbSymbolTableRecord
100
AcDbBlockTableRecord
2
*D2
70
0
280
1
281
0
0
BLOCK_RECORD
5
82
330
1
100
AcDbSymbolTableRecord
100
AcDbBlockTableRecord
2
*D3
70
0
280
1
281
0
0
BLOCK_RECORD
5
83
330
1
100
AcDbSymbolTableRecord
100
AcDbBlockTableRecord
2
*D4
70
0
280
1
281
0
0
BLOCK_RECORD
5
84
330
1
100
AcDbSymbolTableRecord
100
AcDbBlockTableRecord
2
*D5
70
0
280
1
281
0
0
BLOCK_RECORD
5
85
330
1
100
AcDbSymbolTableRecord
100
AcDbBlockTableRecord
2
*D6
70
0
280
1
281
0
0
BLOCK_RECORD
5
86
330
1
100
AcDbSymbolTableRecord
100
AcDbBlockTableRecord
2
*D7
70
0
280
1
281
0
0
BLOCK_RECORD
5
87
330
1
100
AcDbSymbolTableRecord
100
AcDbBlockTableRecord
2
*D8
70
0
280
1
281
0
0
BLOCK_RECORD
5
88
330
1
100
AcDbSymbolTableRecord
100
AcDbBlockTableRecord
2
*D9
70
0
280
1
281
0
0
BLOCK_RECORD
5
89
330
1
100
AcDbSymbolTableRecord
100
AcDbBlockTableRecord
2
*D10
70
0
280
1
281
0
0
BLOCK_RECORD
5
8A
330
1
100
AcDbSymbolTableRecord
100
AcDbBlockTableRecord
2
*D11
70
0
280
1
281
0
0
BLOCK_RECORD
5
8B
330
1
100
AcDbSymbolTableRecord
100
AcDbBlockTableRecord
2
*D12
70
0
280
1
281
0
0
BLOCK_RECORD
5
8C
330
1
100
AcDbSymbolTableRecord
100
AcDbBlockTableRecord
2
*D13
70
0
280
1
281
0
0
BLOCK_RECORD
5
8D
330
1
100
AcDbSymbolTableRecord
100
AcDbBlockTableRecord
2
*D14
70
0
280
1
281
0
0
BLOCK_RECORD
5
8E
330
1
100
AcDbSymbolTableRecord
100
AcDbBlockTableRecord
2
*D15
70
0
280
1
281
0
0
BLOCK_RECORD
5
8F
330
1
100
AcDbSymbolTableRecord
100
AcDbBlockTableRecord
2
*D16
70
0
280
1
281
0
0
BLOCK_RECORD
5
90
330
1
100
AcDbSymbolTableRecord
100
AcDbBlockTableRecord
2
*D17
70
0
280
1
281
0
0
BLOCK_RECORD
5
91
330
1
100
AcDbSymbolTableRecord
100
AcDbBlockTableRecord
2
*D18
70
0
280
1
281
0
0
BLOCK_RECORD
5
92
330
1
100
AcDbSymbolTableRecord
100
AcDbBlockTableRecord
2
*D19
70
0
280
1
281
0
0
BLOCK_RECORD
5
93
330
1
100
AcDbSymbolTableRecord
100
AcDbBlockTableRecord
2
*D20
70
0
280
1
281
0
0
BLOCK_RECORD
5
94
330
1
100
AcDbSymbolTableRecord
100
AcDbBlockTableRecord
2
*D21
70
0
280
1
281
0
0
BLOCK_RECORD
5
95
330
1
100
AcDbSymbolTableRecord
100
AcDbBlockTableRecord
2
*D22
70
0
280
1
281
0
0
BLOCK_RECORD
5
96
330
1
100
AcDbSymbolTableRecord
100
AcDbBlockTableRecord
2
*D23
70
0
280
1
281
0
0
BLOCK_RECORD
5
97
330
1
100
AcDbSymbolTableRecord
100
AcDbBlockTableRecord
2
*D24
70
0
280
1
281
0
0
BLOCK_RECORD
5
98
330
1
100
AcDbSymbolTableRecord
100
AcDbBlockTableRecord
2
*D25
70
0
280
1
281
0
0
BLOCK_RECORD
5
99
330
1
100
AcDbSymbolTableRecord
100
AcDbBlockTableRecord
2
*D26
70
0
280
1
281
0
0
BLOCK_RECORD
5
9A
330
1
100
AcDbSymbolTableRecord
100
AcDbBlockTableRecord
2
*D27
70
0
280
1
281
0
0
BLOCK_RECORD
5
9B
330
1
100
AcDbSymbolTableRecord
100
AcDbBlockTableRecord
2
*D28
70
0
280
1
281
0
0
BLOCK_RECORD
5
9C
330
1
100
AcDbSymbolTableRecord
100
AcDbBlockTableRecord
2
*D29
70
0
280
1
281
0
0
BLOCK_RECORD
5
9D
330
1
100
AcDbSymbolTableRecord
100
AcDbBlockTableRecord
2
*D30
70
0
280
1
281
0
0
BLOCK_RECORD
5
9E
330
1
100
AcDbSymbolTableRecord
100
AcDbBlockTableRecord
2
*D31
70
0
280
1
281
0
0
BLOCK_RECORD
5
9F
330
1
100
AcDbSymbolTableRecord
100
AcDbBlockTableRecord
2
*D32
70
0
280
1
281
0
0
BLOCK_RECORD
5
A0
330
1
100
AcDbSymbolTableRecord
100
AcDbBlockTableRecord
2
*D33
70
0
280
1
281
0
0
BLOCK_RECORD
5
A1
330
1
100
AcDbSymbolTableRecord
100
AcDbBlockTableRecord
2
*D34
70
0
280
1
281
0
0
ENDTAB
0
ENDSEC
0
SECTION
2
BLOCKS
0
BLOCK
5
B0
330
70
100
AcDbEntity
8
0
100
AcDbBlockBegin
2
*Model_Space
70
0
10
0
20
0
30
0
3
*Model_Space
1

0
ENDBLK
5
B1
330
70
100
AcDbEntity
8
0
100
AcDbBlockEnd
0
BLOCK
5
B2
330
71
100
AcDbEntity
67
1
8
0
100
AcDbBlockBegin
2
*Paper_Space
70
0
10
0
20
0
30
0
3
*Paper_Space
1

0
ENDBLK
5
B3
330
71
100
AcDbEntity
67
1
8
0
100
AcDbBlockEnd
0
BLOCK
5
2000
330
80
100
AcDbEntity
8
DIM
100
AcDbBlockBegin
2
*D1
70
1
10
0
20
0
30
0
3
*D1
1

0
LWPOLYLINE
5
2001
330
80
100
AcDbEntity
8
DIM
100
AcDbPolyline
90
4
70
0
43
0
10
0
20
-100
10
0
20
-600
10
455
20
-600
10
455
20
-100
0
TEXT
5
2002
330
80
100
AcDbEntity
8
DIM
100
AcDbText
10
227.5
20
-440
30
0
40
200
1
455
50
0
7
JP
72
1
11
227.5
21
-440
31
0
100
AcDbText
73
2
0
ENDBLK
5
2003
330
80
100
AcDbEntity
8
DIM
100
AcDbBlockEnd
0
BLOCK
5
2010
330
81
100
AcDbEntity
8
DIM
100
AcDbBlockBegin
2
*D2
70
1
10
0
20
0
30
0
3
*D2
1

0
LWPOLYLINE
5
2011
330
81
100
AcDbEntity
8
DIM
100
AcDbPolyline
90
4
70
0
43
0
10
455
20
-100
10
455
20
-600
10
1365
20
-600
10
1365
20
-100
0
TEXT
5
2012
330
81
100
AcDbEntity
8
DIM
100
AcDbText
10
910
20
-440
30
0
40
200
1
910
50
0
7
JP
72
1
11
910
21
-440
31
0
100
AcDbText
73
2
0
ENDBLK
5
2013
330
81
100
AcDbEntity
8
DIM
100
AcDbBlockEnd
0
BLOCK
5
2020
330
82
100
AcDbEntity
8
DIM
100
AcDbBlockBegin
2
*D3
70
1
10
0
20
0
30
0
3
*D3
1

0
LWPOLYLINE
5
2021
330
82
100
AcDbEntity
8
DIM
100
AcDbPolyline
90
4
70
0
43
0
10
1365
20
-100
10
1365
20
-600
10
5915
20
-600
10
5915
20
-100
0
TEXT
5
2022
330
82
100
AcDbEntity
8
DIM
100
AcDbText
10
3640
20
-440
30
0
40
200
1
4550
50
0
7
JP
72
1
11
3640
21
-440
31
0
100
AcDbText
73
2
0
ENDBLK
5
2023
330
82
100
AcDbEntity
8
DIM
100
AcDbBlockEnd
0
BLOCK
5
2030
330
83
100
AcDbEntity
8
DIM
100
AcDbBlockBegin
2
*D4
70
1
10
0
20
0
30
0
3
*D4
1

0
LWPOLYLINE
5
2031
330
83
100
AcDbEntity
8
DIM
100
AcDbPolyline
90
4
70
0
43
0
10
5915
20
-100
10
5915
20
-600
10
8645
20
-600
10
8645
20
-100
0
TEXT
5
2032
330
83
100
AcDbEntity
8
DIM
100
AcDbText
10
7280
20
-440
30
0
40
200
1
2730
50
0
7
JP
72
1
11
7280
21
-440
31
0
100
AcDbText
73
2
0
ENDBLK
5
2033
330
83
100
AcDbEntity
8
DIM
100
AcDbBlockEnd
0
BLOCK
5
2040
330
84
100
AcDbEntity
8
DIM
100
AcDbBlockBegin
2
*D5
70
1
10
0
20
0
30
0
3
*D5
1

0
LWPOLYLINE
5
2041
330
84
100
AcDbEntity
8
DIM
100
AcDbPolyline
90
4
70
0
43
0
10
8645
20
-100
10
8645
20
-600
10
9100
20
-600
10
9100
20
-100
0
TEXT
5
2042
330
84
100
AcDbEntity
8
DIM
100
AcDbText
10
8872.5
20
-440
30
0
40
200
1
455
50
0
7
JP
72
1
11
8872.5
21
-440
31
0
100
AcDbText
73
2
0
ENDBLK
5
2043
330
84
100
AcDbEntity
8
DIM
100
AcDbBlockEnd
0
BLOCK
5
2050
330
85
100
AcDbEntity
8
DIM
100
AcDbBlockBegin
2
*D6
70
1
10
0
20
0
30
0
3
*D6
1

0
LWPOLYLINE
5
2051
330
85
100
AcDbEntity
8
DIM
100
AcDbPolyline
90
4
70
0
43
0
10
0
20
-700
10
0
20
-1600
10
910
20
-1600
10
910
20
-700
0
TEXT
5
2052
330
85
100
AcDbEntity
8
DIM
100
AcDbText
10
455
20
-1440
30
0
40
200
1
910
50
0
7
JP
72
1
11
455
21
-1440
31
0
100
AcDbText
73
2
0
ENDBLK
5
2053
330
85
100
AcDbEntity
8
DIM
100
AcDbBlockEnd
0
BLOCK
5
2060
330
86
100
AcDbEntity
8
DIM
100
AcDbBlockBegin
2
*D7
70
1
10
0
20
0
30
0
3
*D7
1

0
LWPOLYLINE
5
2061
330
86
100
AcDbEntity
8
DIM
100
AcDbPolyline
90
4
70
0
43
0
10
910
20
-700
10
910
20
-1600
10
1820
20
-1600
10
1820
20
-700
0
TEXT
5
2062
330
86
100
AcDbEntity
8
DIM
100
AcDbText
10
1365
20
-1440
30
0
40
200
1
910
50
0
7
JP
72
1
11
1365
21
-1440
31
0
100
AcDbText
73
2
0
ENDBLK
5
2063
330
86
100
AcDbEntity
8
DIM
100
AcDbBlockEnd
0
BLOCK
5
2070
330
87
100
AcDbEntity
8
DIM
100
AcDbBlockBegin
2
*D8
70
1
10
0
20
0
30
0
3
*D8
1

0
LWPOLYLINE
5
2071
330
87
100
AcDbEntity
8
DIM
100
AcDbPolyline
90
4
70
0
43
0
10
1820
20
-700
10
1820
20
-1600
10
2730
20
-1600
10
2730
20
-700
0
TEXT
5
2072
330
87
100
AcDbEntity
8
DIM
100
AcDbText
10
2275
20
-1440
30
0
40
200
1
910
50
0
7
JP
72
1
11
2275
21
-1440
31
0
100
AcDbText
73
2
0
ENDBLK
5
2073
330
87
100
AcDbEntity
8
DIM
100
AcDbBlockEnd
0
BLOCK
5
2080
330
88
100
AcDbEntity
8
DIM
100
AcDbBlockBegin
2
*D9
70
1
10
0
20
0
30
0
3
*D9
1

0
LWPOLYLINE
5
2081
330
88
100
AcDbEntity
8
DIM
100
AcDbPolyline
90
4
70
0
43
0
10
2730
20
-700
10
2730
20
-1600
10
3640
20
-1600
10
3640
20
-700
0
TEXT
5
2082
330
88
100
AcDbEntity
8
DIM
100
AcDbText
10
3185
20
-1440
30
0
40
200
1
910
50
0
7
JP
72
1
11
3185
21
-1440
31
0
100
AcDbText
73
2
0
ENDBLK
5
2083
330
88
100
AcDbEntity
8
DIM
100
AcDbBlockEnd
0
BLOCK
5
2090
330
89
100
AcDbEntity
8
DIM
100
AcDbBlockBegin
2
*D10
70
1
10
0
20
0
30
0
3
*D10
1

0
LWPOLYLINE
5
2091
330
89
100
AcDbEntity
8
DIM
100
AcDbPolyline
90
4
70
0
43
0
10
3640
20
-700
10
3640
20
-1600
10
4550
20
-1600
10
4550
20
-700
0
TEXT
5
2092
330
89
100
AcDbEntity
8
DIM
100
AcDbText
10
4095
20
-1440
30
0
40
200
1
910
50
0
7
JP
72
1
11
4095
21
-1440
31
0
100
AcDbText
73
2
0
ENDBLK
5
2093
330
89
100
AcDbEntity
8
DIM
100
AcDbBlockEnd
0
BLOCK
5
20A0
330
8A
100
AcDbEntity
8
DIM
100
AcDbBlockBegin
2
*D11
70
1
10
0
20
0
30
0
3
*D11
1

0
LWPOLYLINE
5
20A1
330
8A
100
AcDbEntity
8
DIM
100
AcDbPolyline
90
4
70
0
43
0
10
4550
20
-700
10
4550
20
-1600
10
5460
20
-1600
10
5460
20
-700
0
TEXT
5
20A2
330
8A
100
AcDbEntity
8
DIM
100
AcDbText
10
5005
20
-1440
30
0
40
200
1
910
50
0
7
JP
72
1
11
5005
21
-1440
31
0
100
AcDbText
73
2
0
ENDBLK
5
20A3
330
8A
100
AcDbEntity
8
DIM
100
AcDbBlockEnd
0
BLOCK
5
20B0
330
8B
100
AcDbEntity
8
DIM
100
AcDbBlockBegin
2
*D12
70
1
10
0
20
0
30
0
3
*D12
1

0
LWPOLYLINE
5
20B1
330
8B
100
AcDbEntity
8
DIM
100
AcDbPolyline
90
4
70
0
43
0
10
5460
20
-700
10
5460
20
-1600
10
6370
20
-1600
10
6370
20
-700
0
TEXT
5
20B2
330
8B
100
AcDbEntity
8
DIM
100
AcDbText
10
5915
20
-1440
30
0
40
200
1
910
50
0
7
JP
72
1
11
5915
21
-1440
31
0
100
AcDbText
73
2
0
ENDBLK
5
20B3
330
8B
100
AcDbEntity
8
DIM
100
AcDbBlockEnd
0
BLOCK
5
20C0
330
8C
100
AcDbEntity
8
DIM
100
AcDbBlockBegin
2
*D13
70
1
10
0
20
0
30
0
3
*D13
1

0
LWPOLYLINE
5
20C1
330
8C
100
AcDbEntity
8
DIM
100
AcDbPolyline
90
4
70
0
43
0
10
6370
20
-700
10
6370
20
-1600
10
7280
20
-1600
10
7280
20
-700
0
TEXT
5
20C2
330
8C
100
AcDbEntity
8
DIM
100
AcDbText
10
6825
20
-1440
30
0
40
200
1
910
50
0
7
JP
72
1
11
6825
21
-1440
31
0
100
AcDbText
73
2
0
ENDBLK
5
20C3
330
8C
100
AcDbEntity
8
DIM
100
AcDbBlockEnd
0
BLOCK
5
20D0
330
8D
100
AcDbEntity
8
DIM
100
AcDbBlockBegin
2
*D14
70
1
10
0
20
0
30
0
3
*D14
1

0
LWPOLYLINE
5
20D1
330
8D
100
AcDbEntity
8
DIM
100
AcDbPolyline
90
4
70
0
43
0
10
7280
20
-700
10
7280
20
-1600
10
8190
20
-1600
10
8190
20
-700
0
TEXT
5
20D2
330
8D
100
AcDbEntity
8
DIM
100
AcDbText
10
7735
20
-1440
30
0
40
200
1
910
50
0
7
JP
72
1
11
7735
21
-1440
31
0
100
AcDbText
73
2
0
ENDBLK
5
20D3
330
8D
100
AcDbEntity
8
DIM
100
AcDbBlockEnd
0
BLOCK
5
20E0
330
8E
100
AcDbEntity
8
DIM
100
AcDbBlockBegin
2
*D15
70
1
10
0
20
0
30
0
3
*D15
1

0
LWPOLYLINE
5
20E1
330
8E
100
AcDbEntity
8
DIM
100
AcDbPolyline
90
4
70
0
43
0
10
8190
20
-700
10
8190
20
-1600
10
9100
20
-1600
10
9100
20
-700
0
TEXT
5
20E2
330
8E
100
AcDbEntity
8
DIM
100
AcDbText
10
8645
20
-1440
30
0
40
200
1
910
50
0
7
JP
72
1
11
8645
21
-1440
31
0
100
AcDbText
73
2
0
ENDBLK
5
20E3
330
8E
100
AcDbEntity
8
DIM
100
AcDbBlockEnd
0
BLOCK
5
20F0
330
8F
100
AcDbEntity
8
DIM
100
AcDbBlockBegin
2
*D16
70
1
10
0
20
0
30
0
3
*D16
1

0
LWPOLYLINE
5
20F1
330
8F
100
AcDbEntity
8
DIM
100
AcDbPolyline
90
4
70
0
43
0
10
0
20
-1700
10
0
20
-2600
10
9100
20
-2600
10
9100
20
-1700
0
TEXT
5
20F2
330
8F
100
AcDbEntity
8
DIM
100
AcDbText
10
4550
20
-2440
30
0
40
200
1
9100
50
0
7
JP
72
1
11
4550
21
-2440
31
0
100
AcDbText
73
2
0
ENDBLK
5
20F3
330
8F
100
AcDbEntity
8
DIM
100
AcDbBlockEnd
0
BLOCK
5
2100
330
90
100
AcDbEntity
8
DIM
100
AcDbBlockBegin
2
*D17
70
1
10
0
20
0
30
0
3
*D17
1

0
LWPOLYLINE
5
2101
330
90
100
AcDbEntity
8
DIM
100
AcDbPolyline
90
4
70
0
43
0
10
-100
20
0
10
-600
20
0
10
-600
20
910
10
-100
20
910
0
TEXT
5
2102
330
90
100
AcDbEntity
8
DIM
100
AcDbText
10
-440
20
455
30
0
40
200
1
910
50
90
7
JP
72
1
11
-440
21
455
31
0
100
AcDbText
73
2
0
ENDBLK
5
2103
330
90
100
AcDbEntity
8
DIM
100
AcDbBlockEnd
0
BLOCK
5
2110
330
91
100
AcDbEntity
8
DIM
100
AcDbBlockBegin
2
*D18
70
1
10
0
20
0
30
0
3
*D18
1

0
LWPOLYLINE
5
2111
330
91
100
AcDbEntity
8
DIM
100
AcDbPolyline
90
4
70
0
43
0
10
-100
20
910
10
-600
20
910
10
-600
20
1820
10
-100
20
1820
0
TEXT
5
2112
330
91
100
AcDbEntity
8
DIM
100
AcDbText
10
-440
20
1365
30
0
40
200
1
910
50
90
7
JP
72
1
11
-440
21
1365
31
0
100
AcDbText
73
2
0
ENDBLK
5
2113
330
91
100
AcDbEntity
8
DIM
100
AcDbBlockEnd
0
BLOCK
5
2120
330
92
100
AcDbEntity
8
DIM
100
AcDbBlockBegin
2
*D19
70
1
10
0
20
0
30
0
3
*D19
1

0
LWPOLYLINE
5
2121
330
92
100
AcDbEntity
8
DIM
100
AcDbPolyline
90
4
70
0
43
0
10
-100
20
1820
10
-600
20
1820
10
-600
20
2730
10
-100
20
2730
0
TEXT
5
2122
330
92
100
AcDbEntity
8
DIM
100
AcDbText
10
-440
20
2275
30
0
40
200
1
910
50
90
7
JP
72
1
11
-440
21
2275
31
0
100
AcDbText
73
2
0
ENDBLK
5
2123
330
92
100
AcDbEntity
8
DIM
100
AcDbBlockEnd
0
BLOCK
5
2130
330
93
100
AcDbEntity
8
DIM
100
AcDbBlockBegin
2
*D20
70
1
10
0
20
0
30
0
3
*D20
1

0
LWPOLYLINE
5
2131
330
93
100
AcDbEntity
8
DIM
100
AcDbPolyline
90
4
70
0
43
0
10
-100
20
2730
10
-600
20
2730
10
-600
20
3640
10
-100
20
3640
0
TEXT
5
2132
330
93
100
AcDbEntity
8
DIM
100
AcDbText
10
-440
20
3185
30
0
40
200
1
910
50
90
7
JP
72
1
11
-440
21
3185
31
0
100
AcDbText
73
2
0
ENDBLK
5
2133
330
93
100
AcDbEntity
8
DIM
100
AcDbBlockEnd
0
BLOCK
5
2140
330
94
100
AcDbEntity
8
DIM
100
AcDbBlockBegin
2
*D21
70
1
10
0
20
0
30
0
3
*D21
1

0
LWPOLYLINE
5
2141
330
94
100
AcDbEntity
8
DIM
100
AcDbPolyline
90
4
70
0
43
0
10
-100
20
3640
10
-600
20
3640
10
-600
20
4550
10
-100
20
4550
0
TEXT
5
2142
330
94
100
AcDbEntity
8
DIM
100
AcDbText
10
-440
20
4095
30
0
40
200
1
910
50
90
7
JP
72
1
11
-440
21
4095
31
0
100
AcDbText
73
2
0
ENDBLK
5
2143
330
94
100
AcDbEntity
8
DIM
100
AcDbBlockEnd
0
BLOCK
5
2150
330
95
100
AcDbEntity
8
DIM
100
AcDbBlockBegin
2
*D22
70
1
10
0
20
0
30
0
3
*D22
1

0
LWPOLYLINE
5
2151
330
95
100
AcDbEntity
8
DIM
100
AcDbPolyline
90
4
70
0
43
0
10
-100
20
4550
10
-600
20
4550
10
-600
20
5460
10
-100
20
5460
0
TEXT
5
2152
330
95
100
AcDbEntity
8
DIM
100
AcDbText
10
-440
20
5005
30
0
40
200
1
910
50
90
7
JP
72
1
11
-440
21
5005
31
0
100
AcDbText
73
2
0
ENDBLK
5
2153
330
95
100
AcDbEntity
8
DIM
100
AcDbBlockEnd
0
BLOCK
5
2160
330
96
100
AcDbEntity
8
DIM
100
AcDbBlockBegin
2
*D23
70
1
10
0
20
0
30
0
3
*D23
1

0
LWPOLYLINE
5
2161
330
96
100
AcDbEntity
8
DIM
100
AcDbPolyline
90
4
70
0
43
0
10
-100
20
5460
10
-600
20
5460
10
-600
20
6370
10
-100
20
6370
0
TEXT
5
2162
330
96
100
AcDbEntity
8
DIM
100
AcDbText
10
-440
20
5915
30
0
40
200
1
910
50
90
7
JP
72
1
11
-440
21
5915
31
0
100
AcDbText
73
2
0
ENDBLK
5
2163
330
96
100
AcDbEntity
8
DIM
100
AcDbBlockEnd
0
BLOCK
5
2170
330
97
100
AcDbEntity
8
DIM
100
AcDbBlockBegin
2
*D24
70
1
10
0
20
0
30
0
3
*D24
1

0
LWPOLYLINE
5
2171
330
97
100
AcDbEntity
8
DIM
100
AcDbPolyline
90
4
70
0
43
0
10
-100
20
6370
10
-600
20
6370
10
-600
20
7280
10
-100
20
7280
0
TEXT
5
2172
330
97
100
AcDbEntity
8
DIM
100
AcDbText
10
-440
20
6825
30
0
40
200
1
910
50
90
7
JP
72
1
11
-440
21
6825
31
0
100
AcDbText
73
2
0
ENDBLK
5
2173
330
97
100
AcDbEntity
8
DIM
100
AcDbBlockEnd
0
BLOCK
5
2180
330
98
100
AcDbEntity
8
DIM
100
AcDbBlockBegin
2
*D25
70
1
10
0
20
0
30
0
3
*D25
1

0
LWPOLYLINE
5
2181
330
98
100
AcDbEntity
8
DIM
100
AcDbPolyline
90
4
70
0
43
0
10
-100
20
7280
10
-600
20
7280
10
-600
20
8190
10
-100
20
8190
0
TEXT
5
2182
330
98
100
AcDbEntity
8
DIM
100
AcDbText
10
-440
20
7735
30
0
40
200
1
910
50
90
7
JP
72
1
11
-440
21
7735
31
0
100
AcDbText
73
2
0
ENDBLK
5
2183
330
98
100
AcDbEntity
8
DIM
100
AcDbBlockEnd
0
BLOCK
5
2190
330
99
100
AcDbEntity
8
DIM
100
AcDbBlockBegin
2
*D26
70
1
10
0
20
0
30
0
3
*D26
1

0
LWPOLYLINE
5
2191
330
99
100
AcDbEntity
8
DIM
100
AcDbPolyline
90
4
70
0
43
0
10
-700
20
0
10
-1600
20
0
10
-1600
20
8190
10
-700
20
8190
0
TEXT
5
2192
330
99
100
AcDbEntity
8
DIM
100
AcDbText
10
-1440
20
4095
30
0
40
200
1
8190
50
90
7
JP
72
1
11
-1440
21
4095
31
0
100
AcDbText
73
2
0
ENDBLK
5
2193
330
99
100
AcDbEntity
8
DIM
100
AcDbBlockEnd
0
BLOCK
5
21A0
330
9A
100
AcDbEntity
8
DIM
100
AcDbBlockBegin
2
*D27
70
1
10
0
20
0
30
0
3
*D27
1

0
LWPOLYLINE
5
21A1
330
9A
100
AcDbEntity
8
DIM
100
AcDbPolyline
90
4
70
0
43
0
10
9200
20
0
10
9700
20
0
10
9700
20
910
10
9200
20
910
0
TEXT
5
21A2
330
9A
100
AcDbEntity
8
DIM
100
AcDbText
10
9540
20
455
30
0
40
200
1
910
50
90
7
JP
72
1
11
9540
21
455
31
0
100
AcDbText
73
2
0
ENDBLK
5
21A3
330
9A
100
AcDbEntity
8
DIM
100
AcDbBlockEnd
0
BLOCK
5
21B0
330
9B
100
AcDbEntity
8
DIM
100
AcDbBlockBegin
2
*D28
70
1
10
0
20
0
30
0
3
*D28
1

0
LWPOLYLINE
5
21B1
330
9B
100
AcDbEntity
8
DIM
100
AcDbPolyline
90
4
70
0
43
0
10
9200
20
910
10
9700
20
910
10
9700
20
1820
10
9200
20
1820
0
TEXT
5
21B2
330
9B
100
AcDbEntity
8
DIM
100
AcDbText
10
9540
20
1365
30
0
40
200
1
910
50
90
7
JP
72
1
11
9540
21
1365
31
0
100
AcDbText
73
2
0
ENDBLK
5
21B3
330
9B
100
AcDbEntity
8
DIM
100
AcDbBlockEnd
0
BLOCK
5
21C0
330
9C
100
AcDbEntity
8
DIM
100
AcDbBlockBegin
2
*D29
70
1
10
0
20
0
30
0
3
*D29
1

0
LWPOLYLINE
5
21C1
330
9C
100
AcDbEntity
8
DIM
100
AcDbPolyline
90
4
70
0
43
0
10
9200
20
1820
10
9700
20
1820
10
9700
20
2730
10
9200
20
2730
0
TEXT
5
21C2
330
9C
100
AcDbEntity
8
DIM
100
AcDbText
10
9540
20
2275
30
0
40
200
1
910
50
90
7
JP
72
1
11
9540
21
2275
31
0
100
AcDbText
73
2
0
ENDBLK
5
21C3
330
9C
100
AcDbEntity
8
DIM
100
AcDbBlockEnd
0
BLOCK
5
21D0
330
9D
100
AcDbEntity
8
DIM
100
AcDbBlockBegin
2
*D30
70
1
10
0
20
0
30
0
3
*D30
1

0
LWPOLYLINE
5
21D1
330
9D
100
AcDbEntity
8
DIM
100
AcDbPolyline
90
4
70
0
43
0
10
9200
20
2730
10
9700
20
2730
10
9700
20
3640
10
9200
20
3640
0
TEXT
5
21D2
330
9D
100
AcDbEntity
8
DIM
100
AcDbText
10
9540
20
3185
30
0
40
200
1
910
50
90
7
JP
72
1
11
9540
21
3185
31
0
100
AcDbText
73
2
0
ENDBLK
5
21D3
330
9D
100
AcDbEntity
8
DIM
100
AcDbBlockEnd
0
BLOCK
5
21E0
330
9E
100
AcDbEntity
8
DIM
100
AcDbBlockBegin
2
*D31
70
1
10
0
20
0
30
0
3
*D31
1

0
LWPOLYLINE
5
21E1
330
9E
100
AcDbEntity
8
DIM
100
AcDbPolyline
90
4
70
0
43
0
10
9200
20
3640
10
9700
20
3640
10
9700
20
4550
10
9200
20
4550
0
TEXT
5
21E2
330
9E
100
AcDbEntity
8
DIM
100
AcDbText
10
9540
20
4095
30
0
40
200
1
910
50
90
7
JP
72
1
11
9540
21
4095
31
0
100
AcDbText
73
2
0
ENDBLK
5
21E3
330
9E
100
AcDbEntity
8
DIM
100
AcDbBlockEnd
0
BLOCK
5
21F0
330
9F
100
AcDbEntity
8
DIM
100
AcDbBlockBegin
2
*D32
70
1
10
0
20
0
30
0
3
*D32
1

0
LWPOLYLINE
5
21F1
330
9F
100
AcDbEntity
8
DIM
100
AcDbPolyline
90
4
70
0
43
0
10
9200
20
4550
10
9700
20
4550
10
9700
20
5460
10
9200
20
5460
0
TEXT
5
21F2
330
9F
100
AcDbEntity
8
DIM
100
AcDbText
10
9540
20
5005
30
0
40
200
1
910
50
90
7
JP
72
1
11
9540
21
5005
31
0
100
AcDbText
73
2
0
ENDBLK
5
21F3
330
9F
100
AcDbEntity
8
DIM
100
AcDbBlockEnd
0
BLOCK
5
2200
330
A0
100
AcDbEntity
8
DIM
100
AcDbBlockBegin
2
*D33
70
1
10
0
20
0
30
0
3
*D33
1

0
LWPOLYLINE
5
2201
330
A0
100
AcDbEntity
8
DIM
100
AcDbPolyline
90
4
70
0
43
0
10
9200
20
5460
10
9700
20
5460
10
9700
20
6370
10
9200
20
6370
0
TEXT
5
2202
330
A0
100
AcDbEntity
8
DIM
100
AcDbText
10
9540
20
5915
30
0
40
200
1
910
50
90
7
JP
72
1
11
9540
21
5915
31
0
100
AcDbText
73
2
0
ENDBLK
5
2203
330
A0
100
AcDbEntity
8
DIM
100
AcDbBlockEnd
0
BLOCK
5
2210
330
A1
100
AcDbEntity
8
DIM
100
AcDbBlockBegin
2
*D34
70
1
10
0
20
0
30
0
3
*D34
1

0
LWPOLYLINE
5
2211
330
A1
100
AcDbEntity
8
DIM
100
AcDbPolyline
90
4
70
0
43
0
10
9800
20
0
10
10700
20
0
10
10700
20
6370
10
9800
20
6370
0
TEXT
5
2212
330
A1
100
AcDbEntity
8
DIM
100
AcDbText
10
10540
20
3185
30
0
40
200
1
6370
50
90
7
JP
72
1
11
10540
21
3185
31
0
100
AcDbText
73
2
0
ENDBLK
5
2213
330
A1
100
AcDbEntity
8
DIM
100
AcDbBlockEnd
0
ENDSEC
0
SECTION
2
ENTITIES
0
LINE
5
4000
330
70
100
AcDbEntity
8
GRID
100
AcDbLine
10
0
20
-3100
30
0
11
0
21
8600
31
0
0
LINE
5
4001
330
70
100
AcDbEntity
8
GRID
100
AcDbLine
10
910
20
-3100
30
0
11
910
21
8600
31
0
0
LINE
5
4002
330
70
100
AcDbEntity
8
GRID
100
AcDbLine
10
1820
20
-3100
30
0
11
1820
21
8600
31
0
0
LINE
5
4003
330
70
100
AcDbEntity
8
GRID
100
AcDbLine
10
2730
20
-3100
30
0
11
2730
21
8600
31
0
0
LINE
5
4004
330
70
100
AcDbEntity
8
GRID
100
AcDbLine
10
3640
20
-3100
30
0
11
3640
21
8600
31
0
0
LINE
5
4005
330
70
100
AcDbEntity
8
GRID
100
AcDbLine
10
4550
20
-3100
30
0
11
4550
21
8600
31
0
0
LINE
5
4006
330
70
100
AcDbEntity
8
GRID
100
AcDbLine
10
5460
20
-3100
30
0
11
5460
21
8600
31
0
0
LINE
5
4007
330
70
100
AcDbEntity
8
GRID
100
AcDbLine
10
6370
20
-3100
30
0
11
6370
21
8600
31
0
0
LINE
5
4008
330
70
100
AcDbEntity
8
GRID
100
AcDbLine
10
7280
20
-3100
30
0
11
7280
21
8600
31
0
0
LINE
5
4009
330
70
100
AcDbEntity
8
GRID
100
AcDbLine
10
8190
20
-3100
30
0
11
8190
21
8600
31
0
0
LINE
5
400A
330
70
100
AcDbEntity
8
GRID
100
AcDbLine
10
9100
20
-3100
30
0
11
9100
21
8600
31
0
0
LINE
5
400B
330
70
100
AcDbEntity
8
GRID
100
AcDbLine
10
-2100
20
0
30
0
11
11200
21
0
31
0
0
LINE
5
400C
330
70
100
AcDbEntity
8
GRID
100
AcDbLine
10
-2100
20
910
30
0
11
11200
21
910
31
0
0
LINE
5
400D
330
70
100
AcDbEntity
8
GRID
100
AcDbLine
10
-2100
20
1820
30
0
11
11200
21
1820
31
0
0
LINE
5
400E
330
70
100
AcDbEntity
8
GRID
100
AcDbLine
10
-2100
20
2730
30
0
11
11200
21
2730
31
0
0
LINE
5
400F
330
70
100
AcDbEntity
8
GRID
100
AcDbLine
10
-2100
20
3640
30
0
11
11200
21
3640
31
0
0
LINE
5
4010
330
70
100
AcDbEntity
8
GRID
100
AcDbLine
10
-2100
20
4550
30
0
11
11200
21
4550
31
0
0
LINE
5
4011
330
70
100
AcDbEntity
8
GRID
100
AcDbLine
10
-2100
20
5460
30
0
11
11200
21
5460
31
0
0
LINE
5
4012
330
70
100
AcDbEntity
8
GRID
100
AcDbLine
10
-2100
20
6370
30
0
11
11200
21
6370
31
0
0
LINE
5
4013
330
70
100
AcDbEntity
8
GRID
100
AcDbLine
10
-2100
20
7280
30
0
11
8600
21
7280
31
0
0
LINE
5
4014
330
70
100
AcDbEntity
8
GRID
100
AcDbLine
10
-2100
20
8190
30
0
11
7700
21
8190
31
0
0
TEXT
5
4020
330
70
100
AcDbEntity
8
GRID
100
AcDbText
10
0
20
-3400
30
0
40
300
1
X1
50
0
7
JP
72
1
11
0
21
-3400
31
0
100
AcDbText
73
2
0
TEXT
5
4021
330
70
100
AcDbEntity
8
GRID
100
AcDbText
10
910
20
-3400
30
0
40
300
1
X2
50
0
7
JP
72
1
11
910
21
-3400
31
0
100
AcDbText
73
2
0
TEXT
5
4022
330
70
100
AcDbEntity
8
GRID
100
AcDbText
10
1820
20
-3400
30
0
40
300
1
X3
50
0
7
JP
72
1
11
1820
21
-3400
31
0
100
AcDbText
73
2
0
TEXT
5
4023
330
70
100
AcDbEntity
8
GRID
100
AcDbText
10
2730
20
-3400
30
0
40
300
1
X4
50
0
7
JP
72
1
11
2730
21
-3400
31
0
100
AcDbText
73
2
0
TEXT
5
4024
330
70
100
AcDbEntity
8
GRID
100
AcDbText
10
3640
20
-3400
30
0
40
300
1
X5
50
0
7
JP
72
1
11
3640
21
-3400
31
0
100
AcDbText
73
2
0
TEXT
5
4025
330
70
100
AcDbEntity
8
GRID
100
AcDbText
10
4550
20
-3400
30
0
40
300
1
X6
50
0
7
JP
72
1
11
4550
21
-3400
31
0
100
AcDbText
73
2
0
TEXT
5
4026
330
70
100
AcDbEntity
8
GRID
100
AcDbText
10
5460
20
-3400
30
0
40
300
1
X7
50
0
7
JP
72
1
11
5460
21
-3400
31
0
100
AcDbText
73
2
0
TEXT
5
4027
330
70
100
AcDbEntity
8
GRID
100
AcDbText
10
6370
20
-3400
30
0
40
300
1
X8
50
0
7
JP
72
1
11
6370
21
-3400
31
0
100
AcDbText
73
2
0
TEXT
5
4028
330
70
100
AcDbEntity
8
GRID
100
AcDbText
10
7280
20
-3400
30
0
40
300
1
X9
50
0
7
JP
72
1
11
7280
21
-3400
31
0
100
AcDbText
73
2
0
TEXT
5
4029
330
70
100
AcDbEntity
8
GRID
100
AcDbText
10
8190
20
-3400
30
0
40
300
1
X10
50
0
7
JP
72
1
11
8190
21
-3400
31
0
100
AcDbText
73
2
0
TEXT
5
402A
330
70
100
AcDbEntity
8
GRID
100
AcDbText
10
9100
20
-3400
30
0
40
300
1
X11
50
0
7
JP
72
1
11
9100
21
-3400
31
0
100
AcDbText
73
2
0
TEXT
5
402B
330
70
100
AcDbEntity
8
GRID
100
AcDbText
10
-2400
20
0
30
0
40
300
1
Y1
50
0
7
JP
72
1
11
-2400
21
0
31
0
100
AcDbText
73
2
0
TEXT
5
402C
330
70
100
AcDbEntity
8
GRID
100
AcDbText
10
-2400
20
910
30
0
40
300
1
Y2
50
0
7
JP
72
1
11
-2400
21
910
31
0
100
AcDbText
73
2
0
TEXT
5
402D
330
70
100
AcDbEntity
8
GRID
100
AcDbText
10
-2400
20
1820
30
0
40
300
1
Y3
50
0
7
JP
72
1
11
-2400
21
1820
31
0
100
AcDbText
73
2
0
TEXT
5
402E
330
70
100
AcDbEntity
8
GRID
100
AcDbText
10
-2400
20
2730
30
0
40
300
1
Y4
50
0
7
JP
72
1
11
-2400
21
2730
31
0
100
AcDbText
73
2
0
TEXT
5
402F
330
70
100
AcDbEntity
8
GRID
100
AcDbText
10
-2400
20
3640
30
0
40
300
1
Y5
50
0
7
JP
72
1
11
-2400
21
3640
31
0
100
AcDbText
73
2
0
TEXT
5
4030
330
70
100
AcDbEntity
8
GRID
100
AcDbText
10
-2400
20
4550
30
0
40
300
1
Y6
50
0
7
JP
72
1
11
-2400
21
4550
31
0
100
AcDbText
73
2
0
TEXT
5
4031
330
70
100
AcDbEntity
8
GRID
100
AcDbText
10
-2400
20
5460
30
0
40
300
1
Y7
50
0
7
JP
72
1
11
-2400
21
5460
31
0
100
AcDbText
73
2
0
TEXT
5
4032
330
70
100
AcDbEntity
8
GRID
100
AcDbText
10
-2400
20
6370
30
0
40
300
1
Y8
50
0
7
JP
72
1
11
-2400
21
6370
31
0
100
AcDbText
73
2
0
TEXT
5
4033
330
70
100
AcDbEntity
8
GRID
100
AcDbText
10
-2400
20
7280
30
0
40
300
1
Y9
50
0
7
JP
72
1
11
-2400
21
7280
31
0
100
AcDbText
73
2
0
TEXT
5
4034
330
70
100
AcDbEntity
8
GRID
100
AcDbText
10
-2400
20
8190
30
0
40
300
1
Y10
50
0
7
JP
72
1
11
-2400
21
8190
31
0
100
AcDbText
73
2
0
LINE
5
4100
330
70
100
AcDbEntity
8
WALL
100
AcDbLine
10
-60
20
-60
30
0
11
455
21
-60
31
0
0
LINE
5
4101
330
70
100
AcDbEntity
8
WALL
100
AcDbLine
10
1365
20
-60
30
0
11
5915
21
-60
31
0
0
LINE
5
4102
330
70
100
AcDbEntity
8
WALL
100
AcDbLine
10
8645
20
-60
30
0
11
9160
21
-60
31
0
0
LINE
5
4103
330
70
100
AcDbEntity
8
WALL
100
AcDbLine
10
60
20
60
30
0
11
455
21
60
31
0
0
LINE
5
4104
330
70
100
AcDbEntity
8
WALL
100
AcDbLine
10
1365
20
60
30
0
11
1760
21
60
31
0
0
LINE
5
4105
330
70
100
AcDbEntity
8
WALL
100
AcDbLine
10
1880
20
60
30
0
11
3580
21
60
31
0
0
LINE
5
4106
330
70
100
AcDbEntity
8
WALL
100
AcDbLine
10
3700
20
60
30
0
11
5400
21
60
31
0
0
LINE
5
4107
330
70
100
AcDbEntity
8
WALL
100
AcDbLine
10
5520
20
60
30
0
11
5915
21
60
31
0
0
LINE
5
4108
330
70
100
AcDbEntity
8
WALL
100
AcDbLine
10
8645
20
60
30
0
11
9040
21
60
31
0
0
LINE
5
4109
330
70
100
AcDbEntity
8
WALL
100
AcDbLine
10
455
20
-60
30
0
11
455
21
60
31
0
0
LINE
5
410A
330
70
100
AcDbEntity
8
WALL
100
AcDbLine
10
1365
20
-60
30
0
11
1365
21
60
31
0
0
LINE
5
410B
330
70
100
AcDbEntity
8
WALL
100
AcDbLine
10
5915
20
-60
30
0
11
5915
21
60
31
0
0
LINE
5
410C
330
70
100
AcDbEntity
8
WALL
100
AcDbLine
10
8645
20
-60
30
0
11
8645
21
60
31
0
0
LINE
5
410D
330
70
100
AcDbEntity
8
WALL
100
AcDbLine
10
9160
20
-60
30
0
11
9160
21
1365
31
0
0
LINE
5
410E
330
70
100
AcDbEntity
8
WALL
100
AcDbLine
10
9160
20
3185
30
0
11
9160
21
6394.8528
31
0
0
LINE
5
410F
330
70
100
AcDbEntity
8
WALL
100
AcDbLine
10
9040
20
60
30
0
11
9040
21
1365
31
0
0
LINE
5
4110
330
70
100
AcDbEntity
8
WALL
100
AcDbLine
10
9040
20
3185
30
0
11
9040
21
4490
31
0
0
LINE
5
4111
330
70
100
AcDbEntity
8
WALL
100
AcDbLine
10
9040
20
4610
30
0
11
9040
21
6345.1472
31
0
0
LINE
5
4112
330
70
100
AcDbEntity
8
WALL
100
AcDbLine
10
9040
20
1365
30
0
11
9160
21
1365
31
0
0
LINE
5
4113
330
70
100
AcDbEntity
8
WALL
100
AcDbLine
10
9040
20
3185
30
0
11
9160
21
3185
31
0
0
LINE
5
4114
330
70
100
AcDbEntity
8
WALL
100
AcDbLine
10
9160
20
6394.8528
30
0
11
8656.6905
21
6898.1623
31
0
0
LINE
5
4115
330
70
100
AcDbEntity
8
WALL
100
AcDbLine
10
7808.1623
20
7746.6905
30
0
11
7304.8528
21
8250
31
0
0
LINE
5
4116
330
70
100
AcDbEntity
8
WALL
100
AcDbLine
10
9040
20
6345.1472
30
0
11
8571.8377
21
6813.3095
31
0
0
LINE
5
4117
330
70
100
AcDbEntity
8
WALL
100
AcDbLine
10
7723.3095
20
7661.8377
30
0
11
7255.1472
21
8130
31
0
0
LINE
5
4118
330
70
100
AcDbEntity
8
WALL
100
AcDbLine
10
8571.8377
20
6813.3095
30
0
11
8656.6905
21
6898.1623
31
0
0
LINE
5
4119
330
70
100
AcDbEntity
8
WALL
100
AcDbLine
10
7723.3095
20
7661.8377
30
0
11
7808.1623
21
7746.6905
31
0
0
LINE
5
411A
330
70
100
AcDbEntity
8
WALL
100
AcDbLine
10
-60
20
8250
30
0
11
2275
21
8250
31
0
0
LINE
5
411B
330
70
100
AcDbEntity
8
WALL
100
AcDbLine
10
5005
20
8250
30
0
11
7304.8528
21
8250
31
0
0
LINE
5
411C
330
70
100
AcDbEntity
8
WALL
100
AcDbLine
10
60
20
8130
30
0
11
2275
21
8130
31
0
0
LINE
5
411D
330
70
100
AcDbEntity
8
WALL
100
AcDbLine
10
5005
20
8130
30
0
11
7255.1472
21
8130
31
0
0
LINE
5
411E
330
70
100
AcDbEntity
8
WALL
100
AcDbLine
10
2275
20
8130
30
0
11
2275
21
8250
31
0
0
LINE
5
411F
330
70
100
AcDbEntity
8
WALL
100
AcDbLine
10
5005
20
8130
30
0
11
5005
21
8250
31
0
0
LINE
5
4120
330
70
100
AcDbEntity
8
WALL
100
AcDbLine
10
-60
20
-60
30
0
11
-60
21
8250
31
0
0
LINE
5
4121
330
70
100
AcDbEntity
8
WALL
100
AcDbLine
10
60
20
60
30
0
11
60
21
1760
31
0
0
LINE
5
4122
330
70
100
AcDbEntity
8
WALL
100
AcDbLine
10
60
20
1880
30
0
11
60
21
2215
31
0
0
LINE
5
4123
330
70
100
AcDbEntity
8
WALL
100
AcDbLine
10
60
20
2335
30
0
11
60
21
4490
31
0
0
LINE
5
4124
330
70
100
AcDbEntity
8
WALL
100
AcDbLine
10
60
20
4610
30
0
11
60
21
8130
31
0
0
LINE
5
4125
330
70
100
AcDbEntity
8
WALL
100
AcDbLine
10
1760
20
60
30
0
11
1760
21
455
31
0
0
LINE
5
4126
330
70
100
AcDbEntity
8
WALL
100
AcDbLine
10
1760
20
1365
30
0
11
1760
21
2215
31
0
0
LINE
5
4127
330
70
100
AcDbEntity
8
WALL
100
AcDbLine
10
1760
20
2335
30
0
11
1760
21
4490
31
0
0
LINE
5
4128
330
70
100
AcDbEntity
8
WALL
100
AcDbLine
10
1880
20
60
30
0
11
1880
21
455
31
0
0
LINE
5
4129
330
70
100
AcDbEntity
8
WALL
100
AcDbLine
10
1880
20
1365
30
0
11
1880
21
2670
31
0
0
LINE
5
412A
330
70
100
AcDbEntity
8
WALL
100
AcDbLine
10
1880
20
2790
30
0
11
1880
21
4490
31
0
0
LINE
5
412B
330
70
100
AcDbEntity
8
WALL
100
AcDbLine
10
1760
20
455
30
0
11
1880
21
455
31
0
0
LINE
5
412C
330
70
100
AcDbEntity
8
WALL
100
AcDbLine
10
1760
20
1365
30
0
11
1880
21
1365
31
0
0
LINE
5
412D
330
70
100
AcDbEntity
8
WALL
100
AcDbLine
10
3580
20
60
30
0
11
3580
21
2670
31
0
0
LINE
5
412E
330
70
100
AcDbEntity
8
WALL
100
AcDbLine
10
3580
20
2790
30
0
11
3580
21
4490
31
0
0
LINE
5
412F
330
70
100
AcDbEntity
8
WALL
100
AcDbLine
10
3700
20
60
30
0
11
3700
21
4490
31
0
0
LINE
5
4130
330
70
100
AcDbEntity
8
WALL
100
AcDbLine
10
5400
20
60
30
0
11
5400
21
1760
31
0
0
LINE
5
4131
330
70
100
AcDbEntity
8
WALL
100
AcDbLine
10
5400
20
1880
30
0
11
5400
21
4490
31
0
0
LINE
5
4132
330
70
100
AcDbEntity
8
WALL
100
AcDbLine
10
5520
20
60
30
0
11
5520
21
4490
31
0
0
LINE
5
4133
330
70
100
AcDbEntity
8
WALL
100
AcDbLine
10
60
20
1760
30
0
11
1760
21
1760
31
0
0
LINE
5
4134
330
70
100
AcDbEntity
8
WALL
100
AcDbLine
10
1880
20
1760
30
0
11
3580
21
1760
31
0
0
LINE
5
4135
330
70
100
AcDbEntity
8
WALL
100
AcDbLine
10
3700
20
1760
30
0
11
5400
21
1760
31
0
0
LINE
5
4136
330
70
100
AcDbEntity
8
WALL
100
AcDbLine
10
60
20
1880
30
0
11
1760
21
1880
31
0
0
LINE
5
4137
330
70
100
AcDbEntity
8
WALL
100
AcDbLine
10
1880
20
1880
30
0
11
3580
21
1880
31
0
0
LINE
5
4138
330
70
100
AcDbEntity
8
WALL
100
AcDbLine
10
3700
20
1880
30
0
11
5400
21
1880
31
0
0
LINE
5
4139
330
70
100
AcDbEntity
8
WALL
100
AcDbLine
10
60
20
2215
30
0
11
1760
21
2215
31
0
0
LINE
5
413A
330
70
100
AcDbEntity
8
WALL
100
AcDbLine
10
60
20
2335
30
0
11
1760
21
2335
31
0
0
LINE
5
413B
330
70
100
AcDbEntity
8
WALL
100
AcDbLine
10
1880
20
2670
30
0
11
3580
21
2670
31
0
0
LINE
5
413C
330
70
100
AcDbEntity
8
WALL
100
AcDbLine
10
1880
20
2790
30
0
11
3580
21
2790
31
0
0
LINE
5
413D
330
70
100
AcDbEntity
8
WALL
100
AcDbLine
10
60
20
4490
30
0
11
455
21
4490
31
0
0
LINE
5
413E
330
70
100
AcDbEntity
8
WALL
100
AcDbLine
10
1365
20
4490
30
0
11
1760
21
4490
31
0
0
LINE
5
413F
330
70
100
AcDbEntity
8
WALL
100
AcDbLine
10
1880
20
4490
30
0
11
3580
21
4490
31
0
0
LINE
5
4140
330
70
100
AcDbEntity
8
WALL
100
AcDbLine
10
3700
20
4490
30
0
11
5400
21
4490
31
0
0
LINE
5
4141
330
70
100
AcDbEntity
8
WALL
100
AcDbLine
10
5520
20
4490
30
0
11
6825
21
4490
31
0
0
LINE
5
4142
330
70
100
AcDbEntity
8
WALL
100
AcDbLine
10
7735
20
4490
30
0
11
9040
21
4490
31
0
0
LINE
5
4143
330
70
100
AcDbEntity
8
WALL
100
AcDbLine
10
60
20
4610
30
0
11
455
21
4610
31
0
0
LINE
5
4144
330
70
100
AcDbEntity
8
WALL
100
AcDbLine
10
1365
20
4610
30
0
11
6825
21
4610
31
0
0
LINE
5
4145
330
70
100
AcDbEntity
8
WALL
100
AcDbLine
10
7735
20
4610
30
0
11
9040
21
4610
31
0
0
LINE
5
4146
330
70
100
AcDbEntity
8
WALL
100
AcDbLine
10
455
20
4490
30
0
11
455
21
4610
31
0
0
LINE
5
4147
330
70
100
AcDbEntity
8
WALL
100
AcDbLine
10
1365
20
4490
30
0
11
1365
21
4610
31
0
0
LINE
5
4148
330
70
100
AcDbEntity
8
WALL
100
AcDbLine
10
6825
20
4490
30
0
11
6825
21
4610
31
0
0
LINE
5
4149
330
70
100
AcDbEntity
8
WALL
100
AcDbLine
10
7735
20
4490
30
0
11
7735
21
4610
31
0
0
LINE
5
4200
330
70
100
AcDbEntity
8
OPENING
100
AcDbLine
10
455
20
0
30
0
11
455
21
910
31
0
0
ARC
5
4201
330
70
100
AcDbEntity
8
OPENING
100
AcDbCircle
10
455
20
0
30
0
40
910
100
AcDbArc
50
0
51
90
0
LINE
5
4202
330
70
100
AcDbEntity
8
OPENING
100
AcDbLine
10
1820
20
455
30
0
11
2730
21
455
31
0
0
ARC
5
4203
330
70
100
AcDbEntity
8
OPENING
100
AcDbCircle
10
1820
20
455
30
0
40
910
100
AcDbArc
50
0
51
90
0
LINE
5
4204
330
70
100
AcDbEntity
8
OPENING
100
AcDbLine
10
455
20
4550
30
0
11
455
21
3640
31
0
0
ARC
5
4205
330
70
100
AcDbEntity
8
OPENING
100
AcDbCircle
10
455
20
4550
30
0
40
910
100
AcDbArc
50
270
51
360
0
LINE
5
4206
330
70
100
AcDbEntity
8
OPENING
100
AcDbLine
10
6825
20
4550
30
0
11
6825
21
5460
31
0
0
ARC
5
4207
330
70
100
AcDbEntity
8
OPENING
100
AcDbCircle
10
6825
20
4550
30
0
40
910
100
AcDbArc
50
0
51
90
0
LINE
5
4208
330
70
100
AcDbEntity
8
OPENING
100
AcDbLine
10
5915
20
-20
30
0
11
8645
21
-20
31
0
0
LINE
5
4209
330
70
100
AcDbEntity
8
OPENING
100
AcDbLine
10
5915
20
20
30
0
11
8645
21
20
31
0
0
LINE
5
420A
330
70
100
AcDbEntity
8
OPENING
100
AcDbLine
10
9080
20
1365
30
0
11
9080
21
3185
31
0
0
LINE
5
420B
330
70
100
AcDbEntity
8
OPENING
100
AcDbLine
10
9120
20
1365
30
0
11
9120
21
3185
31
0
0
LINE
5
420C
330
70
100
AcDbEntity
8
OPENING
100
AcDbLine
10
8628.4062
20
6869.8780
30
0
11
7779.8780
21
7718.4062
31
0
0
LINE
5
420D
330
70
100
AcDbEntity
8
OPENING
100
AcDbLine
10
8600.1220
20
6841.5938
30
0
11
7751.5938
21
7690.1220
31
0
0
LINE
5
420E
330
70
100
AcDbEntity
8
OPENING
100
AcDbLine
10
2275
20
8170
30
0
11
5005
21
8170
31
0
0
LINE
5
420F
330
70
100
AcDbEntity
8
OPENING
100
AcDbLine
10
2275
20
8210
30
0
11
5005
21
8210
31
0
0
TEXT
5
4220
330
70
100
AcDbEntity
8
OPENING
100
AcDbText
10
1250
20
250
30
0
40
200
1
D1
50
0
7
JP
72
1
11
1250
21
250
31
0
100
AcDbText
73
2
0
TEXT
5
4221
330
70
100
AcDbEntity
8
OPENING
100
AcDbText
10
1450
20
910
30
0
40
200
1
D2
50
0
7
JP
72
1
11
1450
21
910
31
0
100
AcDbText
73
2
0
TEXT
5
4222
330
70
100
AcDbEntity
8
OPENING
100
AcDbText
10
910
20
4850
30
0
40
200
1
D3
50
0
7
JP
72
1
11
910
21
4850
31
0
100
AcDbText
73
2
0
TEXT
5
4223
330
70
100
AcDbEntity
8
OPENING
100
AcDbText
10
7280
20
4250
30
0
40
200
1
D4
50
0
7
JP
72
1
11
7280
21
4250
31
0
100
AcDbText
73
2
0
TEXT
5
4224
330
70
100
AcDbEntity
8
OPENING
100
AcDbText
10
7280
20
300
30
0
40
200
1
W1
50
0
7
JP
72
1
11
7280
21
300
31
0
100
AcDbText
73
2
0
TEXT
5
4225
330
70
100
AcDbEntity
8
OPENING
100
AcDbText
10
8700
20
2275
30
0
40
200
1
W2
50
0
7
JP
72
1
11
8700
21
2275
31
0
100
AcDbText
73
2
0
TEXT
5
4226
330
70
100
AcDbEntity
8
OPENING
100
AcDbText
10
8437
20
7527
30
0
40
200
1
W3
50
0
7
JP
72
1
11
8437
21
7527
31
0
100
AcDbText
73
2
0
TEXT
5
4227
330
70
100
AcDbEntity
8
OPENING
100
AcDbText
10
3640
20
7850
30
0
40
200
1
W4
50
0
7
JP
72
1
11
3640
21
7850
31
0
100
AcDbText
73
2
0
LINE
5
4240
330
70
100
AcDbEntity
8
STAIR
100
AcDbLine
10
3700
20
160
30
0
11
4500
21
160
31
0
0
LINE
5
4241
330
70
100
AcDbEntity
8
STAIR
100
AcDbLine
10
3700
20
320
30
0
11
4500
21
320
31
0
0
LINE
5
4242
330
70
100
AcDbEntity
8
STAIR
100
AcDbLine
10
3700
20
480
30
0
11
4500
21
480
31
0
0
LINE
5
4243
330
70
100
AcDbEntity
8
STAIR
100
AcDbLine
10
3700
20
640
30
0
11
4500
21
640
31
0
0
LINE
5
4244
330
70
100
AcDbEntity
8
STAIR
100
AcDbLine
10
3700
20
800
30
0
11
4500
21
800
31
0
0
LINE
5
4245
330
70
100
AcDbEntity
8
STAIR
100
AcDbLine
10
3700
20
960
30
0
11
4500
21
960
31
0
0
LINE
5
4246
330
70
100
AcDbEntity
8
STAIR
100
AcDbLine
10
3700
20
1120
30
0
11
4500
21
1120
31
0
0
LINE
5
4247
330
70
100
AcDbEntity
8
STAIR
100
AcDbLine
10
3700
20
1280
30
0
11
4500
21
1280
31
0
0
LINE
5
4248
330
70
100
AcDbEntity
8
STAIR
100
AcDbLine
10
4600
20
1120
30
0
11
5400
21
1120
31
0
0
LINE
5
4249
330
70
100
AcDbEntity
8
STAIR
100
AcDbLine
10
4600
20
960
30
0
11
5400
21
960
31
0
0
LINE
5
424A
330
70
100
AcDbEntity
8
STAIR
100
AcDbLine
10
4600
20
800
30
0
11
5400
21
800
31
0
0
LINE
5
424B
330
70
100
AcDbEntity
8
STAIR
100
AcDbLine
10
4600
20
640
30
0
11
5400
21
640
31
0
0
LINE
5
424C
330
70
100
AcDbEntity
8
STAIR
100
AcDbLine
10
4600
20
480
30
0
11
5400
21
480
31
0
0
LINE
5
424D
330
70
100
AcDbEntity
8
STAIR
100
AcDbLine
10
4600
20
320
30
0
11
5400
21
320
31
0
0
LINE
5
424E
330
70
100
AcDbEntity
8
STAIR
100
AcDbLine
10
4600
20
160
30
0
11
5400
21
160
31
0
0
LINE
5
424F
330
70
100
AcDbEntity
8
STAIR
100
AcDbLine
10
4500
20
60
30
0
11
4500
21
1280
31
0
0
LINE
5
4250
330
70
100
AcDbEntity
8
STAIR
100
AcDbLine
10
4600
20
60
30
0
11
4600
21
1280
31
0
0
TEXT
5
4260
330
70
100
AcDbEntity
8
ROOM
100
AcDbText
10
910
20
1010
30
0
40
250
1
玄関
50
0
7
JP
72
1
11
910
21
1010
31
0
100
AcDbText
73
2
0
TEXT
5
4261
330
70
100
AcDbEntity
8
ROOM
100
AcDbText
10
910
20
650
30
0
40
200
1
3.31 m²
50
0
7
JP
72
1
11
910
21
650
31
0
100
AcDbText
73
2
0
TEXT
5
4262
330
70
100
AcDbEntity
8
ROOM
100
AcDbText
10
910
20
2115
30
0
40
170
1
収納
50
0
7
JP
72
1
11
910
21
2115
31
0
100
AcDbText
73
2
0
TEXT
5
4263
330
70
100
AcDbEntity
8
ROOM
100
AcDbText
10
910
20
1950
30
0
40
150
1
0.83 m²
50
0
7
JP
72
1
11
910
21
1950
31
0
100
AcDbText
73
2
0
TEXT
5
4264
330
70
100
AcDbEntity
8
ROOM
100
AcDbText
10
910
20
3550
30
0
40
250
1
洗面脱衣
50
0
7
JP
72
1
11
910
21
3550
31
0
100
AcDbText
73
2
0
TEXT
5
4265
330
70
100
AcDbEntity
8
ROOM
100
AcDbText
10
910
20
3250
30
0
40
200
1
4.14 m²
50
0
7
JP
72
1
11
910
21
3250
31
0
100
AcDbText
73
2
0
TEXT
5
4266
330
70
100
AcDbEntity
8
ROOM
100
AcDbText
10
2730
20
1010
30
0
40
250
1
ホール
50
0
7
JP
72
1
11
2730
21
1010
31
0
100
AcDbText
73
2
0
TEXT
5
4267
330
70
100
AcDbEntity
8
ROOM
100
AcDbText
10
2730
20
700
30
0
40
200
1
3.31 m²
50
0
7
JP
72
1
11
2730
21
700
31
0
100
AcDbText
73
2
0
TEXT
5
4268
330
70
100
AcDbEntity
8
ROOM
100
AcDbText
10
2730
20
2380
30
0
40
220
1
便所
50
0
7
JP
72
1
11
2730
21
2380
31
0
100
AcDbText
73
2
0
TEXT
5
4269
330
70
100
AcDbEntity
8
ROOM
100
AcDbText
10
2730
20
2140
30
0
40
180
1
1.66 m²
50
0
7
JP
72
1
11
2730
21
2140
31
0
100
AcDbText
73
2
0
TEXT
5
426A
330
70
100
AcDbEntity
8
ROOM
100
AcDbText
10
2730
20
3740
30
0
40
250
1
浴室
50
0
7
JP
72
1
11
2730
21
3740
31
0
100
AcDbText
73
2
0
TEXT
5
426B
330
70
100
AcDbEntity
8
ROOM
100
AcDbText
10
2730
20
3450
30
0
40
200
1
3.31 m²
50
0
7
JP
72
1
11
2730
21
3450
31
0
100
AcDbText
73
2
0
TEXT
5
426C
330
70
100
AcDbEntity
8
ROOM
100
AcDbText
10
4550
20
1560
30
0
40
180
1
階段
50
0
7
JP
72
1
11
4550
21
1560
31
0
100
AcDbText
73
2
0
TEXT
5
426D
330
70
100
AcDbEntity
8
ROOM
100
AcDbText
10
4550
20
1350
30
0
40
160
1
3.31 m²
50
0
7
JP
72
1
11
4550
21
1350
31
0
100
AcDbText
73
2
0
TEXT
5
426E
330
70
100
AcDbEntity
8
ROOM
100
AcDbText
10
4550
20
3300
30
0
40
250
1
納戸
50
0
7
JP
72
1
11
4550
21
3300
31
0
100
AcDbText
73
2
0
TEXT
5
426F
330
70
100
AcDbEntity
8
ROOM
100
AcDbText
10
4550
20
3020
30
0
40
200
1
4.97 m²
50
0
7
JP
72
1
11
4550
21
3020
31
0
100
AcDbText
73
2
0
TEXT
5
4270
330
70
100
AcDbEntity
8
ROOM
100
AcDbText
10
7280
20
2450
30
0
40
300
1
和室
50
0
7
JP
72
1
11
7280
21
2450
31
0
100
AcDbText
73
2
0
TEXT
5
4271
330
70
100
AcDbEntity
8
ROOM
100
AcDbText
10
7280
20
2100
30
0
40
250
1
16.56 m²
50
0
7
JP
72
1
11
7280
21
2100
31
0
100
AcDbText
73
2
0
TEXT
5
4272
330
70
100
AcDbEntity
8
ROOM
100
AcDbText
10
4200
20
6500
30
0
40
300
1
LDK
50
0
7
JP
72
1
11
4200
21
6500
31
0
100
AcDbText
73
2
0
TEXT
5
4273
330
70
100
AcDbEntity
8
ROOM
100
AcDbText
10
4200
20
6150
30
0
40
250
1
31.47 m²
50
0
7
JP
72
1
11
4200
21
6150
31
0
100
AcDbText
73
2
0
TEXT
5
4280
330
70
100
AcDbEntity
8
TEXT
100
AcDbText
10
4550
20
-4000
30
0
40
350
1
床面積合計 72.87 m²
50
0
7
JP
72
1
11
4550
21
-4000
31
0
100
AcDbText
73
2
0
DIMENSION
5
3000
330
70
100
AcDbEntity
8
DIM
100
AcDbDimension
2
*D1
10
455
20
-600
30
0
11
227.5
21
-440
31
0
70
32
71
5
3
Standard
100
AcDbAlignedDimension
13
0
23
0
33
0
14
455
24
0
34
0
50
0
100
AcDbRotatedDimension
0
DIMENSION
5
3001
330
70
100
AcDbEntity
8
DIM
100
AcDbDimension
2
*D2
10
1365
20
-600
30
0
11
910
21
-440
31
0
70
32
71
5
3
Standard
100
AcDbAlignedDimension
13
455
23
0
33
0
14
1365
24
0
34
0
50
0
100
AcDbRotatedDimension
0
DIMENSION
5
3002
330
70
100
AcDbEntity
8
DIM
100
AcDbDimension
2
*D3
10
5915
20
-600
30
0
11
3640
21
-440
31
0
70
32
71
5
3
Standard
100
AcDbAlignedDimension
13
1365
23
0
33
0
14
5915
24
0
34
0
50
0
100
AcDbRotatedDimension
0
DIMENSION
5
3003
330
70
100
AcDbEntity
8
DIM
100
AcDbDimension
2
*D4
10
8645
20
-600
30
0
11
7280
21
-440
31
0
70
32
71
5
3
Standard
100
AcDbAlignedDimension
13
5915
23
0
33
0
14
8645
24
0
34
0
50
0
100
AcDbRotatedDimension
0
DIMENSION
5
3004
330
70
100
AcDbEntity
8
DIM
100
AcDbDimension
2
*D5
10
9100
20
-600
30
0
11
8872.5
21
-440
31
0
70
32
71
5
3
Standard
100
AcDbAlignedDimension
13
8645
23
0
33
0
14
9100
24
0
34
0
50
0
100
AcDbRotatedDimension
0
DIMENSION
5
3005
330
70
100
AcDbEntity
8
DIM
100
AcDbDimension
2
*D6
10
910
20
-1600
30
0
11
455
21
-1440
31
0
70
32
71
5
3
Standard
100
AcDbAlignedDimension
13
0
23
0
33
0
14
910
24
0
34
0
50
0
100
AcDbRotatedDimension
0
DIMENSION
5
3006
330
70
100
AcDbEntity
8
DIM
100
AcDbDimension
2
*D7
10
1820
20
-1600
30
0
11
1365
21
-1440
31
0
70
32
71
5
3
Standard
100
AcDbAlignedDimension
13
910
23
0
33
0
14
1820
24
0
34
0
50
0
100
AcDbRotatedDimension
0
DIMENSION
5
3007
330
70
100
AcDbEntity
8
DIM
100
AcDbDimension
2
*D8
10
2730
20
-1600
30
0
11
2275
21
-1440
31
0
70
32
71
5
3
Standard
100
AcDbAlignedDimension
13
1820
23
0
33
0
14
2730
24
0
34
0
50
0
100
AcDbRotatedDimension
0
DIMENSION
5
3008
330
70
100
AcDbEntity
8
DIM
100
AcDbDimension
2
*D9
10
3640
20
-1600
30
0
11
3185
21
-1440
31
0
70
32
71
5
3
Standard
100
AcDbAlignedDimension
13
2730
23
0
33
0
14
3640
24
0
34
0
50
0
100
AcDbRotatedDimension
0
DIMENSION
5
3009
330
70
100
AcDbEntity
8
DIM
100
AcDbDimension
2
*D10
10
4550
20
-1600
30
0
11
4095
21
-1440
31
0
70
32
71
5
3
Standard
100
AcDbAlignedDimension
13
3640
23
0
33
0
14
4550
24
0
34
0
50
0
100
AcDbRotatedDimension
0
DIMENSION
5
300A
330
70
100
AcDbEntity
8
DIM
100
AcDbDimension
2
*D11
10
5460
20
-1600
30
0
11
5005
21
-1440
31
0
70
32
71
5
3
Standard
100
AcDbAlignedDimension
13
4550
23
0
33
0
14
5460
24
0
34
0
50
0
100
AcDbRotatedDimension
0
DIMENSION
5
300B
330
70
100
AcDbEntity
8
DIM
100
AcDbDimension
2
*D12
10
6370
20
-1600
30
0
11
5915
21
-1440
31
0
70
32
71
5
3
Standard
100
AcDbAlignedDimension
13
5460
23
0
33
0
14
6370
24
0
34
0
50
0
100
AcDbRotatedDimension
0
DIMENSION
5
300C
330
70
100
AcDbEntity
8
DIM
100
AcDbDimension
2
*D13
10
7280
20
-1600
30
0
11
6825
21
-1440
31
0
70
32
71
5
3
Standard
100
AcDbAlignedDimension
13
6370
23
0
33
0
14
7280
24
0
34
0
50
0
100
AcDbRotatedDimension
0
DIMENSION
5
300D
330
70
100
AcDbEntity
8
DIM
100
AcDbDimension
2
*D14
10
8190
20
-1600
30
0
11
7735
21
-1440
31
0
70
32
71
5
3
Standard
100
AcDbAlignedDimension
13
7280
23
0
33
0
14
8190
24
0
34
0
50
0
100
AcDbRotatedDimension
0
DIMENSION
5
300E
330
70
100
AcDbEntity
8
DIM
100
AcDbDimension
2
*D15
10
9100
20
-1600
30
0
11
8645
21
-1440
31
0
70
32
71
5
3
Standard
100
AcDbAlignedDimension
13
8190
23
0
33
0
14
9100
24
0
34
0
50
0
100
AcDbRotatedDimension
0
DIMENSION
5
300F
330
70
100
AcDbEntity
8
DIM
100
AcDbDimension
2
*D16
10
9100
20
-2600
30
0
11
4550
21
-2440
31
0
70
32
71
5
3
Standard
100
AcDbAlignedDimension
13
0
23
0
33
0
14
9100
24
0
34
0
50
0
100
AcDbRotatedDimension
0
DIMENSION
5
3010
330
70
100
AcDbEntity
8
DIM
100
AcDbDimension
2
*D17
10
-600
20
910
30
0
11
-440
21
455
31
0
70
32
71
5
3
Standard
100
AcDbAlignedDimension
13
0
23
0
33
0
14
0
24
910
34
0
50
90
100
AcDbRotatedDimension
0
DIMENSION
5
3011
330
70
100
AcDbEntity
8
DIM
100
AcDbDimension
2
*D18
10
-600
20
1820
30
0
11
-440
21
1365
31
0
70
32
71
5
3
Standard
100
AcDbAlignedDimension
13
0
23
910
33
0
14
0
24
1820
34
0
50
90
100
AcDbRotatedDimension
0
DIMENSION
5
3012
330
70
100
AcDbEntity
8
DIM
100
AcDbDimension
2
*D19
10
-600
20
2730
30
0
11
-440
21
2275
31
0
70
32
71
5
3
Standard
100
AcDbAlignedDimension
13
0
23
1820
33
0
14
0
24
2730
34
0
50
90
100
AcDbRotatedDimension
0
DIMENSION
5
3013
330
70
100
AcDbEntity
8
DIM
100
AcDbDimension
2
*D20
10
-600
20
3640
30
0
11
-440
21
3185
31
0
70
32
71
5
3
Standard
100
AcDbAlignedDimension
13
0
23
2730
33
0
14
0
24
3640
34
0
50
90
100
AcDbRotatedDimension
0
DIMENSION
5
3014
330
70
100
AcDbEntity
8
DIM
100
AcDbDimension
2
*D21
10
-600
20
4550
30
0
11
-440
21
4095
31
0
70
32
71
5
3
Standard
100
AcDbAlignedDimension
13
0
23
3640
33
0
14
0
24
4550
34
0
50
90
100
AcDbRotatedDimension
0
DIMENSION
5
3015
330
70
100
AcDbEntity
8
DIM
100
AcDbDimension
2
*D22
10
-600
20
5460
30
0
11
-440
21
5005
31
0
70
32
71
5
3
Standard
100
AcDbAlignedDimension
13
0
23
4550
33
0
14
0
24
5460
34
0
50
90
100
AcDbRotatedDimension
0
DIMENSION
5
3016
330
70
100
AcDbEntity
8
DIM
100
AcDbDimension
2
*D23
10
-600
20
6370
30
0
11
-440
21
5915
31
0
70
32
71
5
3
Standard
100
AcDbAlignedDimension
13
0
23
5460
33
0
14
0
24
6370
34
0
50
90
100
AcDbRotatedDimension
0
DIMENSION
5
3017
330
70
100
AcDbEntity
8
DIM
100
AcDbDimension
2
*D24
10
-600
20
7280
30
0
11
-440
21
6825
31
0
70
32
71
5
3
Standard
100
AcDbAlignedDimension
13
0
23
6370
33
0
14
0
24
7280
34
0
50
90
100
AcDbRotatedDimension
0
DIMENSION
5
3018
330
70
100
AcDbEntity
8
DIM
100
AcDbDimension
2
*D25
10
-600
20
8190
30
0
11
-440
21
7735
31
0
70
32
71
5
3
Standard
100
AcDbAlignedDimension
13
0
23
7280
33
0
14
0
24
8190
34
0
50
90
100
AcDbRotatedDimension
0
DIMENSION
5
3019
330
70
100
AcDbEntity
8
DIM
100
AcDbDimension
2
*D26
10
-1600
20
8190
30
0
11
-1440
21
4095
31
0
70
32
71
5
3
Standard
100
AcDbAlignedDimension
13
0
23
0
33
0
14
0
24
8190
34
0
50
90
100
AcDbRotatedDimension
0
DIMENSION
5
301A
330
70
100
AcDbEntity
8
DIM
100
AcDbDimension
2
*D27
10
9700
20
910
30
0
11
9540
21
455
31
0
70
32
71
5
3
Standard
100
AcDbAlignedDimension
13
9100
23
0
33
0
14
9100
24
910
34
0
50
90
100
AcDbRotatedDimension
0
DIMENSION
5
301B
330
70
100
AcDbEntity
8
DIM
100
AcDbDimension
2
*D28
10
9700
20
1820
30
0
11
9540
21
1365
31
0
70
32
71
5
3
Standard
100
AcDbAlignedDimension
13
9100
23
910
33
0
14
9100
24
1820
34
0
50
90
100
AcDbRotatedDimension
0
DIMENSION
5
301C
330
70
100
AcDbEntity
8
DIM
100
AcDbDimension
2
*D29
10
9700
20
2730
30
0
11
9540
21
2275
31
0
70
32
71
5
3
Standard
100
AcDbAlignedDimension
13
9100
23
1820
33
0
14
9100
24
2730
34
0
50
90
100
AcDbRotatedDimension
0
DIMENSION
5
301D
330
70
100
AcDbEntity
8
DIM
100
AcDbDimension
2
*D30
10
9700
20
3640
30
0
11
9540
21
3185
31
0
70
32
71
5
3
Standard
100
AcDbAlignedDimension
13
9100
23
2730
33
0
14
9100
24
3640
34
0
50
90
100
AcDbRotatedDimension
0
DIMENSION
5
301E
330
70
100
AcDbEntity
8
DIM
100
AcDbDimension
2
*D31
10
9700
20
4550
30
0
11
9540
21
4095
31
0
70
32
71
5
3
Standard
100
AcDbAlignedDimension
13
9100
23
3640
33
0
14
9100
24
4550
34
0
50
90
100
AcDbRotatedDimension
0
DIMENSION
5
301F
330
70
100
AcDbEntity
8
DIM
100
AcDbDimension
2
*D32
10
9700
20
5460
30
0
11
9540
21
5005
31
0
70
32
71
5
3
Standard
100
AcDbAlignedDimension
13
9100
23
4550
33
0
14
9100
24
5460
34
0
50
90
100
AcDbRotatedDimension
0
DIMENSION
5
3020
330
70
100
AcDbEntity
8
DIM
100
AcDbDimension
2
*D33
10
9700
20
6370
30
0
11
9540
21
5915
31
0
70
32
71
5
3
Standard
100
AcDbAlignedDimension
13
9100
23
5460
33
0
14
9100
24
6370
34
0
50
90
100
AcDbRotatedDimension
0
DIMENSION
5
3021
330
70
100
AcDbEntity
8
DIM
100
AcDbDimension
2
*D34
10
10700
20
6370
30
0
11
10540
21
3185
31
0
70
32
71
5
3
Standard
100
AcDbAlignedDimension
13
9100
23
0
33
0
14
9100
24
6370
34
0
50
90
100
AcDbRotatedDimension
0
ENDSEC
0
SECTION
2
OBJECTS
0
DICTIONARY
5
E0
330
0
100
AcDbDictionary
281
1
3
ACAD_GROUP
350
E1
3
ACAD_LAYOUT
350
E2
0
DICTIONARY
5
E1
330
E0
100
AcDbDictionary
281
1
0
DICTIONARY
5
E2
330
E0
100
AcDbDictionary
281
1
3
Model
350
F0
3
Layout1
350
F1
0
LAYOUT
5
F0
330
E2
100
AcDbPlotSettings
1

2
none_device
4

6

40
0
41
0
42
0
43
0
44
0
45
0
46
0
47
0
48
0
49
0
140
0
141
0
142
1
143
1
70
688
72
0
73
0
74
0
7

75
0
147
1
148
0
149
0
100
AcDbLayout
1
Model
70
1
71
0
10
0
20
0
11
12
21
9
12
0
22
0
32
0
14
0
24
0
34
0
15
0
25
0
35
0
146
0
13
0
23
0
33
0
16
1
26
0
36
0
17
0
27
1
37
0
76
0
330
70
0
LAYOUT
5
F1
330
E2
100
AcDbPlotSettings
1

2
none_device
4

6

40
0
41
0
42
0
43
0
44
0
45
0
46
0
47
0
48
0
49
0
140
0
141
0
142
1
143
1
70
688
72
0
73
0
74
0
7

75
0
147
1
148
0
149
0
100
AcDbLayout
1
Layout1
70
1
71
1
10
0
20
0
11
420
21
297
12
0
22
0
32
0
14
0
24
0
34
0
15
0
25
0
35
0
146
0
13
0
23
0
33
0
16
1
26
0
36
0
17
0
27
1
37
0
76
0
330
71
0
ENDSEC
0
EOF

