999
1F Plan - T004
0
SECTION
2
HEADER
9
$ACADVER
1
AC1021
9
$DWGCODEPAGE
3
ANSI_1252
9
$INSBASE
10
0.0
20
0.0
30
0.0
9
$EXTMIN
10
-3000.0
20
-3000.0
30
0.0
9
$EXTMAX
10
11500.0
20
9800.0
30
0.0
9
$LIMMIN
10
-3000.0
20
-3000.0
9
$LIMMAX
10
11500.0
20
9800.0
9
$INSUNITS
70
4
9
$MEASUREMENT
70
1
9
$LUNITS
70
2
9
$LUPREC
70
2
9
$AUNITS
70
0
9
$AUPREC
70
2
9
$PDMODE
70
0
9
$PDSIZE
40
0.0
9
$LTSCALE
40
100.0
9
$CELTYPE
6
ByLayer
9
$CECOLOR
62
256
9
$CLAYER
8
0
9
$TEXTSTYLE
7
Standard
9
$TEXTSIZE
40
200.0
9
$DIMSTYLE
2
Standard
9
$DIMSCALE
40
100.0
9
$DIMTXT
40
2.5
9
$DIMASZ
40
2.5
9
$DIMEXE
40
1.25
9
$DIMEXO
40
0.625
9
$DIMDEC
70
0
9
$DIMTAD
70
1
9
$HANDSEED
5
FFFFFF
0
ENDSEC
0
SECTION
2
TABLES
0
TABLE
2
VPORT
5
80
330
0
100
AcDbSymbolTable
70
1
0
VPORT
5
81
330
80
100
AcDbSymbolTableRecord
100
AcDbViewportTableRecord
2
*Active
70
0
10
0.0
20
0.0
11
1.0
21
1.0
12
4550.0
22
4000.0
13
0.0
23
0.0
14
910.0
24
910.0
15
0.0
25
0.0
16
0.0
26
0.0
36
1.0
17
0.0
27
0.0
37
0.0
40
12000.0
41
1.5
42
50.0
43
0.0
44
0.0
50
0.0
51
0.0
71
0
72
100
73
1
74
3
75
0
76
0
77
0
78
0
0
ENDTAB
0
TABLE
2
LTYPE
5
82
330
0
100
AcDbSymbolTable
70
3
0
LTYPE
5
83
330
82
100
AcDbSymbolTableRecord
100
AcDbLinetypeTableRecord
2
ByBlock
70
0
3

72
65
73
0
40
0.0
0
LTYPE
5
84
330
82
100
AcDbSymbolTableRecord
100
AcDbLinetypeTableRecord
2
ByLayer
70
0
3

72
65
73
0
40
0.0
0
LTYPE
5
85
330
82
100
AcDbSymbolTableRecord
100
AcDbLinetypeTableRecord
2
Continuous
70
0
3
Solid line
72
65
73
0
40
0.0
0
ENDTAB
0
TABLE
2
LAYER
5
86
330
0
100
AcDbSymbolTable
70
8
0
LAYER
5
87
330
86
100
AcDbSymbolTableRecord
100
AcDbLayerTableRecord
2
0
70
0
62
7
6
Continuous
370
-3
0
LAYER
5
88
330
86
100
AcDbSymbolTableRecord
100
AcDbLayerTableRecord
2
GRID
70
0
62
8
6
Continuous
370
-3
0
LAYER
5
89
330
86
100
AcDbSymbolTableRecord
100
AcDbLayerTableRecord
2
WALL
70
0
62
7
6
Continuous
370
-3
0
LAYER
5
90
330
86
100
AcDbSymbolTableRecord
100
AcDbLayerTableRecord
2
OPENING
70
0
62
3
6
Continuous
370
-3
0
LAYER
5
91
330
86
100
AcDbSymbolTableRecord
100
AcDbLayerTableRecord
2
DIM
70
0
62
6
6
Continuous
370
-3
0
LAYER
5
92
330
86
100
AcDbSymbolTableRecord
100
AcDbLayerTableRecord
2
ROOM
70
0
62
4
6
Continuous
370
-3
0
LAYER
5
93
330
86
100
AcDbSymbolTableRecord
100
AcDbLayerTableRecord
2
TEXT
70
0
62
2
6
Continuous
370
-3
0
LAYER
5
94
330
86
100
AcDbSymbolTableRecord
100
AcDbLayerTableRecord
2
STAIR
70
0
62
5
6
Continuous
370
-3
0
ENDTAB
0
TABLE
2
STYLE
5
96
330
0
100
AcDbSymbolTable
70
1
0
STYLE
5
97
330
96
100
AcDbSymbolTableRecord
100
AcDbTextStyleTableRecord
2
Standard
70
0
40
0.0
41
1.0
50
0.0
71
0
42
2.5
3
msgothic.ttc
4

0
ENDTAB
0
TABLE
2
VIEW
5
98
330
0
100
AcDbSymbolTable
70
0
0
ENDTAB
0
TABLE
2
UCS
5
99
330
0
100
AcDbSymbolTable
70
0
0
ENDTAB
0
TABLE
2
APPID
5
100
330
0
100
AcDbSymbolTable
70
1
0
APPID
5
101
330
100
100
AcDbSymbolTableRecord
100
AcDbRegAppTableRecord
2
ACAD
70
0
0
ENDTAB
0
TABLE
2
DIMSTYLE
5
102
330
0
100
AcDbSymbolTable
70
1
100
AcDbDimStyleTable
71
1
0
DIMSTYLE
105
103
330
102
100
AcDbSymbolTableRecord
100
AcDbDimStyleTableRecord
2
Standard
70
0
40
100.0
41
2.5
42
0.625
43
3.75
44
1.25
73
0
74
0
77
1
78
8
140
2.5
141
2.5
147
0.625
171
3
172
1
271
0
272
0
274
3
340
97
0
ENDTAB
0
TABLE
2
BLOCK_RECORD
5
104
330
0
100
AcDbSymbolTable
70
3
0
BLOCK_RECORD
5
105
330
104
100
AcDbSymbolTableRecord
100
AcDbBlockTableRecord
2
*Model_Space
70
0
280
1
281
0
0
BLOCK_RECORD
5
106
330
104
100
AcDbSymbolTableRecord
100
AcDbBlockTableRecord
2
*Paper_Space
70
0
280
1
281
0
0
BLOCK_RECORD
5
107
330
104
100
AcDbSymbolTableRecord
100
AcDbBlockTableRecord
2
*D1
70
0
280
1
281
0
0
ENDTAB
0
ENDSEC
0
SECTION
2
BLOCKS
0
BLOCK
5
200
330
105
100
AcDbEntity
8
0
100
AcDbBlockBegin
2
*Model_Space
70
0
10
0.0
20
0.0
30
0.0
3
*Model_Space
1

0
ENDBLK
5
201
330
105
100
AcDbEntity
8
0
100
AcDbBlockEnd
0
BLOCK
5
202
330
106
67
1
100
AcDbEntity
8
0
100
AcDbBlockBegin
2
*Paper_Space
70
0
10
0.0
20
0.0
30
0.0
3
*Paper_Space
1

0
ENDBLK
5
203
330
106
67
1
100
AcDbEntity
8
0
100
AcDbBlockEnd
0
BLOCK
5
204
330
107
100
AcDbEntity
8
0
100
AcDbBlockBegin
2
*D1
70
1
10
0.0
20
0.0
30
0.0
3
*D1
1

0
ENDBLK
5
205
330
107
100
AcDbEntity
8
0
100
AcDbBlockEnd
0
ENDSEC
0
SECTION
2
ENTITIES
0
LINE
5
1000
330
105
100
AcDbEntity
8
GRID
100
AcDbLine
10
0.0
20
-250.0
30
0.0
11
0.0
21
8600.0
31
0.0
0
LINE
5
1001
330
105
100
AcDbEntity
8
GRID
100
AcDbLine
10
910.0
20
-250.0
30
0.0
11
910.0
21
8600.0
31
0.0
0
LINE
5
1002
330
105
100
AcDbEntity
8
GRID
100
AcDbLine
10
1820.0
20
-250.0
30
0.0
11
1820.0
21
8600.0
31
0.0
0
LINE
5
1003
330
105
100
AcDbEntity
8
GRID
100
AcDbLine
10
2730.0
20
-250.0
30
0.0
11
2730.0
21
8600.0
31
0.0
0
LINE
5
1004
330
105
100
AcDbEntity
8
GRID
100
AcDbLine
10
3640.0
20
-250.0
30
0.0
11
3640.0
21
8600.0
31
0.0
0
LINE
5
1005
330
105
100
AcDbEntity
8
GRID
100
AcDbLine
10
4550.0
20
-250.0
30
0.0
11
4550.0
21
8600.0
31
0.0
0
LINE
5
1006
330
105
100
AcDbEntity
8
GRID
100
AcDbLine
10
5460.0
20
-250.0
30
0.0
11
5460.0
21
8600.0
31
0.0
0
LINE
5
1007
330
105
100
AcDbEntity
8
GRID
100
AcDbLine
10
6370.0
20
-250.0
30
0.0
11
6370.0
21
8600.0
31
0.0
0
LINE
5
1008
330
105
100
AcDbEntity
8
GRID
100
AcDbLine
10
7280.0
20
-250.0
30
0.0
11
7280.0
21
8600.0
31
0.0
0
LINE
5
1009
330
105
100
AcDbEntity
8
GRID
100
AcDbLine
10
8190.0
20
-250.0
30
0.0
11
8190.0
21
8600.0
31
0.0
0
LINE
5
1010
330
105
100
AcDbEntity
8
GRID
100
AcDbLine
10
9100.0
20
-250.0
30
0.0
11
9100.0
21
8600.0
31
0.0
0
LINE
5
1011
330
105
100
AcDbEntity
8
GRID
100
AcDbLine
10
-250.0
20
0.0
30
0.0
11
9450.0
21
0.0
31
0.0
0
LINE
5
1012
330
105
100
AcDbEntity
8
GRID
100
AcDbLine
10
-250.0
20
910.0
30
0.0
11
9450.0
21
910.0
31
0.0
0
LINE
5
1013
330
105
100
AcDbEntity
8
GRID
100
AcDbLine
10
-250.0
20
1820.0
30
0.0
11
9450.0
21
1820.0
31
0.0
0
LINE
5
1014
330
105
100
AcDbEntity
8
GRID
100
AcDbLine
10
-250.0
20
2730.0
30
0.0
11
9450.0
21
2730.0
31
0.0
0
LINE
5
1015
330
105
100
AcDbEntity
8
GRID
100
AcDbLine
10
-250.0
20
3640.0
30
0.0
11
9450.0
21
3640.0
31
0.0
0
LINE
5
1016
330
105
100
AcDbEntity
8
GRID
100
AcDbLine
10
-250.0
20
4550.0
30
0.0
11
9450.0
21
4550.0
31
0.0
0
LINE
5
1017
330
105
100
AcDbEntity
8
GRID
100
AcDbLine
10
-250.0
20
5460.0
30
0.0
11
9450.0
21
5460.0
31
0.0
0
LINE
5
1018
330
105
100
AcDbEntity
8
GRID
100
AcDbLine
10
-250.0
20
6370.0
30
0.0
11
9450.0
21
6370.0
31
0.0
0
LINE
5
1019
330
105
100
AcDbEntity
8
GRID
100
AcDbLine
10
-250.0
20
7280.0
30
0.0
11
9450.0
21
7280.0
31
0.0
0
LINE
5
1020
330
105
100
AcDbEntity
8
GRID
100
AcDbLine
10
-250.0
20
8190.0
30
0.0
11
9450.0
21
8190.0
31
0.0
0
TEXT
5
1021
330
105
100
AcDbEntity
8
GRID
100
AcDbText
10
0.0
20
8700.0
30
0.0
40
150.0
1
X1
72
1
11
0.0
21
8700.0
31
0.0
100
AcDbText
73
2
0
TEXT
5
1022
330
105
100
AcDbEntity
8
GRID
100
AcDbText
10
910.0
20
8700.0
30
0.0
40
150.0
1
X2
72
1
11
910.0
21
8700.0
31
0.0
100
AcDbText
73
2
0
TEXT
5
1023
330
105
100
AcDbEntity
8
GRID
100
AcDbText
10
1820.0
20
8700.0
30
0.0
40
150.0
1
X3
72
1
11
1820.0
21
8700.0
31
0.0
100
AcDbText
73
2
0
TEXT
5
1024
330
105
100
AcDbEntity
8
GRID
100
AcDbText
10
2730.0
20
8700.0
30
0.0
40
150.0
1
X4
72
1
11
2730.0
21
8700.0
31
0.0
100
AcDbText
73
2
0
TEXT
5
1025
330
105
100
AcDbEntity
8
GRID
100
AcDbText
10
3640.0
20
8700.0
30
0.0
40
150.0
1
X5
72
1
11
3640.0
21
8700.0
31
0.0
100
AcDbText
73
2
0
TEXT
5
1026
330
105
100
AcDbEntity
8
GRID
100
AcDbText
10
4550.0
20
8700.0
30
0.0
40
150.0
1
X6
72
1
11
4550.0
21
8700.0
31
0.0
100
AcDbText
73
2
0
TEXT
5
1027
330
105
100
AcDbEntity
8
GRID
100
AcDbText
10
5460.0
20
8700.0
30
0.0
40
150.0
1
X7
72
1
11
5460.0
21
8700.0
31
0.0
100
AcDbText
73
2
0
TEXT
5
1028
330
105
100
AcDbEntity
8
GRID
100
AcDbText
10
6370.0
20
8700.0
30
0.0
40
150.0
1
X8
72
1
11
6370.0
21
8700.0
31
0.0
100
AcDbText
73
2
0
TEXT
5
1029
330
105
100
AcDbEntity
8
GRID
100
AcDbText
10
7280.0
20
8700.0
30
0.0
40
150.0
1
X9
72
1
11
7280.0
21
8700.0
31
0.0
100
AcDbText
73
2
0
TEXT
5
1030
330
105
100
AcDbEntity
8
GRID
100
AcDbText
10
8190.0
20
8700.0
30
0.0
40
150.0
1
X10
72
1
11
8190.0
21
8700.0
31
0.0
100
AcDbText
73
2
0
TEXT
5
1031
330
105
100
AcDbEntity
8
GRID
100
AcDbText
10
9100.0
20
8700.0
30
0.0
40
150.0
1
X11
72
1
11
9100.0
21
8700.0
31
0.0
100
AcDbText
73
2
0
TEXT
5
1032
330
105
100
AcDbEntity
8
GRID
100
AcDbText
10
-350.0
20
0.0
30
0.0
40
150.0
1
Y1
72
1
11
-350.0
21
0.0
31
0.0
100
AcDbText
73
2
0
TEXT
5
1033
330
105
100
AcDbEntity
8
GRID
100
AcDbText
10
-350.0
20
910.0
30
0.0
40
150.0
1
Y2
72
1
11
-350.0
21
910.0
31
0.0
100
AcDbText
73
2
0
TEXT
5
1034
330
105
100
AcDbEntity
8
GRID
100
AcDbText
10
-350.0
20
1820.0
30
0.0
40
150.0
1
Y3
72
1
11
-350.0
21
1820.0
31
0.0
100
AcDbText
73
2
0
TEXT
5
1035
330
105
100
AcDbEntity
8
GRID
100
AcDbText
10
-350.0
20
2730.0
30
0.0
40
150.0
1
Y4
72
1
11
-350.0
21
2730.0
31
0.0
100
AcDbText
73
2
0
TEXT
5
1036
330
105
100
AcDbEntity
8
GRID
100
AcDbText
10
-350.0
20
3640.0
30
0.0
40
150.0
1
Y5
72
1
11
-350.0
21
3640.0
31
0.0
100
AcDbText
73
2
0
TEXT
5
1037
330
105
100
AcDbEntity
8
GRID
100
AcDbText
10
-350.0
20
4550.0
30
0.0
40
150.0
1
Y6
72
1
11
-350.0
21
4550.0
31
0.0
100
AcDbText
73
2
0
TEXT
5
1038
330
105
100
AcDbEntity
8
GRID
100
AcDbText
10
-350.0
20
5460.0
30
0.0
40
150.0
1
Y7
72
1
11
-350.0
21
5460.0
31
0.0
100
AcDbText
73
2
0
TEXT
5
1039
330
105
100
AcDbEntity
8
GRID
100
AcDbText
10
-350.0
20
6370.0
30
0.0
40
150.0
1
Y8
72
1
11
-350.0
21
6370.0
31
0.0
100
AcDbText
73
2
0
TEXT
5
1040
330
105
100
AcDbEntity
8
GRID
100
AcDbText
10
-350.0
20
7280.0
30
0.0
40
150.0
1
Y9
72
1
11
-350.0
21
7280.0
31
0.0
100
AcDbText
73
2
0
TEXT
5
1041
330
105
100
AcDbEntity
8
GRID
100
AcDbText
10
-350.0
20
8190.0
30
0.0
40
150.0
1
Y10
72
1
11
-350.0
21
8190.0
31
0.0
100
AcDbText
73
2
0
LINE
5
1042
330
105
100
AcDbEntity
8
WALL
100
AcDbLine
10
-60.0
20
-60.0
30
0.0
11
455.0
21
-60.0
31
0.0
0
LINE
5
1043
330
105
100
AcDbEntity
8
WALL
100
AcDbLine
10
1365.0
20
-60.0
30
0.0
11
5915.0
21
-60.0
31
0.0
0
LINE
5
1044
330
105
100
AcDbEntity
8
WALL
100
AcDbLine
10
8645.0
20
-60.0
30
0.0
11
9160.0
21
-60.0
31
0.0
0
LINE
5
1045
330
105
100
AcDbEntity
8
WALL
100
AcDbLine
10
60.0
20
60.0
30
0.0
11
455.0
21
60.0
31
0.0
0
LINE
5
1046
330
105
100
AcDbEntity
8
WALL
100
AcDbLine
10
1365.0
20
60.0
30
0.0
11
5915.0
21
60.0
31
0.0
0
LINE
5
1047
330
105
100
AcDbEntity
8
WALL
100
AcDbLine
10
8645.0
20
60.0
30
0.0
11
9040.0
21
60.0
31
0.0
0
LINE
5
1048
330
105
100
AcDbEntity
8
WALL
100
AcDbLine
10
455.0
20
-60.0
30
0.0
11
455.0
21
60.0
31
0.0
0
LINE
5
1049
330
105
100
AcDbEntity
8
WALL
100
AcDbLine
10
1365.0
20
-60.0
30
0.0
11
1365.0
21
60.0
31
0.0
0
LINE
5
1050
330
105
100
AcDbEntity
8
WALL
100
AcDbLine
10
5915.0
20
-60.0
30
0.0
11
5915.0
21
60.0
31
0.0
0
LINE
5
1051
330
105
100
AcDbEntity
8
WALL
100
AcDbLine
10
8645.0
20
-60.0
30
0.0
11
8645.0
21
60.0
31
0.0
0
LINE
5
1052
330
105
100
AcDbEntity
8
WALL
100
AcDbLine
10
9160.0
20
-60.0
30
0.0
11
9160.0
21
1365.0
31
0.0
0
LINE
5
1053
330
105
100
AcDbEntity
8
WALL
100
AcDbLine
10
9160.0
20
3185.0
30
0.0
11
9160.0
21
6394.8528
31
0.0
0
LINE
5
1054
330
105
100
AcDbEntity
8
WALL
100
AcDbLine
10
9040.0
20
60.0
30
0.0
11
9040.0
21
1365.0
31
0.0
0
LINE
5
1055
330
105
100
AcDbEntity
8
WALL
100
AcDbLine
10
9040.0
20
3185.0
30
0.0
11
9040.0
21
6345.1472
31
0.0
0
LINE
5
1056
330
105
100
AcDbEntity
8
WALL
100
AcDbLine
10
9040.0
20
1365.0
30
0.0
11
9160.0
21
1365.0
31
0.0
0
LINE
5
1057
330
105
100
AcDbEntity
8
WALL
100
AcDbLine
10
9040.0
20
3185.0
30
0.0
11
9160.0
21
3185.0
31
0.0
0
LINE
5
1058
330
105
100
AcDbEntity
8
WALL
100
AcDbLine
10
9160.0
20
6394.8528
30
0.0
11
8868.8225
21
6686.0303
31
0.0
0
LINE
5
1059
330
105
100
AcDbEntity
8
WALL
100
AcDbLine
10
7596.0303
20
7958.8225
30
0.0
11
7304.8528
21
8250.0
31
0.0
0
LINE
5
1060
330
105
100
AcDbEntity
8
WALL
100
AcDbLine
10
9040.0
20
6345.1472
30
0.0
11
8783.9697
21
6601.1775
31
0.0
0
LINE
5
1061
330
105
100
AcDbEntity
8
WALL
100
AcDbLine
10
7511.1775
20
7873.9697
30
0.0
11
7255.1472
21
8130.0
31
0.0
0
LINE
5
1062
330
105
100
AcDbEntity
8
WALL
100
AcDbLine
10
8868.8225
20
6686.0303
30
0.0
11
8783.9697
21
6601.1775
31
0.0
0
LINE
5
1063
330
105
100
AcDbEntity
8
WALL
100
AcDbLine
10
7596.0303
20
7958.8225
30
0.0
11
7511.1775
21
7873.9697
31
0.0
0
LINE
5
1064
330
105
100
AcDbEntity
8
WALL
100
AcDbLine
10
-60.0
20
8250.0
30
0.0
11
2275.0
21
8250.0
31
0.0
0
LINE
5
1065
330
105
100
AcDbEntity
8
WALL
100
AcDbLine
10
5005.0
20
8250.0
30
0.0
11
7304.8528
21
8250.0
31
0.0
0
LINE
5
1066
330
105
100
AcDbEntity
8
WALL
100
AcDbLine
10
60.0
20
8130.0
30
0.0
11
2275.0
21
8130.0
31
0.0
0
LINE
5
1067
330
105
100
AcDbEntity
8
WALL
100
AcDbLine
10
5005.0
20
8130.0
30
0.0
11
7255.1472
21
8130.0
31
0.0
0
LINE
5
1068
330
105
100
AcDbEntity
8
WALL
100
AcDbLine
10
2275.0
20
8130.0
30
0.0
11
2275.0
21
8250.0
31
0.0
0
LINE
5
1069
330
105
100
AcDbEntity
8
WALL
100
AcDbLine
10
5005.0
20
8130.0
30
0.0
11
5005.0
21
8250.0
31
0.0
0
LINE
5
1070
330
105
100
AcDbEntity
8
WALL
100
AcDbLine
10
-60.0
20
-60.0
30
0.0
11
-60.0
21
8250.0
31
0.0
0
LINE
5
1071
330
105
100
AcDbEntity
8
WALL
100
AcDbLine
10
60.0
20
60.0
30
0.0
11
60.0
21
8130.0
31
0.0
0
LINE
5
1072
330
105
100
AcDbEntity
8
WALL
100
AcDbLine
10
1760.0
20
60.0
30
0.0
11
1760.0
21
455.0
31
0.0
0
LINE
5
1073
330
105
100
AcDbEntity
8
WALL
100
AcDbLine
10
1760.0
20
1365.0
30
0.0
11
1760.0
21
4490.0
31
0.0
0
LINE
5
1074
330
105
100
AcDbEntity
8
WALL
100
AcDbLine
10
1880.0
20
60.0
30
0.0
11
1880.0
21
455.0
31
0.0
0
LINE
5
1075
330
105
100
AcDbEntity
8
WALL
100
AcDbLine
10
1880.0
20
1365.0
30
0.0
11
1880.0
21
4490.0
31
0.0
0
LINE
5
1076
330
105
100
AcDbEntity
8
WALL
100
AcDbLine
10
1760.0
20
455.0
30
0.0
11
1880.0
21
455.0
31
0.0
0
LINE
5
1077
330
105
100
AcDbEntity
8
WALL
100
AcDbLine
10
1760.0
20
1365.0
30
0.0
11
1880.0
21
1365.0
31
0.0
0
LINE
5
1078
330
105
100
AcDbEntity
8
WALL
100
AcDbLine
10
3580.0
20
60.0
30
0.0
11
3580.0
21
4490.0
31
0.0
0
LINE
5
1079
330
105
100
AcDbEntity
8
WALL
100
AcDbLine
10
3700.0
20
60.0
30
0.0
11
3700.0
21
4490.0
31
0.0
0
LINE
5
1080
330
105
100
AcDbEntity
8
WALL
100
AcDbLine
10
5400.0
20
60.0
30
0.0
11
5400.0
21
4490.0
31
0.0
0
LINE
5
1081
330
105
100
AcDbEntity
8
WALL
100
AcDbLine
10
5520.0
20
60.0
30
0.0
11
5520.0
21
4490.0
31
0.0
0
LINE
5
1082
330
105
100
AcDbEntity
8
WALL
100
AcDbLine
10
60.0
20
1760.0
30
0.0
11
5400.0
21
1760.0
31
0.0
0
LINE
5
1083
330
105
100
AcDbEntity
8
WALL
100
AcDbLine
10
60.0
20
1880.0
30
0.0
11
5400.0
21
1880.0
31
0.0
0
LINE
5
1084
330
105
100
AcDbEntity
8
WALL
100
AcDbLine
10
60.0
20
2215.0
30
0.0
11
1760.0
21
2215.0
31
0.0
0
LINE
5
1085
330
105
100
AcDbEntity
8
WALL
100
AcDbLine
10
60.0
20
2335.0
30
0.0
11
1760.0
21
2335.0
31
0.0
0
LINE
5
1086
330
105
100
AcDbEntity
8
WALL
100
AcDbLine
10
1880.0
20
2670.0
30
0.0
11
3580.0
21
2670.0
31
0.0
0
LINE
5
1087
330
105
100
AcDbEntity
8
WALL
100
AcDbLine
10
1880.0
20
2790.0
30
0.0
11
3580.0
21
2790.0
31
0.0
0
LINE
5
1088
330
105
100
AcDbEntity
8
WALL
100
AcDbLine
10
60.0
20
4490.0
30
0.0
11
455.0
21
4490.0
31
0.0
0
LINE
5
1089
330
105
100
AcDbEntity
8
WALL
100
AcDbLine
10
1365.0
20
4490.0
30
0.0
11
6825.0
21
4490.0
31
0.0
0
LINE
5
1090
330
105
100
AcDbEntity
8
WALL
100
AcDbLine
10
7735.0
20
4490.0
30
0.0
11
9040.0
21
4490.0
31
0.0
0
LINE
5
1091
330
105
100
AcDbEntity
8
WALL
100
AcDbLine
10
60.0
20
4610.0
30
0.0
11
455.0
21
4610.0
31
0.0
0
LINE
5
1092
330
105
100
AcDbEntity
8
WALL
100
AcDbLine
10
1365.0
20
4610.0
30
0.0
11
6825.0
21
4610.0
31
0.0
0
LINE
5
1093
330
105
100
AcDbEntity
8
WALL
100
AcDbLine
10
7735.0
20
4610.0
30
0.0
11
9040.0
21
4610.0
31
0.0
0
LINE
5
1094
330
105
100
AcDbEntity
8
WALL
100
AcDbLine
10
455.0
20
4490.0
30
0.0
11
455.0
21
4610.0
31
0.0
0
LINE
5
1095
330
105
100
AcDbEntity
8
WALL
100
AcDbLine
10
1365.0
20
4490.0
30
0.0
11
1365.0
21
4610.0
31
0.0
0
LINE
5
1096
330
105
100
AcDbEntity
8
WALL
100
AcDbLine
10
6825.0
20
4490.0
30
0.0
11
6825.0
21
4610.0
31
0.0
0
LINE
5
1097
330
105
100
AcDbEntity
8
WALL
100
AcDbLine
10
7735.0
20
4490.0
30
0.0
11
7735.0
21
4610.0
31
0.0
0
LINE
5
1098
330
105
100
AcDbEntity
8
OPENING
100
AcDbLine
10
455.0
20
0.0
30
0.0
11
455.0
21
910.0
31
0.0
0
ARC
5
1099
330
105
100
AcDbEntity
8
OPENING
100
AcDbCircle
10
455.0
20
0.0
30
0.0
40
910.0
100
AcDbArc
50
0.0
51
90.0
0
LINE
5
1100
330
105
100
AcDbEntity
8
OPENING
100
AcDbLine
10
1820.0
20
455.0
30
0.0
11
2730.0
21
455.0
31
0.0
0
ARC
5
1101
330
105
100
AcDbEntity
8
OPENING
100
AcDbCircle
10
1820.0
20
455.0
30
0.0
40
910.0
100
AcDbArc
50
0.0
51
90.0
0
LINE
5
1102
330
105
100
AcDbEntity
8
OPENING
100
AcDbLine
10
455.0
20
4550.0
30
0.0
11
455.0
21
5460.0
31
0.0
0
ARC
5
1103
330
105
100
AcDbEntity
8
OPENING
100
AcDbCircle
10
455.0
20
4550.0
30
0.0
40
910.0
100
AcDbArc
50
0.0
51
90.0
0
LINE
5
1104
330
105
100
AcDbEntity
8
OPENING
100
AcDbLine
10
6825.0
20
4550.0
30
0.0
11
6825.0
21
5460.0
31
0.0
0
ARC
5
1105
330
105
100
AcDbEntity
8
OPENING
100
AcDbCircle
10
6825.0
20
4550.0
30
0.0
40
910.0
100
AcDbArc
50
0.0
51
90.0
0
LINE
5
1106
330
105
100
AcDbEntity
8
OPENING
100
AcDbLine
10
5915.0
20
-20.0
30
0.0
11
8645.0
21
-20.0
31
0.0
0
LINE
5
1107
330
105
100
AcDbEntity
8
OPENING
100
AcDbLine
10
5915.0
20
20.0
30
0.0
11
8645.0
21
20.0
31
0.0
0
LINE
5
1108
330
105
100
AcDbEntity
8
OPENING
100
AcDbLine
10
9080.0
20
1365.0
30
0.0
11
9080.0
21
3185.0
31
0.0
0
LINE
5
1109
330
105
100
AcDbEntity
8
OPENING
100
AcDbLine
10
9120.0
20
1365.0
30
0.0
11
9120.0
21
3185.0
31
0.0
0
LINE
5
1110
330
105
100
AcDbEntity
8
OPENING
100
AcDbLine
10
8840.5382
20
6657.7460
30
0.0
11
7567.7460
21
7930.5382
31
0.0
0
LINE
5
1111
330
105
100
AcDbEntity
8
OPENING
100
AcDbLine
10
8812.2540
20
6629.4618
30
0.0
11
7539.4618
21
7902.2540
31
0.0
0
LINE
5
1112
330
105
100
AcDbEntity
8
OPENING
100
AcDbLine
10
2275.0
20
8170.0
30
0.0
11
5005.0
21
8170.0
31
0.0
0
LINE
5
1113
330
105
100
AcDbEntity
8
OPENING
100
AcDbLine
10
2275.0
20
8210.0
30
0.0
11
5005.0
21
8210.0
31
0.0
0
TEXT
5
1114
330
105
100
AcDbEntity
8
OPENING
100
AcDbText
10
1400.0
20
300.0
30
0.0
40
150.0
1
D1
72
1
11
1400.0
21
300.0
31
0.0
100
AcDbText
73
2
0
TEXT
5
1115
330
105
100
AcDbEntity
8
OPENING
100
AcDbText
10
2200.0
20
910.0
30
0.0
40
150.0
1
D2
72
1
11
2200.0
21
910.0
31
0.0
100
AcDbText
73
2
0
TEXT
5
1116
330
105
100
AcDbEntity
8
OPENING
100
AcDbText
10
700.0
20
4900.0
30
0.0
40
150.0
1
D3
72
1
11
700.0
21
4900.0
31
0.0
100
AcDbText
73
2
0
TEXT
5
1117
330
105
100
AcDbEntity
8
OPENING
100
AcDbText
10
7000.0
20
4900.0
30
0.0
40
150.0
1
D4
72
1
11
7000.0
21
4900.0
31
0.0
100
AcDbText
73
2
0
TEXT
5
1118
330
105
100
AcDbEntity
8
OPENING
100
AcDbText
10
7280.0
20
300.0
30
0.0
40
150.0
1
W1
72
1
11
7280.0
21
300.0
31
0.0
100
AcDbText
73
2
0
TEXT
5
1119
330
105
100
AcDbEntity
8
OPENING
100
AcDbText
10
8700.0
20
2275.0
30
0.0
40
150.0
1
W2
72
1
11
8700.0
21
2275.0
31
0.0
100
AcDbText
73
2
0
TEXT
5
1120
330
105
100
AcDbEntity
8
OPENING
100
AcDbText
10
8100.0
20
6900.0
30
0.0
40
150.0
1
W3
72
1
11
8100.0
21
6900.0
31
0.0
100
AcDbText
73
2
0
TEXT
5
1121
330
105
100
AcDbEntity
8
OPENING
100
AcDbText
10
3640.0
20
7800.0
30
0.0
40
150.0
1
W4
72
1
11
3640.0
21
7800.0
31
0.0
100
AcDbText
73
2
0
LINE
5
1122
330
105
100
AcDbEntity
8
STAIR
100
AcDbLine
10
4100.0
20
75.0
30
0.0
11
5000.0
21
75.0
31
0.0
0
LINE
5
1123
330
105
100
AcDbEntity
8
STAIR
100
AcDbLine
10
4100.0
20
227.0
30
0.0
11
5000.0
21
227.0
31
0.0
0
LINE
5
1124
330
105
100
AcDbEntity
8
STAIR
100
AcDbLine
10
4100.0
20
379.0
30
0.0
11
5000.0
21
379.0
31
0.0
0
LINE
5
1125
330
105
100
AcDbEntity
8
STAIR
100
AcDbLine
10
4100.0
20
531.0
30
0.0
11
5000.0
21
531.0
31
0.0
0
LINE
5
1126
330
105
100
AcDbEntity
8
STAIR
100
AcDbLine
10
4100.0
20
683.0
30
0.0
11
5000.0
21
683.0
31
0.0
0
LINE
5
1127
330
105
100
AcDbEntity
8
STAIR
100
AcDbLine
10
4100.0
20
835.0
30
0.0
11
5000.0
21
835.0
31
0.0
0
LINE
5
1128
330
105
100
AcDbEntity
8
STAIR
100
AcDbLine
10
4100.0
20
987.0
30
0.0
11
5000.0
21
987.0
31
0.0
0
LINE
5
1129
330
105
100
AcDbEntity
8
STAIR
100
AcDbLine
10
4100.0
20
1139.0
30
0.0
11
5000.0
21
1139.0
31
0.0
0
LINE
5
1130
330
105
100
AcDbEntity
8
STAIR
100
AcDbLine
10
4100.0
20
1291.0
30
0.0
11
5000.0
21
1291.0
31
0.0
0
LINE
5
1131
330
105
100
AcDbEntity
8
STAIR
100
AcDbLine
10
4100.0
20
1443.0
30
0.0
11
5000.0
21
1443.0
31
0.0
0
LINE
5
1132
330
105
100
AcDbEntity
8
STAIR
100
AcDbLine
10
4100.0
20
1595.0
30
0.0
11
5000.0
21
1595.0
31
0.0
0
LINE
5
1133
330
105
100
AcDbEntity
8
STAIR
100
AcDbLine
10
4100.0
20
1747.0
30
0.0
11
5000.0
21
1747.0
31
0.0
0
TEXT
5
1134
330
105
100
AcDbEntity
8
ROOM
100
AcDbText
10
910.0
20
1010.0
30
0.0
40
180.0
1
玄関
72
1
11
910.0
21
1010.0
31
0.0
100
AcDbText
73
2
0
TEXT
5
1135
330
105
100
AcDbEntity
8
ROOM
100
AcDbText
10
910.0
20
660.0
30
0.0
40
180.0
1
3.31 m²
72
1
11
910.0
21
660.0
31
0.0
100
AcDbText
73
2
0
TEXT
5
1136
330
105
100
AcDbEntity
8
ROOM
100
AcDbText
10
910.0
20
2110.0
30
0.0
40
110.0
1
収納
72
1
11
910.0
21
2110.0
31
0.0
100
AcDbText
73
2
0
TEXT
5
1137
330
105
100
AcDbEntity
8
ROOM
100
AcDbText
10
910.0
20
1950.0
30
0.0
40
110.0
1
0.83 m²
72
1
11
910.0
21
1950.0
31
0.0
100
AcDbText
73
2
0
TEXT
5
1138
330
105
100
AcDbEntity
8
ROOM
100
AcDbText
10
910.0
20
3500.0
30
0.0
40
180.0
1
洗面脱衣
72
1
11
910.0
21
3500.0
31
0.0
100
AcDbText
73
2
0
TEXT
5
1139
330
105
100
AcDbEntity
8
ROOM
100
AcDbText
10
910.0
20
3180.0
30
0.0
40
180.0
1
4.14 m²
72
1
11
910.0
21
3180.0
31
0.0
100
AcDbText
73
2
0
TEXT
5
1140
330
105
100
AcDbEntity
8
ROOM
100
AcDbText
10
2730.0
20
1010.0
30
0.0
40
180.0
1
ホール
72
1
11
2730.0
21
1010.0
31
0.0
100
AcDbText
73
2
0
TEXT
5
1141
330
105
100
AcDbEntity
8
ROOM
100
AcDbText
10
2730.0
20
690.0
30
0.0
40
180.0
1
3.31 m²
72
1
11
2730.0
21
690.0
31
0.0
100
AcDbText
73
2
0
TEXT
5
1142
330
105
100
AcDbEntity
8
ROOM
100
AcDbText
10
2730.0
20
2360.0
30
0.0
40
150.0
1
便所
72
1
11
2730.0
21
2360.0
31
0.0
100
AcDbText
73
2
0
TEXT
5
1143
330
105
100
AcDbEntity
8
ROOM
100
AcDbText
10
2730.0
20
2110.0
30
0.0
40
150.0
1
1.66 m²
72
1
11
2730.0
21
2110.0
31
0.0
100
AcDbText
73
2
0
TEXT
5
1144
330
105
100
AcDbEntity
8
ROOM
100
AcDbText
10
2730.0
20
3740.0
30
0.0
40
180.0
1
浴室
72
1
11
2730.0
21
3740.0
31
0.0
100
AcDbText
73
2
0
TEXT
5
1145
330
105
100
AcDbEntity
8
ROOM
100
AcDbText
10
2730.0
20
3420.0
30
0.0
40
180.0
1
3.31 m²
72
1
11
2730.0
21
3420.0
31
0.0
100
AcDbText
73
2
0
TEXT
5
1146
330
105
100
AcDbEntity
8
ROOM
100
AcDbText
10
4550.0
20
1063.0
30
0.0
40
180.0
1
階段
72
1
11
4550.0
21
1063.0
31
0.0
100
AcDbText
73
2
0
TEXT
5
1147
330
105
100
AcDbEntity
8
ROOM
100
AcDbText
10
4550.0
20
759.0
30
0.0
40
180.0
1
3.31 m²
72
1
11
4550.0
21
759.0
31
0.0
100
AcDbText
73
2
0
TEXT
5
1148
330
105
100
AcDbEntity
8
ROOM
100
AcDbText
10
4550.0
20
3280.0
30
0.0
40
180.0
1
納戸
72
1
11
4550.0
21
3280.0
31
0.0
100
AcDbText
73
2
0
TEXT
5
1149
330
105
100
AcDbEntity
8
ROOM
100
AcDbText
10
4550.0
20
2960.0
30
0.0
40
180.0
1
4.97 m²
72
1
11
4550.0
21
2960.0
31
0.0
100
AcDbText
73
2
0
TEXT
5
1150
330
105
100
AcDbEntity
8
ROOM
100
AcDbText
10
7280.0
20
2380.0
30
0.0
40
250.0
1
和室
72
1
11
7280.0
21
2380.0
31
0.0
100
AcDbText
73
2
0
TEXT
5
1151
330
105
100
AcDbEntity
8
ROOM
100
AcDbText
10
7280.0
20
2020.0
30
0.0
40
250.0
1
16.56 m²
72
1
11
7280.0
21
2020.0
31
0.0
100
AcDbText
73
2
0
TEXT
5
1152
330
105
100
AcDbEntity
8
ROOM
100
AcDbText
10
4000.0
20
6400.0
30
0.0
40
250.0
1
LDK
72
1
11
4000.0
21
6400.0
31
0.0
100
AcDbText
73
2
0
TEXT
5
1153
330
105
100
AcDbEntity
8
ROOM
100
AcDbText
10
4000.0
20
6040.0
30
0.0
40
250.0
1
31.47 m²
72
1
11
4000.0
21
6040.0
31
0.0
100
AcDbText
73
2
0
TEXT
5
1154
330
105
100
AcDbEntity
8
TEXT
100
AcDbText
10
4550.0
20
9300.0
30
0.0
40
250.0
1
1階 床面積合計 72.87 m²
72
1
11
4550.0
21
9300.0
31
0.0
100
AcDbText
73
2
0
DIMENSION
5
1155
330
105
100
AcDbEntity
8
DIM
100
AcDbDimension
280
0
2
*D1
10
455.0
20
-600.0
30
0.0
11
227.5
21
-500.0
31
0.0
70
32
71
5
42
455.0
3
Standard
100
AcDbAlignedDimension
13
0.0
23
0.0
33
0.0
14
455.0
24
0.0
34
0.0
50
0.0
100
AcDbRotatedDimension
0
DIMENSION
5
1156
330
105
100
AcDbEntity
8
DIM
100
AcDbDimension
280
0
2
*D1
10
1365.0
20
-600.0
30
0.0
11
910.0
21
-500.0
31
0.0
70
32
71
5
42
910.0
3
Standard
100
AcDbAlignedDimension
13
455.0
23
0.0
33
0.0
14
1365.0
24
0.0
34
0.0
50
0.0
100
AcDbRotatedDimension
0
DIMENSION
5
1157
330
105
100
AcDbEntity
8
DIM
100
AcDbDimension
280
0
2
*D1
10
5915.0
20
-600.0
30
0.0
11
3640.0
21
-500.0
31
0.0
70
32
71
5
42
4550.0
3
Standard
100
AcDbAlignedDimension
13
1365.0
23
0.0
33
0.0
14
5915.0
24
0.0
34
0.0
50
0.0
100
AcDbRotatedDimension
0
DIMENSION
5
1158
330
105
100
AcDbEntity
8
DIM
100
AcDbDimension
280
0
2
*D1
10
8645.0
20
-600.0
30
0.0
11
7280.0
21
-500.0
31
0.0
70
32
71
5
42
2730.0
3
Standard
100
AcDbAlignedDimension
13
5915.0
23
0.0
33
0.0
14
8645.0
24
0.0
34
0.0
50
0.0
100
AcDbRotatedDimension
0
DIMENSION
5
1159
330
105
100
AcDbEntity
8
DIM
100
AcDbDimension
280
0
2
*D1
10
9100.0
20
-600.0
30
0.0
11
8872.5
21
-500.0
31
0.0
70
32
71
5
42
455.0
3
Standard
100
AcDbAlignedDimension
13
8645.0
23
0.0
33
0.0
14
9100.0
24
0.0
34
0.0
50
0.0
100
AcDbRotatedDimension
0
DIMENSION
5
1160
330
105
100
AcDbEntity
8
DIM
100
AcDbDimension
280
0
2
*D1
10
910.0
20
-1600.0
30
0.0
11
455.0
21
-1500.0
31
0.0
70
32
71
5
42
910.0
3
Standard
100
AcDbAlignedDimension
13
0.0
23
0.0
33
0.0
14
910.0
24
0.0
34
0.0
50
0.0
100
AcDbRotatedDimension
0
DIMENSION
5
1161
330
105
100
AcDbEntity
8
DIM
100
AcDbDimension
280
0
2
*D1
10
1820.0
20
-1600.0
30
0.0
11
1365.0
21
-1500.0
31
0.0
70
32
71
5
42
910.0
3
Standard
100
AcDbAlignedDimension
13
910.0
23
0.0
33
0.0
14
1820.0
24
0.0
34
0.0
50
0.0
100
AcDbRotatedDimension
0
DIMENSION
5
1162
330
105
100
AcDbEntity
8
DIM
100
AcDbDimension
280
0
2
*D1
10
2730.0
20
-1600.0
30
0.0
11
2275.0
21
-1500.0
31
0.0
70
32
71
5
42
910.0
3
Standard
100
AcDbAlignedDimension
13
1820.0
23
0.0
33
0.0
14
2730.0
24
0.0
34
0.0
50
0.0
100
AcDbRotatedDimension
0
DIMENSION
5
1163
330
105
100
AcDbEntity
8
DIM
100
AcDbDimension
280
0
2
*D1
10
3640.0
20
-1600.0
30
0.0
11
3185.0
21
-1500.0
31
0.0
70
32
71
5
42
910.0
3
Standard
100
AcDbAlignedDimension
13
2730.0
23
0.0
33
0.0
14
3640.0
24
0.0
34
0.0
50
0.0
100
AcDbRotatedDimension
0
DIMENSION
5
1164
330
105
100
AcDbEntity
8
DIM
100
AcDbDimension
280
0
2
*D1
10
4550.0
20
-1600.0
30
0.0
11
4095.0
21
-1500.0
31
0.0
70
32
71
5
42
910.0
3
Standard
100
AcDbAlignedDimension
13
3640.0
23
0.0
33
0.0
14
4550.0
24
0.0
34
0.0
50
0.0
100
AcDbRotatedDimension
0
DIMENSION
5
1165
330
105
100
AcDbEntity
8
DIM
100
AcDbDimension
280
0
2
*D1
10
5460.0
20
-1600.0
30
0.0
11
5005.0
21
-1500.0
31
0.0
70
32
71
5
42
910.0
3
Standard
100
AcDbAlignedDimension
13
4550.0
23
0.0
33
0.0
14
5460.0
24
0.0
34
0.0
50
0.0
100
AcDbRotatedDimension
0
DIMENSION
5
1166
330
105
100
AcDbEntity
8
DIM
100
AcDbDimension
280
0
2
*D1
10
6370.0
20
-1600.0
30
0.0
11
5915.0
21
-1500.0
31
0.0
70
32
71
5
42
910.0
3
Standard
100
AcDbAlignedDimension
13
5460.0
23
0.0
33
0.0
14
6370.0
24
0.0
34
0.0
50
0.0
100
AcDbRotatedDimension
0
DIMENSION
5
1167
330
105
100
AcDbEntity
8
DIM
100
AcDbDimension
280
0
2
*D1
10
7280.0
20
-1600.0
30
0.0
11
6825.0
21
-1500.0
31
0.0
70
32
71
5
42
910.0
3
Standard
100
AcDbAlignedDimension
13
6370.0
23
0.0
33
0.0
14
7280.0
24
0.0
34
0.0
50
0.0
100
AcDbRotatedDimension
0
DIMENSION
5
1168
330
105
100
AcDbEntity
8
DIM
100
AcDbDimension
280
0
2
*D1
10
8190.0
20
-1600.0
30
0.0
11
7735.0
21
-1500.0
31
0.0
70
32
71
5
42
910.0
3
Standard
100
AcDbAlignedDimension
13
7280.0
23
0.0
33
0.0
14
8190.0
24
0.0
34
0.0
50
0.0
100
AcDbRotatedDimension
0
DIMENSION
5
1169
330
105
100
AcDbEntity
8
DIM
100
AcDbDimension
280
0
2
*D1
10
9100.0
20
-1600.0
30
0.0
11
8645.0
21
-1500.0
31
0.0
70
32
71
5
42
910.0
3
Standard
100
AcDbAlignedDimension
13
8190.0
23
0.0
33
0.0
14
9100.0
24
0.0
34
0.0
50
0.0
100
AcDbRotatedDimension
0
DIMENSION
5
1170
330
105
100
AcDbEntity
8
DIM
100
AcDbDimension
280
0
2
*D1
10
9100.0
20
-2600.0
30
0.0
11
4550.0
21
-2500.0
31
0.0
70
32
71
5
42
9100.0
3
Standard
100
AcDbAlignedDimension
13
0.0
23
0.0
33
0.0
14
9100.0
24
0.0
34
0.0
50
0.0
100
AcDbRotatedDimension
0
DIMENSION
5
1171
330
105
100
AcDbEntity
8
DIM
100
AcDbDimension
280
0
2
*D1
10
-600.0
20
910.0
30
0.0
11
-720.0
21
455.0
31
0.0
70
32
71
5
42
910.0
3
Standard
100
AcDbAlignedDimension
13
0.0
23
0.0
33
0.0
14
0.0
24
910.0
34
0.0
50
90.0
100
AcDbRotatedDimension
0
DIMENSION
5
1172
330
105
100
AcDbEntity
8
DIM
100
AcDbDimension
280
0
2
*D1
10
-600.0
20
1820.0
30
0.0
11
-720.0
21
1365.0
31
0.0
70
32
71
5
42
910.0
3
Standard
100
AcDbAlignedDimension
13
0.0
23
910.0
33
0.0
14
0.0
24
1820.0
34
0.0
50
90.0
100
AcDbRotatedDimension
0
DIMENSION
5
1173
330
105
100
AcDbEntity
8
DIM
100
AcDbDimension
280
0
2
*D1
10
-600.0
20
2730.0
30
0.0
11
-720.0
21
2275.0
31
0.0
70
32
71
5
42
910.0
3
Standard
100
AcDbAlignedDimension
13
0.0
23
1820.0
33
0.0
14
0.0
24
2730.0
34
0.0
50
90.0
100
AcDbRotatedDimension
0
DIMENSION
5
1174
330
105
100
AcDbEntity
8
DIM
100
AcDbDimension
280
0
2
*D1
10
-600.0
20
3640.0
30
0.0
11
-720.0
21
3185.0
31
0.0
70
32
71
5
42
910.0
3
Standard
100
AcDbAlignedDimension
13
0.0
23
2730.0
33
0.0
14
0.0
24
3640.0
34
0.0
50
90.0
100
AcDbRotatedDimension
0
DIMENSION
5
1175
330
105
100
AcDbEntity
8
DIM
100
AcDbDimension
280
0
2
*D1
10
-600.0
20
4550.0
30
0.0
11
-720.0
21
4095.0
31
0.0
70
32
71
5
42
910.0
3
Standard
100
AcDbAlignedDimension
13
0.0
23
3640.0
33
0.0
14
0.0
24
4550.0
34
0.0
50
90.0
100
AcDbRotatedDimension
0
DIMENSION
5
1176
330
105
100
AcDbEntity
8
DIM
100
AcDbDimension
280
0
2
*D1
10
-600.0
20
5460.0
30
0.0
11
-720.0
21
5005.0
31
0.0
70
32
71
5
42
910.0
3
Standard
100
AcDbAlignedDimension
13
0.0
23
4550.0
33
0.0
14
0.0
24
5460.0
34
0.0
50
90.0
100
AcDbRotatedDimension
0
DIMENSION
5
1177
330
105
100
AcDbEntity
8
DIM
100
AcDbDimension
280
0
2
*D1
10
-600.0
20
6370.0
30
0.0
11
-720.0
21
5915.0
31
0.0
70
32
71
5
42
910.0
3
Standard
100
AcDbAlignedDimension
13
0.0
23
5460.0
33
0.0
14
0.0
24
6370.0
34
0.0
50
90.0
100
AcDbRotatedDimension
0
DIMENSION
5
1178
330
105
100
AcDbEntity
8
DIM
100
AcDbDimension
280
0
2
*D1
10
-600.0
20
7280.0
30
0.0
11
-720.0
21
6825.0
31
0.0
70
32
71
5
42
910.0
3
Standard
100
AcDbAlignedDimension
13
0.0
23
6370.0
33
0.0
14
0.0
24
7280.0
34
0.0
50
90.0
100
AcDbRotatedDimension
0
DIMENSION
5
1179
330
105
100
AcDbEntity
8
DIM
100
AcDbDimension
280
0
2
*D1
10
-600.0
20
8190.0
30
0.0
11
-720.0
21
7735.0
31
0.0
70
32
71
5
42
910.0
3
Standard
100
AcDbAlignedDimension
13
0.0
23
7280.0
33
0.0
14
0.0
24
8190.0
34
0.0
50
90.0
100
AcDbRotatedDimension
0
DIMENSION
5
1180
330
105
100
AcDbEntity
8
DIM
100
AcDbDimension
280
0
2
*D1
10
-1600.0
20
8190.0
30
0.0
11
-1720.0
21
4095.0
31
0.0
70
32
71
5
42
8190.0
3
Standard
100
AcDbAlignedDimension
13
0.0
23
0.0
33
0.0
14
0.0
24
8190.0
34
0.0
50
90.0
100
AcDbRotatedDimension
0
DIMENSION
5
1181
330
105
100
AcDbEntity
8
DIM
100
AcDbDimension
280
0
2
*D1
10
9700.0
20
910.0
30
0.0
11
9820.0
21
455.0
31
0.0
70
32
71
5
42
910.0
3
Standard
100
AcDbAlignedDimension
13
9100.0
23
0.0
33
0.0
14
9100.0
24
910.0
34
0.0
50
90.0
100
AcDbRotatedDimension
0
DIMENSION
5
1182
330
105
100
AcDbEntity
8
DIM
100
AcDbDimension
280
0
2
*D1
10
9700.0
20
1820.0
30
0.0
11
9820.0
21
1365.0
31
0.0
70
32
71
5
42
910.0
3
Standard
100
AcDbAlignedDimension
13
9100.0
23
910.0
33
0.0
14
9100.0
24
1820.0
34
0.0
50
90.0
100
AcDbRotatedDimension
0
DIMENSION
5
1183
330
105
100
AcDbEntity
8
DIM
100
AcDbDimension
280
0
2
*D1
10
9700.0
20
2730.0
30
0.0
11
9820.0
21
2275.0
31
0.0
70
32
71
5
42
910.0
3
Standard
100
AcDbAlignedDimension
13
9100.0
23
1820.0
33
0.0
14
9100.0
24
2730.0
34
0.0
50
90.0
100
AcDbRotatedDimension
0
DIMENSION
5
1184
330
105
100
AcDbEntity
8
DIM
100
AcDbDimension
280
0
2
*D1
10
9700.0
20
3640.0
30
0.0
11
9820.0
21
3185.0
31
0.0
70
32
71
5
42
910.0
3
Standard
100
AcDbAlignedDimension
13
9100.0
23
2730.0
33
0.0
14
9100.0
24
3640.0
34
0.0
50
90.0
100
AcDbRotatedDimension
0
DIMENSION
5
1185
330
105
100
AcDbEntity
8
DIM
100
AcDbDimension
280
0
2
*D1
10
9700.0
20
4550.0
30
0.0
11
9820.0
21
4095.0
31
0.0
70
32
71
5
42
910.0
3
Standard
100
AcDbAlignedDimension
13
9100.0
23
3640.0
33
0.0
14
9100.0
24
4550.0
34
0.0
50
90.0
100
AcDbRotatedDimension
0
DIMENSION
5
1186
330
105
100
AcDbEntity
8
DIM
100
AcDbDimension
280
0
2
*D1
10
9700.0
20
5460.0
30
0.0
11
9820.0
21
5005.0
31
0.0
70
32
71
5
42
910.0
3
Standard
100
AcDbAlignedDimension
13
9100.0
23
4550.0
33
0.0
14
9100.0
24
5460.0
34
0.0
50
90.0
100
AcDbRotatedDimension
0
DIMENSION
5
1187
330
105
100
AcDbEntity
8
DIM
100
AcDbDimension
280
0
2
*D1
10
9700.0
20
6370.0
30
0.0
11
9820.0
21
5915.0
31
0.0
70
32
71
5
42
910.0
3
Standard
100
AcDbAlignedDimension
13
9100.0
23
5460.0
33
0.0
14
9100.0
24
6370.0
34
0.0
50
90.0
100
AcDbRotatedDimension
0
DIMENSION
5
1188
330
105
100
AcDbEntity
8
DIM
100
AcDbDimension
280
0
2
*D1
10
10700.0
20
6370.0
30
0.0
11
10820.0
21
3185.0
31
0.0
70
32
71
5
42
6370.0
3
Standard
100
AcDbAlignedDimension
13
9100.0
23
0.0
33
0.0
14
9100.0
24
6370.0
34
0.0
50
90.0
100
AcDbRotatedDimension
0
ENDSEC
0
SECTION
2
OBJECTS
0
DICTIONARY
5
300
330
0
100
AcDbDictionary
281
1
3
ACAD_GROUP
350
301
0
DICTIONARY
5
301
330
300
100
AcDbDictionary
281
1
0
ENDSEC
0
EOF
