0
SECTION
2
HEADER
9
$ACADVER
1
AC1021
9
$HANDSEED
5
400
9
$INSBASE
10
0.0
20
0.0
30
0.0
9
$EXTMIN
10
-3000.0
20
-4000.0
30
0.0
9
$EXTMAX
10
11500.0
20
9000.0
30
0.0
9
$INSUNITS
70
4
9
$MEASUREMENT
70
1
9
$LUNITS
70
2
9
$LUPREC
70
2
9
$LTSCALE
40
10.0
9
$TEXTSTYLE
7
Standard
9
$DIMSTYLE
2
Standard
9
$PDMODE
70
0
9
$PDSIZE
40
0.0
0
ENDSEC
0
SECTION
2
TABLES
0
TABLE
2
VPORT
5
10
330
0
100
AcDbSymbolTable
70
1
0
VPORT
5
11
330
10
100
AcDbSymbolTableRecord
100
AcDbViewportTableRecord
2
*Active
70
0
10
0.0
20
0.0
11
1.0
21
1.0
12
4250.0
22
2300.0
13
0.0
23
0.0
14
910.0
24
910.0
15
910.0
25
910.0
16
0.0
26
0.0
36
1.0
17
0.0
27
0.0
37
0.0
40
14000.0
41
1.5
42
50.0
43
0.0
44
0.0
50
0.0
51
0.0
71
0
72
1000
73
1
74
3
75
0
76
1
77
0
78
0
0
ENDTAB
0
TABLE
2
LTYPE
5
12
330
0
100
AcDbSymbolTable
70
3
0
LTYPE
5
13
330
12
100
AcDbSymbolTableRecord
100
AcDbLinetypeTableRecord
2
ByBlock
70
0
3

72
65
73
0
40
0.0
0
LTYPE
5
14
330
12
100
AcDbSymbolTableRecord
100
AcDbLinetypeTableRecord
2
ByLayer
70
0
3

72
65
73
0
40
0.0
0
LTYPE
5
15
330
12
100
AcDbSymbolTableRecord
100
AcDbLinetypeTableRecord
2
Continuous
70
0
3
Solid line
72
65
73
0
40
0.0
0
ENDTAB
0
TABLE
2
LAYER
5
20
330
0
100
AcDbSymbolTable
70
8
0
LAYER
5
21
330
20
100
AcDbSymbolTableRecord
100
AcDbLayerTableRecord
2
0
70
0
62
7
6
Continuous
370
-3
0
LAYER
5
22
330
20
100
AcDbSymbolTableRecord
100
AcDbLayerTableRecord
2
GRID
70
0
62
8
6
Continuous
370
-3
0
LAYER
5
23
330
20
100
AcDbSymbolTableRecord
100
AcDbLayerTableRecord
2
WALL
70
0
62
7
6
Continuous
370
-3
0
LAYER
5
24
330
20
100
AcDbSymbolTableRecord
100
AcDbLayerTableRecord
2
OPENING
70
0
62
3
6
Continuous
370
-3
0
LAYER
5
25
330
20
100
AcDbSymbolTableRecord
100
AcDbLayerTableRecord
2
DIM
70
0
62
4
6
Continuous
370
-3
0
LAYER
5
26
330
20
100
AcDbSymbolTableRecord
100
AcDbLayerTableRecord
2
ROOM
70
0
62
2
6
Continuous
370
-3
0
LAYER
5
27
330
20
100
AcDbSymbolTableRecord
100
AcDbLayerTableRecord
2
TEXT
70
0
62
7
6
Continuous
370
-3
0
LAYER
5
28
330
20
100
AcDbSymbolTableRecord
100
AcDbLayerTableRecord
2
STAIR
70
0
62
5
6
Continuous
370
-3
0
ENDTAB
0
TABLE
2
STYLE
5
30
330
0
100
AcDbSymbolTable
70
1
0
STYLE
5
31
330
30
100
AcDbSymbolTableRecord
100
AcDbTextStyleTableRecord
2
Standard
70
0
40
0.0
41
1.0
50
0.0
71
0
42
250.0
3
msgothic.ttc
4

0
ENDTAB
0
TABLE
2
VIEW
5
32
330
0
100
AcDbSymbolTable
70
0
0
ENDTAB
0
TABLE
2
UCS
5
33
330
0
100
AcDbSymbolTable
70
0
0
ENDTAB
0
TABLE
2
APPID
5
34
330
0
100
AcDbSymbolTable
70
1
0
APPID
5
35
330
34
100
AcDbSymbolTableRecord
100
AcDbRegAppTableRecord
2
ACAD
70
0
0
ENDTAB
0
TABLE
2
DIMSTYLE
5
36
330
0
100
AcDbSymbolTable
70
1
100
AcDbDimStyleTable
71
1
340
37
0
DIMSTYLE
105
37
330
36
100
AcDbSymbolTableRecord
100
AcDbDimStyleTableRecord
2
Standard
70
0
40
1.0
41
150.0
42
60.0
43
950.0
44
100.0
73
0
74
0
75
0
76
0
77
1
78
8
140
250.0
141
100.0
143
0.03937007874016
147
60.0
171
3
172
1
271
0
272
2
273
2
274
3
277
2
278
46
279
0
280
0
281
0
282
0
283
0
284
8
0
ENDTAB
0
TABLE
2
BLOCK_RECORD
5
40
330
0
100
AcDbSymbolTable
70
36
0
BLOCK_RECORD
5
41
330
40
100
AcDbSymbolTableRecord
100
AcDbBlockTableRecord
2
*Model_Space
340
F
70
0
280
1
281
0
0
BLOCK_RECORD
5
42
330
40
100
AcDbSymbolTableRecord
100
AcDbBlockTableRecord
2
*Paper_Space
340
101
70
0
280
1
281
0
0
BLOCK_RECORD
5
50
330
40
100
AcDbSymbolTableRecord
100
AcDbBlockTableRecord
2
*D1
70
0
280
1
281
0
0
BLOCK_RECORD
5
51
330
40
100
AcDbSymbolTableRecord
100
AcDbBlockTableRecord
2
*D2
70
0
280
1
281
0
0
BLOCK_RECORD
5
52
330
40
100
AcDbSymbolTableRecord
100
AcDbBlockTableRecord
2
*D3
70
0
280
1
281
0
0
BLOCK_RECORD
5
53
330
40
100
AcDbSymbolTableRecord
100
AcDbBlockTableRecord
2
*D4
70
0
280
1
281
0
0
BLOCK_RECORD
5
54
330
40
100
AcDbSymbolTableRecord
100
AcDbBlockTableRecord
2
*D5
70
0
280
1
281
0
0
BLOCK_RECORD
5
55
330
40
100
AcDbSymbolTableRecord
100
AcDbBlockTableRecord
2
*D6
70
0
280
1
281
0
0
BLOCK_RECORD
5
56
330
40
100
AcDbSymbolTableRecord
100
AcDbBlockTableRecord
2
*D7
70
0
280
1
281
0
0
BLOCK_RECORD
5
57
330
40
100
AcDbSymbolTableRecord
100
AcDbBlockTableRecord
2
*D8
70
0
280
1
281
0
0
BLOCK_RECORD
5
58
330
40
100
AcDbSymbolTableRecord
100
AcDbBlockTableRecord
2
*D9
70
0
280
1
281
0
0
BLOCK_RECORD
5
59
330
40
100
AcDbSymbolTableRecord
100
AcDbBlockTableRecord
2
*D10
70
0
280
1
281
0
0
BLOCK_RECORD
5
5A
330
40
100
AcDbSymbolTableRecord
100
AcDbBlockTableRecord
2
*D11
70
0
280
1
281
0
0
BLOCK_RECORD
5
5B
330
40
100
AcDbSymbolTableRecord
100
AcDbBlockTableRecord
2
*D12
70
0
280
1
281
0
0
BLOCK_RECORD
5
5C
330
40
100
AcDbSymbolTableRecord
100
AcDbBlockTableRecord
2
*D13
70
0
280
1
281
0
0
BLOCK_RECORD
5
5D
330
40
100
AcDbSymbolTableRecord
100
AcDbBlockTableRecord
2
*D14
70
0
280
1
281
0
0
BLOCK_RECORD
5
5E
330
40
100
AcDbSymbolTableRecord
100
AcDbBlockTableRecord
2
*D15
70
0
280
1
281
0
0
BLOCK_RECORD
5
5F
330
40
100
AcDbSymbolTableRecord
100
AcDbBlockTableRecord
2
*D16
70
0
280
1
281
0
0
BLOCK_RECORD
5
60
330
40
100
AcDbSymbolTableRecord
100
AcDbBlockTableRecord
2
*D17
70
0
280
1
281
0
0
BLOCK_RECORD
5
61
330
40
100
AcDbSymbolTableRecord
100
AcDbBlockTableRecord
2
*D18
70
0
280
1
281
0
0
BLOCK_RECORD
5
62
330
40
100
AcDbSymbolTableRecord
100
AcDbBlockTableRecord
2
*D19
70
0
280
1
281
0
0
BLOCK_RECORD
5
63
330
40
100
AcDbSymbolTableRecord
100
AcDbBlockTableRecord
2
*D20
70
0
280
1
281
0
0
BLOCK_RECORD
5
64
330
40
100
AcDbSymbolTableRecord
100
AcDbBlockTableRecord
2
*D21
70
0
280
1
281
0
0
BLOCK_RECORD
5
65
330
40
100
AcDbSymbolTableRecord
100
AcDbBlockTableRecord
2
*D22
70
0
280
1
281
0
0
BLOCK_RECORD
5
66
330
40
100
AcDbSymbolTableRecord
100
AcDbBlockTableRecord
2
*D23
70
0
280
1
281
0
0
BLOCK_RECORD
5
67
330
40
100
AcDbSymbolTableRecord
100
AcDbBlockTableRecord
2
*D24
70
0
280
1
281
0
0
BLOCK_RECORD
5
68
330
40
100
AcDbSymbolTableRecord
100
AcDbBlockTableRecord
2
*D25
70
0
280
1
281
0
0
BLOCK_RECORD
5
69
330
40
100
AcDbSymbolTableRecord
100
AcDbBlockTableRecord
2
*D26
70
0
280
1
281
0
0
BLOCK_RECORD
5
6A
330
40
100
AcDbSymbolTableRecord
100
AcDbBlockTableRecord
2
*D27
70
0
280
1
281
0
0
BLOCK_RECORD
5
6B
330
40
100
AcDbSymbolTableRecord
100
AcDbBlockTableRecord
2
*D28
70
0
280
1
281
0
0
BLOCK_RECORD
5
6C
330
40
100
AcDbSymbolTableRecord
100
AcDbBlockTableRecord
2
*D29
70
0
280
1
281
0
0
BLOCK_RECORD
5
6D
330
40
100
AcDbSymbolTableRecord
100
AcDbBlockTableRecord
2
*D30
70
0
280
1
281
0
0
BLOCK_RECORD
5
6E
330
40
100
AcDbSymbolTableRecord
100
AcDbBlockTableRecord
2
*D31
70
0
280
1
281
0
0
BLOCK_RECORD
5
6F
330
40
100
AcDbSymbolTableRecord
100
AcDbBlockTableRecord
2
*D32
70
0
280
1
281
0
0
BLOCK_RECORD
5
70
330
40
100
AcDbSymbolTableRecord
100
AcDbBlockTableRecord
2
*D33
70
0
280
1
281
0
0
BLOCK_RECORD
5
71
330
40
100
AcDbSymbolTableRecord
100
AcDbBlockTableRecord
2
*D34
70
0
280
1
281
0
0
ENDTAB
0
ENDSEC
0
SECTION
2
BLOCKS
0
BLOCK
5
80
330
41
100
AcDbEntity
8
0
100
AcDbBlockBegin
2
*Model_Space
70
0
10
0.0
20
0.0
30
0.0
3
*Model_Space
0
ENDBLK
5
81
330
41
100
AcDbEntity
8
0
100
AcDbBlockEnd
0
BLOCK
5
82
330
42
67
1
100
AcDbEntity
8
0
100
AcDbBlockBegin
2
*Paper_Space
70
0
10
0.0
20
0.0
30
0.0
3
*Paper_Space
0
ENDBLK
5
83
330
42
67
1
100
AcDbEntity
8
0
100
AcDbBlockEnd
0
BLOCK
5
90
330
50
100
AcDbEntity
8
DIM
100
AcDbBlockBegin
2
*D1
70
1
10
0.0
20
0.0
30
0.0
3
*D1
0
ENDBLK
5
91
330
50
100
AcDbEntity
8
DIM
100
AcDbBlockEnd
0
BLOCK
5
92
330
51
100
AcDbEntity
8
DIM
100
AcDbBlockBegin
2
*D2
70
1
10
0.0
20
0.0
30
0.0
3
*D2
0
ENDBLK
5
93
330
51
100
AcDbEntity
8
DIM
100
AcDbBlockEnd
0
BLOCK
5
94
330
52
100
AcDbEntity
8
DIM
100
AcDbBlockBegin
2
*D3
70
1
10
0.0
20
0.0
30
0.0
3
*D3
0
ENDBLK
5
95
330
52
100
AcDbEntity
8
DIM
100
AcDbBlockEnd
0
BLOCK
5
96
330
53
100
AcDbEntity
8
DIM
100
AcDbBlockBegin
2
*D4
70
1
10
0.0
20
0.0
30
0.0
3
*D4
0
ENDBLK
5
97
330
53
100
AcDbEntity
8
DIM
100
AcDbBlockEnd
0
BLOCK
5
98
330
54
100
AcDbEntity
8
DIM
100
AcDbBlockBegin
2
*D5
70
1
10
0.0
20
0.0
30
0.0
3
*D5
0
ENDBLK
5
99
330
54
100
AcDbEntity
8
DIM
100
AcDbBlockEnd
0
BLOCK
5
9A
330
55
100
AcDbEntity
8
DIM
100
AcDbBlockBegin
2
*D6
70
1
10
0.0
20
0.0
30
0.0
3
*D6
0
ENDBLK
5
9B
330
55
100
AcDbEntity
8
DIM
100
AcDbBlockEnd
0
BLOCK
5
9C
330
56
100
AcDbEntity
8
DIM
100
AcDbBlockBegin
2
*D7
70
1
10
0.0
20
0.0
30
0.0
3
*D7
0
ENDBLK
5
9D
330
56
100
AcDbEntity
8
DIM
100
AcDbBlockEnd
0
BLOCK
5
9E
330
57
100
AcDbEntity
8
DIM
100
AcDbBlockBegin
2
*D8
70
1
10
0.0
20
0.0
30
0.0
3
*D8
0
ENDBLK
5
9F
330
57
100
AcDbEntity
8
DIM
100
AcDbBlockEnd
0
BLOCK
5
A0
330
58
100
AcDbEntity
8
DIM
100
AcDbBlockBegin
2
*D9
70
1
10
0.0
20
0.0
30
0.0
3
*D9
0
ENDBLK
5
A1
330
58
100
AcDbEntity
8
DIM
100
AcDbBlockEnd
0
BLOCK
5
A2
330
59
100
AcDbEntity
8
DIM
100
AcDbBlockBegin
2
*D10
70
1
10
0.0
20
0.0
30
0.0
3
*D10
0
ENDBLK
5
A3
330
59
100
AcDbEntity
8
DIM
100
AcDbBlockEnd
0
BLOCK
5
A4
330
5A
100
AcDbEntity
8
DIM
100
AcDbBlockBegin
2
*D11
70
1
10
0.0
20
0.0
30
0.0
3
*D11
0
ENDBLK
5
A5
330
5A
100
AcDbEntity
8
DIM
100
AcDbBlockEnd
0
BLOCK
5
A6
330
5B
100
AcDbEntity
8
DIM
100
AcDbBlockBegin
2
*D12
70
1
10
0.0
20
0.0
30
0.0
3
*D12
0
ENDBLK
5
A7
330
5B
100
AcDbEntity
8
DIM
100
AcDbBlockEnd
0
BLOCK
5
A8
330
5C
100
AcDbEntity
8
DIM
100
AcDbBlockBegin
2
*D13
70
1
10
0.0
20
0.0
30
0.0
3
*D13
0
ENDBLK
5
A9
330
5C
100
AcDbEntity
8
DIM
100
AcDbBlockEnd
0
BLOCK
5
AA
330
5D
100
AcDbEntity
8
DIM
100
AcDbBlockBegin
2
*D14
70
1
10
0.0
20
0.0
30
0.0
3
*D14
0
ENDBLK
5
AB
330
5D
100
AcDbEntity
8
DIM
100
AcDbBlockEnd
0
BLOCK
5
AC
330
5E
100
AcDbEntity
8
DIM
100
AcDbBlockBegin
2
*D15
70
1
10
0.0
20
0.0
30
0.0
3
*D15
0
ENDBLK
5
AD
330
5E
100
AcDbEntity
8
DIM
100
AcDbBlockEnd
0
BLOCK
5
AE
330
5F
100
AcDbEntity
8
DIM
100
AcDbBlockBegin
2
*D16
70
1
10
0.0
20
0.0
30
0.0
3
*D16
0
ENDBLK
5
AF
330
5F
100
AcDbEntity
8
DIM
100
AcDbBlockEnd
0
BLOCK
5
B0
330
60
100
AcDbEntity
8
DIM
100
AcDbBlockBegin
2
*D17
70
1
10
0.0
20
0.0
30
0.0
3
*D17
0
ENDBLK
5
B1
330
60
100
AcDbEntity
8
DIM
100
AcDbBlockEnd
0
BLOCK
5
B2
330
61
100
AcDbEntity
8
DIM
100
AcDbBlockBegin
2
*D18
70
1
10
0.0
20
0.0
30
0.0
3
*D18
0
ENDBLK
5
B3
330
61
100
AcDbEntity
8
DIM
100
AcDbBlockEnd
0
BLOCK
5
B4
330
62
100
AcDbEntity
8
DIM
100
AcDbBlockBegin
2
*D19
70
1
10
0.0
20
0.0
30
0.0
3
*D19
0
ENDBLK
5
B5
330
62
100
AcDbEntity
8
DIM
100
AcDbBlockEnd
0
BLOCK
5
B6
330
63
100
AcDbEntity
8
DIM
100
AcDbBlockBegin
2
*D20
70
1
10
0.0
20
0.0
30
0.0
3
*D20
0
ENDBLK
5
B7
330
63
100
AcDbEntity
8
DIM
100
AcDbBlockEnd
0
BLOCK
5
B8
330
64
100
AcDbEntity
8
DIM
100
AcDbBlockBegin
2
*D21
70
1
10
0.0
20
0.0
30
0.0
3
*D21
0
ENDBLK
5
B9
330
64
100
AcDbEntity
8
DIM
100
AcDbBlockEnd
0
BLOCK
5
BA
330
65
100
AcDbEntity
8
DIM
100
AcDbBlockBegin
2
*D22
70
1
10
0.0
20
0.0
30
0.0
3
*D22
0
ENDBLK
5
BB
330
65
100
AcDbEntity
8
DIM
100
AcDbBlockEnd
0
BLOCK
5
BC
330
66
100
AcDbEntity
8
DIM
100
AcDbBlockBegin
2
*D23
70
1
10
0.0
20
0.0
30
0.0
3
*D23
0
ENDBLK
5
BD
330
66
100
AcDbEntity
8
DIM
100
AcDbBlockEnd
0
BLOCK
5
BE
330
67
100
AcDbEntity
8
DIM
100
AcDbBlockBegin
2
*D24
70
1
10
0.0
20
0.0
30
0.0
3
*D24
0
ENDBLK
5
BF
330
67
100
AcDbEntity
8
DIM
100
AcDbBlockEnd
0
BLOCK
5
C0
330
68
100
AcDbEntity
8
DIM
100
AcDbBlockBegin
2
*D25
70
1
10
0.0
20
0.0
30
0.0
3
*D25
0
ENDBLK
5
C1
330
68
100
AcDbEntity
8
DIM
100
AcDbBlockEnd
0
BLOCK
5
C2
330
69
100
AcDbEntity
8
DIM
100
AcDbBlockBegin
2
*D26
70
1
10
0.0
20
0.0
30
0.0
3
*D26
0
ENDBLK
5
C3
330
69
100
AcDbEntity
8
DIM
100
AcDbBlockEnd
0
BLOCK
5
C4
330
6A
100
AcDbEntity
8
DIM
100
AcDbBlockBegin
2
*D27
70
1
10
0.0
20
0.0
30
0.0
3
*D27
0
ENDBLK
5
C5
330
6A
100
AcDbEntity
8
DIM
100
AcDbBlockEnd
0
BLOCK
5
C6
330
6B
100
AcDbEntity
8
DIM
100
AcDbBlockBegin
2
*D28
70
1
10
0.0
20
0.0
30
0.0
3
*D28
0
ENDBLK
5
C7
330
6B
100
AcDbEntity
8
DIM
100
AcDbBlockEnd
0
BLOCK
5
C8
330
6C
100
AcDbEntity
8
DIM
100
AcDbBlockBegin
2
*D29
70
1
10
0.0
20
0.0
30
0.0
3
*D29
0
ENDBLK
5
C9
330
6C
100
AcDbEntity
8
DIM
100
AcDbBlockEnd
0
BLOCK
5
CA
330
6D
100
AcDbEntity
8
DIM
100
AcDbBlockBegin
2
*D30
70
1
10
0.0
20
0.0
30
0.0
3
*D30
0
ENDBLK
5
CB
330
6D
100
AcDbEntity
8
DIM
100
AcDbBlockEnd
0
BLOCK
5
CC
330
6E
100
AcDbEntity
8
DIM
100
AcDbBlockBegin
2
*D31
70
1
10
0.0
20
0.0
30
0.0
3
*D31
0
ENDBLK
5
CD
330
6E
100
AcDbEntity
8
DIM
100
AcDbBlockEnd
0
BLOCK
5
CE
330
6F
100
AcDbEntity
8
DIM
100
AcDbBlockBegin
2
*D32
70
1
10
0.0
20
0.0
30
0.0
3
*D32
0
ENDBLK
5
CF
330
6F
100
AcDbEntity
8
DIM
100
AcDbBlockEnd
0
BLOCK
5
D0
330
70
100
AcDbEntity
8
DIM
100
AcDbBlockBegin
2
*D33
70
1
10
0.0
20
0.0
30
0.0
3
*D33
0
ENDBLK
5
D1
330
70
100
AcDbEntity
8
DIM
100
AcDbBlockEnd
0
BLOCK
5
D2
330
71
100
AcDbEntity
8
DIM
100
AcDbBlockBegin
2
*D34
70
1
10
0.0
20
0.0
30
0.0
3
*D34
0
ENDBLK
5
D3
330
71
100
AcDbEntity
8
DIM
100
AcDbBlockEnd
0
ENDSEC
0
SECTION
2
ENTITIES
0
LINE
5
200
330
41
100
AcDbEntity
8
WALL
100
AcDbLine
10
-60.0
20
-60.0
30
0.0
11
455.0
21
-60.0
31
0.0
0
LINE
5
201
330
41
100
AcDbEntity
8
WALL
100
AcDbLine
10
1365.0
20
-60.0
30
0.0
11
5915.0
21
-60.0
31
0.0
0
LINE
5
202
330
41
100
AcDbEntity
8
WALL
100
AcDbLine
10
8645.0
20
-60.0
30
0.0
11
9160.0
21
-60.0
31
0.0
0
LINE
5
203
330
41
100
AcDbEntity
8
WALL
100
AcDbLine
10
60.0
20
60.0
30
0.0
11
455.0
21
60.0
31
0.0
0
LINE
5
204
330
41
100
AcDbEntity
8
WALL
100
AcDbLine
10
1365.0
20
60.0
30
0.0
11
5915.0
21
60.0
31
0.0
0
LINE
5
205
330
41
100
AcDbEntity
8
WALL
100
AcDbLine
10
8645.0
20
60.0
30
0.0
11
9040.0
21
60.0
31
0.0
0
LINE
5
206
330
41
100
AcDbEntity
8
WALL
100
AcDbLine
10
9160.0
20
-60.0
30
0.0
11
9160.0
21
1365.0
31
0.0
0
LINE
5
207
330
41
100
AcDbEntity
8
WALL
100
AcDbLine
10
9160.0
20
3185.0
30
0.0
11
9160.0
21
6394.85
31
0.0
0
LINE
5
208
330
41
100
AcDbEntity
8
WALL
100
AcDbLine
10
9040.0
20
60.0
30
0.0
11
9040.0
21
1365.0
31
0.0
0
LINE
5
209
330
41
100
AcDbEntity
8
WALL
100
AcDbLine
10
9040.0
20
3185.0
30
0.0
11
9040.0
21
6345.15
31
0.0
0
LINE
5
20A
330
41
100
AcDbEntity
8
WALL
100
AcDbLine
10
9160.0
20
6394.85
30
0.0
11
8875.89
21
6678.96
31
0.0
0
LINE
5
20B
330
41
100
AcDbEntity
8
WALL
100
AcDbLine
10
7588.96
20
7965.89
30
0.0
11
7304.85
21
8250.0
31
0.0
0
LINE
5
20C
330
41
100
AcDbEntity
8
WALL
100
AcDbLine
10
9040.0
20
6345.15
30
0.0
11
8791.04
21
6594.11
31
0.0
0
LINE
5
20D
330
41
100
AcDbEntity
8
WALL
100
AcDbLine
10
7504.11
20
7881.04
30
0.0
11
7255.15
21
8130.0
31
0.0
0
LINE
5
20E
330
41
100
AcDbEntity
8
WALL
100
AcDbLine
10
-60.0
20
8250.0
30
0.0
11
2275.0
21
8250.0
31
0.0
0
LINE
5
20F
330
41
100
AcDbEntity
8
WALL
100
AcDbLine
10
5005.0
20
8250.0
30
0.0
11
7304.85
21
8250.0
31
0.0
0
LINE
5
210
330
41
100
AcDbEntity
8
WALL
100
AcDbLine
10
60.0
20
8130.0
30
0.0
11
2275.0
21
8130.0
31
0.0
0
LINE
5
211
330
41
100
AcDbEntity
8
WALL
100
AcDbLine
10
5005.0
20
8130.0
30
0.0
11
7255.15
21
8130.0
31
0.0
0
LINE
5
212
330
41
100
AcDbEntity
8
WALL
100
AcDbLine
10
-60.0
20
-60.0
30
0.0
11
-60.0
21
8250.0
31
0.0
0
LINE
5
213
330
41
100
AcDbEntity
8
WALL
100
AcDbLine
10
60.0
20
60.0
30
0.0
11
60.0
21
8130.0
31
0.0
0
LINE
5
214
330
41
100
AcDbEntity
8
WALL
100
AcDbLine
10
1760.0
20
60.0
30
0.0
11
1760.0
21
455.0
31
0.0
0
LINE
5
215
330
41
100
AcDbEntity
8
WALL
100
AcDbLine
10
1760.0
20
1365.0
30
0.0
11
1760.0
21
4490.0
31
0.0
0
LINE
5
216
330
41
100
AcDbEntity
8
WALL
100
AcDbLine
10
1880.0
20
60.0
30
0.0
11
1880.0
21
455.0
31
0.0
0
LINE
5
217
330
41
100
AcDbEntity
8
WALL
100
AcDbLine
10
1880.0
20
1365.0
30
0.0
11
1880.0
21
4490.0
31
0.0
0
LINE
5
218
330
41
100
AcDbEntity
8
WALL
100
AcDbLine
10
3580.0
20
60.0
30
0.0
11
3580.0
21
4490.0
31
0.0
0
LINE
5
219
330
41
100
AcDbEntity
8
WALL
100
AcDbLine
10
3700.0
20
60.0
30
0.0
11
3700.0
21
4490.0
31
0.0
0
LINE
5
21A
330
41
100
AcDbEntity
8
WALL
100
AcDbLine
10
5400.0
20
60.0
30
0.0
11
5400.0
21
4490.0
31
0.0
0
LINE
5
21B
330
41
100
AcDbEntity
8
WALL
100
AcDbLine
10
5520.0
20
60.0
30
0.0
11
5520.0
21
4490.0
31
0.0
0
LINE
5
21C
330
41
100
AcDbEntity
8
WALL
100
AcDbLine
10
60.0
20
1760.0
30
0.0
11
5400.0
21
1760.0
31
0.0
0
LINE
5
21D
330
41
100
AcDbEntity
8
WALL
100
AcDbLine
10
60.0
20
1880.0
30
0.0
11
5400.0
21
1880.0
31
0.0
0
LINE
5
21E
330
41
100
AcDbEntity
8
WALL
100
AcDbLine
10
60.0
20
2215.0
30
0.0
11
1760.0
21
2215.0
31
0.0
0
LINE
5
21F
330
41
100
AcDbEntity
8
WALL
100
AcDbLine
10
60.0
20
2335.0
30
0.0
11
1760.0
21
2335.0
31
0.0
0
LINE
5
220
330
41
100
AcDbEntity
8
WALL
100
AcDbLine
10
1880.0
20
2670.0
30
0.0
11
3580.0
21
2670.0
31
0.0
0
LINE
5
221
330
41
100
AcDbEntity
8
WALL
100
AcDbLine
10
1880.0
20
2790.0
30
0.0
11
3580.0
21
2790.0
31
0.0
0
LINE
5
222
330
41
100
AcDbEntity
8
WALL
100
AcDbLine
10
60.0
20
4490.0
30
0.0
11
455.0
21
4490.0
31
0.0
0
LINE
5
223
330
41
100
AcDbEntity
8
WALL
100
AcDbLine
10
1365.0
20
4490.0
30
0.0
11
6825.0
21
4490.0
31
0.0
0
LINE
5
224
330
41
100
AcDbEntity
8
WALL
100
AcDbLine
10
7735.0
20
4490.0
30
0.0
11
9040.0
21
4490.0
31
0.0
0
LINE
5
225
330
41
100
AcDbEntity
8
WALL
100
AcDbLine
10
60.0
20
4610.0
30
0.0
11
455.0
21
4610.0
31
0.0
0
LINE
5
226
330
41
100
AcDbEntity
8
WALL
100
AcDbLine
10
1365.0
20
4610.0
30
0.0
11
6825.0
21
4610.0
31
0.0
0
LINE
5
227
330
41
100
AcDbEntity
8
WALL
100
AcDbLine
10
7735.0
20
4610.0
30
0.0
11
9040.0
21
4610.0
31
0.0
0
LINE
5
228
330
41
100
AcDbEntity
8
OPENING
100
AcDbLine
10
455.0
20
-60.0
30
0.0
11
455.0
21
60.0
31
0.0
0
LINE
5
229
330
41
100
AcDbEntity
8
OPENING
100
AcDbLine
10
1365.0
20
-60.0
30
0.0
11
1365.0
21
60.0
31
0.0
0
LINE
5
22A
330
41
100
AcDbEntity
8
OPENING
100
AcDbLine
10
5915.0
20
-60.0
30
0.0
11
5915.0
21
60.0
31
0.0
0
LINE
5
22B
330
41
100
AcDbEntity
8
OPENING
100
AcDbLine
10
8645.0
20
-60.0
30
0.0
11
8645.0
21
60.0
31
0.0
0
LINE
5
22C
330
41
100
AcDbEntity
8
OPENING
100
AcDbLine
10
9040.0
20
1365.0
30
0.0
11
9160.0
21
1365.0
31
0.0
0
LINE
5
22D
330
41
100
AcDbEntity
8
OPENING
100
AcDbLine
10
9040.0
20
3185.0
30
0.0
11
9160.0
21
3185.0
31
0.0
0
LINE
5
22E
330
41
100
AcDbEntity
8
OPENING
100
AcDbLine
10
8791.04
20
6594.11
30
0.0
11
8875.89
21
6678.96
31
0.0
0
LINE
5
22F
330
41
100
AcDbEntity
8
OPENING
100
AcDbLine
10
7504.11
20
7881.04
30
0.0
11
7588.96
21
7965.89
31
0.0
0
LINE
5
230
330
41
100
AcDbEntity
8
OPENING
100
AcDbLine
10
2275.0
20
8130.0
30
0.0
11
2275.0
21
8250.0
31
0.0
0
LINE
5
231
330
41
100
AcDbEntity
8
OPENING
100
AcDbLine
10
5005.0
20
8130.0
30
0.0
11
5005.0
21
8250.0
31
0.0
0
LINE
5
232
330
41
100
AcDbEntity
8
OPENING
100
AcDbLine
10
1760.0
20
455.0
30
0.0
11
1880.0
21
455.0
31
0.0
0
LINE
5
233
330
41
100
AcDbEntity
8
OPENING
100
AcDbLine
10
1760.0
20
1365.0
30
0.0
11
1880.0
21
1365.0
31
0.0
0
LINE
5
234
330
41
100
AcDbEntity
8
OPENING
100
AcDbLine
10
455.0
20
4490.0
30
0.0
11
455.0
21
4610.0
31
0.0
0
LINE
5
235
330
41
100
AcDbEntity
8
OPENING
100
AcDbLine
10
1365.0
20
4490.0
30
0.0
11
1365.0
21
4610.0
31
0.0
0
LINE
5
236
330
41
100
AcDbEntity
8
OPENING
100
AcDbLine
10
6825.0
20
4490.0
30
0.0
11
6825.0
21
4610.0
31
0.0
0
LINE
5
237
330
41
100
AcDbEntity
8
OPENING
100
AcDbLine
10
7735.0
20
4490.0
30
0.0
11
7735.0
21
4610.0
31
0.0
0
LINE
5
238
330
41
100
AcDbEntity
8
OPENING
100
AcDbLine
10
455.0
20
0.0
30
0.0
11
455.0
21
910.0
31
0.0
0
LINE
5
239
330
41
100
AcDbEntity
8
OPENING
100
AcDbLine
10
1820.0
20
455.0
30
0.0
11
2730.0
21
455.0
31
0.0
0
LINE
5
23A
330
41
100
AcDbEntity
8
OPENING
100
AcDbLine
10
455.0
20
4550.0
30
0.0
11
455.0
21
5460.0
31
0.0
0
LINE
5
23B
330
41
100
AcDbEntity
8
OPENING
100
AcDbLine
10
7735.0
20
4550.0
30
0.0
11
7735.0
21
5460.0
31
0.0
0
ARC
5
23C
330
41
100
AcDbEntity
8
OPENING
100
AcDbCircle
10
455.0
20
0.0
30
0.0
40
910.0
100
AcDbArc
50
0.0
51
90.0
0
ARC
5
23D
330
41
100
AcDbEntity
8
OPENING
100
AcDbCircle
10
1820.0
20
455.0
30
0.0
40
910.0
100
AcDbArc
50
0.0
51
90.0
0
ARC
5
23E
330
41
100
AcDbEntity
8
OPENING
100
AcDbCircle
10
455.0
20
4550.0
30
0.0
40
910.0
100
AcDbArc
50
0.0
51
90.0
0
ARC
5
23F
330
41
100
AcDbEntity
8
OPENING
100
AcDbCircle
10
7735.0
20
4550.0
30
0.0
40
910.0
100
AcDbArc
50
90.0
51
180.0
0
LINE
5
240
330
41
100
AcDbEntity
8
OPENING
100
AcDbLine
10
5915.0
20
-20.0
30
0.0
11
8645.0
21
-20.0
31
0.0
0
LINE
5
241
330
41
100
AcDbEntity
8
OPENING
100
AcDbLine
10
5915.0
20
20.0
30
0.0
11
8645.0
21
20.0
31
0.0
0
LINE
5
242
330
41
100
AcDbEntity
8
OPENING
100
AcDbLine
10
9080.0
20
1365.0
30
0.0
11
9080.0
21
3185.0
31
0.0
0
LINE
5
243
330
41
100
AcDbEntity
8
OPENING
100
AcDbLine
10
9120.0
20
1365.0
30
0.0
11
9120.0
21
3185.0
31
0.0
0
LINE
5
244
330
41
100
AcDbEntity
8
OPENING
100
AcDbLine
10
8847.61
20
6650.68
30
0.0
11
7560.68
21
7937.61
31
0.0
0
LINE
5
245
330
41
100
AcDbEntity
8
OPENING
100
AcDbLine
10
8819.32
20
6622.39
30
0.0
11
7532.39
21
7909.32
31
0.0
0
LINE
5
246
330
41
100
AcDbEntity
8
OPENING
100
AcDbLine
10
2275.0
20
8170.0
30
0.0
11
5005.0
21
8170.0
31
0.0
0
LINE
5
247
330
41
100
AcDbEntity
8
OPENING
100
AcDbLine
10
2275.0
20
8210.0
30
0.0
11
5005.0
21
8210.0
31
0.0
0
TEXT
5
248
330
41
100
AcDbEntity
8
OPENING
100
AcDbText
10
910.0
20
-300.0
30
0.0
40
200.0
1
D1
7
Standard
72
1
11
910.0
21
-300.0
31
0.0
100
AcDbText
73
2
0
TEXT
5
249
330
41
100
AcDbEntity
8
OPENING
100
AcDbText
10
1500.0
20
910.0
30
0.0
40
200.0
1
D2
7
Standard
72
1
11
1500.0
21
910.0
31
0.0
100
AcDbText
73
2
0
TEXT
5
24A
330
41
100
AcDbEntity
8
OPENING
100
AcDbText
10
910.0
20
4250.0
30
0.0
40
200.0
1
D3
7
Standard
72
1
11
910.0
21
4250.0
31
0.0
100
AcDbText
73
2
0
TEXT
5
24B
330
41
100
AcDbEntity
8
OPENING
100
AcDbText
10
7280.0
20
4250.0
30
0.0
40
200.0
1
D4
7
Standard
72
1
11
7280.0
21
4250.0
31
0.0
100
AcDbText
73
2
0
TEXT
5
24C
330
41
100
AcDbEntity
8
OPENING
100
AcDbText
10
7280.0
20
-300.0
30
0.0
40
200.0
1
W1
7
Standard
72
1
11
7280.0
21
-300.0
31
0.0
100
AcDbText
73
2
0
TEXT
5
24D
330
41
100
AcDbEntity
8
OPENING
100
AcDbText
10
9400.0
20
2275.0
30
0.0
40
200.0
1
W2
7
Standard
72
1
11
9400.0
21
2275.0
31
0.0
100
AcDbText
73
2
0
TEXT
5
24E
330
41
100
AcDbEntity
8
OPENING
100
AcDbText
10
8490.0
20
7580.0
30
0.0
40
200.0
1
W3
7
Standard
72
1
11
8490.0
21
7580.0
31
0.0
100
AcDbText
73
2
0
TEXT
5
24F
330
41
100
AcDbEntity
8
OPENING
100
AcDbText
10
3640.0
20
8500.0
30
0.0
40
200.0
1
W4
7
Standard
72
1
11
3640.0
21
8500.0
31
0.0
100
AcDbText
73
2
0
LINE
5
250
330
41
100
AcDbEntity
8
GRID
100
AcDbLine
10
0.0
20
-3050.0
30
0.0
11
0.0
21
8600.0
31
0.0
0
LINE
5
251
330
41
100
AcDbEntity
8
GRID
100
AcDbLine
10
910.0
20
-3050.0
30
0.0
11
910.0
21
8600.0
31
0.0
0
LINE
5
252
330
41
100
AcDbEntity
8
GRID
100
AcDbLine
10
1820.0
20
-3050.0
30
0.0
11
1820.0
21
8600.0
31
0.0
0
LINE
5
253
330
41
100
AcDbEntity
8
GRID
100
AcDbLine
10
2730.0
20
-3050.0
30
0.0
11
2730.0
21
8600.0
31
0.0
0
LINE
5
254
330
41
100
AcDbEntity
8
GRID
100
AcDbLine
10
3640.0
20
-3050.0
30
0.0
11
3640.0
21
8600.0
31
0.0
0
LINE
5
255
330
41
100
AcDbEntity
8
GRID
100
AcDbLine
10
4550.0
20
-3050.0
30
0.0
11
4550.0
21
8600.0
31
0.0
0
LINE
5
256
330
41
100
AcDbEntity
8
GRID
100
AcDbLine
10
5460.0
20
-3050.0
30
0.0
11
5460.0
21
8600.0
31
0.0
0
LINE
5
257
330
41
100
AcDbEntity
8
GRID
100
AcDbLine
10
6370.0
20
-3050.0
30
0.0
11
6370.0
21
8600.0
31
0.0
0
LINE
5
258
330
41
100
AcDbEntity
8
GRID
100
AcDbLine
10
7280.0
20
-3050.0
30
0.0
11
7280.0
21
8600.0
31
0.0
0
LINE
5
259
330
41
100
AcDbEntity
8
GRID
100
AcDbLine
10
8190.0
20
-3050.0
30
0.0
11
8190.0
21
8600.0
31
0.0
0
LINE
5
25A
330
41
100
AcDbEntity
8
GRID
100
AcDbLine
10
9100.0
20
-3050.0
30
0.0
11
9100.0
21
8600.0
31
0.0
0
LINE
5
25B
330
41
100
AcDbEntity
8
GRID
100
AcDbLine
10
-2050.0
20
0.0
30
0.0
11
9600.0
21
0.0
31
0.0
0
LINE
5
25C
330
41
100
AcDbEntity
8
GRID
100
AcDbLine
10
-2050.0
20
910.0
30
0.0
11
9600.0
21
910.0
31
0.0
0
LINE
5
25D
330
41
100
AcDbEntity
8
GRID
100
AcDbLine
10
-2050.0
20
1820.0
30
0.0
11
9600.0
21
1820.0
31
0.0
0
LINE
5
25E
330
41
100
AcDbEntity
8
GRID
100
AcDbLine
10
-2050.0
20
2730.0
30
0.0
11
9600.0
21
2730.0
31
0.0
0
LINE
5
25F
330
41
100
AcDbEntity
8
GRID
100
AcDbLine
10
-2050.0
20
3640.0
30
0.0
11
9600.0
21
3640.0
31
0.0
0
LINE
5
260
330
41
100
AcDbEntity
8
GRID
100
AcDbLine
10
-2050.0
20
4550.0
30
0.0
11
9600.0
21
4550.0
31
0.0
0
LINE
5
261
330
41
100
AcDbEntity
8
GRID
100
AcDbLine
10
-2050.0
20
5460.0
30
0.0
11
9600.0
21
5460.0
31
0.0
0
LINE
5
262
330
41
100
AcDbEntity
8
GRID
100
AcDbLine
10
-2050.0
20
6370.0
30
0.0
11
9600.0
21
6370.0
31
0.0
0
LINE
5
263
330
41
100
AcDbEntity
8
GRID
100
AcDbLine
10
-2050.0
20
7280.0
30
0.0
11
9600.0
21
7280.0
31
0.0
0
LINE
5
264
330
41
100
AcDbEntity
8
GRID
100
AcDbLine
10
-2050.0
20
8190.0
30
0.0
11
9600.0
21
8190.0
31
0.0
0
TEXT
5
265
330
41
100
AcDbEntity
8
GRID
100
AcDbText
10
0.0
20
-3300.0
30
0.0
40
250.0
1
X1
7
Standard
72
1
11
0.0
21
-3300.0
31
0.0
100
AcDbText
73
2
0
TEXT
5
266
330
41
100
AcDbEntity
8
GRID
100
AcDbText
10
910.0
20
-3300.0
30
0.0
40
250.0
1
X2
7
Standard
72
1
11
910.0
21
-3300.0
31
0.0
100
AcDbText
73
2
0
TEXT
5
267
330
41
100
AcDbEntity
8
GRID
100
AcDbText
10
1820.0
20
-3300.0
30
0.0
40
250.0
1
X3
7
Standard
72
1
11
1820.0
21
-3300.0
31
0.0
100
AcDbText
73
2
0
TEXT
5
268
330
41
100
AcDbEntity
8
GRID
100
AcDbText
10
2730.0
20
-3300.0
30
0.0
40
250.0
1
X4
7
Standard
72
1
11
2730.0
21
-3300.0
31
0.0
100
AcDbText
73
2
0
TEXT
5
269
330
41
100
AcDbEntity
8
GRID
100
AcDbText
10
3640.0
20
-3300.0
30
0.0
40
250.0
1
X5
7
Standard
72
1
11
3640.0
21
-3300.0
31
0.0
100
AcDbText
73
2
0
TEXT
5
26A
330
41
100
AcDbEntity
8
GRID
100
AcDbText
10
4550.0
20
-3300.0
30
0.0
40
250.0
1
X6
7
Standard
72
1
11
4550.0
21
-3300.0
31
0.0
100
AcDbText
73
2
0
TEXT
5
26B
330
41
100
AcDbEntity
8
GRID
100
AcDbText
10
5460.0
20
-3300.0
30
0.0
40
250.0
1
X7
7
Standard
72
1
11
5460.0
21
-3300.0
31
0.0
100
AcDbText
73
2
0
TEXT
5
26C
330
41
100
AcDbEntity
8
GRID
100
AcDbText
10
6370.0
20
-3300.0
30
0.0
40
250.0
1
X8
7
Standard
72
1
11
6370.0
21
-3300.0
31
0.0
100
AcDbText
73
2
0
TEXT
5
26D
330
41
100
AcDbEntity
8
GRID
100
AcDbText
10
7280.0
20
-3300.0
30
0.0
40
250.0
1
X9
7
Standard
72
1
11
7280.0
21
-3300.0
31
0.0
100
AcDbText
73
2
0
TEXT
5
26E
330
41
100
AcDbEntity
8
GRID
100
AcDbText
10
8190.0
20
-3300.0
30
0.0
40
250.0
1
X10
7
Standard
72
1
11
8190.0
21
-3300.0
31
0.0
100
AcDbText
73
2
0
TEXT
5
26F
330
41
100
AcDbEntity
8
GRID
100
AcDbText
10
9100.0
20
-3300.0
30
0.0
40
250.0
1
X11
7
Standard
72
1
11
9100.0
21
-3300.0
31
0.0
100
AcDbText
73
2
0
CIRCLE
5
270
330
41
100
AcDbEntity
8
GRID
100
AcDbCircle
10
0.0
20
-3300.0
30
0.0
40
250.0
0
CIRCLE
5
271
330
41
100
AcDbEntity
8
GRID
100
AcDbCircle
10
910.0
20
-3300.0
30
0.0
40
250.0
0
CIRCLE
5
272
330
41
100
AcDbEntity
8
GRID
100
AcDbCircle
10
1820.0
20
-3300.0
30
0.0
40
250.0
0
CIRCLE
5
273
330
41
100
AcDbEntity
8
GRID
100
AcDbCircle
10
2730.0
20
-3300.0
30
0.0
40
250.0
0
CIRCLE
5
274
330
41
100
AcDbEntity
8
GRID
100
AcDbCircle
10
3640.0
20
-3300.0
30
0.0
40
250.0
0
CIRCLE
5
275
330
41
100
AcDbEntity
8
GRID
100
AcDbCircle
10
4550.0
20
-3300.0
30
0.0
40
250.0
0
CIRCLE
5
276
330
41
100
AcDbEntity
8
GRID
100
AcDbCircle
10
5460.0
20
-3300.0
30
0.0
40
250.0
0
CIRCLE
5
277
330
41
100
AcDbEntity
8
GRID
100
AcDbCircle
10
6370.0
20
-3300.0
30
0.0
40
250.0
0
CIRCLE
5
278
330
41
100
AcDbEntity
8
GRID
100
AcDbCircle
10
7280.0
20
-3300.0
30
0.0
40
250.0
0
CIRCLE
5
279
330
41
100
AcDbEntity
8
GRID
100
AcDbCircle
10
8190.0
20
-3300.0
30
0.0
40
250.0
0
CIRCLE
5
27A
330
41
100
AcDbEntity
8
GRID
100
AcDbCircle
10
9100.0
20
-3300.0
30
0.0
40
250.0
0
TEXT
5
27B
330
41
100
AcDbEntity
8
GRID
100
AcDbText
10
-2300.0
20
0.0
30
0.0
40
250.0
1
Y1
7
Standard
72
1
11
-2300.0
21
0.0
31
0.0
100
AcDbText
73
2
0
TEXT
5
27C
330
41
100
AcDbEntity
8
GRID
100
AcDbText
10
-2300.0
20
910.0
30
0.0
40
250.0
1
Y2
7
Standard
72
1
11
-2300.0
21
910.0
31
0.0
100
AcDbText
73
2
0
TEXT
5
27D
330
41
100
AcDbEntity
8
GRID
100
AcDbText
10
-2300.0
20
1820.0
30
0.0
40
250.0
1
Y3
7
Standard
72
1
11
-2300.0
21
1820.0
31
0.0
100
AcDbText
73
2
0
TEXT
5
27E
330
41
100
AcDbEntity
8
GRID
100
AcDbText
10
-2300.0
20
2730.0
30
0.0
40
250.0
1
Y4
7
Standard
72
1
11
-2300.0
21
2730.0
31
0.0
100
AcDbText
73
2
0
TEXT
5
27F
330
41
100
AcDbEntity
8
GRID
100
AcDbText
10
-2300.0
20
3640.0
30
0.0
40
250.0
1
Y5
7
Standard
72
1
11
-2300.0
21
3640.0
31
0.0
100
AcDbText
73
2
0
TEXT
5
280
330
41
100
AcDbEntity
8
GRID
100
AcDbText
10
-2300.0
20
4550.0
30
0.0
40
250.0
1
Y6
7
Standard
72
1
11
-2300.0
21
4550.0
31
0.0
100
AcDbText
73
2
0
TEXT
5
281
330
41
100
AcDbEntity
8
GRID
100
AcDbText
10
-2300.0
20
5460.0
30
0.0
40
250.0
1
Y7
7
Standard
72
1
11
-2300.0
21
5460.0
31
0.0
100
AcDbText
73
2
0
TEXT
5
282
330
41
100
AcDbEntity
8
GRID
100
AcDbText
10
-2300.0
20
6370.0
30
0.0
40
250.0
1
Y8
7
Standard
72
1
11
-2300.0
21
6370.0
31
0.0
100
AcDbText
73
2
0
TEXT
5
283
330
41
100
AcDbEntity
8
GRID
100
AcDbText
10
-2300.0
20
7280.0
30
0.0
40
250.0
1
Y9
7
Standard
72
1
11
-2300.0
21
7280.0
31
0.0
100
AcDbText
73
2
0
TEXT
5
284
330
41
100
AcDbEntity
8
GRID
100
AcDbText
10
-2300.0
20
8190.0
30
0.0
40
250.0
1
Y10
7
Standard
72
1
11
-2300.0
21
8190.0
31
0.0
100
AcDbText
73
2
0
CIRCLE
5
285
330
41
100
AcDbEntity
8
GRID
100
AcDbCircle
10
-2300.0
20
0.0
30
0.0
40
250.0
0
CIRCLE
5
286
330
41
100
AcDbEntity
8
GRID
100
AcDbCircle
10
-2300.0
20
910.0
30
0.0
40
250.0
0
CIRCLE
5
287
330
41
100
AcDbEntity
8
GRID
100
AcDbCircle
10
-2300.0
20
1820.0
30
0.0
40
250.0
0
CIRCLE
5
288
330
41
100
AcDbEntity
8
GRID
100
AcDbCircle
10
-2300.0
20
2730.0
30
0.0
40
250.0
0
CIRCLE
5
289
330
41
100
AcDbEntity
8
GRID
100
AcDbCircle
10
-2300.0
20
3640.0
30
0.0
40
250.0
0
CIRCLE
5
28A
330
41
100
AcDbEntity
8
GRID
100
AcDbCircle
10
-2300.0
20
4550.0
30
0.0
40
250.0
0
CIRCLE
5
28B
330
41
100
AcDbEntity
8
GRID
100
AcDbCircle
10
-2300.0
20
5460.0
30
0.0
40
250.0
0
CIRCLE
5
28C
330
41
100
AcDbEntity
8
GRID
100
AcDbCircle
10
-2300.0
20
6370.0
30
0.0
40
250.0
0
CIRCLE
5
28D
330
41
100
AcDbEntity
8
GRID
100
AcDbCircle
10
-2300.0
20
7280.0
30
0.0
40
250.0
0
CIRCLE
5
28E
330
41
100
AcDbEntity
8
GRID
100
AcDbCircle
10
-2300.0
20
8190.0
30
0.0
40
250.0
0
LINE
5
290
330
41
100
AcDbEntity
8
STAIR
100
AcDbLine
10
3700.0
20
210.0
30
0.0
11
4500.0
21
210.0
31
0.0
0
LINE
5
291
330
41
100
AcDbEntity
8
STAIR
100
AcDbLine
10
3700.0
20
360.0
30
0.0
11
4500.0
21
360.0
31
0.0
0
LINE
5
292
330
41
100
AcDbEntity
8
STAIR
100
AcDbLine
10
3700.0
20
510.0
30
0.0
11
4500.0
21
510.0
31
0.0
0
LINE
5
293
330
41
100
AcDbEntity
8
STAIR
100
AcDbLine
10
3700.0
20
660.0
30
0.0
11
4500.0
21
660.0
31
0.0
0
LINE
5
294
330
41
100
AcDbEntity
8
STAIR
100
AcDbLine
10
3700.0
20
810.0
30
0.0
11
4500.0
21
810.0
31
0.0
0
LINE
5
295
330
41
100
AcDbEntity
8
STAIR
100
AcDbLine
10
3700.0
20
960.0
30
0.0
11
4500.0
21
960.0
31
0.0
0
LINE
5
296
330
41
100
AcDbEntity
8
STAIR
100
AcDbLine
10
3700.0
20
1110.0
30
0.0
11
4500.0
21
1110.0
31
0.0
0
LINE
5
297
330
41
100
AcDbEntity
8
STAIR
100
AcDbLine
10
4600.0
20
60.0
30
0.0
11
5400.0
21
60.0
31
0.0
0
LINE
5
298
330
41
100
AcDbEntity
8
STAIR
100
AcDbLine
10
4600.0
20
210.0
30
0.0
11
5400.0
21
210.0
31
0.0
0
LINE
5
299
330
41
100
AcDbEntity
8
STAIR
100
AcDbLine
10
4600.0
20
360.0
30
0.0
11
5400.0
21
360.0
31
0.0
0
LINE
5
29A
330
41
100
AcDbEntity
8
STAIR
100
AcDbLine
10
4600.0
20
510.0
30
0.0
11
5400.0
21
510.0
31
0.0
0
LINE
5
29B
330
41
100
AcDbEntity
8
STAIR
100
AcDbLine
10
4600.0
20
660.0
30
0.0
11
5400.0
21
660.0
31
0.0
0
LINE
5
29C
330
41
100
AcDbEntity
8
STAIR
100
AcDbLine
10
4600.0
20
810.0
30
0.0
11
5400.0
21
810.0
31
0.0
0
LINE
5
29D
330
41
100
AcDbEntity
8
STAIR
100
AcDbLine
10
4600.0
20
960.0
30
0.0
11
5400.0
21
960.0
31
0.0
0
LINE
5
29E
330
41
100
AcDbEntity
8
STAIR
100
AcDbLine
10
4600.0
20
1110.0
30
0.0
11
5400.0
21
1110.0
31
0.0
0
LINE
5
29F
330
41
100
AcDbEntity
8
STAIR
100
AcDbLine
10
3700.0
20
1260.0
30
0.0
11
5400.0
21
1260.0
31
0.0
0
LINE
5
2A0
330
41
100
AcDbEntity
8
STAIR
100
AcDbLine
10
4550.0
20
60.0
30
0.0
11
4550.0
21
1260.0
31
0.0
0
TEXT
5
2A1
330
41
100
AcDbEntity
8
STAIR
100
AcDbText
10
4100.0
20
135.0
30
0.0
40
110.0
1
UP
7
Standard
72
1
11
4100.0
21
135.0
31
0.0
100
AcDbText
73
2
0
TEXT
5
2B0
330
41
100
AcDbEntity
8
ROOM
100
AcDbText
10
1150.0
20
1400.0
30
0.0
40
220.0
1
玄関
7
Standard
72
1
11
1150.0
21
1400.0
31
0.0
100
AcDbText
73
2
0
TEXT
5
2B1
330
41
100
AcDbEntity
8
ROOM
100
AcDbText
10
1150.0
20
1150.0
30
0.0
40
180.0
1
3.31 m²
7
Standard
72
1
11
1150.0
21
1150.0
31
0.0
100
AcDbText
73
2
0
TEXT
5
2B2
330
41
100
AcDbEntity
8
ROOM
100
AcDbText
10
910.0
20
2130.0
30
0.0
40
140.0
1
収納
7
Standard
72
1
11
910.0
21
2130.0
31
0.0
100
AcDbText
73
2
0
TEXT
5
2B3
330
41
100
AcDbEntity
8
ROOM
100
AcDbText
10
910.0
20
1960.0
30
0.0
40
120.0
1
0.83 m²
7
Standard
72
1
11
910.0
21
1960.0
31
0.0
100
AcDbText
73
2
0
TEXT
5
2B4
330
41
100
AcDbEntity
8
ROOM
100
AcDbText
10
910.0
20
3520.0
30
0.0
40
220.0
1
洗面脱衣
7
Standard
72
1
11
910.0
21
3520.0
31
0.0
100
AcDbText
73
2
0
TEXT
5
2B5
330
41
100
AcDbEntity
8
ROOM
100
AcDbText
10
910.0
20
3260.0
30
0.0
40
180.0
1
4.14 m²
7
Standard
72
1
11
910.0
21
3260.0
31
0.0
100
AcDbText
73
2
0
TEXT
5
2B6
330
41
100
AcDbEntity
8
ROOM
100
AcDbText
10
2730.0
20
1010.0
30
0.0
40
220.0
1
ホール
7
Standard
72
1
11
2730.0
21
1010.0
31
0.0
100
AcDbText
73
2
0
TEXT
5
2B7
330
41
100
AcDbEntity
8
ROOM
100
AcDbText
10
2730.0
20
760.0
30
0.0
40
180.0
1
3.31 m²
7
Standard
72
1
11
2730.0
21
760.0
31
0.0
100
AcDbText
73
2
0
TEXT
5
2B8
330
41
100
AcDbEntity
8
ROOM
100
AcDbText
10
2730.0
20
2380.0
30
0.0
40
200.0
1
便所
7
Standard
72
1
11
2730.0
21
2380.0
31
0.0
100
AcDbText
73
2
0
TEXT
5
2B9
330
41
100
AcDbEntity
8
ROOM
100
AcDbText
10
2730.0
20
2140.0
30
0.0
40
170.0
1
1.66 m²
7
Standard
72
1
11
2730.0
21
2140.0
31
0.0
100
AcDbText
73
2
0
TEXT
5
2BA
330
41
100
AcDbEntity
8
ROOM
100
AcDbText
10
2730.0
20
3740.0
30
0.0
40
220.0
1
浴室
7
Standard
72
1
11
2730.0
21
3740.0
31
0.0
100
AcDbText
73
2
0
TEXT
5
2BB
330
41
100
AcDbEntity
8
ROOM
100
AcDbText
10
2730.0
20
3490.0
30
0.0
40
180.0
1
3.31 m²
7
Standard
72
1
11
2730.0
21
3490.0
31
0.0
100
AcDbText
73
2
0
TEXT
5
2BC
330
41
100
AcDbEntity
8
ROOM
100
AcDbText
10
4550.0
20
1600.0
30
0.0
40
180.0
1
階段
7
Standard
72
1
11
4550.0
21
1600.0
31
0.0
100
AcDbText
73
2
0
TEXT
5
2BD
330
41
100
AcDbEntity
8
ROOM
100
AcDbText
10
4550.0
20
1390.0
30
0.0
40
150.0
1
3.31 m²
7
Standard
72
1
11
4550.0
21
1390.0
31
0.0
100
AcDbText
73
2
0
TEXT
5
2BE
330
41
100
AcDbEntity
8
ROOM
100
AcDbText
10
4550.0
20
3290.0
30
0.0
40
220.0
1
納戸
7
Standard
72
1
11
4550.0
21
3290.0
31
0.0
100
AcDbText
73
2
0
TEXT
5
2BF
330
41
100
AcDbEntity
8
ROOM
100
AcDbText
10
4550.0
20
3030.0
30
0.0
40
180.0
1
4.97 m²
7
Standard
72
1
11
4550.0
21
3030.0
31
0.0
100
AcDbText
73
2
0
TEXT
5
2C0
330
41
100
AcDbEntity
8
ROOM
100
AcDbText
10
7280.0
20
2420.0
30
0.0
40
300.0
1
和室
7
Standard
72
1
11
7280.0
21
2420.0
31
0.0
100
AcDbText
73
2
0
TEXT
5
2C1
330
41
100
AcDbEntity
8
ROOM
100
AcDbText
10
7280.0
20
2080.0
30
0.0
40
220.0
1
16.56 m²
7
Standard
72
1
11
7280.0
21
2080.0
31
0.0
100
AcDbText
73
2
0
TEXT
5
2C2
330
41
100
AcDbEntity
8
ROOM
100
AcDbText
10
4550.0
20
6520.0
30
0.0
40
320.0
1
LDK
7
Standard
72
1
11
4550.0
21
6520.0
31
0.0
100
AcDbText
73
2
0
TEXT
5
2C3
330
41
100
AcDbEntity
8
ROOM
100
AcDbText
10
4550.0
20
6150.0
30
0.0
40
240.0
1
31.47 m²
7
Standard
72
1
11
4550.0
21
6150.0
31
0.0
100
AcDbText
73
2
0
TEXT
5
2C4
330
41
100
AcDbEntity
8
TEXT
100
AcDbText
10
4550.0
20
-4200.0
30
0.0
40
300.0
1
1階床面積 合計 72.87 m²
7
Standard
72
1
11
4550.0
21
-4200.0
31
0.0
100
AcDbText
73
2
0
DIMENSION
5
300
330
41
100
AcDbEntity
8
DIM
100
AcDbDimension
280
0
2
*D1
10
455.0
20
-600.0
30
0.0
11
227.5
21
-600.0
31
0.0
70
32
71
5
42
455.0
3
Standard
100
AcDbAlignedDimension
13
0.0
23
0.0
33
0.0
14
455.0
24
0.0
34
0.0
50
0.0
100
AcDbRotatedDimension
0
DIMENSION
5
301
330
41
100
AcDbEntity
8
DIM
100
AcDbDimension
280
0
2
*D2
10
1365.0
20
-600.0
30
0.0
11
910.0
21
-600.0
31
0.0
70
32
71
5
42
910.0
3
Standard
100
AcDbAlignedDimension
13
455.0
23
0.0
33
0.0
14
1365.0
24
0.0
34
0.0
50
0.0
100
AcDbRotatedDimension
0
DIMENSION
5
302
330
41
100
AcDbEntity
8
DIM
100
AcDbDimension
280
0
2
*D3
10
5915.0
20
-600.0
30
0.0
11
3640.0
21
-600.0
31
0.0
70
32
71
5
42
4550.0
3
Standard
100
AcDbAlignedDimension
13
1365.0
23
0.0
33
0.0
14
5915.0
24
0.0
34
0.0
50
0.0
100
AcDbRotatedDimension
0
DIMENSION
5
303
330
41
100
AcDbEntity
8
DIM
100
AcDbDimension
280
0
2
*D4
10
8645.0
20
-600.0
30
0.0
11
7280.0
21
-600.0
31
0.0
70
32
71
5
42
2730.0
3
Standard
100
AcDbAlignedDimension
13
5915.0
23
0.0
33
0.0
14
8645.0
24
0.0
34
0.0
50
0.0
100
AcDbRotatedDimension
0
DIMENSION
5
304
330
41
100
AcDbEntity
8
DIM
100
AcDbDimension
280
0
2
*D5
10
9100.0
20
-600.0
30
0.0
11
8872.5
21
-600.0
31
0.0
70
32
71
5
42
455.0
3
Standard
100
AcDbAlignedDimension
13
8645.0
23
0.0
33
0.0
14
9100.0
24
0.0
34
0.0
50
0.0
100
AcDbRotatedDimension
0
DIMENSION
5
305
330
41
100
AcDbEntity
8
DIM
100
AcDbDimension
280
0
2
*D6
10
910.0
20
-1600.0
30
0.0
11
455.0
21
-1600.0
31
0.0
70
32
71
5
42
910.0
3
Standard
100
AcDbAlignedDimension
13
0.0
23
0.0
33
0.0
14
910.0
24
0.0
34
0.0
50
0.0
100
AcDbRotatedDimension
0
DIMENSION
5
306
330
41
100
AcDbEntity
8
DIM
100
AcDbDimension
280
0
2
*D7
10
1820.0
20
-1600.0
30
0.0
11
1365.0
21
-1600.0
31
0.0
70
32
71
5
42
910.0
3
Standard
100
AcDbAlignedDimension
13
910.0
23
0.0
33
0.0
14
1820.0
24
0.0
34
0.0
50
0.0
100
AcDbRotatedDimension
0
DIMENSION
5
307
330
41
100
AcDbEntity
8
DIM
100
AcDbDimension
280
0
2
*D8
10
2730.0
20
-1600.0
30
0.0
11
2275.0
21
-1600.0
31
0.0
70
32
71
5
42
910.0
3
Standard
100
AcDbAlignedDimension
13
1820.0
23
0.0
33
0.0
14
2730.0
24
0.0
34
0.0
50
0.0
100
AcDbRotatedDimension
0
DIMENSION
5
308
330
41
100
AcDbEntity
8
DIM
100
AcDbDimension
280
0
2
*D9
10
3640.0
20
-1600.0
30
0.0
11
3185.0
21
-1600.0
31
0.0
70
32
71
5
42
910.0
3
Standard
100
AcDbAlignedDimension
13
2730.0
23
0.0
33
0.0
14
3640.0
24
0.0
34
0.0
50
0.0
100
AcDbRotatedDimension
0
DIMENSION
5
309
330
41
100
AcDbEntity
8
DIM
100
AcDbDimension
280
0
2
*D10
10
4550.0
20
-1600.0
30
0.0
11
4095.0
21
-1600.0
31
0.0
70
32
71
5
42
910.0
3
Standard
100
AcDbAlignedDimension
13
3640.0
23
0.0
33
0.0
14
4550.0
24
0.0
34
0.0
50
0.0
100
AcDbRotatedDimension
0
DIMENSION
5
30A
330
41
100
AcDbEntity
8
DIM
100
AcDbDimension
280
0
2
*D11
10
5460.0
20
-1600.0
30
0.0
11
5005.0
21
-1600.0
31
0.0
70
32
71
5
42
910.0
3
Standard
100
AcDbAlignedDimension
13
4550.0
23
0.0
33
0.0
14
5460.0
24
0.0
34
0.0
50
0.0
100
AcDbRotatedDimension
0
DIMENSION
5
30B
330
41
100
AcDbEntity
8
DIM
100
AcDbDimension
280
0
2
*D12
10
6370.0
20
-1600.0
30
0.0
11
5915.0
21
-1600.0
31
0.0
70
32
71
5
42
910.0
3
Standard
100
AcDbAlignedDimension
13
5460.0
23
0.0
33
0.0
14
6370.0
24
0.0
34
0.0
50
0.0
100
AcDbRotatedDimension
0
DIMENSION
5
30C
330
41
100
AcDbEntity
8
DIM
100
AcDbDimension
280
0
2
*D13
10
7280.0
20
-1600.0
30
0.0
11
6825.0
21
-1600.0
31
0.0
70
32
71
5
42
910.0
3
Standard
100
AcDbAlignedDimension
13
6370.0
23
0.0
33
0.0
14
7280.0
24
0.0
34
0.0
50
0.0
100
AcDbRotatedDimension
0
DIMENSION
5
30D
330
41
100
AcDbEntity
8
DIM
100
AcDbDimension
280
0
2
*D14
10
8190.0
20
-1600.0
30
0.0
11
7735.0
21
-1600.0
31
0.0
70
32
71
5
42
910.0
3
Standard
100
AcDbAlignedDimension
13
7280.0
23
0.0
33
0.0
14
8190.0
24
0.0
34
0.0
50
0.0
100
AcDbRotatedDimension
0
DIMENSION
5
30E
330
41
100
AcDbEntity
8
DIM
100
AcDbDimension
280
0
2
*D15
10
9100.0
20
-1600.0
30
0.0
11
8645.0
21
-1600.0
31
0.0
70
32
71
5
42
910.0
3
Standard
100
AcDbAlignedDimension
13
8190.0
23
0.0
33
0.0
14
9100.0
24
0.0
34
0.0
50
0.0
100
AcDbRotatedDimension
0
DIMENSION
5
30F
330
41
100
AcDbEntity
8
DIM
100
AcDbDimension
280
0
2
*D16
10
9100.0
20
-2600.0
30
0.0
11
4550.0
21
-2600.0
31
0.0
70
32
71
5
42
9100.0
3
Standard
100
AcDbAlignedDimension
13
0.0
23
0.0
33
0.0
14
9100.0
24
0.0
34
0.0
50
0.0
100
AcDbRotatedDimension
0
DIMENSION
5
310
330
41
100
AcDbEntity
8
DIM
100
AcDbDimension
280
0
2
*D17
10
-600.0
20
910.0
30
0.0
11
-600.0
21
455.0
31
0.0
70
32
71
5
42
910.0
3
Standard
100
AcDbAlignedDimension
13
0.0
23
0.0
33
0.0
14
0.0
24
910.0
34
0.0
50
90.0
100
AcDbRotatedDimension
0
DIMENSION
5
311
330
41
100
AcDbEntity
8
DIM
100
AcDbDimension
280
0
2
*D18
10
-600.0
20
1820.0
30
0.0
11
-600.0
21
1365.0
31
0.0
70
32
71
5
42
910.0
3
Standard
100
AcDbAlignedDimension
13
0.0
23
910.0
33
0.0
14
0.0
24
1820.0
34
0.0
50
90.0
100
AcDbRotatedDimension
0
DIMENSION
5
312
330
41
100
AcDbEntity
8
DIM
100
AcDbDimension
280
0
2
*D19
10
-600.0
20
2730.0
30
0.0
11
-600.0
21
2275.0
31
0.0
70
32
71
5
42
910.0
3
Standard
100
AcDbAlignedDimension
13
0.0
23
1820.0
33
0.0
14
0.0
24
2730.0
34
0.0
50
90.0
100
AcDbRotatedDimension
0
DIMENSION
5
313
330
41
100
AcDbEntity
8
DIM
100
AcDbDimension
280
0
2
*D20
10
-600.0
20
3640.0
30
0.0
11
-600.0
21
3185.0
31
0.0
70
32
71
5
42
910.0
3
Standard
100
AcDbAlignedDimension
13
0.0
23
2730.0
33
0.0
14
0.0
24
3640.0
34
0.0
50
90.0
100
AcDbRotatedDimension
0
DIMENSION
5
314
330
41
100
AcDbEntity
8
DIM
100
AcDbDimension
280
0
2
*D21
10
-600.0
20
4550.0
30
0.0
11
-600.0
21
4095.0
31
0.0
70
32
71
5
42
910.0
3
Standard
100
AcDbAlignedDimension
13
0.0
23
3640.0
33
0.0
14
0.0
24
4550.0
34
0.0
50
90.0
100
AcDbRotatedDimension
0
DIMENSION
5
315
330
41
100
AcDbEntity
8
DIM
100
AcDbDimension
280
0
2
*D22
10
-600.0
20
5460.0
30
0.0
11
-600.0
21
5005.0
31
0.0
70
32
71
5
42
910.0
3
Standard
100
AcDbAlignedDimension
13
0.0
23
4550.0
33
0.0
14
0.0
24
5460.0
34
0.0
50
90.0
100
AcDbRotatedDimension
0
DIMENSION
5
316
330
41
100
AcDbEntity
8
DIM
100
AcDbDimension
280
0
2
*D23
10
-600.0
20
6370.0
30
0.0
11
-600.0
21
5915.0
31
0.0
70
32
71
5
42
910.0
3
Standard
100
AcDbAlignedDimension
13
0.0
23
5460.0
33
0.0
14
0.0
24
6370.0
34
0.0
50
90.0
100
AcDbRotatedDimension
0
DIMENSION
5
317
330
41
100
AcDbEntity
8
DIM
100
AcDbDimension
280
0
2
*D24
10
-600.0
20
7280.0
30
0.0
11
-600.0
21
6825.0
31
0.0
70
32
71
5
42
910.0
3
Standard
100
AcDbAlignedDimension
13
0.0
23
6370.0
33
0.0
14
0.0
24
7280.0
34
0.0
50
90.0
100
AcDbRotatedDimension
0
DIMENSION
5
318
330
41
100
AcDbEntity
8
DIM
100
AcDbDimension
280
0
2
*D25
10
-600.0
20
8190.0
30
0.0
11
-600.0
21
7735.0
31
0.0
70
32
71
5
42
910.0
3
Standard
100
AcDbAlignedDimension
13
0.0
23
7280.0
33
0.0
14
0.0
24
8190.0
34
0.0
50
90.0
100
AcDbRotatedDimension
0
DIMENSION
5
319
330
41
100
AcDbEntity
8
DIM
100
AcDbDimension
280
0
2
*D26
10
-1600.0
20
8190.0
30
0.0
11
-1600.0
21
4095.0
31
0.0
70
32
71
5
42
8190.0
3
Standard
100
AcDbAlignedDimension
13
0.0
23
0.0
33
0.0
14
0.0
24
8190.0
34
0.0
50
90.0
100
AcDbRotatedDimension
0
DIMENSION
5
31A
330
41
100
AcDbEntity
8
DIM
100
AcDbDimension
280
0
2
*D27
10
9700.0
20
910.0
30
0.0
11
9700.0
21
455.0
31
0.0
70
32
71
5
42
910.0
3
Standard
100
AcDbAlignedDimension
13
9100.0
23
0.0
33
0.0
14
9100.0
24
910.0
34
0.0
50
90.0
100
AcDbRotatedDimension
0
DIMENSION
5
31B
330
41
100
AcDbEntity
8
DIM
100
AcDbDimension
280
0
2
*D28
10
9700.0
20
1820.0
30
0.0
11
9700.0
21
1365.0
31
0.0
70
32
71
5
42
910.0
3
Standard
100
AcDbAlignedDimension
13
9100.0
23
910.0
33
0.0
14
9100.0
24
1820.0
34
0.0
50
90.0
100
AcDbRotatedDimension
0
DIMENSION
5
31C
330
41
100
AcDbEntity
8
DIM
100
AcDbDimension
280
0
2
*D29
10
9700.0
20
2730.0
30
0.0
11
9700.0
21
2275.0
31
0.0
70
32
71
5
42
910.0
3
Standard
100
AcDbAlignedDimension
13
9100.0
23
1820.0
33
0.0
14
9100.0
24
2730.0
34
0.0
50
90.0
100
AcDbRotatedDimension
0
DIMENSION
5
31D
330
41
100
AcDbEntity
8
DIM
100
AcDbDimension
280
0
2
*D30
10
9700.0
20
3640.0
30
0.0
11
9700.0
21
3185.0
31
0.0
70
32
71
5
42
910.0
3
Standard
100
AcDbAlignedDimension
13
9100.0
23
2730.0
33
0.0
14
9100.0
24
3640.0
34
0.0
50
90.0
100
AcDbRotatedDimension
0
DIMENSION
5
31E
330
41
100
AcDbEntity
8
DIM
100
AcDbDimension
280
0
2
*D31
10
9700.0
20
4550.0
30
0.0
11
9700.0
21
4095.0
31
0.0
70
32
71
5
42
910.0
3
Standard
100
AcDbAlignedDimension
13
9100.0
23
3640.0
33
0.0
14
9100.0
24
4550.0
34
0.0
50
90.0
100
AcDbRotatedDimension
0
DIMENSION
5
31F
330
41
100
AcDbEntity
8
DIM
100
AcDbDimension
280
0
2
*D32
10
9700.0
20
5460.0
30
0.0
11
9700.0
21
5005.0
31
0.0
70
32
71
5
42
910.0
3
Standard
100
AcDbAlignedDimension
13
9100.0
23
4550.0
33
0.0
14
9100.0
24
5460.0
34
0.0
50
90.0
100
AcDbRotatedDimension
0
DIMENSION
5
320
330
41
100
AcDbEntity
8
DIM
100
AcDbDimension
280
0
2
*D33
10
9700.0
20
6370.0
30
0.0
11
9700.0
21
5915.0
31
0.0
70
32
71
5
42
910.0
3
Standard
100
AcDbAlignedDimension
13
9100.0
23
5460.0
33
0.0
14
9100.0
24
6370.0
34
0.0
50
90.0
100
AcDbRotatedDimension
0
DIMENSION
5
321
330
41
100
AcDbEntity
8
DIM
100
AcDbDimension
280
0
2
*D34
10
10700.0
20
6370.0
30
0.0
11
10700.0
21
3185.0
31
0.0
70
32
71
5
42
6370.0
3
Standard
100
AcDbAlignedDimension
13
9100.0
23
0.0
33
0.0
14
9100.0
24
6370.0
34
0.0
50
90.0
100
AcDbRotatedDimension
0
ENDSEC
0
SECTION
2
OBJECTS
0
DICTIONARY
5
C
330
0
100
AcDbDictionary
281
1
3
ACAD_GROUP
350
D
3
ACAD_LAYOUT
350
E
0
DICTIONARY
5
D
330
C
100
AcDbDictionary
281
1
0
DICTIONARY
5
E
330
C
100
AcDbDictionary
281
1
3
Model
350
F
3
Layout1
350
101
0
LAYOUT
5
F
330
E
100
AcDbPlotSettings
1

2
none_device
4

6

40
0.0
41
0.0
42
0.0
43
0.0
44
0.0
45
0.0
46
0.0
47
0.0
48
0.0
49
0.0
140
0.0
141
0.0
142
1.0
143
1.0
70
1712
72
0
73
0
74
0
7

75
0
147
1.0
148
0.0
149
0.0
100
AcDbLayout
1
Model
70
1
71
0
10
0.0
20
0.0
11
420.0
21
297.0
31
0.0
12
0.0
22
0.0
32
0.0
14
-3000.0
24
-4500.0
34
0.0
15
11500.0
25
9000.0
35
0.0
146
0.0
13
0.0
23
0.0
33
0.0
16
1.0
26
0.0
36
0.0
17
0.0
27
1.0
37
0.0
76
0
330
41
0
LAYOUT
5
101
330
E
100
AcDbPlotSettings
1

2
none_device
4

6

40
0.0
41
0.0
42
0.0
43
0.0
44
0.0
45
0.0
46
0.0
47
0.0
48
0.0
49
0.0
140
0.0
141
0.0
142
1.0
143
1.0
70
1712
72
0
73
0
74
0
7

75
0
147
1.0
148
0.0
149
0.0
100
AcDbLayout
1
Layout1
70
1
71
1
10
0.0
20
0.0
11
420.0
21
297.0
31
0.0
12
0.0
22
0.0
32
0.0
14
0.0
24
0.0
34
0.0
15
420.0
25
297.0
35
0.0
146
0.0
13
0.0
23
0.0
33
0.0
16
1.0
26
0.0
36
0.0
17
0.0
27
1.0
37
0.0
76
0
330
42
0
ENDSEC
0
EOF
