0
SECTION
2
HEADER
9
$ACADVER
1
AC1027
9
$INSBASE
10
0.0
20
0.0
30
0.0
9
$EXTMIN
10
-3200.0
20
-3200.0
30
0.0
9
$EXTMAX
10
11200.0
20
9800.0
30
0.0
9
$LIMMIN
10
-3200.0
20
-3200.0
9
$LIMMAX
10
11200.0
20
9800.0
9
$INSUNITS
70
4
9
$MEASUREMENT
70
1
9
$LUNITS
70
2
9
$LUPREC
70
2
9
$AUNITS
70
0
9
$AUPREC
70
2
9
$LTSCALE
40
1.0
9
$CELTYPE
6
ByLayer
9
$CECOLOR
62
256
9
$CLAYER
8
0
9
$TEXTSTYLE
7
Standard
9
$TEXTSIZE
40
250.0
9
$DIMSTYLE
2
Standard
9
$DIMSCALE
40
100.0
9
$DIMTXT
40
2.5
9
$DIMASZ
40
2.5
9
$DIMEXE
40
1.25
9
$DIMEXO
40
0.625
9
$DIMGAP
40
0.625
9
$DIMDEC
70
0
9
$DIMLUNIT
70
2
9
$DIMTAD
70
1
9
$DIMTIH
70
0
9
$DIMTOH
70
0
9
$DIMASSOC
280
2
9
$PDMODE
70
0
9
$PDSIZE
40
0.0
9
$HANDSEED
5
2000
0
ENDSEC
0
SECTION
2
TABLES
0
TABLE
2
VPORT
5
2
330
0
100
AcDbSymbolTable
70
1
0
VPORT
5
3
330
2
100
AcDbSymbolTableRecord
100
AcDbViewportTableRecord
2
*Active
70
0
10
0.0
20
0.0
11
1.0
21
1.0
12
4000.0
22
3000.0
13
0.0
23
0.0
14
10.0
24
10.0
15
10.0
25
10.0
16
0.0
26
0.0
36
1.0
17
0.0
27
0.0
37
0.0
40
10000.0
41
1.5
42
50.0
43
0.0
44
0.0
50
0.0
51
0.0
71
0
72
100
73
1
74
3
75
0
76
0
77
0
78
0
0
ENDTAB
0
TABLE
2
LTYPE
5
4
330
0
100
AcDbSymbolTable
70
4
0
LTYPE
5
5
330
4
100
AcDbSymbolTableRecord
100
AcDbLinetypeTableRecord
2
ByBlock
70
0
3

72
65
73
0
40
0.0
0
LTYPE
5
6
330
4
100
AcDbSymbolTableRecord
100
AcDbLinetypeTableRecord
2
ByLayer
70
0
3

72
65
73
0
40
0.0
0
LTYPE
5
7
330
4
100
AcDbSymbolTableRecord
100
AcDbLinetypeTableRecord
2
Continuous
70
0
3
Solid line
72
65
73
0
40
0.0
0
LTYPE
5
22
330
4
100
AcDbSymbolTableRecord
100
AcDbLinetypeTableRecord
2
CENTER
70
0
3
Center ____ _ ____ _ ____ _ ____ _ ____
72
65
73
4
40
2032.0
49
1270.0
74
0
49
-254.0
74
0
49
254.0
74
0
49
-254.0
74
0
0
ENDTAB
0
TABLE
2
LAYER
5
8
330
0
100
AcDbSymbolTable
70
8
0
LAYER
5
9
330
8
100
AcDbSymbolTableRecord
100
AcDbLayerTableRecord
2
0
70
0
62
7
6
Continuous
370
-3
0
LAYER
5
A
330
8
100
AcDbSymbolTableRecord
100
AcDbLayerTableRecord
2
GRID
70
0
62
8
6
CENTER
370
-3
0
LAYER
5
B
330
8
100
AcDbSymbolTableRecord
100
AcDbLayerTableRecord
2
WALL
70
0
62
7
6
Continuous
370
50
0
LAYER
5
C
330
8
100
AcDbSymbolTableRecord
100
AcDbLayerTableRecord
2
OPENING
70
0
62
4
6
Continuous
370
-3
0
LAYER
5
D
330
8
100
AcDbSymbolTableRecord
100
AcDbLayerTableRecord
2
DIM
70
0
62
1
6
Continuous
370
-3
0
LAYER
5
E
330
8
100
AcDbSymbolTableRecord
100
AcDbLayerTableRecord
2
ROOM
70
0
62
3
6
Continuous
370
-3
0
LAYER
5
F
330
8
100
AcDbSymbolTableRecord
100
AcDbLayerTableRecord
2
TEXT
70
0
62
7
6
Continuous
370
-3
0
LAYER
5
10
330
8
100
AcDbSymbolTableRecord
100
AcDbLayerTableRecord
2
STAIR
70
0
62
5
6
Continuous
370
-3
0
ENDTAB
0
TABLE
2
STYLE
5
11
330
0
100
AcDbSymbolTable
70
1
0
STYLE
5
12
330
11
100
AcDbSymbolTableRecord
100
AcDbTextStyleTableRecord
2
Standard
70
0
40
0.0
41
1.0
50
0.0
71
0
42
250.0
3
msgothic.ttc
4

0
ENDTAB
0
TABLE
2
VIEW
5
13
330
0
100
AcDbSymbolTable
70
0
0
ENDTAB
0
TABLE
2
UCS
5
14
330
0
100
AcDbSymbolTable
70
0
0
ENDTAB
0
TABLE
2
APPID
5
15
330
0
100
AcDbSymbolTable
70
1
0
APPID
5
16
330
15
100
AcDbSymbolTableRecord
100
AcDbRegAppTableRecord
2
ACAD
70
0
0
ENDTAB
0
TABLE
2
DIMSTYLE
5
17
330
0
100
AcDbSymbolTable
70
1
100
AcDbDimStyleTable
71
1
0
DIMSTYLE
105
18
330
17
100
AcDbSymbolTableRecord
100
AcDbDimStyleTableRecord
2
Standard
70
0
40
100.0
41
2.5
42
0.625
43
3.75
44
1.25
73
0
74
0
77
1
78
0
140
2.5
141
2.5
142
0.0
143
0.03937007874016
147
0.625
171
3
172
1
271
0
272
2
274
3
278
44
283
0
284
8
340
12
0
ENDTAB
0
TABLE
2
BLOCK_RECORD
5
19
330
0
100
AcDbSymbolTable
70
2
0
BLOCK_RECORD
5
1A
330
19
100
AcDbSymbolTableRecord
100
AcDbBlockTableRecord
2
*Model_Space
340
33
70
0
280
1
281
0
0
BLOCK_RECORD
5
1B
330
19
100
AcDbSymbolTableRecord
100
AcDbBlockTableRecord
2
*Paper_Space
340
34
70
0
280
1
281
0
0
ENDTAB
0
ENDSEC
0
SECTION
2
BLOCKS
0
BLOCK
5
1C
330
1A
100
AcDbEntity
8
0
100
AcDbBlockBegin
2
*Model_Space
70
0
10
0.0
20
0.0
30
0.0
3
*Model_Space
1

0
ENDBLK
5
1D
330
1A
100
AcDbEntity
8
0
100
AcDbBlockEnd
0
BLOCK
5
1E
330
1B
100
AcDbEntity
8
0
100
AcDbBlockBegin
2
*Paper_Space
70
0
10
0.0
20
0.0
30
0.0
3
*Paper_Space
1

0
ENDBLK
5
1F
330
1B
100
AcDbEntity
8
0
100
AcDbBlockEnd
0
ENDSEC
0
SECTION
2
ENTITIES
0
LINE
5
100
330
1A
100
AcDbEntity
8
GRID
100
AcDbLine
10
0.0
20
-400.0
30
0.0
11
0.0
21
8700.0
31
0.0
0
LINE
5
101
330
1A
100
AcDbEntity
8
GRID
100
AcDbLine
10
910.0
20
-400.0
30
0.0
11
910.0
21
8700.0
31
0.0
0
LINE
5
102
330
1A
100
AcDbEntity
8
GRID
100
AcDbLine
10
1820.0
20
-400.0
30
0.0
11
1820.0
21
8700.0
31
0.0
0
LINE
5
103
330
1A
100
AcDbEntity
8
GRID
100
AcDbLine
10
2730.0
20
-400.0
30
0.0
11
2730.0
21
8700.0
31
0.0
0
LINE
5
104
330
1A
100
AcDbEntity
8
GRID
100
AcDbLine
10
3640.0
20
-400.0
30
0.0
11
3640.0
21
8700.0
31
0.0
0
LINE
5
105
330
1A
100
AcDbEntity
8
GRID
100
AcDbLine
10
4550.0
20
-400.0
30
0.0
11
4550.0
21
8700.0
31
0.0
0
LINE
5
106
330
1A
100
AcDbEntity
8
GRID
100
AcDbLine
10
5460.0
20
-400.0
30
0.0
11
5460.0
21
8700.0
31
0.0
0
LINE
5
107
330
1A
100
AcDbEntity
8
GRID
100
AcDbLine
10
6370.0
20
-400.0
30
0.0
11
6370.0
21
8700.0
31
0.0
0
LINE
5
108
330
1A
100
AcDbEntity
8
GRID
100
AcDbLine
10
7280.0
20
-400.0
30
0.0
11
7280.0
21
8700.0
31
0.0
0
LINE
5
109
330
1A
100
AcDbEntity
8
GRID
100
AcDbLine
10
8190.0
20
-400.0
30
0.0
11
8190.0
21
8700.0
31
0.0
0
LINE
5
10A
330
1A
100
AcDbEntity
8
GRID
100
AcDbLine
10
9100.0
20
-400.0
30
0.0
11
9100.0
21
8700.0
31
0.0
0
LINE
5
10B
330
1A
100
AcDbEntity
8
GRID
100
AcDbLine
10
-2400.0
20
0.0
30
0.0
11
9400.0
21
0.0
31
0.0
0
LINE
5
10C
330
1A
100
AcDbEntity
8
GRID
100
AcDbLine
10
-2400.0
20
910.0
30
0.0
11
9400.0
21
910.0
31
0.0
0
LINE
5
10D
330
1A
100
AcDbEntity
8
GRID
100
AcDbLine
10
-2400.0
20
1820.0
30
0.0
11
9400.0
21
1820.0
31
0.0
0
LINE
5
10E
330
1A
100
AcDbEntity
8
GRID
100
AcDbLine
10
-2400.0
20
2730.0
30
0.0
11
9400.0
21
2730.0
31
0.0
0
LINE
5
10F
330
1A
100
AcDbEntity
8
GRID
100
AcDbLine
10
-2400.0
20
3640.0
30
0.0
11
9400.0
21
3640.0
31
0.0
0
LINE
5
110
330
1A
100
AcDbEntity
8
GRID
100
AcDbLine
10
-2400.0
20
4550.0
30
0.0
11
9400.0
21
4550.0
31
0.0
0
LINE
5
111
330
1A
100
AcDbEntity
8
GRID
100
AcDbLine
10
-2400.0
20
5460.0
30
0.0
11
9400.0
21
5460.0
31
0.0
0
LINE
5
112
330
1A
100
AcDbEntity
8
GRID
100
AcDbLine
10
-2400.0
20
6370.0
30
0.0
11
9400.0
21
6370.0
31
0.0
0
LINE
5
113
330
1A
100
AcDbEntity
8
GRID
100
AcDbLine
10
-2400.0
20
7280.0
30
0.0
11
9400.0
21
7280.0
31
0.0
0
LINE
5
114
330
1A
100
AcDbEntity
8
GRID
100
AcDbLine
10
-2400.0
20
8190.0
30
0.0
11
9400.0
21
8190.0
31
0.0
0
TEXT
5
115
330
1A
100
AcDbEntity
8
GRID
100
AcDbText
10
0.0
20
8950.0
30
0.0
40
250.0
1
X1
7
Standard
72
1
11
0.0
21
8950.0
31
0.0
100
AcDbText
73
2
0
TEXT
5
116
330
1A
100
AcDbEntity
8
GRID
100
AcDbText
10
910.0
20
8950.0
30
0.0
40
250.0
1
X2
7
Standard
72
1
11
910.0
21
8950.0
31
0.0
100
AcDbText
73
2
0
TEXT
5
117
330
1A
100
AcDbEntity
8
GRID
100
AcDbText
10
1820.0
20
8950.0
30
0.0
40
250.0
1
X3
7
Standard
72
1
11
1820.0
21
8950.0
31
0.0
100
AcDbText
73
2
0
TEXT
5
118
330
1A
100
AcDbEntity
8
GRID
100
AcDbText
10
2730.0
20
8950.0
30
0.0
40
250.0
1
X4
7
Standard
72
1
11
2730.0
21
8950.0
31
0.0
100
AcDbText
73
2
0
TEXT
5
119
330
1A
100
AcDbEntity
8
GRID
100
AcDbText
10
3640.0
20
8950.0
30
0.0
40
250.0
1
X5
7
Standard
72
1
11
3640.0
21
8950.0
31
0.0
100
AcDbText
73
2
0
TEXT
5
11A
330
1A
100
AcDbEntity
8
GRID
100
AcDbText
10
4550.0
20
8950.0
30
0.0
40
250.0
1
X6
7
Standard
72
1
11
4550.0
21
8950.0
31
0.0
100
AcDbText
73
2
0
TEXT
5
11B
330
1A
100
AcDbEntity
8
GRID
100
AcDbText
10
5460.0
20
8950.0
30
0.0
40
250.0
1
X7
7
Standard
72
1
11
5460.0
21
8950.0
31
0.0
100
AcDbText
73
2
0
TEXT
5
11C
330
1A
100
AcDbEntity
8
GRID
100
AcDbText
10
6370.0
20
8950.0
30
0.0
40
250.0
1
X8
7
Standard
72
1
11
6370.0
21
8950.0
31
0.0
100
AcDbText
73
2
0
TEXT
5
11D
330
1A
100
AcDbEntity
8
GRID
100
AcDbText
10
7280.0
20
8950.0
30
0.0
40
250.0
1
X9
7
Standard
72
1
11
7280.0
21
8950.0
31
0.0
100
AcDbText
73
2
0
TEXT
5
11E
330
1A
100
AcDbEntity
8
GRID
100
AcDbText
10
8190.0
20
8950.0
30
0.0
40
250.0
1
X10
7
Standard
72
1
11
8190.0
21
8950.0
31
0.0
100
AcDbText
73
2
0
TEXT
5
11F
330
1A
100
AcDbEntity
8
GRID
100
AcDbText
10
9100.0
20
8950.0
30
0.0
40
250.0
1
X11
7
Standard
72
1
11
9100.0
21
8950.0
31
0.0
100
AcDbText
73
2
0
0
TEXT
5
120
330
1A
100
AcDbEntity
8
GRID
100
AcDbText
10
-2650.0
20
0.0
30
0.0
40
250.0
1
Y1
7
Standard
72
1
11
-2650.0
21
0.0
31
0.0
100
AcDbText
73
2
0
TEXT
5
121
330
1A
100
AcDbEntity
8
GRID
100
AcDbText
10
-2650.0
20
910.0
30
0.0
40
250.0
1
Y2
7
Standard
72
1
11
-2650.0
21
910.0
31
0.0
100
AcDbText
73
2
0
TEXT
5
122
330
1A
100
AcDbEntity
8
GRID
100
AcDbText
10
-2650.0
20
1820.0
30
0.0
40
250.0
1
Y3
7
Standard
72
1
11
-2650.0
21
1820.0
31
0.0
100
AcDbText
73
2
0
TEXT
5
123
330
1A
100
AcDbEntity
8
GRID
100
AcDbText
10
-2650.0
20
2730.0
30
0.0
40
250.0
1
Y4
7
Standard
72
1
11
-2650.0
21
2730.0
31
0.0
100
AcDbText
73
2
0
TEXT
5
124
330
1A
100
AcDbEntity
8
GRID
100
AcDbText
10
-2650.0
20
3640.0
30
0.0
40
250.0
1
Y5
7
Standard
72
1
11
-2650.0
21
3640.0
31
0.0
100
AcDbText
73
2
0
TEXT
5
125
330
1A
100
AcDbEntity
8
GRID
100
AcDbText
10
-2650.0
20
4550.0
30
0.0
40
250.0
1
Y6
7
Standard
72
1
11
-2650.0
21
4550.0
31
0.0
100
AcDbText
73
2
0
TEXT
5
126
330
1A
100
AcDbEntity
8
GRID
100
AcDbText
10
-2650.0
20
5460.0
30
0.0
40
250.0
1
Y7
7
Standard
72
1
11
-2650.0
21
5460.0
31
0.0
100
AcDbText
73
2
0
TEXT
5
127
330
1A
100
AcDbEntity
8
GRID
100
AcDbText
10
-2650.0
20
6370.0
30
0.0
40
250.0
1
Y8
7
Standard
72
1
11
-2650.0
21
6370.0
31
0.0
100
AcDbText
73
2
0
TEXT
5
128
330
1A
100
AcDbEntity
8
GRID
100
AcDbText
10
-2650.0
20
7280.0
30
0.0
40
250.0
1
Y9
7
Standard
72
1
11
-2650.0
21
7280.0
31
0.0
100
AcDbText
73
2
0
TEXT
5
129
330
1A
100
AcDbEntity
8
GRID
100
AcDbText
10
-2650.0
20
8190.0
30
0.0
40
250.0
1
Y10
7
Standard
72
1
11
-2650.0
21
8190.0
31
0.0
100
AcDbText
73
2
0
LWPOLYLINE
5
12A
330
1A
100
AcDbEntity
8
WALL
100
AcDbPolyline
90
4
70
1
43
0.0
10
0.0
20
-60.0
10
455.0
20
-60.0
10
455.0
20
60.0
10
0.0
20
60.0
0
LWPOLYLINE
5
12B
330
1A
100
AcDbEntity
8
WALL
100
AcDbPolyline
90
4
70
1
43
0.0
10
1365.0
20
-60.0
10
5915.0
20
-60.0
10
5915.0
20
60.0
10
1365.0
20
60.0
0
LWPOLYLINE
5
12C
330
1A
100
AcDbEntity
8
WALL
100
AcDbPolyline
90
4
70
1
43
0.0
10
8645.0
20
-60.0
10
9100.0
20
-60.0
10
9100.0
20
60.0
10
8645.0
20
60.0
0
LWPOLYLINE
5
12D
330
1A
100
AcDbEntity
8
WALL
100
AcDbPolyline
90
4
70
1
43
0.0
10
9040.0
20
0.0
10
9160.0
20
0.0
10
9160.0
20
1365.0
10
9040.0
20
1365.0
0
LWPOLYLINE
5
12E
330
1A
100
AcDbEntity
8
WALL
100
AcDbPolyline
90
4
70
1
43
0.0
10
9040.0
20
3185.0
10
9160.0
20
3185.0
10
9160.0
20
6370.0
10
9040.0
20
6370.0
0
LWPOLYLINE
5
12F
330
1A
100
AcDbEntity
8
WALL
100
AcDbPolyline
90
4
70
1
43
0.0
10
9142.4264
20
6412.4264
10
8875.8935
20
6678.9593
10
8791.0407
20
6594.1065
10
9057.5736
20
6327.5736
0
LWPOLYLINE
5
130
330
1A
100
AcDbEntity
8
WALL
100
AcDbPolyline
90
4
70
1
43
0.0
10
7588.9593
20
7965.8935
10
7322.4264
20
8232.4264
10
7237.5736
20
8147.5736
10
7504.1065
20
7881.0407
0
LWPOLYLINE
5
131
330
1A
100
AcDbEntity
8
WALL
100
AcDbPolyline
90
4
70
1
43
0.0
10
0.0
20
8130.0
10
2275.0
20
8130.0
10
2275.0
20
8250.0
10
0.0
20
8250.0
0
LWPOLYLINE
5
132
330
1A
100
AcDbEntity
8
WALL
100
AcDbPolyline
90
4
70
1
43
0.0
10
5005.0
20
8130.0
10
7280.0
20
8130.0
10
7280.0
20
8250.0
10
5005.0
20
8250.0
0
LWPOLYLINE
5
133
330
1A
100
AcDbEntity
8
WALL
100
AcDbPolyline
90
4
70
1
43
0.0
10
-60.0
20
0.0
10
60.0
20
0.0
10
60.0
20
8190.0
10
-60.0
20
8190.0
0
LWPOLYLINE
5
134
330
1A
100
AcDbEntity
8
WALL
100
AcDbPolyline
90
4
70
1
43
0.0
10
1760.0
20
0.0
10
1880.0
20
0.0
10
1880.0
20
455.0
10
1760.0
20
455.0
0
LWPOLYLINE
5
135
330
1A
100
AcDbEntity
8
WALL
100
AcDbPolyline
90
4
70
1
43
0.0
10
1760.0
20
1365.0
10
1880.0
20
1365.0
10
1880.0
20
4550.0
10
1760.0
20
4550.0
0
LWPOLYLINE
5
136
330
1A
100
AcDbEntity
8
WALL
100
AcDbPolyline
90
4
70
1
43
0.0
10
3580.0
20
0.0
10
3700.0
20
0.0
10
3700.0
20
4550.0
10
3580.0
20
4550.0
0
LWPOLYLINE
5
137
330
1A
100
AcDbEntity
8
WALL
100
AcDbPolyline
90
4
70
1
43
0.0
10
5400.0
20
0.0
10
5520.0
20
0.0
10
5520.0
20
4550.0
10
5400.0
20
4550.0
0
LWPOLYLINE
5
138
330
1A
100
AcDbEntity
8
WALL
100
AcDbPolyline
90
4
70
1
43
0.0
10
0.0
20
1760.0
10
5460.0
20
1760.0
10
5460.0
20
1880.0
10
0.0
20
1880.0
0
LWPOLYLINE
5
139
330
1A
100
AcDbEntity
8
WALL
100
AcDbPolyline
90
4
70
1
43
0.0
10
0.0
20
2215.0
10
1820.0
20
2215.0
10
1820.0
20
2335.0
10
0.0
20
2335.0
0
LWPOLYLINE
5
13A
330
1A
100
AcDbEntity
8
WALL
100
AcDbPolyline
90
4
70
1
43
0.0
10
1820.0
20
2670.0
10
3640.0
20
2670.0
10
3640.0
20
2790.0
10
1820.0
20
2790.0
0
LWPOLYLINE
5
13B
330
1A
100
AcDbEntity
8
WALL
100
AcDbPolyline
90
4
70
1
43
0.0
10
0.0
20
4490.0
10
455.0
20
4490.0
10
455.0
20
4610.0
10
0.0
20
4610.0
0
LWPOLYLINE
5
13C
330
1A
100
AcDbEntity
8
WALL
100
AcDbPolyline
90
4
70
1
43
0.0
10
1365.0
20
4490.0
10
6825.0
20
4490.0
10
6825.0
20
4610.0
10
1365.0
20
4610.0
0
LWPOLYLINE
5
13D
330
1A
100
AcDbEntity
8
WALL
100
AcDbPolyline
90
4
70
1
43
0.0
10
7735.0
20
4490.0
10
9100.0
20
4490.0
10
9100.0
20
4610.0
10
7735.0
20
4610.0
0
LINE
5
13E
330
1A
100
AcDbEntity
8
OPENING
100
AcDbLine
10
455.0
20
-60.0
30
0.0
11
455.0
21
60.0
31
0.0
0
LINE
5
13F
330
1A
100
AcDbEntity
8
OPENING
100
AcDbLine
10
1365.0
20
-60.0
30
0.0
11
1365.0
21
60.0
31
0.0
0
LINE
5
140
330
1A
100
AcDbEntity
8
OPENING
100
AcDbLine
10
455.0
20
0.0
30
0.0
11
455.0
21
910.0
31
0.0
0
ARC
5
141
330
1A
100
AcDbEntity
8
OPENING
100
AcDbCircle
10
455.0
20
0.0
30
0.0
40
910.0
100
AcDbArc
50
0.0
51
90.0
0
LINE
5
142
330
1A
100
AcDbEntity
8
OPENING
100
AcDbLine
10
1760.0
20
455.0
30
0.0
11
1880.0
21
455.0
31
0.0
0
LINE
5
143
330
1A
100
AcDbEntity
8
OPENING
100
AcDbLine
10
1760.0
20
1365.0
30
0.0
11
1880.0
21
1365.0
31
0.0
0
LINE
5
144
330
1A
100
AcDbEntity
8
OPENING
100
AcDbLine
10
1820.0
20
455.0
30
0.0
11
2730.0
21
455.0
31
0.0
0
ARC
5
145
330
1A
100
AcDbEntity
8
OPENING
100
AcDbCircle
10
1820.0
20
455.0
30
0.0
40
910.0
100
AcDbArc
50
0.0
51
90.0
0
LINE
5
146
330
1A
100
AcDbEntity
8
OPENING
100
AcDbLine
10
455.0
20
4490.0
30
0.0
11
455.0
21
4610.0
31
0.0
0
LINE
5
147
330
1A
100
AcDbEntity
8
OPENING
100
AcDbLine
10
1365.0
20
4490.0
30
0.0
11
1365.0
21
4610.0
31
0.0
0
LINE
5
148
330
1A
100
AcDbEntity
8
OPENING
100
AcDbLine
10
455.0
20
4550.0
30
0.0
11
455.0
21
5460.0
31
0.0
0
ARC
5
149
330
1A
100
AcDbEntity
8
OPENING
100
AcDbCircle
10
455.0
20
4550.0
30
0.0
40
910.0
100
AcDbArc
50
0.0
51
90.0
0
LINE
5
14A
330
1A
100
AcDbEntity
8
OPENING
100
AcDbLine
10
6825.0
20
4490.0
30
0.0
11
6825.0
21
4610.0
31
0.0
0
LINE
5
14B
330
1A
100
AcDbEntity
8
OPENING
100
AcDbLine
10
7735.0
20
4490.0
30
0.0
11
7735.0
21
4610.0
31
0.0
0
LINE
5
14C
330
1A
100
AcDbEntity
8
OPENING
100
AcDbLine
10
7735.0
20
4550.0
30
0.0
11
7735.0
21
5460.0
31
0.0
0
ARC
5
14D
330
1A
100
AcDbEntity
8
OPENING
100
AcDbCircle
10
7735.0
20
4550.0
30
0.0
40
910.0
100
AcDbArc
50
90.0
51
180.0
0
LINE
5
14E
330
1A
100
AcDbEntity
8
OPENING
100
AcDbLine
10
5915.0
20
-60.0
30
0.0
11
5915.0
21
60.0
31
0.0
0
LINE
5
14F
330
1A
100
AcDbEntity
8
OPENING
100
AcDbLine
10
8645.0
20
-60.0
30
0.0
11
8645.0
21
60.0
31
0.0
0
LINE
5
150
330
1A
100
AcDbEntity
8
OPENING
100
AcDbLine
10
5915.0
20
-20.0
30
0.0
11
8645.0
21
-20.0
31
0.0
0
LINE
5
151
330
1A
100
AcDbEntity
8
OPENING
100
AcDbLine
10
5915.0
20
20.0
30
0.0
11
8645.0
21
20.0
31
0.0
0
LINE
5
152
330
1A
100
AcDbEntity
8
OPENING
100
AcDbLine
10
9040.0
20
1365.0
30
0.0
11
9160.0
21
1365.0
31
0.0
0
LINE
5
153
330
1A
100
AcDbEntity
8
OPENING
100
AcDbLine
10
9040.0
20
3185.0
30
0.0
11
9160.0
21
3185.0
31
0.0
0
LINE
5
154
330
1A
100
AcDbEntity
8
OPENING
100
AcDbLine
10
9080.0
20
1365.0
30
0.0
11
9080.0
21
3185.0
31
0.0
0
LINE
5
155
330
1A
100
AcDbEntity
8
OPENING
100
AcDbLine
10
9120.0
20
1365.0
30
0.0
11
9120.0
21
3185.0
31
0.0
0
LINE
5
156
330
1A
100
AcDbEntity
8
OPENING
100
AcDbLine
10
8791.0407
20
6594.1065
30
0.0
11
8875.8935
21
6678.9593
31
0.0
0
LINE
5
157
330
1A
100
AcDbEntity
8
OPENING
100
AcDbLine
10
7504.1065
20
7881.0407
30
0.0
11
7588.9593
21
7965.8935
31
0.0
0
LINE
5
158
330
1A
100
AcDbEntity
8
OPENING
100
AcDbLine
10
8819.3250
20
6622.3908
30
0.0
11
7532.3908
21
7909.3250
31
0.0
0
LINE
5
159
330
1A
100
AcDbEntity
8
OPENING
100
AcDbLine
10
8847.6092
20
6650.6750
30
0.0
11
7560.6750
21
7937.6092
31
0.0
0
LINE
5
15A
330
1A
100
AcDbEntity
8
OPENING
100
AcDbLine
10
2275.0
20
8130.0
30
0.0
11
2275.0
21
8250.0
31
0.0
0
LINE
5
15B
330
1A
100
AcDbEntity
8
OPENING
100
AcDbLine
10
5005.0
20
8130.0
30
0.0
11
5005.0
21
8250.0
31
0.0
0
LINE
5
15C
330
1A
100
AcDbEntity
8
OPENING
100
AcDbLine
10
2275.0
20
8170.0
30
0.0
11
5005.0
21
8170.0
31
0.0
0
LINE
5
15D
330
1A
100
AcDbEntity
8
OPENING
100
AcDbLine
10
2275.0
20
8210.0
30
0.0
11
5005.0
21
8210.0
31
0.0
0
TEXT
5
15E
330
1A
100
AcDbEntity
8
OPENING
100
AcDbText
10
910.0
20
-260.0
30
0.0
40
200.0
1
D1
7
Standard
72
1
11
910.0
21
-260.0
31
0.0
100
AcDbText
73
2
0
TEXT
5
15F
330
1A
100
AcDbEntity
8
OPENING
100
AcDbText
10
2200.0
20
250.0
30
0.0
40
200.0
1
D2
7
Standard
72
1
11
2200.0
21
250.0
31
0.0
100
AcDbText
73
2
0
TEXT
5
160
330
1A
100
AcDbEntity
8
OPENING
100
AcDbText
10
1600.0
20
4750.0
30
0.0
40
200.0
1
D3
7
Standard
72
1
11
1600.0
21
4750.0
31
0.0
100
AcDbText
73
2
0
TEXT
5
161
330
1A
100
AcDbEntity
8
OPENING
100
AcDbText
10
8000.0
20
4750.0
30
0.0
40
200.0
1
D4
7
Standard
72
1
11
8000.0
21
4750.0
31
0.0
100
AcDbText
73
2
0
TEXT
5
162
330
1A
100
AcDbEntity
8
OPENING
100
AcDbText
10
7280.0
20
-260.0
30
0.0
40
200.0
1
W1
7
Standard
72
1
11
7280.0
21
-260.0
31
0.0
100
AcDbText
73
2
0
TEXT
5
163
330
1A
100
AcDbEntity
8
OPENING
100
AcDbText
10
9400.0
20
2275.0
30
0.0
40
200.0
1
W2
7
Standard
72
1
11
9400.0
21
2275.0
31
0.0
100
AcDbText
73
2
0
TEXT
5
164
330
1A
100
AcDbEntity
8
OPENING
100
AcDbText
10
8402.0
20
7492.0
30
0.0
40
200.0
1
W3
7
Standard
72
1
11
8402.0
21
7492.0
31
0.0
100
AcDbText
73
2
0
TEXT
5
165
330
1A
100
AcDbEntity
8
OPENING
100
AcDbText
10
3640.0
20
8500.0
30
0.0
40
200.0
1
W4
7
Standard
72
1
11
3640.0
21
8500.0
31
0.0
100
AcDbText
73
2
0
TEXT
5
166
330
1A
100
AcDbEntity
8
ROOM
100
AcDbText
10
910.0
20
1010.0
30
0.0
40
250.0
1
玄関
7
Standard
72
1
11
910.0
21
1010.0
31
0.0
100
AcDbText
73
2
0
TEXT
5
167
330
1A
100
AcDbEntity
8
ROOM
100
AcDbText
10
910.0
20
660.0
30
0.0
40
220.0
1
3.31 m²
7
Standard
72
1
11
910.0
21
660.0
31
0.0
100
AcDbText
73
2
0
TEXT
5
168
330
1A
100
AcDbEntity
8
ROOM
100
AcDbText
10
910.0
20
2140.0
30
0.0
40
180.0
1
収納
7
Standard
72
1
11
910.0
21
2140.0
31
0.0
100
AcDbText
73
2
0
TEXT
5
169
330
1A
100
AcDbEntity
8
ROOM
100
AcDbText
10
910.0
20
1930.0
30
0.0
40
160.0
1
0.83 m²
7
Standard
72
1
11
910.0
21
1930.0
31
0.0
100
AcDbText
73
2
0
TEXT
5
16A
330
1A
100
AcDbEntity
8
ROOM
100
AcDbText
10
910.0
20
3520.0
30
0.0
40
250.0
1
洗面脱衣
7
Standard
72
1
11
910.0
21
3520.0
31
0.0
100
AcDbText
73
2
0
TEXT
5
16B
330
1A
100
AcDbEntity
8
ROOM
100
AcDbText
10
910.0
20
3200.0
30
0.0
40
220.0
1
4.14 m²
7
Standard
72
1
11
910.0
21
3200.0
31
0.0
100
AcDbText
73
2
0
TEXT
5
16C
330
1A
100
AcDbEntity
8
ROOM
100
AcDbText
10
2730.0
20
1010.0
30
0.0
40
250.0
1
ホール
7
Standard
72
1
11
2730.0
21
1010.0
31
0.0
100
AcDbText
73
2
0
TEXT
5
16D
330
1A
100
AcDbEntity
8
ROOM
100
AcDbText
10
2730.0
20
660.0
30
0.0
40
220.0
1
3.31 m²
7
Standard
72
1
11
2730.0
21
660.0
31
0.0
100
AcDbText
73
2
0
TEXT
5
16E
330
1A
100
AcDbEntity
8
ROOM
100
AcDbText
10
2730.0
20
2380.0
30
0.0
40
200.0
1
便所
7
Standard
72
1
11
2730.0
21
2380.0
31
0.0
100
AcDbText
73
2
0
TEXT
5
16F
330
1A
100
AcDbEntity
8
ROOM
100
AcDbText
10
2730.0
20
2100.0
30
0.0
40
180.0
1
1.66 m²
7
Standard
72
1
11
2730.0
21
2100.0
31
0.0
100
AcDbText
73
2
0
TEXT
5
170
330
1A
100
AcDbEntity
8
ROOM
100
AcDbText
10
2730.0
20
3740.0
30
0.0
40
250.0
1
浴室
7
Standard
72
1
11
2730.0
21
3740.0
31
0.0
100
AcDbText
73
2
0
TEXT
5
171
330
1A
100
AcDbEntity
8
ROOM
100
AcDbText
10
2730.0
20
3420.0
30
0.0
40
220.0
1
3.31 m²
7
Standard
72
1
11
2730.0
21
3420.0
31
0.0
100
AcDbText
73
2
0
TEXT
5
172
330
1A
100
AcDbEntity
8
ROOM
100
AcDbText
10
4550.0
20
1640.0
30
0.0
40
230.0
1
階段
7
Standard
72
1
11
4550.0
21
1640.0
31
0.0
100
AcDbText
73
2
0
TEXT
5
173
330
1A
100
AcDbEntity
8
ROOM
100
AcDbText
10
4550.0
20
1430.0
30
0.0
40
180.0
1
3.31 m²
7
Standard
72
1
11
4550.0
21
1430.0
31
0.0
100
AcDbText
73
2
0
TEXT
5
174
330
1A
100
AcDbEntity
8
ROOM
100
AcDbText
10
4550.0
20
3290.0
30
0.0
40
250.0
1
納戸
7
Standard
72
1
11
4550.0
21
3290.0
31
0.0
100
AcDbText
73
2
0
TEXT
5
175
330
1A
100
AcDbEntity
8
ROOM
100
AcDbText
10
4550.0
20
2980.0
30
0.0
40
220.0
1
4.97 m²
7
Standard
72
1
11
4550.0
21
2980.0
31
0.0
100
AcDbText
73
2
0
TEXT
5
176
330
1A
100
AcDbEntity
8
ROOM
100
AcDbText
10
7280.0
20
2450.0
30
0.0
40
300.0
1
和室
7
Standard
72
1
11
7280.0
21
2450.0
31
0.0
100
AcDbText
73
2
0
TEXT
5
177
330
1A
100
AcDbEntity
8
ROOM
100
AcDbText
10
7280.0
20
2050.0
30
0.0
40
260.0
1
16.56 m²
7
Standard
72
1
11
7280.0
21
2050.0
31
0.0
100
AcDbText
73
2
0
TEXT
5
178
330
1A
100
AcDbEntity
8
ROOM
100
AcDbText
10
4550.0
20
6300.0
30
0.0
40
300.0
1
LDK
7
Standard
72
1
11
4550.0
21
6300.0
31
0.0
100
AcDbText
73
2
0
TEXT
5
179
330
1A
100
AcDbEntity
8
ROOM
100
AcDbText
10
4550.0
20
5900.0
30
0.0
40
260.0
1
31.47 m²
7
Standard
72
1
11
4550.0
21
5900.0
31
0.0
100
AcDbText
73
2
0
TEXT
5
17A
330
1A
100
AcDbEntity
8
TEXT
100
AcDbText
10
4550.0
20
9500.0
30
0.0
40
350.0
1
1階床面積合計 72.87 m²
7
Standard
72
1
11
4550.0
21
9500.0
31
0.0
100
AcDbText
73
2
0
LINE
5
17B
330
1A
100
AcDbEntity
8
STAIR
100
AcDbLine
10
3700.0
20
220.0
30
0.0
11
4500.0
21
220.0
31
0.0
0
LINE
5
17C
330
1A
100
AcDbEntity
8
STAIR
100
AcDbLine
10
3700.0
20
380.0
30
0.0
11
4500.0
21
380.0
31
0.0
0
LINE
5
17D
330
1A
100
AcDbEntity
8
STAIR
100
AcDbLine
10
3700.0
20
540.0
30
0.0
11
4500.0
21
540.0
31
0.0
0
LINE
5
17E
330
1A
100
AcDbEntity
8
STAIR
100
AcDbLine
10
3700.0
20
700.0
30
0.0
11
4500.0
21
700.0
31
0.0
0
LINE
5
17F
330
1A
100
AcDbEntity
8
STAIR
100
AcDbLine
10
3700.0
20
860.0
30
0.0
11
4500.0
21
860.0
31
0.0
0
LINE
5
180
330
1A
100
AcDbEntity
8
STAIR
100
AcDbLine
10
3700.0
20
1020.0
30
0.0
11
4500.0
21
1020.0
31
0.0
0
LINE
5
181
330
1A
100
AcDbEntity
8
STAIR
100
AcDbLine
10
3700.0
20
1180.0
30
0.0
11
4500.0
21
1180.0
31
0.0
0
LINE
5
182
330
1A
100
AcDbEntity
8
STAIR
100
AcDbLine
10
4600.0
20
1180.0
30
0.0
11
5400.0
21
1180.0
31
0.0
0
LINE
5
183
330
1A
100
AcDbEntity
8
STAIR
100
AcDbLine
10
4600.0
20
1020.0
30
0.0
11
5400.0
21
1020.0
31
0.0
0
LINE
5
184
330
1A
100
AcDbEntity
8
STAIR
100
AcDbLine
10
4600.0
20
860.0
30
0.0
11
5400.0
21
860.0
31
0.0
0
LINE
5
185
330
1A
100
AcDbEntity
8
STAIR
100
AcDbLine
10
4600.0
20
700.0
30
0.0
11
5400.0
21
700.0
31
0.0
0
LINE
5
186
330
1A
100
AcDbEntity
8
STAIR
100
AcDbLine
10
4600.0
20
540.0
30
0.0
11
5400.0
21
540.0
31
0.0
0
LINE
5
187
330
1A
100
AcDbEntity
8
STAIR
100
AcDbLine
10
4600.0
20
380.0
30
0.0
11
5400.0
21
380.0
31
0.0
0
LWPOLYLINE
5
188
330
1A
100
AcDbEntity
8
STAIR
100
AcDbPolyline
90
2
70
0
43
0.0
10
3700.0
20
1340.0
10
5400.0
20
1340.0
0
LWPOLYLINE
5
189
330
1A
100
AcDbEntity
8
STAIR
100
AcDbPolyline
90
4
70
1
43
0.0
10
4500.0
20
60.0
10
4600.0
20
60.0
10
4600.0
20
1340.0
10
4500.0
20
1340.0
0
DIMENSION
5
18A
330
1A
100
AcDbEntity
8
DIM
100
AcDbDimension
10
455.0
20
-600.0
30
0.0
11
227.5
21
-450.0
31
0.0
70
32
71
5
3
Standard
100
AcDbAlignedDimension
13
0.0
23
0.0
33
0.0
14
455.0
24
0.0
34
0.0
50
0.0
100
AcDbRotatedDimension
0
DIMENSION
5
18B
330
1A
100
AcDbEntity
8
DIM
100
AcDbDimension
10
1365.0
20
-600.0
30
0.0
11
910.0
21
-450.0
31
0.0
70
32
71
5
3
Standard
100
AcDbAlignedDimension
13
455.0
23
0.0
33
0.0
14
1365.0
24
0.0
34
0.0
50
0.0
100
AcDbRotatedDimension
0
DIMENSION
5
18C
330
1A
100
AcDbEntity
8
DIM
100
AcDbDimension
10
5915.0
20
-600.0
30
0.0
11
3640.0
21
-450.0
31
0.0
70
32
71
5
3
Standard
100
AcDbAlignedDimension
13
1365.0
23
0.0
33
0.0
14
5915.0
24
0.0
34
0.0
50
0.0
100
AcDbRotatedDimension
0
DIMENSION
5
18D
330
1A
100
AcDbEntity
8
DIM
100
AcDbDimension
10
8645.0
20
-600.0
30
0.0
11
7280.0
21
-450.0
31
0.0
70
32
71
5
3
Standard
100
AcDbAlignedDimension
13
5915.0
23
0.0
33
0.0
14
8645.0
24
0.0
34
0.0
50
0.0
100
AcDbRotatedDimension
0
DIMENSION
5
18E
330
1A
100
AcDbEntity
8
DIM
100
AcDbDimension
10
9100.0
20
-600.0
30
0.0
11
8872.5
21
-450.0
31
0.0
70
32
71
5
3
Standard
100
AcDbAlignedDimension
13
8645.0
23
0.0
33
0.0
14
9100.0
24
0.0
34
0.0
50
0.0
100
AcDbRotatedDimension
0
DIMENSION
5
18F
330
1A
100
AcDbEntity
8
DIM
100
AcDbDimension
10
910.0
20
-1600.0
30
0.0
11
455.0
21
-1450.0
31
0.0
70
32
71
5
3
Standard
100
AcDbAlignedDimension
13
0.0
23
0.0
33
0.0
14
910.0
24
0.0
34
0.0
50
0.0
100
AcDbRotatedDimension
0
DIMENSION
5
190
330
1A
100
AcDbEntity
8
DIM
100
AcDbDimension
10
1820.0
20
-1600.0
30
0.0
11
1365.0
21
-1450.0
31
0.0
70
32
71
5
3
Standard
100
AcDbAlignedDimension
13
910.0
23
0.0
33
0.0
14
1820.0
24
0.0
34
0.0
50
0.0
100
AcDbRotatedDimension
0
DIMENSION
5
191
330
1A
100
AcDbEntity
8
DIM
100
AcDbDimension
10
2730.0
20
-1600.0
30
0.0
11
2275.0
21
-1450.0
31
0.0
70
32
71
5
3
Standard
100
AcDbAlignedDimension
13
1820.0
23
0.0
33
0.0
14
2730.0
24
0.0
34
0.0
50
0.0
100
AcDbRotatedDimension
0
DIMENSION
5
192
330
1A
100
AcDbEntity
8
DIM
100
AcDbDimension
10
3640.0
20
-1600.0
30
0.0
11
3185.0
21
-1450.0
31
0.0
70
32
71
5
3
Standard
100
AcDbAlignedDimension
13
2730.0
23
0.0
33
0.0
14
3640.0
24
0.0
34
0.0
50
0.0
100
AcDbRotatedDimension
0
DIMENSION
5
193
330
1A
100
AcDbEntity
8
DIM
100
AcDbDimension
10
4550.0
20
-1600.0
30
0.0
11
4095.0
21
-1450.0
31
0.0
70
32
71
5
3
Standard
100
AcDbAlignedDimension
13
3640.0
23
0.0
33
0.0
14
4550.0
24
0.0
34
0.0
50
0.0
100
AcDbRotatedDimension
0
DIMENSION
5
194
330
1A
100
AcDbEntity
8
DIM
100
AcDbDimension
10
5460.0
20
-1600.0
30
0.0
11
5005.0
21
-1450.0
31
0.0
70
32
71
5
3
Standard
100
AcDbAlignedDimension
13
4550.0
23
0.0
33
0.0
14
5460.0
24
0.0
34
0.0
50
0.0
100
AcDbRotatedDimension
0
DIMENSION
5
195
330
1A
100
AcDbEntity
8
DIM
100
AcDbDimension
10
6370.0
20
-1600.0
30
0.0
11
5915.0
21
-1450.0
31
0.0
70
32
71
5
3
Standard
100
AcDbAlignedDimension
13
5460.0
23
0.0
33
0.0
14
6370.0
24
0.0
34
0.0
50
0.0
100
AcDbRotatedDimension
0
DIMENSION
5
196
330
1A
100
AcDbEntity
8
DIM
100
AcDbDimension
10
7280.0
20
-1600.0
30
0.0
11
6825.0
21
-1450.0
31
0.0
70
32
71
5
3
Standard
100
AcDbAlignedDimension
13
6370.0
23
0.0
33
0.0
14
7280.0
24
0.0
34
0.0
50
0.0
100
AcDbRotatedDimension
0
DIMENSION
5
197
330
1A
100
AcDbEntity
8
DIM
100
AcDbDimension
10
8190.0
20
-1600.0
30
0.0
11
7735.0
21
-1450.0
31
0.0
70
32
71
5
3
Standard
100
AcDbAlignedDimension
13
7280.0
23
0.0
33
0.0
14
8190.0
24
0.0
34
0.0
50
0.0
100
AcDbRotatedDimension
0
DIMENSION
5
198
330
1A
100
AcDbEntity
8
DIM
100
AcDbDimension
10
9100.0
20
-1600.0
30
0.0
11
8645.0
21
-1450.0
31
0.0
70
32
71
5
3
Standard
100
AcDbAlignedDimension
13
8190.0
23
0.0
33
0.0
14
9100.0
24
0.0
34
0.0
50
0.0
100
AcDbRotatedDimension
0
DIMENSION
5
199
330
1A
100
AcDbEntity
8
DIM
100
AcDbDimension
10
9100.0
20
-2600.0
30
0.0
11
4550.0
21
-2450.0
31
0.0
70
32
71
5
3
Standard
100
AcDbAlignedDimension
13
0.0
23
0.0
33
0.0
14
9100.0
24
0.0
34
0.0
50
0.0
100
AcDbRotatedDimension
0
DIMENSION
5
19A
330
1A
100
AcDbEntity
8
DIM
100
AcDbDimension
10
-600.0
20
910.0
30
0.0
11
-750.0
21
455.0
31
0.0
70
32
71
5
3
Standard
100
AcDbAlignedDimension
13
0.0
23
0.0
33
0.0
14
0.0
24
910.0
34
0.0
50
90.0
100
AcDbRotatedDimension
0
DIMENSION
5
19B
330
1A
100
AcDbEntity
8
DIM
100
AcDbDimension
10
-600.0
20
1820.0
30
0.0
11
-750.0
21
1365.0
31
0.0
70
32
71
5
3
Standard
100
AcDbAlignedDimension
13
0.0
23
910.0
33
0.0
14
0.0
24
1820.0
34
0.0
50
90.0
100
AcDbRotatedDimension
0
DIMENSION
5
19C
330
1A
100
AcDbEntity
8
DIM
100
AcDbDimension
10
-600.0
20
2730.0
30
0.0
11
-750.0
21
2275.0
31
0.0
70
32
71
5
3
Standard
100
AcDbAlignedDimension
13
0.0
23
1820.0
33
0.0
14
0.0
24
2730.0
34
0.0
50
90.0
100
AcDbRotatedDimension
0
DIMENSION
5
19D
330
1A
100
AcDbEntity
8
DIM
100
AcDbDimension
10
-600.0
20
3640.0
30
0.0
11
-750.0
21
3185.0
31
0.0
70
32
71
5
3
Standard
100
AcDbAlignedDimension
13
0.0
23
2730.0
33
0.0
14
0.0
24
3640.0
34
0.0
50
90.0
100
AcDbRotatedDimension
0
DIMENSION
5
19E
330
1A
100
AcDbEntity
8
DIM
100
AcDbDimension
10
-600.0
20
4550.0
30
0.0
11
-750.0
21
4095.0
31
0.0
70
32
71
5
3
Standard
100
AcDbAlignedDimension
13
0.0
23
3640.0
33
0.0
14
0.0
24
4550.0
34
0.0
50
90.0
100
AcDbRotatedDimension
0
DIMENSION
5
19F
330
1A
100
AcDbEntity
8
DIM
100
AcDbDimension
10
-600.0
20
5460.0
30
0.0
11
-750.0
21
5005.0
31
0.0
70
32
71
5
3
Standard
100
AcDbAlignedDimension
13
0.0
23
4550.0
33
0.0
14
0.0
24
5460.0
34
0.0
50
90.0
100
AcDbRotatedDimension
0
DIMENSION
5
1A0
330
1A
100
AcDbEntity
8
DIM
100
AcDbDimension
10
-600.0
20
6370.0
30
0.0
11
-750.0
21
5915.0
31
0.0
70
32
71
5
3
Standard
100
AcDbAlignedDimension
13
0.0
23
5460.0
33
0.0
14
0.0
24
6370.0
34
0.0
50
90.0
100
AcDbRotatedDimension
0
DIMENSION
5
1A1
330
1A
100
AcDbEntity
8
DIM
100
AcDbDimension
10
-600.0
20
7280.0
30
0.0
11
-750.0
21
6825.0
31
0.0
70
32
71
5
3
Standard
100
AcDbAlignedDimension
13
0.0
23
6370.0
33
0.0
14
0.0
24
7280.0
34
0.0
50
90.0
100
AcDbRotatedDimension
0
DIMENSION
5
1A2
330
1A
100
AcDbEntity
8
DIM
100
AcDbDimension
10
-600.0
20
8190.0
30
0.0
11
-750.0
21
7735.0
31
0.0
70
32
71
5
3
Standard
100
AcDbAlignedDimension
13
0.0
23
7280.0
33
0.0
14
0.0
24
8190.0
34
0.0
50
90.0
100
AcDbRotatedDimension
0
DIMENSION
5
1A3
330
1A
100
AcDbEntity
8
DIM
100
AcDbDimension
10
-1600.0
20
8190.0
30
0.0
11
-1750.0
21
4095.0
31
0.0
70
32
71
5
3
Standard
100
AcDbAlignedDimension
13
0.0
23
0.0
33
0.0
14
0.0
24
8190.0
34
0.0
50
90.0
100
AcDbRotatedDimension
0
DIMENSION
5
1A4
330
1A
100
AcDbEntity
8
DIM
100
AcDbDimension
10
9700.0
20
910.0
30
0.0
11
9850.0
21
455.0
31
0.0
70
32
71
5
3
Standard
100
AcDbAlignedDimension
13
9100.0
23
0.0
33
0.0
14
9100.0
24
910.0
34
0.0
50
90.0
100
AcDbRotatedDimension
0
DIMENSION
5
1A5
330
1A
100
AcDbEntity
8
DIM
100
AcDbDimension
10
9700.0
20
1820.0
30
0.0
11
9850.0
21
1365.0
31
0.0
70
32
71
5
3
Standard
100
AcDbAlignedDimension
13
9100.0
23
910.0
33
0.0
14
9100.0
24
1820.0
34
0.0
50
90.0
100
AcDbRotatedDimension
0
DIMENSION
5
1A6
330
1A
100
AcDbEntity
8
DIM
100
AcDbDimension
10
9700.0
20
2730.0
30
0.0
11
9850.0
21
2275.0
31
0.0
70
32
71
5
3
Standard
100
AcDbAlignedDimension
13
9100.0
23
1820.0
33
0.0
14
9100.0
24
2730.0
34
0.0
50
90.0
100
AcDbRotatedDimension
0
DIMENSION
5
1A7
330
1A
100
AcDbEntity
8
DIM
100
AcDbDimension
10
9700.0
20
3640.0
30
0.0
11
9850.0
21
3185.0
31
0.0
70
32
71
5
3
Standard
100
AcDbAlignedDimension
13
9100.0
23
2730.0
33
0.0
14
9100.0
24
3640.0
34
0.0
50
90.0
100
AcDbRotatedDimension
0
DIMENSION
5
1A8
330
1A
100
AcDbEntity
8
DIM
100
AcDbDimension
10
9700.0
20
4550.0
30
0.0
11
9850.0
21
4095.0
31
0.0
70
32
71
5
3
Standard
100
AcDbAlignedDimension
13
9100.0
23
3640.0
33
0.0
14
9100.0
24
4550.0
34
0.0
50
90.0
100
AcDbRotatedDimension
0
DIMENSION
5
1A9
330
1A
100
AcDbEntity
8
DIM
100
AcDbDimension
10
9700.0
20
5460.0
30
0.0
11
9850.0
21
5005.0
31
0.0
70
32
71
5
3
Standard
100
AcDbAlignedDimension
13
9100.0
23
4550.0
33
0.0
14
9100.0
24
5460.0
34
0.0
50
90.0
100
AcDbRotatedDimension
0
DIMENSION
5
1AA
330
1A
100
AcDbEntity
8
DIM
100
AcDbDimension
10
9700.0
20
6370.0
30
0.0
11
9850.0
21
5915.0
31
0.0
70
32
71
5
3
Standard
100
AcDbAlignedDimension
13
9100.0
23
5460.0
33
0.0
14
9100.0
24
6370.0
34
0.0
50
90.0
100
AcDbRotatedDimension
0
DIMENSION
5
1AB
330
1A
100
AcDbEntity
8
DIM
100
AcDbDimension
10
10700.0
20
6370.0
30
0.0
11
10850.0
21
3185.0
31
0.0
70
32
71
5
3
Standard
100
AcDbAlignedDimension
13
9100.0
23
0.0
33
0.0
14
9100.0
24
6370.0
34
0.0
50
90.0
100
AcDbRotatedDimension
0
ENDSEC
0
SECTION
2
OBJECTS
0
DICTIONARY
5
30
330
0
100
AcDbDictionary
281
1
3
ACAD_GROUP
350
31
3
ACAD_LAYOUT
350
32
0
DICTIONARY
5
31
330
30
100
AcDbDictionary
281
1
0
DICTIONARY
5
32
330
30
100
AcDbDictionary
281
1
3
Model
350
33
3
Layout1
350
34
0
LAYOUT
5
33
330
32
100
AcDbPlotSettings
1

2
none_device
4

6

40
0.0
41
0.0
42
0.0
43
0.0
44
0.0
45
0.0
46
0.0
47
0.0
48
0.0
49
0.0
140
0.0
141
0.0
142
1.0
143
1.0
70
1712
72
0
73
0
74
0
7

75
0
147
1.0
148
0.0
149
0.0
100
AcDbLayout
1
Model
70
1
71
0
10
0.0
20
0.0
11
420.0
21
297.0
12
0.0
22
0.0
32
0.0
14
-3200.0
24
-3200.0
34
0.0
15
11200.0
25
9800.0
35
0.0
146
0.0
13
0.0
23
0.0
33
0.0
16
1.0
26
0.0
36
0.0
17
0.0
27
1.0
37
0.0
76
0
330
1A
0
LAYOUT
5
34
330
32
100
AcDbPlotSettings
1

2
none_device
4

6

40
0.0
41
0.0
42
0.0
43
0.0
44
0.0
45
0.0
46
0.0
47
0.0
48
0.0
49
0.0
140
0.0
141
0.0
142
1.0
143
1.0
70
1712
72
0
73
0
74
5
7

75
16
147
1.0
148
0.0
149
0.0
100
AcDbLayout
1
Layout1
70
1
71
1
10
0.0
20
0.0
11
420.0
21
297.0
12
0.0
22
0.0
32
0.0
14
0.0
24
0.0
34
0.0
15
420.0
25
297.0
35
0.0
146
0.0
13
0.0
23
0.0
33
0.0
16
1.0
26
0.0
36
0.0
17
0.0
27
1.0
37
0.0
76
0
330
1B
0
ENDSEC
0
EOF
