0
SECTION
2
HEADER
9
$ACADVER
1
AC1027
9
$DWGCODEPAGE
3
ANSI_1252
9
$HANDSEED
5
20000
9
$INSBASE
10
0.0
20
0.0
30
0.0
9
$EXTMIN
10
-2600.0
20
-3700.0
30
0.0
9
$EXTMAX
10
11200.0
20
10200.0
30
0.0
9
$LIMMIN
10
0.0
20
0.0
9
$LIMMAX
10
420.0
20
297.0
9
$INSUNITS
70
4
9
$MEASUREMENT
70
1
9
$LUNITS
70
2
9
$LUPREC
70
2
9
$AUNITS
70
0
9
$AUPREC
70
2
9
$LTSCALE
40
1.0
9
$CLAYER
8
WALL
9
$CELTYPE
6
ByLayer
9
$CECOLOR
62
256
9
$CELWEIGHT
370
-1
9
$TEXTSTYLE
7
JP
9
$TEXTSIZE
40
250.0
9
$DIMSTYLE
2
Standard
9
$DIMSCALE
40
1.0
9
$DIMTXT
40
250.0
9
$DIMASZ
40
100.0
9
$DIMTSZ
40
60.0
9
$DIMEXE
40
100.0
9
$DIMEXO
40
50.0
9
$DIMGAP
40
60.0
9
$DIMTAD
70
1
9
$DIMDEC
70
0
9
$DIMLUNIT
70
2
9
$DIMLFAC
40
1.0
9
$PDMODE
70
0
9
$PDSIZE
40
0.0
0
ENDSEC
0
SECTION
2
TABLES
0
TABLE
2
VPORT
5
9
330
0
100
AcDbSymbolTable
70
1
0
VPORT
5
10
330
9
100
AcDbSymbolTableRecord
100
AcDbViewportTableRecord
2
*Active
70
0
10
0.0
20
0.0
11
1.0
21
1.0
12
4300.0
22
3250.0
13
0.0
23
0.0
14
910.0
24
910.0
15
910.0
25
910.0
16
0.0
26
0.0
36
1.0
17
0.0
27
0.0
37
0.0
40
15000.0
41
1.5
42
50.0
43
0.0
44
0.0
50
0.0
51
0.0
71
0
72
100
73
1
74
3
75
0
76
1
77
0
78
0
0
ENDTAB
0
TABLE
2
LTYPE
5
2
330
0
100
AcDbSymbolTable
70
4
0
LTYPE
5
11
330
2
100
AcDbSymbolTableRecord
100
AcDbLinetypeTableRecord
2
ByBlock
70
0
3

72
65
73
0
40
0.0
0
LTYPE
5
12
330
2
100
AcDbSymbolTableRecord
100
AcDbLinetypeTableRecord
2
ByLayer
70
0
3

72
65
73
0
40
0.0
0
LTYPE
5
13
330
2
100
AcDbSymbolTableRecord
100
AcDbLinetypeTableRecord
2
Continuous
70
0
3
Solid line
72
65
73
0
40
0.0
0
LTYPE
5
14
330
2
100
AcDbSymbolTableRecord
100
AcDbLinetypeTableRecord
2
CENTER
70
0
3
Center ____ _ ____ _ ____ _ ____ _ ____
72
65
73
4
40
200.0
49
125.0
74
0
49
-25.0
74
0
49
25.0
74
0
49
-25.0
74
0
0
ENDTAB
0
TABLE
2
LAYER
5
3
330
0
100
AcDbSymbolTable
70
8
0
LAYER
5
16
330
3
100
AcDbSymbolTableRecord
100
AcDbLayerTableRecord
2
0
70
0
62
7
6
Continuous
370
-3
0
LAYER
5
17
330
3
100
AcDbSymbolTableRecord
100
AcDbLayerTableRecord
2
GRID
70
0
62
1
6
CENTER
370
13
0
LAYER
5
18
330
3
100
AcDbSymbolTableRecord
100
AcDbLayerTableRecord
2
WALL
70
0
62
7
6
Continuous
370
35
0
LAYER
5
19
330
3
100
AcDbSymbolTableRecord
100
AcDbLayerTableRecord
2
OPENING
70
0
62
3
6
Continuous
370
18
0
LAYER
5
20
330
3
100
AcDbSymbolTableRecord
100
AcDbLayerTableRecord
2
DIM
70
0
62
4
6
Continuous
370
13
0
LAYER
5
21
330
3
100
AcDbSymbolTableRecord
100
AcDbLayerTableRecord
2
ROOM
70
0
62
2
6
Continuous
370
13
0
LAYER
5
22
330
3
100
AcDbSymbolTableRecord
100
AcDbLayerTableRecord
2
TEXT
70
0
62
7
6
Continuous
370
18
0
LAYER
5
23
330
3
100
AcDbSymbolTableRecord
100
AcDbLayerTableRecord
2
STAIR
70
0
62
5
6
Continuous
370
18
0
ENDTAB
0
TABLE
2
STYLE
5
4
330
0
100
AcDbSymbolTable
70
2
0
STYLE
5
24
330
4
100
AcDbSymbolTableRecord
100
AcDbTextStyleTableRecord
2
Standard
70
0
40
0.0
41
1.0
50
0.0
71
0
42
250.0
3
txt
4

0
STYLE
5
25
330
4
100
AcDbSymbolTableRecord
100
AcDbTextStyleTableRecord
2
JP
70
0
40
0.0
41
1.0
50
0.0
71
0
42
250.0
3
msgothic.ttc
4

0
ENDTAB
0
TABLE
2
VIEW
5
5
330
0
100
AcDbSymbolTable
70
0
0
ENDTAB
0
TABLE
2
UCS
5
6
330
0
100
AcDbSymbolTable
70
0
0
ENDTAB
0
TABLE
2
APPID
5
7
330
0
100
AcDbSymbolTable
70
1
0
APPID
5
26
330
7
100
AcDbSymbolTableRecord
100
AcDbRegAppTableRecord
2
ACAD
70
0
0
ENDTAB
0
TABLE
2
DIMSTYLE
5
8
330
0
100
AcDbSymbolTable
70
1
100
AcDbDimStyleTable
71
1
340
27
0
DIMSTYLE
105
27
330
8
100
AcDbSymbolTableRecord
100
AcDbDimStyleTableRecord
2
Standard
70
0
3

4

40
1.0
41
100.0
42
50.0
43
500.0
44
100.0
45
0.0
46
0.0
47
0.0
48
0.0
140
250.0
141
50.0
142
60.0
143
0.03937
144
1.0
145
0.0
146
1.0
147
60.0
71
0
72
0
73
0
74
0
75
0
76
0
77
1
78
8
170
0
171
2
172
1
173
0
174
0
175
0
176
0
177
0
178
0
271
0
272
2
273
2
274
2
275
0
276
0
277
2
278
46
279
0
280
0
281
0
282
0
283
1
284
8
285
0
286
0
288
0
289
3
340
25
371
-2
372
-2
0
ENDTAB
0
TABLE
2
BLOCK_RECORD
5
1
330
0
100
AcDbSymbolTable
70
40
0
BLOCK_RECORD
5
28
330
1
100
AcDbSymbolTableRecord
100
AcDbBlockTableRecord
2
*Model_Space
340
37
70
0
280
1
281
0
0
BLOCK_RECORD
5
29
330
1
100
AcDbSymbolTableRecord
100
AcDbBlockTableRecord
2
*Paper_Space
340
38
70
0
280
1
281
0
0
BLOCK_RECORD
5
2001
330
1
100
AcDbSymbolTableRecord
100
AcDbBlockTableRecord
2
*D1
70
0
280
1
281
0
0
BLOCK_RECORD
5
2002
330
1
100
AcDbSymbolTableRecord
100
AcDbBlockTableRecord
2
*D2
70
0
280
1
281
0
0
BLOCK_RECORD
5
2003
330
1
100
AcDbSymbolTableRecord
100
AcDbBlockTableRecord
2
*D3
70
0
280
1
281
0
0
BLOCK_RECORD
5
2004
330
1
100
AcDbSymbolTableRecord
100
AcDbBlockTableRecord
2
*D4
70
0
280
1
281
0
0
BLOCK_RECORD
5
2005
330
1
100
AcDbSymbolTableRecord
100
AcDbBlockTableRecord
2
*D5
70
0
280
1
281
0
0
BLOCK_RECORD
5
2006
330
1
100
AcDbSymbolTableRecord
100
AcDbBlockTableRecord
2
*D6
70
0
280
1
281
0
0
BLOCK_RECORD
5
2007
330
1
100
AcDbSymbolTableRecord
100
AcDbBlockTableRecord
2
*D7
70
0
280
1
281
0
0
BLOCK_RECORD
5
2008
330
1
100
AcDbSymbolTableRecord
100
AcDbBlockTableRecord
2
*D8
70
0
280
1
281
0
0
BLOCK_RECORD
5
2009
330
1
100
AcDbSymbolTableRecord
100
AcDbBlockTableRecord
2
*D9
70
0
280
1
281
0
0
BLOCK_RECORD
5
2010
330
1
100
AcDbSymbolTableRecord
100
AcDbBlockTableRecord
2
*D10
70
0
280
1
281
0
0
BLOCK_RECORD
5
2011
330
1
100
AcDbSymbolTableRecord
100
AcDbBlockTableRecord
2
*D11
70
0
280
1
281
0
0
BLOCK_RECORD
5
2012
330
1
100
AcDbSymbolTableRecord
100
AcDbBlockTableRecord
2
*D12
70
0
280
1
281
0
0
BLOCK_RECORD
5
2013
330
1
100
AcDbSymbolTableRecord
100
AcDbBlockTableRecord
2
*D13
70
0
280
1
281
0
0
BLOCK_RECORD
5
2014
330
1
100
AcDbSymbolTableRecord
100
AcDbBlockTableRecord
2
*D14
70
0
280
1
281
0
0
BLOCK_RECORD
5
2015
330
1
100
AcDbSymbolTableRecord
100
AcDbBlockTableRecord
2
*D15
70
0
280
1
281
0
0
BLOCK_RECORD
5
2016
330
1
100
AcDbSymbolTableRecord
100
AcDbBlockTableRecord
2
*D16
70
0
280
1
281
0
0
BLOCK_RECORD
5
2017
330
1
100
AcDbSymbolTableRecord
100
AcDbBlockTableRecord
2
*D17
70
0
280
1
281
0
0
BLOCK_RECORD
5
2018
330
1
100
AcDbSymbolTableRecord
100
AcDbBlockTableRecord
2
*D18
70
0
280
1
281
0
0
BLOCK_RECORD
5
2019
330
1
100
AcDbSymbolTableRecord
100
AcDbBlockTableRecord
2
*D19
70
0
280
1
281
0
0
BLOCK_RECORD
5
2020
330
1
100
AcDbSymbolTableRecord
100
AcDbBlockTableRecord
2
*D20
70
0
280
1
281
0
0
BLOCK_RECORD
5
2021
330
1
100
AcDbSymbolTableRecord
100
AcDbBlockTableRecord
2
*D21
70
0
280
1
281
0
0
BLOCK_RECORD
5
2022
330
1
100
AcDbSymbolTableRecord
100
AcDbBlockTableRecord
2
*D22
70
0
280
1
281
0
0
BLOCK_RECORD
5
2023
330
1
100
AcDbSymbolTableRecord
100
AcDbBlockTableRecord
2
*D23
70
0
280
1
281
0
0
BLOCK_RECORD
5
2024
330
1
100
AcDbSymbolTableRecord
100
AcDbBlockTableRecord
2
*D24
70
0
280
1
281
0
0
BLOCK_RECORD
5
2025
330
1
100
AcDbSymbolTableRecord
100
AcDbBlockTableRecord
2
*D25
70
0
280
1
281
0
0
BLOCK_RECORD
5
2026
330
1
100
AcDbSymbolTableRecord
100
AcDbBlockTableRecord
2
*D26
70
0
280
1
281
0
0
BLOCK_RECORD
5
2027
330
1
100
AcDbSymbolTableRecord
100
AcDbBlockTableRecord
2
*D27
70
0
280
1
281
0
0
BLOCK_RECORD
5
2028
330
1
100
AcDbSymbolTableRecord
100
AcDbBlockTableRecord
2
*D28
70
0
280
1
281
0
0
BLOCK_RECORD
5
2029
330
1
100
AcDbSymbolTableRecord
100
AcDbBlockTableRecord
2
*D29
70
0
280
1
281
0
0
BLOCK_RECORD
5
2030
330
1
100
AcDbSymbolTableRecord
100
AcDbBlockTableRecord
2
*D30
70
0
280
1
281
0
0
BLOCK_RECORD
5
2031
330
1
100
AcDbSymbolTableRecord
100
AcDbBlockTableRecord
2
*D31
70
0
280
1
281
0
0
BLOCK_RECORD
5
2032
330
1
100
AcDbSymbolTableRecord
100
AcDbBlockTableRecord
2
*D32
70
0
280
1
281
0
0
BLOCK_RECORD
5
2033
330
1
100
AcDbSymbolTableRecord
100
AcDbBlockTableRecord
2
*D33
70
0
280
1
281
0
0
BLOCK_RECORD
5
2034
330
1
100
AcDbSymbolTableRecord
100
AcDbBlockTableRecord
2
*D34
70
0
280
1
281
0
0
BLOCK_RECORD
5
2035
330
1
100
AcDbSymbolTableRecord
100
AcDbBlockTableRecord
2
*D35
70
0
280
1
281
0
0
BLOCK_RECORD
5
2036
330
1
100
AcDbSymbolTableRecord
100
AcDbBlockTableRecord
2
*D36
70
0
280
1
281
0
0
BLOCK_RECORD
5
2037
330
1
100
AcDbSymbolTableRecord
100
AcDbBlockTableRecord
2
*D37
70
0
280
1
281
0
0
BLOCK_RECORD
5
2038
330
1
100
AcDbSymbolTableRecord
100
AcDbBlockTableRecord
2
*D38
70
0
280
1
281
0
0
ENDTAB
0
ENDSEC
0
SECTION
2
BLOCKS
0
BLOCK
5
30
330
28
100
AcDbEntity
8
0
100
AcDbBlockBegin
2
*Model_Space
70
0
10
0.0
20
0.0
30
0.0
3
*Model_Space
1

0
ENDBLK
5
31
330
28
100
AcDbEntity
8
0
100
AcDbBlockEnd
0
BLOCK
5
32
330
29
100
AcDbEntity
67
1
8
0
100
AcDbBlockBegin
2
*Paper_Space
70
0
10
0.0
20
0.0
30
0.0
3
*Paper_Space
1

0
ENDBLK
5
33
330
29
100
AcDbEntity
67
1
8
0
100
AcDbBlockEnd
0
BLOCK
5
2101
330
2001
100
AcDbEntity
8
DIM
100
AcDbBlockBegin
2
*D1
70
1
10
0.0
20
0.0
30
0.0
3
*D1
1

0
LINE
5
5010
330
2001
100
AcDbEntity
8
DIM
100
AcDbLine
10
0.0
20
-50.0
30
0.0
11
0.0
21
-700.0
31
0.0
0
LINE
5
5011
330
2001
100
AcDbEntity
8
DIM
100
AcDbLine
10
910.0
20
-50.0
30
0.0
11
910.0
21
-700.0
31
0.0
0
LINE
5
5012
330
2001
100
AcDbEntity
8
DIM
100
AcDbLine
10
0.0
20
-600.0
30
0.0
11
910.0
21
-600.0
31
0.0
0
LINE
5
5013
330
2001
100
AcDbEntity
8
DIM
100
AcDbLine
10
-42.4264
20
-642.4264
30
0.0
11
42.4264
21
-557.5736
31
0.0
0
LINE
5
5014
330
2001
100
AcDbEntity
8
DIM
100
AcDbLine
10
867.5736
20
-642.4264
30
0.0
11
952.4264
21
-557.5736
31
0.0
0
MTEXT
5
5015
330
2001
100
AcDbEntity
8
DIM
100
AcDbMText
10
455.0
20
-415.0
30
0.0
40
250.0
41
0.0
71
5
72
1
1
910
7
JP
11
1.0
21
0.0
31
0.0
50
0.0
0
ENDBLK
5
2201
330
2001
100
AcDbEntity
8
DIM
100
AcDbBlockEnd
0
BLOCK
5
2102
330
2002
100
AcDbEntity
8
DIM
100
AcDbBlockBegin
2
*D2
70
1
10
0.0
20
0.0
30
0.0
3
*D2
1

0
LINE
5
5020
330
2002
100
AcDbEntity
8
DIM
100
AcDbLine
10
910.0
20
-50.0
30
0.0
11
910.0
21
-700.0
31
0.0
0
LINE
5
5021
330
2002
100
AcDbEntity
8
DIM
100
AcDbLine
10
1820.0
20
-50.0
30
0.0
11
1820.0
21
-700.0
31
0.0
0
LINE
5
5022
330
2002
100
AcDbEntity
8
DIM
100
AcDbLine
10
910.0
20
-600.0
30
0.0
11
1820.0
21
-600.0
31
0.0
0
LINE
5
5023
330
2002
100
AcDbEntity
8
DIM
100
AcDbLine
10
867.5736
20
-642.4264
30
0.0
11
952.4264
21
-557.5736
31
0.0
0
LINE
5
5024
330
2002
100
AcDbEntity
8
DIM
100
AcDbLine
10
1777.5736
20
-642.4264
30
0.0
11
1862.4264
21
-557.5736
31
0.0
0
MTEXT
5
5025
330
2002
100
AcDbEntity
8
DIM
100
AcDbMText
10
1365.0
20
-415.0
30
0.0
40
250.0
41
0.0
71
5
72
1
1
910
7
JP
11
1.0
21
0.0
31
0.0
50
0.0
0
ENDBLK
5
2202
330
2002
100
AcDbEntity
8
DIM
100
AcDbBlockEnd
0
BLOCK
5
2103
330
2003
100
AcDbEntity
8
DIM
100
AcDbBlockBegin
2
*D3
70
1
10
0.0
20
0.0
30
0.0
3
*D3
1

0
LINE
5
5030
330
2003
100
AcDbEntity
8
DIM
100
AcDbLine
10
1820.0
20
-50.0
30
0.0
11
1820.0
21
-700.0
31
0.0
0
LINE
5
5031
330
2003
100
AcDbEntity
8
DIM
100
AcDbLine
10
2730.0
20
-50.0
30
0.0
11
2730.0
21
-700.0
31
0.0
0
LINE
5
5032
330
2003
100
AcDbEntity
8
DIM
100
AcDbLine
10
1820.0
20
-600.0
30
0.0
11
2730.0
21
-600.0
31
0.0
0
LINE
5
5033
330
2003
100
AcDbEntity
8
DIM
100
AcDbLine
10
1777.5736
20
-642.4264
30
0.0
11
1862.4264
21
-557.5736
31
0.0
0
LINE
5
5034
330
2003
100
AcDbEntity
8
DIM
100
AcDbLine
10
2687.5736
20
-642.4264
30
0.0
11
2772.4264
21
-557.5736
31
0.0
0
MTEXT
5
5035
330
2003
100
AcDbEntity
8
DIM
100
AcDbMText
10
2275.0
20
-415.0
30
0.0
40
250.0
41
0.0
71
5
72
1
1
910
7
JP
11
1.0
21
0.0
31
0.0
50
0.0
0
ENDBLK
5
2203
330
2003
100
AcDbEntity
8
DIM
100
AcDbBlockEnd
0
BLOCK
5
2104
330
2004
100
AcDbEntity
8
DIM
100
AcDbBlockBegin
2
*D4
70
1
10
0.0
20
0.0
30
0.0
3
*D4
1

0
LINE
5
5040
330
2004
100
AcDbEntity
8
DIM
100
AcDbLine
10
2730.0
20
-50.0
30
0.0
11
2730.0
21
-700.0
31
0.0
0
LINE
5
5041
330
2004
100
AcDbEntity
8
DIM
100
AcDbLine
10
3640.0
20
-50.0
30
0.0
11
3640.0
21
-700.0
31
0.0
0
LINE
5
5042
330
2004
100
AcDbEntity
8
DIM
100
AcDbLine
10
2730.0
20
-600.0
30
0.0
11
3640.0
21
-600.0
31
0.0
0
LINE
5
5043
330
2004
100
AcDbEntity
8
DIM
100
AcDbLine
10
2687.5736
20
-642.4264
30
0.0
11
2772.4264
21
-557.5736
31
0.0
0
LINE
5
5044
330
2004
100
AcDbEntity
8
DIM
100
AcDbLine
10
3597.5736
20
-642.4264
30
0.0
11
3682.4264
21
-557.5736
31
0.0
0
MTEXT
5
5045
330
2004
100
AcDbEntity
8
DIM
100
AcDbMText
10
3185.0
20
-415.0
30
0.0
40
250.0
41
0.0
71
5
72
1
1
910
7
JP
11
1.0
21
0.0
31
0.0
50
0.0
0
ENDBLK
5
2204
330
2004
100
AcDbEntity
8
DIM
100
AcDbBlockEnd
0
BLOCK
5
2105
330
2005
100
AcDbEntity
8
DIM
100
AcDbBlockBegin
2
*D5
70
1
10
0.0
20
0.0
30
0.0
3
*D5
1

0
LINE
5
5050
330
2005
100
AcDbEntity
8
DIM
100
AcDbLine
10
3640.0
20
-50.0
30
0.0
11
3640.0
21
-700.0
31
0.0
0
LINE
5
5051
330
2005
100
AcDbEntity
8
DIM
100
AcDbLine
10
4550.0
20
-50.0
30
0.0
11
4550.0
21
-700.0
31
0.0
0
LINE
5
5052
330
2005
100
AcDbEntity
8
DIM
100
AcDbLine
10
3640.0
20
-600.0
30
0.0
11
4550.0
21
-600.0
31
0.0
0
LINE
5
5053
330
2005
100
AcDbEntity
8
DIM
100
AcDbLine
10
3597.5736
20
-642.4264
30
0.0
11
3682.4264
21
-557.5736
31
0.0
0
LINE
5
5054
330
2005
100
AcDbEntity
8
DIM
100
AcDbLine
10
4507.5736
20
-642.4264
30
0.0
11
4592.4264
21
-557.5736
31
0.0
0
MTEXT
5
5055
330
2005
100
AcDbEntity
8
DIM
100
AcDbMText
10
4095.0
20
-415.0
30
0.0
40
250.0
41
0.0
71
5
72
1
1
910
7
JP
11
1.0
21
0.0
31
0.0
50
0.0
0
ENDBLK
5
2205
330
2005
100
AcDbEntity
8
DIM
100
AcDbBlockEnd
0
BLOCK
5
2106
330
2006
100
AcDbEntity
8
DIM
100
AcDbBlockBegin
2
*D6
70
1
10
0.0
20
0.0
30
0.0
3
*D6
1

0
LINE
5
5060
330
2006
100
AcDbEntity
8
DIM
100
AcDbLine
10
4550.0
20
-50.0
30
0.0
11
4550.0
21
-700.0
31
0.0
0
LINE
5
5061
330
2006
100
AcDbEntity
8
DIM
100
AcDbLine
10
5460.0
20
-50.0
30
0.0
11
5460.0
21
-700.0
31
0.0
0
LINE
5
5062
330
2006
100
AcDbEntity
8
DIM
100
AcDbLine
10
4550.0
20
-600.0
30
0.0
11
5460.0
21
-600.0
31
0.0
0
LINE
5
5063
330
2006
100
AcDbEntity
8
DIM
100
AcDbLine
10
4507.5736
20
-642.4264
30
0.0
11
4592.4264
21
-557.5736
31
0.0
0
LINE
5
5064
330
2006
100
AcDbEntity
8
DIM
100
AcDbLine
10
5417.5736
20
-642.4264
30
0.0
11
5502.4264
21
-557.5736
31
0.0
0
MTEXT
5
5065
330
2006
100
AcDbEntity
8
DIM
100
AcDbMText
10
5005.0
20
-415.0
30
0.0
40
250.0
41
0.0
71
5
72
1
1
910
7
JP
11
1.0
21
0.0
31
0.0
50
0.0
0
ENDBLK
5
2206
330
2006
100
AcDbEntity
8
DIM
100
AcDbBlockEnd
0
BLOCK
5
2107
330
2007
100
AcDbEntity
8
DIM
100
AcDbBlockBegin
2
*D7
70
1
10
0.0
20
0.0
30
0.0
3
*D7
1

0
LINE
5
5070
330
2007
100
AcDbEntity
8
DIM
100
AcDbLine
10
5460.0
20
-50.0
30
0.0
11
5460.0
21
-700.0
31
0.0
0
LINE
5
5071
330
2007
100
AcDbEntity
8
DIM
100
AcDbLine
10
6370.0
20
-50.0
30
0.0
11
6370.0
21
-700.0
31
0.0
0
LINE
5
5072
330
2007
100
AcDbEntity
8
DIM
100
AcDbLine
10
5460.0
20
-600.0
30
0.0
11
6370.0
21
-600.0
31
0.0
0
LINE
5
5073
330
2007
100
AcDbEntity
8
DIM
100
AcDbLine
10
5417.5736
20
-642.4264
30
0.0
11
5502.4264
21
-557.5736
31
0.0
0
LINE
5
5074
330
2007
100
AcDbEntity
8
DIM
100
AcDbLine
10
6327.5736
20
-642.4264
30
0.0
11
6412.4264
21
-557.5736
31
0.0
0
MTEXT
5
5075
330
2007
100
AcDbEntity
8
DIM
100
AcDbMText
10
5915.0
20
-415.0
30
0.0
40
250.0
41
0.0
71
5
72
1
1
910
7
JP
11
1.0
21
0.0
31
0.0
50
0.0
0
ENDBLK
5
2207
330
2007
100
AcDbEntity
8
DIM
100
AcDbBlockEnd
0
BLOCK
5
2108
330
2008
100
AcDbEntity
8
DIM
100
AcDbBlockBegin
2
*D8
70
1
10
0.0
20
0.0
30
0.0
3
*D8
1

0
LINE
5
5080
330
2008
100
AcDbEntity
8
DIM
100
AcDbLine
10
6370.0
20
-50.0
30
0.0
11
6370.0
21
-700.0
31
0.0
0
LINE
5
5081
330
2008
100
AcDbEntity
8
DIM
100
AcDbLine
10
7280.0
20
-50.0
30
0.0
11
7280.0
21
-700.0
31
0.0
0
LINE
5
5082
330
2008
100
AcDbEntity
8
DIM
100
AcDbLine
10
6370.0
20
-600.0
30
0.0
11
7280.0
21
-600.0
31
0.0
0
LINE
5
5083
330
2008
100
AcDbEntity
8
DIM
100
AcDbLine
10
6327.5736
20
-642.4264
30
0.0
11
6412.4264
21
-557.5736
31
0.0
0
LINE
5
5084
330
2008
100
AcDbEntity
8
DIM
100
AcDbLine
10
7237.5736
20
-642.4264
30
0.0
11
7322.4264
21
-557.5736
31
0.0
0
MTEXT
5
5085
330
2008
100
AcDbEntity
8
DIM
100
AcDbMText
10
6825.0
20
-415.0
30
0.0
40
250.0
41
0.0
71
5
72
1
1
910
7
JP
11
1.0
21
0.0
31
0.0
50
0.0
0
ENDBLK
5
2208
330
2008
100
AcDbEntity
8
DIM
100
AcDbBlockEnd
0
BLOCK
5
2109
330
2009
100
AcDbEntity
8
DIM
100
AcDbBlockBegin
2
*D9
70
1
10
0.0
20
0.0
30
0.0
3
*D9
1

0
LINE
5
5090
330
2009
100
AcDbEntity
8
DIM
100
AcDbLine
10
7280.0
20
-50.0
30
0.0
11
7280.0
21
-700.0
31
0.0
0
LINE
5
5091
330
2009
100
AcDbEntity
8
DIM
100
AcDbLine
10
8190.0
20
-50.0
30
0.0
11
8190.0
21
-700.0
31
0.0
0
LINE
5
5092
330
2009
100
AcDbEntity
8
DIM
100
AcDbLine
10
7280.0
20
-600.0
30
0.0
11
8190.0
21
-600.0
31
0.0
0
LINE
5
5093
330
2009
100
AcDbEntity
8
DIM
100
AcDbLine
10
7237.5736
20
-642.4264
30
0.0
11
7322.4264
21
-557.5736
31
0.0
0
LINE
5
5094
330
2009
100
AcDbEntity
8
DIM
100
AcDbLine
10
8147.5736
20
-642.4264
30
0.0
11
8232.4264
21
-557.5736
31
0.0
0
MTEXT
5
5095
330
2009
100
AcDbEntity
8
DIM
100
AcDbMText
10
7735.0
20
-415.0
30
0.0
40
250.0
41
0.0
71
5
72
1
1
910
7
JP
11
1.0
21
0.0
31
0.0
50
0.0
0
ENDBLK
5
2209
330
2009
100
AcDbEntity
8
DIM
100
AcDbBlockEnd
0
BLOCK
5
2110
330
2010
100
AcDbEntity
8
DIM
100
AcDbBlockBegin
2
*D10
70
1
10
0.0
20
0.0
30
0.0
3
*D10
1

0
LINE
5
5100
330
2010
100
AcDbEntity
8
DIM
100
AcDbLine
10
8190.0
20
-50.0
30
0.0
11
8190.0
21
-700.0
31
0.0
0
LINE
5
5101
330
2010
100
AcDbEntity
8
DIM
100
AcDbLine
10
9100.0
20
-50.0
30
0.0
11
9100.0
21
-700.0
31
0.0
0
LINE
5
5102
330
2010
100
AcDbEntity
8
DIM
100
AcDbLine
10
8190.0
20
-600.0
30
0.0
11
9100.0
21
-600.0
31
0.0
0
LINE
5
5103
330
2010
100
AcDbEntity
8
DIM
100
AcDbLine
10
8147.5736
20
-642.4264
30
0.0
11
8232.4264
21
-557.5736
31
0.0
0
LINE
5
5104
330
2010
100
AcDbEntity
8
DIM
100
AcDbLine
10
9057.5736
20
-642.4264
30
0.0
11
9142.4264
21
-557.5736
31
0.0
0
MTEXT
5
5105
330
2010
100
AcDbEntity
8
DIM
100
AcDbMText
10
8645.0
20
-415.0
30
0.0
40
250.0
41
0.0
71
5
72
1
1
910
7
JP
11
1.0
21
0.0
31
0.0
50
0.0
0
ENDBLK
5
2210
330
2010
100
AcDbEntity
8
DIM
100
AcDbBlockEnd
0
BLOCK
5
2111
330
2011
100
AcDbEntity
8
DIM
100
AcDbBlockBegin
2
*D11
70
1
10
0.0
20
0.0
30
0.0
3
*D11
1

0
LINE
5
5110
330
2011
100
AcDbEntity
8
DIM
100
AcDbLine
10
0.0
20
-50.0
30
0.0
11
0.0
21
-1700.0
31
0.0
0
LINE
5
5111
330
2011
100
AcDbEntity
8
DIM
100
AcDbLine
10
9100.0
20
-50.0
30
0.0
11
9100.0
21
-1700.0
31
0.0
0
LINE
5
5112
330
2011
100
AcDbEntity
8
DIM
100
AcDbLine
10
0.0
20
-1600.0
30
0.0
11
9100.0
21
-1600.0
31
0.0
0
LINE
5
5113
330
2011
100
AcDbEntity
8
DIM
100
AcDbLine
10
-42.4264
20
-1642.4264
30
0.0
11
42.4264
21
-1557.5736
31
0.0
0
LINE
5
5114
330
2011
100
AcDbEntity
8
DIM
100
AcDbLine
10
9057.5736
20
-1642.4264
30
0.0
11
9142.4264
21
-1557.5736
31
0.0
0
MTEXT
5
5115
330
2011
100
AcDbEntity
8
DIM
100
AcDbMText
10
4550.0
20
-1415.0
30
0.0
40
250.0
41
0.0
71
5
72
1
1
9100
7
JP
11
1.0
21
0.0
31
0.0
50
0.0
0
ENDBLK
5
2211
330
2011
100
AcDbEntity
8
DIM
100
AcDbBlockEnd
0
BLOCK
5
2112
330
2012
100
AcDbEntity
8
DIM
100
AcDbBlockBegin
2
*D12
70
1
10
0.0
20
0.0
30
0.0
3
*D12
1

0
LINE
5
5120
330
2012
100
AcDbEntity
8
DIM
100
AcDbLine
10
-50.0
20
0.0
30
0.0
11
-700.0
21
0.0
31
0.0
0
LINE
5
5121
330
2012
100
AcDbEntity
8
DIM
100
AcDbLine
10
-50.0
20
910.0
30
0.0
11
-700.0
21
910.0
31
0.0
0
LINE
5
5122
330
2012
100
AcDbEntity
8
DIM
100
AcDbLine
10
-600.0
20
0.0
30
0.0
11
-600.0
21
910.0
31
0.0
0
LINE
5
5123
330
2012
100
AcDbEntity
8
DIM
100
AcDbLine
10
-557.5736
20
-42.4264
30
0.0
11
-642.4264
21
42.4264
31
0.0
0
LINE
5
5124
330
2012
100
AcDbEntity
8
DIM
100
AcDbLine
10
-557.5736
20
867.5736
30
0.0
11
-642.4264
21
952.4264
31
0.0
0
MTEXT
5
5125
330
2012
100
AcDbEntity
8
DIM
100
AcDbMText
10
-785.0
20
455.0
30
0.0
40
250.0
41
0.0
71
5
72
1
1
910
7
JP
11
0.0
21
1.0
31
0.0
50
90.0
0
ENDBLK
5
2212
330
2012
100
AcDbEntity
8
DIM
100
AcDbBlockEnd
0
BLOCK
5
2113
330
2013
100
AcDbEntity
8
DIM
100
AcDbBlockBegin
2
*D13
70
1
10
0.0
20
0.0
30
0.0
3
*D13
1

0
LINE
5
5130
330
2013
100
AcDbEntity
8
DIM
100
AcDbLine
10
-50.0
20
910.0
30
0.0
11
-700.0
21
910.0
31
0.0
0
LINE
5
5131
330
2013
100
AcDbEntity
8
DIM
100
AcDbLine
10
-50.0
20
1820.0
30
0.0
11
-700.0
21
1820.0
31
0.0
0
LINE
5
5132
330
2013
100
AcDbEntity
8
DIM
100
AcDbLine
10
-600.0
20
910.0
30
0.0
11
-600.0
21
1820.0
31
0.0
0
LINE
5
5133
330
2013
100
AcDbEntity
8
DIM
100
AcDbLine
10
-557.5736
20
867.5736
30
0.0
11
-642.4264
21
952.4264
31
0.0
0
LINE
5
5134
330
2013
100
AcDbEntity
8
DIM
100
AcDbLine
10
-557.5736
20
1777.5736
30
0.0
11
-642.4264
21
1862.4264
31
0.0
0
MTEXT
5
5135
330
2013
100
AcDbEntity
8
DIM
100
AcDbMText
10
-785.0
20
1365.0
30
0.0
40
250.0
41
0.0
71
5
72
1
1
910
7
JP
11
0.0
21
1.0
31
0.0
50
90.0
0
ENDBLK
5
2213
330
2013
100
AcDbEntity
8
DIM
100
AcDbBlockEnd
0
BLOCK
5
2114
330
2014
100
AcDbEntity
8
DIM
100
AcDbBlockBegin
2
*D14
70
1
10
0.0
20
0.0
30
0.0
3
*D14
1

0
LINE
5
5140
330
2014
100
AcDbEntity
8
DIM
100
AcDbLine
10
-50.0
20
1820.0
30
0.0
11
-700.0
21
1820.0
31
0.0
0
LINE
5
5141
330
2014
100
AcDbEntity
8
DIM
100
AcDbLine
10
-50.0
20
2730.0
30
0.0
11
-700.0
21
2730.0
31
0.0
0
LINE
5
5142
330
2014
100
AcDbEntity
8
DIM
100
AcDbLine
10
-600.0
20
1820.0
30
0.0
11
-600.0
21
2730.0
31
0.0
0
LINE
5
5143
330
2014
100
AcDbEntity
8
DIM
100
AcDbLine
10
-557.5736
20
1777.5736
30
0.0
11
-642.4264
21
1862.4264
31
0.0
0
LINE
5
5144
330
2014
100
AcDbEntity
8
DIM
100
AcDbLine
10
-557.5736
20
2687.5736
30
0.0
11
-642.4264
21
2772.4264
31
0.0
0
MTEXT
5
5145
330
2014
100
AcDbEntity
8
DIM
100
AcDbMText
10
-785.0
20
2275.0
30
0.0
40
250.0
41
0.0
71
5
72
1
1
910
7
JP
11
0.0
21
1.0
31
0.0
50
90.0
0
ENDBLK
5
2214
330
2014
100
AcDbEntity
8
DIM
100
AcDbBlockEnd
0
BLOCK
5
2115
330
2015
100
AcDbEntity
8
DIM
100
AcDbBlockBegin
2
*D15
70
1
10
0.0
20
0.0
30
0.0
3
*D15
1

0
LINE
5
5150
330
2015
100
AcDbEntity
8
DIM
100
AcDbLine
10
-50.0
20
2730.0
30
0.0
11
-700.0
21
2730.0
31
0.0
0
LINE
5
5151
330
2015
100
AcDbEntity
8
DIM
100
AcDbLine
10
-50.0
20
3640.0
30
0.0
11
-700.0
21
3640.0
31
0.0
0
LINE
5
5152
330
2015
100
AcDbEntity
8
DIM
100
AcDbLine
10
-600.0
20
2730.0
30
0.0
11
-600.0
21
3640.0
31
0.0
0
LINE
5
5153
330
2015
100
AcDbEntity
8
DIM
100
AcDbLine
10
-557.5736
20
2687.5736
30
0.0
11
-642.4264
21
2772.4264
31
0.0
0
LINE
5
5154
330
2015
100
AcDbEntity
8
DIM
100
AcDbLine
10
-557.5736
20
3597.5736
30
0.0
11
-642.4264
21
3682.4264
31
0.0
0
MTEXT
5
5155
330
2015
100
AcDbEntity
8
DIM
100
AcDbMText
10
-785.0
20
3185.0
30
0.0
40
250.0
41
0.0
71
5
72
1
1
910
7
JP
11
0.0
21
1.0
31
0.0
50
90.0
0
ENDBLK
5
2215
330
2015
100
AcDbEntity
8
DIM
100
AcDbBlockEnd
0
BLOCK
5
2116
330
2016
100
AcDbEntity
8
DIM
100
AcDbBlockBegin
2
*D16
70
1
10
0.0
20
0.0
30
0.0
3
*D16
1

0
LINE
5
5160
330
2016
100
AcDbEntity
8
DIM
100
AcDbLine
10
-50.0
20
3640.0
30
0.0
11
-700.0
21
3640.0
31
0.0
0
LINE
5
5161
330
2016
100
AcDbEntity
8
DIM
100
AcDbLine
10
-50.0
20
4550.0
30
0.0
11
-700.0
21
4550.0
31
0.0
0
LINE
5
5162
330
2016
100
AcDbEntity
8
DIM
100
AcDbLine
10
-600.0
20
3640.0
30
0.0
11
-600.0
21
4550.0
31
0.0
0
LINE
5
5163
330
2016
100
AcDbEntity
8
DIM
100
AcDbLine
10
-557.5736
20
3597.5736
30
0.0
11
-642.4264
21
3682.4264
31
0.0
0
LINE
5
5164
330
2016
100
AcDbEntity
8
DIM
100
AcDbLine
10
-557.5736
20
4507.5736
30
0.0
11
-642.4264
21
4592.4264
31
0.0
0
MTEXT
5
5165
330
2016
100
AcDbEntity
8
DIM
100
AcDbMText
10
-785.0
20
4095.0
30
0.0
40
250.0
41
0.0
71
5
72
1
1
910
7
JP
11
0.0
21
1.0
31
0.0
50
90.0
0
ENDBLK
5
2216
330
2016
100
AcDbEntity
8
DIM
100
AcDbBlockEnd
0
BLOCK
5
2117
330
2017
100
AcDbEntity
8
DIM
100
AcDbBlockBegin
2
*D17
70
1
10
0.0
20
0.0
30
0.0
3
*D17
1

0
LINE
5
5170
330
2017
100
AcDbEntity
8
DIM
100
AcDbLine
10
-50.0
20
4550.0
30
0.0
11
-700.0
21
4550.0
31
0.0
0
LINE
5
5171
330
2017
100
AcDbEntity
8
DIM
100
AcDbLine
10
-50.0
20
5460.0
30
0.0
11
-700.0
21
5460.0
31
0.0
0
LINE
5
5172
330
2017
100
AcDbEntity
8
DIM
100
AcDbLine
10
-600.0
20
4550.0
30
0.0
11
-600.0
21
5460.0
31
0.0
0
LINE
5
5173
330
2017
100
AcDbEntity
8
DIM
100
AcDbLine
10
-557.5736
20
4507.5736
30
0.0
11
-642.4264
21
4592.4264
31
0.0
0
LINE
5
5174
330
2017
100
AcDbEntity
8
DIM
100
AcDbLine
10
-557.5736
20
5417.5736
30
0.0
11
-642.4264
21
5502.4264
31
0.0
0
MTEXT
5
5175
330
2017
100
AcDbEntity
8
DIM
100
AcDbMText
10
-785.0
20
5005.0
30
0.0
40
250.0
41
0.0
71
5
72
1
1
910
7
JP
11
0.0
21
1.0
31
0.0
50
90.0
0
ENDBLK
5
2217
330
2017
100
AcDbEntity
8
DIM
100
AcDbBlockEnd
0
BLOCK
5
2118
330
2018
100
AcDbEntity
8
DIM
100
AcDbBlockBegin
2
*D18
70
1
10
0.0
20
0.0
30
0.0
3
*D18
1

0
LINE
5
5180
330
2018
100
AcDbEntity
8
DIM
100
AcDbLine
10
-50.0
20
5460.0
30
0.0
11
-700.0
21
5460.0
31
0.0
0
LINE
5
5181
330
2018
100
AcDbEntity
8
DIM
100
AcDbLine
10
-50.0
20
6370.0
30
0.0
11
-700.0
21
6370.0
31
0.0
0
LINE
5
5182
330
2018
100
AcDbEntity
8
DIM
100
AcDbLine
10
-600.0
20
5460.0
30
0.0
11
-600.0
21
6370.0
31
0.0
0
LINE
5
5183
330
2018
100
AcDbEntity
8
DIM
100
AcDbLine
10
-557.5736
20
5417.5736
30
0.0
11
-642.4264
21
5502.4264
31
0.0
0
LINE
5
5184
330
2018
100
AcDbEntity
8
DIM
100
AcDbLine
10
-557.5736
20
6327.5736
30
0.0
11
-642.4264
21
6412.4264
31
0.0
0
MTEXT
5
5185
330
2018
100
AcDbEntity
8
DIM
100
AcDbMText
10
-785.0
20
5915.0
30
0.0
40
250.0
41
0.0
71
5
72
1
1
910
7
JP
11
0.0
21
1.0
31
0.0
50
90.0
0
ENDBLK
5
2218
330
2018
100
AcDbEntity
8
DIM
100
AcDbBlockEnd
0
BLOCK
5
2119
330
2019
100
AcDbEntity
8
DIM
100
AcDbBlockBegin
2
*D19
70
1
10
0.0
20
0.0
30
0.0
3
*D19
1

0
LINE
5
5190
330
2019
100
AcDbEntity
8
DIM
100
AcDbLine
10
-50.0
20
6370.0
30
0.0
11
-700.0
21
6370.0
31
0.0
0
LINE
5
5191
330
2019
100
AcDbEntity
8
DIM
100
AcDbLine
10
-50.0
20
7280.0
30
0.0
11
-700.0
21
7280.0
31
0.0
0
LINE
5
5192
330
2019
100
AcDbEntity
8
DIM
100
AcDbLine
10
-600.0
20
6370.0
30
0.0
11
-600.0
21
7280.0
31
0.0
0
LINE
5
5193
330
2019
100
AcDbEntity
8
DIM
100
AcDbLine
10
-557.5736
20
6327.5736
30
0.0
11
-642.4264
21
6412.4264
31
0.0
0
LINE
5
5194
330
2019
100
AcDbEntity
8
DIM
100
AcDbLine
10
-557.5736
20
7237.5736
30
0.0
11
-642.4264
21
7322.4264
31
0.0
0
MTEXT
5
5195
330
2019
100
AcDbEntity
8
DIM
100
AcDbMText
10
-785.0
20
6825.0
30
0.0
40
250.0
41
0.0
71
5
72
1
1
910
7
JP
11
0.0
21
1.0
31
0.0
50
90.0
0
ENDBLK
5
2219
330
2019
100
AcDbEntity
8
DIM
100
AcDbBlockEnd
0
BLOCK
5
2120
330
2020
100
AcDbEntity
8
DIM
100
AcDbBlockBegin
2
*D20
70
1
10
0.0
20
0.0
30
0.0
3
*D20
1

0
LINE
5
5200
330
2020
100
AcDbEntity
8
DIM
100
AcDbLine
10
-50.0
20
7280.0
30
0.0
11
-700.0
21
7280.0
31
0.0
0
LINE
5
5201
330
2020
100
AcDbEntity
8
DIM
100
AcDbLine
10
-50.0
20
8190.0
30
0.0
11
-700.0
21
8190.0
31
0.0
0
LINE
5
5202
330
2020
100
AcDbEntity
8
DIM
100
AcDbLine
10
-600.0
20
7280.0
30
0.0
11
-600.0
21
8190.0
31
0.0
0
LINE
5
5203
330
2020
100
AcDbEntity
8
DIM
100
AcDbLine
10
-557.5736
20
7237.5736
30
0.0
11
-642.4264
21
7322.4264
31
0.0
0
LINE
5
5204
330
2020
100
AcDbEntity
8
DIM
100
AcDbLine
10
-557.5736
20
8147.5736
30
0.0
11
-642.4264
21
8232.4264
31
0.0
0
MTEXT
5
5205
330
2020
100
AcDbEntity
8
DIM
100
AcDbMText
10
-785.0
20
7735.0
30
0.0
40
250.0
41
0.0
71
5
72
1
1
910
7
JP
11
0.0
21
1.0
31
0.0
50
90.0
0
ENDBLK
5
2220
330
2020
100
AcDbEntity
8
DIM
100
AcDbBlockEnd
0
BLOCK
5
2121
330
2021
100
AcDbEntity
8
DIM
100
AcDbBlockBegin
2
*D21
70
1
10
0.0
20
0.0
30
0.0
3
*D21
1

0
LINE
5
5210
330
2021
100
AcDbEntity
8
DIM
100
AcDbLine
10
-50.0
20
0.0
30
0.0
11
-1700.0
21
0.0
31
0.0
0
LINE
5
5211
330
2021
100
AcDbEntity
8
DIM
100
AcDbLine
10
-50.0
20
8190.0
30
0.0
11
-1700.0
21
8190.0
31
0.0
0
LINE
5
5212
330
2021
100
AcDbEntity
8
DIM
100
AcDbLine
10
-1600.0
20
0.0
30
0.0
11
-1600.0
21
8190.0
31
0.0
0
LINE
5
5213
330
2021
100
AcDbEntity
8
DIM
100
AcDbLine
10
-1557.5736
20
-42.4264
30
0.0
11
-1642.4264
21
42.4264
31
0.0
0
LINE
5
5214
330
2021
100
AcDbEntity
8
DIM
100
AcDbLine
10
-1557.5736
20
8147.5736
30
0.0
11
-1642.4264
21
8232.4264
31
0.0
0
MTEXT
5
5215
330
2021
100
AcDbEntity
8
DIM
100
AcDbMText
10
-1785.0
20
4095.0
30
0.0
40
250.0
41
0.0
71
5
72
1
1
8190
7
JP
11
0.0
21
1.0
31
0.0
50
90.0
0
ENDBLK
5
2221
330
2021
100
AcDbEntity
8
DIM
100
AcDbBlockEnd
0
BLOCK
5
2122
330
2022
100
AcDbEntity
8
DIM
100
AcDbBlockBegin
2
*D22
70
1
10
0.0
20
0.0
30
0.0
3
*D22
1

0
LINE
5
5220
330
2022
100
AcDbEntity
8
DIM
100
AcDbLine
10
9150.0
20
0.0
30
0.0
11
9800.0
21
0.0
31
0.0
0
LINE
5
5221
330
2022
100
AcDbEntity
8
DIM
100
AcDbLine
10
9150.0
20
910.0
30
0.0
11
9800.0
21
910.0
31
0.0
0
LINE
5
5222
330
2022
100
AcDbEntity
8
DIM
100
AcDbLine
10
9700.0
20
0.0
30
0.0
11
9700.0
21
910.0
31
0.0
0
LINE
5
5223
330
2022
100
AcDbEntity
8
DIM
100
AcDbLine
10
9742.4264
20
-42.4264
30
0.0
11
9657.5736
21
42.4264
31
0.0
0
LINE
5
5224
330
2022
100
AcDbEntity
8
DIM
100
AcDbLine
10
9742.4264
20
867.5736
30
0.0
11
9657.5736
21
952.4264
31
0.0
0
MTEXT
5
5225
330
2022
100
AcDbEntity
8
DIM
100
AcDbMText
10
9515.0
20
455.0
30
0.0
40
250.0
41
0.0
71
5
72
1
1
910
7
JP
11
0.0
21
1.0
31
0.0
50
90.0
0
ENDBLK
5
2222
330
2022
100
AcDbEntity
8
DIM
100
AcDbBlockEnd
0
BLOCK
5
2123
330
2023
100
AcDbEntity
8
DIM
100
AcDbBlockBegin
2
*D23
70
1
10
0.0
20
0.0
30
0.0
3
*D23
1

0
LINE
5
5230
330
2023
100
AcDbEntity
8
DIM
100
AcDbLine
10
9150.0
20
910.0
30
0.0
11
9800.0
21
910.0
31
0.0
0
LINE
5
5231
330
2023
100
AcDbEntity
8
DIM
100
AcDbLine
10
9150.0
20
1820.0
30
0.0
11
9800.0
21
1820.0
31
0.0
0
LINE
5
5232
330
2023
100
AcDbEntity
8
DIM
100
AcDbLine
10
9700.0
20
910.0
30
0.0
11
9700.0
21
1820.0
31
0.0
0
LINE
5
5233
330
2023
100
AcDbEntity
8
DIM
100
AcDbLine
10
9742.4264
20
867.5736
30
0.0
11
9657.5736
21
952.4264
31
0.0
0
LINE
5
5234
330
2023
100
AcDbEntity
8
DIM
100
AcDbLine
10
9742.4264
20
1777.5736
30
0.0
11
9657.5736
21
1862.4264
31
0.0
0
MTEXT
5
5235
330
2023
100
AcDbEntity
8
DIM
100
AcDbMText
10
9515.0
20
1365.0
30
0.0
40
250.0
41
0.0
71
5
72
1
1
910
7
JP
11
0.0
21
1.0
31
0.0
50
90.0
0
ENDBLK
5
2223
330
2023
100
AcDbEntity
8
DIM
100
AcDbBlockEnd
0
BLOCK
5
2124
330
2024
100
AcDbEntity
8
DIM
100
AcDbBlockBegin
2
*D24
70
1
10
0.0
20
0.0
30
0.0
3
*D24
1

0
LINE
5
5240
330
2024
100
AcDbEntity
8
DIM
100
AcDbLine
10
9150.0
20
1820.0
30
0.0
11
9800.0
21
1820.0
31
0.0
0
LINE
5
5241
330
2024
100
AcDbEntity
8
DIM
100
AcDbLine
10
9150.0
20
2730.0
30
0.0
11
9800.0
21
2730.0
31
0.0
0
LINE
5
5242
330
2024
100
AcDbEntity
8
DIM
100
AcDbLine
10
9700.0
20
1820.0
30
0.0
11
9700.0
21
2730.0
31
0.0
0
LINE
5
5243
330
2024
100
AcDbEntity
8
DIM
100
AcDbLine
10
9742.4264
20
1777.5736
30
0.0
11
9657.5736
21
1862.4264
31
0.0
0
LINE
5
5244
330
2024
100
AcDbEntity
8
DIM
100
AcDbLine
10
9742.4264
20
2687.5736
30
0.0
11
9657.5736
21
2772.4264
31
0.0
0
MTEXT
5
5245
330
2024
100
AcDbEntity
8
DIM
100
AcDbMText
10
9515.0
20
2275.0
30
0.0
40
250.0
41
0.0
71
5
72
1
1
910
7
JP
11
0.0
21
1.0
31
0.0
50
90.0
0
ENDBLK
5
2224
330
2024
100
AcDbEntity
8
DIM
100
AcDbBlockEnd
0
BLOCK
5
2125
330
2025
100
AcDbEntity
8
DIM
100
AcDbBlockBegin
2
*D25
70
1
10
0.0
20
0.0
30
0.0
3
*D25
1

0
LINE
5
5250
330
2025
100
AcDbEntity
8
DIM
100
AcDbLine
10
9150.0
20
2730.0
30
0.0
11
9800.0
21
2730.0
31
0.0
0
LINE
5
5251
330
2025
100
AcDbEntity
8
DIM
100
AcDbLine
10
9150.0
20
3640.0
30
0.0
11
9800.0
21
3640.0
31
0.0
0
LINE
5
5252
330
2025
100
AcDbEntity
8
DIM
100
AcDbLine
10
9700.0
20
2730.0
30
0.0
11
9700.0
21
3640.0
31
0.0
0
LINE
5
5253
330
2025
100
AcDbEntity
8
DIM
100
AcDbLine
10
9742.4264
20
2687.5736
30
0.0
11
9657.5736
21
2772.4264
31
0.0
0
LINE
5
5254
330
2025
100
AcDbEntity
8
DIM
100
AcDbLine
10
9742.4264
20
3597.5736
30
0.0
11
9657.5736
21
3682.4264
31
0.0
0
MTEXT
5
5255
330
2025
100
AcDbEntity
8
DIM
100
AcDbMText
10
9515.0
20
3185.0
30
0.0
40
250.0
41
0.0
71
5
72
1
1
910
7
JP
11
0.0
21
1.0
31
0.0
50
90.0
0
ENDBLK
5
2225
330
2025
100
AcDbEntity
8
DIM
100
AcDbBlockEnd
0
BLOCK
5
2126
330
2026
100
AcDbEntity
8
DIM
100
AcDbBlockBegin
2
*D26
70
1
10
0.0
20
0.0
30
0.0
3
*D26
1

0
LINE
5
5260
330
2026
100
AcDbEntity
8
DIM
100
AcDbLine
10
9150.0
20
3640.0
30
0.0
11
9800.0
21
3640.0
31
0.0
0
LINE
5
5261
330
2026
100
AcDbEntity
8
DIM
100
AcDbLine
10
9150.0
20
4550.0
30
0.0
11
9800.0
21
4550.0
31
0.0
0
LINE
5
5262
330
2026
100
AcDbEntity
8
DIM
100
AcDbLine
10
9700.0
20
3640.0
30
0.0
11
9700.0
21
4550.0
31
0.0
0
LINE
5
5263
330
2026
100
AcDbEntity
8
DIM
100
AcDbLine
10
9742.4264
20
3597.5736
30
0.0
11
9657.5736
21
3682.4264
31
0.0
0
LINE
5
5264
330
2026
100
AcDbEntity
8
DIM
100
AcDbLine
10
9742.4264
20
4507.5736
30
0.0
11
9657.5736
21
4592.4264
31
0.0
0
MTEXT
5
5265
330
2026
100
AcDbEntity
8
DIM
100
AcDbMText
10
9515.0
20
4095.0
30
0.0
40
250.0
41
0.0
71
5
72
1
1
910
7
JP
11
0.0
21
1.0
31
0.0
50
90.0
0
ENDBLK
5
2226
330
2026
100
AcDbEntity
8
DIM
100
AcDbBlockEnd
0
BLOCK
5
2127
330
2027
100
AcDbEntity
8
DIM
100
AcDbBlockBegin
2
*D27
70
1
10
0.0
20
0.0
30
0.0
3
*D27
1

0
LINE
5
5270
330
2027
100
AcDbEntity
8
DIM
100
AcDbLine
10
9150.0
20
4550.0
30
0.0
11
9800.0
21
4550.0
31
0.0
0
LINE
5
5271
330
2027
100
AcDbEntity
8
DIM
100
AcDbLine
10
9150.0
20
5460.0
30
0.0
11
9800.0
21
5460.0
31
0.0
0
LINE
5
5272
330
2027
100
AcDbEntity
8
DIM
100
AcDbLine
10
9700.0
20
4550.0
30
0.0
11
9700.0
21
5460.0
31
0.0
0
LINE
5
5273
330
2027
100
AcDbEntity
8
DIM
100
AcDbLine
10
9742.4264
20
4507.5736
30
0.0
11
9657.5736
21
4592.4264
31
0.0
0
LINE
5
5274
330
2027
100
AcDbEntity
8
DIM
100
AcDbLine
10
9742.4264
20
5417.5736
30
0.0
11
9657.5736
21
5502.4264
31
0.0
0
MTEXT
5
5275
330
2027
100
AcDbEntity
8
DIM
100
AcDbMText
10
9515.0
20
5005.0
30
0.0
40
250.0
41
0.0
71
5
72
1
1
910
7
JP
11
0.0
21
1.0
31
0.0
50
90.0
0
ENDBLK
5
2227
330
2027
100
AcDbEntity
8
DIM
100
AcDbBlockEnd
0
BLOCK
5
2128
330
2028
100
AcDbEntity
8
DIM
100
AcDbBlockBegin
2
*D28
70
1
10
0.0
20
0.0
30
0.0
3
*D28
1

0
LINE
5
5280
330
2028
100
AcDbEntity
8
DIM
100
AcDbLine
10
9150.0
20
5460.0
30
0.0
11
9800.0
21
5460.0
31
0.0
0
LINE
5
5281
330
2028
100
AcDbEntity
8
DIM
100
AcDbLine
10
9150.0
20
6370.0
30
0.0
11
9800.0
21
6370.0
31
0.0
0
LINE
5
5282
330
2028
100
AcDbEntity
8
DIM
100
AcDbLine
10
9700.0
20
5460.0
30
0.0
11
9700.0
21
6370.0
31
0.0
0
LINE
5
5283
330
2028
100
AcDbEntity
8
DIM
100
AcDbLine
10
9742.4264
20
5417.5736
30
0.0
11
9657.5736
21
5502.4264
31
0.0
0
LINE
5
5284
330
2028
100
AcDbEntity
8
DIM
100
AcDbLine
10
9742.4264
20
6327.5736
30
0.0
11
9657.5736
21
6412.4264
31
0.0
0
MTEXT
5
5285
330
2028
100
AcDbEntity
8
DIM
100
AcDbMText
10
9515.0
20
5915.0
30
0.0
40
250.0
41
0.0
71
5
72
1
1
910
7
JP
11
0.0
21
1.0
31
0.0
50
90.0
0
ENDBLK
5
2228
330
2028
100
AcDbEntity
8
DIM
100
AcDbBlockEnd
0
BLOCK
5
2129
330
2029
100
AcDbEntity
8
DIM
100
AcDbBlockBegin
2
*D29
70
1
10
0.0
20
0.0
30
0.0
3
*D29
1

0
LINE
5
5290
330
2029
100
AcDbEntity
8
DIM
100
AcDbLine
10
9150.0
20
0.0
30
0.0
11
10800.0
21
0.0
31
0.0
0
LINE
5
5291
330
2029
100
AcDbEntity
8
DIM
100
AcDbLine
10
9150.0
20
6370.0
30
0.0
11
10800.0
21
6370.0
31
0.0
0
LINE
5
5292
330
2029
100
AcDbEntity
8
DIM
100
AcDbLine
10
10700.0
20
0.0
30
0.0
11
10700.0
21
6370.0
31
0.0
0
LINE
5
5293
330
2029
100
AcDbEntity
8
DIM
100
AcDbLine
10
10742.4264
20
-42.4264
30
0.0
11
10657.5736
21
42.4264
31
0.0
0
LINE
5
5294
330
2029
100
AcDbEntity
8
DIM
100
AcDbLine
10
10742.4264
20
6327.5736
30
0.0
11
10657.5736
21
6412.4264
31
0.0
0
MTEXT
5
5295
330
2029
100
AcDbEntity
8
DIM
100
AcDbMText
10
10515.0
20
3185.0
30
0.0
40
250.0
41
0.0
71
5
72
1
1
6370
7
JP
11
0.0
21
1.0
31
0.0
50
90.0
0
ENDBLK
5
2229
330
2029
100
AcDbEntity
8
DIM
100
AcDbBlockEnd
0
BLOCK
5
2130
330
2030
100
AcDbEntity
8
DIM
100
AcDbBlockBegin
2
*D30
70
1
10
0.0
20
0.0
30
0.0
3
*D30
1

0
LINE
5
5300
330
2030
100
AcDbEntity
8
DIM
100
AcDbLine
10
0.0
20
8240.0
30
0.0
11
0.0
21
8890.0
31
0.0
0
LINE
5
5301
330
2030
100
AcDbEntity
8
DIM
100
AcDbLine
10
910.0
20
8240.0
30
0.0
11
910.0
21
8890.0
31
0.0
0
LINE
5
5302
330
2030
100
AcDbEntity
8
DIM
100
AcDbLine
10
0.0
20
8790.0
30
0.0
11
910.0
21
8790.0
31
0.0
0
LINE
5
5303
330
2030
100
AcDbEntity
8
DIM
100
AcDbLine
10
-42.4264
20
8747.5736
30
0.0
11
42.4264
21
8832.4264
31
0.0
0
LINE
5
5304
330
2030
100
AcDbEntity
8
DIM
100
AcDbLine
10
867.5736
20
8747.5736
30
0.0
11
952.4264
21
8832.4264
31
0.0
0
MTEXT
5
5305
330
2030
100
AcDbEntity
8
DIM
100
AcDbMText
10
455.0
20
8975.0
30
0.0
40
250.0
41
0.0
71
5
72
1
1
910
7
JP
11
1.0
21
0.0
31
0.0
50
0.0
0
ENDBLK
5
2230
330
2030
100
AcDbEntity
8
DIM
100
AcDbBlockEnd
0
BLOCK
5
2131
330
2031
100
AcDbEntity
8
DIM
100
AcDbBlockBegin
2
*D31
70
1
10
0.0
20
0.0
30
0.0
3
*D31
1

0
LINE
5
5310
330
2031
100
AcDbEntity
8
DIM
100
AcDbLine
10
910.0
20
8240.0
30
0.0
11
910.0
21
8890.0
31
0.0
0
LINE
5
5311
330
2031
100
AcDbEntity
8
DIM
100
AcDbLine
10
1820.0
20
8240.0
30
0.0
11
1820.0
21
8890.0
31
0.0
0
LINE
5
5312
330
2031
100
AcDbEntity
8
DIM
100
AcDbLine
10
910.0
20
8790.0
30
0.0
11
1820.0
21
8790.0
31
0.0
0
LINE
5
5313
330
2031
100
AcDbEntity
8
DIM
100
AcDbLine
10
867.5736
20
8747.5736
30
0.0
11
952.4264
21
8832.4264
31
0.0
0
LINE
5
5314
330
2031
100
AcDbEntity
8
DIM
100
AcDbLine
10
1777.5736
20
8747.5736
30
0.0
11
1862.4264
21
8832.4264
31
0.0
0
MTEXT
5
5315
330
2031
100
AcDbEntity
8
DIM
100
AcDbMText
10
1365.0
20
8975.0
30
0.0
40
250.0
41
0.0
71
5
72
1
1
910
7
JP
11
1.0
21
0.0
31
0.0
50
0.0
0
ENDBLK
5
2231
330
2031
100
AcDbEntity
8
DIM
100
AcDbBlockEnd
0
BLOCK
5
2132
330
2032
100
AcDbEntity
8
DIM
100
AcDbBlockBegin
2
*D32
70
1
10
0.0
20
0.0
30
0.0
3
*D32
1

0
LINE
5
5320
330
2032
100
AcDbEntity
8
DIM
100
AcDbLine
10
1820.0
20
8240.0
30
0.0
11
1820.0
21
8890.0
31
0.0
0
LINE
5
5321
330
2032
100
AcDbEntity
8
DIM
100
AcDbLine
10
2730.0
20
8240.0
30
0.0
11
2730.0
21
8890.0
31
0.0
0
LINE
5
5322
330
2032
100
AcDbEntity
8
DIM
100
AcDbLine
10
1820.0
20
8790.0
30
0.0
11
2730.0
21
8790.0
31
0.0
0
LINE
5
5323
330
2032
100
AcDbEntity
8
DIM
100
AcDbLine
10
1777.5736
20
8747.5736
30
0.0
11
1862.4264
21
8832.4264
31
0.0
0
LINE
5
5324
330
2032
100
AcDbEntity
8
DIM
100
AcDbLine
10
2687.5736
20
8747.5736
30
0.0
11
2772.4264
21
8832.4264
31
0.0
0
MTEXT
5
5325
330
2032
100
AcDbEntity
8
DIM
100
AcDbMText
10
2275.0
20
8975.0
30
0.0
40
250.0
41
0.0
71
5
72
1
1
910
7
JP
11
1.0
21
0.0
31
0.0
50
0.0
0
ENDBLK
5
2232
330
2032
100
AcDbEntity
8
DIM
100
AcDbBlockEnd
0
BLOCK
5
2133
330
2033
100
AcDbEntity
8
DIM
100
AcDbBlockBegin
2
*D33
70
1
10
0.0
20
0.0
30
0.0
3
*D33
1

0
LINE
5
5330
330
2033
100
AcDbEntity
8
DIM
100
AcDbLine
10
2730.0
20
8240.0
30
0.0
11
2730.0
21
8890.0
31
0.0
0
LINE
5
5331
330
2033
100
AcDbEntity
8
DIM
100
AcDbLine
10
3640.0
20
8240.0
30
0.0
11
3640.0
21
8890.0
31
0.0
0
LINE
5
5332
330
2033
100
AcDbEntity
8
DIM
100
AcDbLine
10
2730.0
20
8790.0
30
0.0
11
3640.0
21
8790.0
31
0.0
0
LINE
5
5333
330
2033
100
AcDbEntity
8
DIM
100
AcDbLine
10
2687.5736
20
8747.5736
30
0.0
11
2772.4264
21
8832.4264
31
0.0
0
LINE
5
5334
330
2033
100
AcDbEntity
8
DIM
100
AcDbLine
10
3597.5736
20
8747.5736
30
0.0
11
3682.4264
21
8832.4264
31
0.0
0
MTEXT
5
5335
330
2033
100
AcDbEntity
8
DIM
100
AcDbMText
10
3185.0
20
8975.0
30
0.0
40
250.0
41
0.0
71
5
72
1
1
910
7
JP
11
1.0
21
0.0
31
0.0
50
0.0
0
ENDBLK
5
2233
330
2033
100
AcDbEntity
8
DIM
100
AcDbBlockEnd
0
BLOCK
5
2134
330
2034
100
AcDbEntity
8
DIM
100
AcDbBlockBegin
2
*D34
70
1
10
0.0
20
0.0
30
0.0
3
*D34
1

0
LINE
5
5340
330
2034
100
AcDbEntity
8
DIM
100
AcDbLine
10
3640.0
20
8240.0
30
0.0
11
3640.0
21
8890.0
31
0.0
0
LINE
5
5341
330
2034
100
AcDbEntity
8
DIM
100
AcDbLine
10
4550.0
20
8240.0
30
0.0
11
4550.0
21
8890.0
31
0.0
0
LINE
5
5342
330
2034
100
AcDbEntity
8
DIM
100
AcDbLine
10
3640.0
20
8790.0
30
0.0
11
4550.0
21
8790.0
31
0.0
0
LINE
5
5343
330
2034
100
AcDbEntity
8
DIM
100
AcDbLine
10
3597.5736
20
8747.5736
30
0.0
11
3682.4264
21
8832.4264
31
0.0
0
LINE
5
5344
330
2034
100
AcDbEntity
8
DIM
100
AcDbLine
10
4507.5736
20
8747.5736
30
0.0
11
4592.4264
21
8832.4264
31
0.0
0
MTEXT
5
5345
330
2034
100
AcDbEntity
8
DIM
100
AcDbMText
10
4095.0
20
8975.0
30
0.0
40
250.0
41
0.0
71
5
72
1
1
910
7
JP
11
1.0
21
0.0
31
0.0
50
0.0
0
ENDBLK
5
2234
330
2034
100
AcDbEntity
8
DIM
100
AcDbBlockEnd
0
BLOCK
5
2135
330
2035
100
AcDbEntity
8
DIM
100
AcDbBlockBegin
2
*D35
70
1
10
0.0
20
0.0
30
0.0
3
*D35
1

0
LINE
5
5350
330
2035
100
AcDbEntity
8
DIM
100
AcDbLine
10
4550.0
20
8240.0
30
0.0
11
4550.0
21
8890.0
31
0.0
0
LINE
5
5351
330
2035
100
AcDbEntity
8
DIM
100
AcDbLine
10
5460.0
20
8240.0
30
0.0
11
5460.0
21
8890.0
31
0.0
0
LINE
5
5352
330
2035
100
AcDbEntity
8
DIM
100
AcDbLine
10
4550.0
20
8790.0
30
0.0
11
5460.0
21
8790.0
31
0.0
0
LINE
5
5353
330
2035
100
AcDbEntity
8
DIM
100
AcDbLine
10
4507.5736
20
8747.5736
30
0.0
11
4592.4264
21
8832.4264
31
0.0
0
LINE
5
5354
330
2035
100
AcDbEntity
8
DIM
100
AcDbLine
10
5417.5736
20
8747.5736
30
0.0
11
5502.4264
21
8832.4264
31
0.0
0
MTEXT
5
5355
330
2035
100
AcDbEntity
8
DIM
100
AcDbMText
10
5005.0
20
8975.0
30
0.0
40
250.0
41
0.0
71
5
72
1
1
910
7
JP
11
1.0
21
0.0
31
0.0
50
0.0
0
ENDBLK
5
2235
330
2035
100
AcDbEntity
8
DIM
100
AcDbBlockEnd
0
BLOCK
5
2136
330
2036
100
AcDbEntity
8
DIM
100
AcDbBlockBegin
2
*D36
70
1
10
0.0
20
0.0
30
0.0
3
*D36
1

0
LINE
5
5360
330
2036
100
AcDbEntity
8
DIM
100
AcDbLine
10
5460.0
20
8240.0
30
0.0
11
5460.0
21
8890.0
31
0.0
0
LINE
5
5361
330
2036
100
AcDbEntity
8
DIM
100
AcDbLine
10
6370.0
20
8240.0
30
0.0
11
6370.0
21
8890.0
31
0.0
0
LINE
5
5362
330
2036
100
AcDbEntity
8
DIM
100
AcDbLine
10
5460.0
20
8790.0
30
0.0
11
6370.0
21
8790.0
31
0.0
0
LINE
5
5363
330
2036
100
AcDbEntity
8
DIM
100
AcDbLine
10
5417.5736
20
8747.5736
30
0.0
11
5502.4264
21
8832.4264
31
0.0
0
LINE
5
5364
330
2036
100
AcDbEntity
8
DIM
100
AcDbLine
10
6327.5736
20
8747.5736
30
0.0
11
6412.4264
21
8832.4264
31
0.0
0
MTEXT
5
5365
330
2036
100
AcDbEntity
8
DIM
100
AcDbMText
10
5915.0
20
8975.0
30
0.0
40
250.0
41
0.0
71
5
72
1
1
910
7
JP
11
1.0
21
0.0
31
0.0
50
0.0
0
ENDBLK
5
2236
330
2036
100
AcDbEntity
8
DIM
100
AcDbBlockEnd
0
BLOCK
5
2137
330
2037
100
AcDbEntity
8
DIM
100
AcDbBlockBegin
2
*D37
70
1
10
0.0
20
0.0
30
0.0
3
*D37
1

0
LINE
5
5370
330
2037
100
AcDbEntity
8
DIM
100
AcDbLine
10
6370.0
20
8240.0
30
0.0
11
6370.0
21
8890.0
31
0.0
0
LINE
5
5371
330
2037
100
AcDbEntity
8
DIM
100
AcDbLine
10
7280.0
20
8240.0
30
0.0
11
7280.0
21
8890.0
31
0.0
0
LINE
5
5372
330
2037
100
AcDbEntity
8
DIM
100
AcDbLine
10
6370.0
20
8790.0
30
0.0
11
7280.0
21
8790.0
31
0.0
0
LINE
5
5373
330
2037
100
AcDbEntity
8
DIM
100
AcDbLine
10
6327.5736
20
8747.5736
30
0.0
11
6412.4264
21
8832.4264
31
0.0
0
LINE
5
5374
330
2037
100
AcDbEntity
8
DIM
100
AcDbLine
10
7237.5736
20
8747.5736
30
0.0
11
7322.4264
21
8832.4264
31
0.0
0
MTEXT
5
5375
330
2037
100
AcDbEntity
8
DIM
100
AcDbMText
10
6825.0
20
8975.0
30
0.0
40
250.0
41
0.0
71
5
72
1
1
910
7
JP
11
1.0
21
0.0
31
0.0
50
0.0
0
ENDBLK
5
2237
330
2037
100
AcDbEntity
8
DIM
100
AcDbBlockEnd
0
BLOCK
5
2138
330
2038
100
AcDbEntity
8
DIM
100
AcDbBlockBegin
2
*D38
70
1
10
0.0
20
0.0
30
0.0
3
*D38
1

0
LINE
5
5380
330
2038
100
AcDbEntity
8
DIM
100
AcDbLine
10
0.0
20
8240.0
30
0.0
11
0.0
21
9890.0
31
0.0
0
LINE
5
5381
330
2038
100
AcDbEntity
8
DIM
100
AcDbLine
10
7280.0
20
8240.0
30
0.0
11
7280.0
21
9890.0
31
0.0
0
LINE
5
5382
330
2038
100
AcDbEntity
8
DIM
100
AcDbLine
10
0.0
20
9790.0
30
0.0
11
7280.0
21
9790.0
31
0.0
0
LINE
5
5383
330
2038
100
AcDbEntity
8
DIM
100
AcDbLine
10
-42.4264
20
9747.5736
30
0.0
11
42.4264
21
9832.4264
31
0.0
0
LINE
5
5384
330
2038
100
AcDbEntity
8
DIM
100
AcDbLine
10
7237.5736
20
9747.5736
30
0.0
11
7322.4264
21
9832.4264
31
0.0
0
MTEXT
5
5385
330
2038
100
AcDbEntity
8
DIM
100
AcDbMText
10
3640.0
20
9975.0
30
0.0
40
250.0
41
0.0
71
5
72
1
1
7280
7
JP
11
1.0
21
0.0
31
0.0
50
0.0
0
ENDBLK
5
2238
330
2038
100
AcDbEntity
8
DIM
100
AcDbBlockEnd
0
ENDSEC
0
SECTION
2
ENTITIES
0
LINE
5
1000
330
28
100
AcDbEntity
8
GRID
100
AcDbLine
10
0.0
20
-2000.0
30
0.0
11
0.0
21
8700.0
31
0.0
0
LINE
5
1001
330
28
100
AcDbEntity
8
GRID
100
AcDbLine
10
910.0
20
-2000.0
30
0.0
11
910.0
21
8700.0
31
0.0
0
LINE
5
1002
330
28
100
AcDbEntity
8
GRID
100
AcDbLine
10
1820.0
20
-2000.0
30
0.0
11
1820.0
21
8700.0
31
0.0
0
LINE
5
1003
330
28
100
AcDbEntity
8
GRID
100
AcDbLine
10
2730.0
20
-2000.0
30
0.0
11
2730.0
21
8700.0
31
0.0
0
LINE
5
1004
330
28
100
AcDbEntity
8
GRID
100
AcDbLine
10
3640.0
20
-2000.0
30
0.0
11
3640.0
21
8700.0
31
0.0
0
LINE
5
1005
330
28
100
AcDbEntity
8
GRID
100
AcDbLine
10
4550.0
20
-2000.0
30
0.0
11
4550.0
21
8700.0
31
0.0
0
LINE
5
1006
330
28
100
AcDbEntity
8
GRID
100
AcDbLine
10
5460.0
20
-2000.0
30
0.0
11
5460.0
21
8700.0
31
0.0
0
LINE
5
1007
330
28
100
AcDbEntity
8
GRID
100
AcDbLine
10
6370.0
20
-2000.0
30
0.0
11
6370.0
21
8700.0
31
0.0
0
LINE
5
1008
330
28
100
AcDbEntity
8
GRID
100
AcDbLine
10
7280.0
20
-2000.0
30
0.0
11
7280.0
21
8700.0
31
0.0
0
LINE
5
1009
330
28
100
AcDbEntity
8
GRID
100
AcDbLine
10
8190.0
20
-2000.0
30
0.0
11
8190.0
21
8700.0
31
0.0
0
LINE
5
1010
330
28
100
AcDbEntity
8
GRID
100
AcDbLine
10
9100.0
20
-2000.0
30
0.0
11
9100.0
21
8700.0
31
0.0
0
LINE
5
1011
330
28
100
AcDbEntity
8
GRID
100
AcDbLine
10
-2000.0
20
0.0
30
0.0
11
9600.0
21
0.0
31
0.0
0
LINE
5
1012
330
28
100
AcDbEntity
8
GRID
100
AcDbLine
10
-2000.0
20
910.0
30
0.0
11
9600.0
21
910.0
31
0.0
0
LINE
5
1013
330
28
100
AcDbEntity
8
GRID
100
AcDbLine
10
-2000.0
20
1820.0
30
0.0
11
9600.0
21
1820.0
31
0.0
0
LINE
5
1014
330
28
100
AcDbEntity
8
GRID
100
AcDbLine
10
-2000.0
20
2730.0
30
0.0
11
9600.0
21
2730.0
31
0.0
0
LINE
5
1015
330
28
100
AcDbEntity
8
GRID
100
AcDbLine
10
-2000.0
20
3640.0
30
0.0
11
9600.0
21
3640.0
31
0.0
0
LINE
5
1016
330
28
100
AcDbEntity
8
GRID
100
AcDbLine
10
-2000.0
20
4550.0
30
0.0
11
9600.0
21
4550.0
31
0.0
0
LINE
5
1017
330
28
100
AcDbEntity
8
GRID
100
AcDbLine
10
-2000.0
20
5460.0
30
0.0
11
9600.0
21
5460.0
31
0.0
0
LINE
5
1018
330
28
100
AcDbEntity
8
GRID
100
AcDbLine
10
-2000.0
20
6370.0
30
0.0
11
9600.0
21
6370.0
31
0.0
0
LINE
5
1019
330
28
100
AcDbEntity
8
GRID
100
AcDbLine
10
-2000.0
20
7280.0
30
0.0
11
9600.0
21
7280.0
31
0.0
0
LINE
5
1020
330
28
100
AcDbEntity
8
GRID
100
AcDbLine
10
-2000.0
20
8190.0
30
0.0
11
9600.0
21
8190.0
31
0.0
0
TEXT
5
1021
330
28
100
AcDbEntity
8
GRID
100
AcDbText
10
0.0
20
-2350.0
30
0.0
40
300.0
1
X1
50
0.0
41
1.0
7
JP
72
1
11
0.0
21
-2350.0
31
0.0
100
AcDbText
73
2
0
TEXT
5
1022
330
28
100
AcDbEntity
8
GRID
100
AcDbText
10
910.0
20
-2350.0
30
0.0
40
300.0
1
X2
50
0.0
41
1.0
7
JP
72
1
11
910.0
21
-2350.0
31
0.0
100
AcDbText
73
2
0
TEXT
5
1023
330
28
100
AcDbEntity
8
GRID
100
AcDbText
10
1820.0
20
-2350.0
30
0.0
40
300.0
1
X3
50
0.0
41
1.0
7
JP
72
1
11
1820.0
21
-2350.0
31
0.0
100
AcDbText
73
2
0
TEXT
5
1024
330
28
100
AcDbEntity
8
GRID
100
AcDbText
10
2730.0
20
-2350.0
30
0.0
40
300.0
1
X4
50
0.0
41
1.0
7
JP
72
1
11
2730.0
21
-2350.0
31
0.0
100
AcDbText
73
2
0
TEXT
5
1025
330
28
100
AcDbEntity
8
GRID
100
AcDbText
10
3640.0
20
-2350.0
30
0.0
40
300.0
1
X5
50
0.0
41
1.0
7
JP
72
1
11
3640.0
21
-2350.0
31
0.0
100
AcDbText
73
2
0
TEXT
5
1026
330
28
100
AcDbEntity
8
GRID
100
AcDbText
10
4550.0
20
-2350.0
30
0.0
40
300.0
1
X6
50
0.0
41
1.0
7
JP
72
1
11
4550.0
21
-2350.0
31
0.0
100
AcDbText
73
2
0
TEXT
5
1027
330
28
100
AcDbEntity
8
GRID
100
AcDbText
10
5460.0
20
-2350.0
30
0.0
40
300.0
1
X7
50
0.0
41
1.0
7
JP
72
1
11
5460.0
21
-2350.0
31
0.0
100
AcDbText
73
2
0
TEXT
5
1028
330
28
100
AcDbEntity
8
GRID
100
AcDbText
10
6370.0
20
-2350.0
30
0.0
40
300.0
1
X8
50
0.0
41
1.0
7
JP
72
1
11
6370.0
21
-2350.0
31
0.0
100
AcDbText
73
2
0
TEXT
5
1029
330
28
100
AcDbEntity
8
GRID
100
AcDbText
10
7280.0
20
-2350.0
30
0.0
40
300.0
1
X9
50
0.0
41
1.0
7
JP
72
1
11
7280.0
21
-2350.0
31
0.0
100
AcDbText
73
2
0
TEXT
5
1030
330
28
100
AcDbEntity
8
GRID
100
AcDbText
10
8190.0
20
-2350.0
30
0.0
40
300.0
1
X10
50
0.0
41
1.0
7
JP
72
1
11
8190.0
21
-2350.0
31
0.0
100
AcDbText
73
2
0
TEXT
5
1031
330
28
100
AcDbEntity
8
GRID
100
AcDbText
10
9100.0
20
-2350.0
30
0.0
40
300.0
1
X11
50
0.0
41
1.0
7
JP
72
1
11
9100.0
21
-2350.0
31
0.0
100
AcDbText
73
2
0
TEXT
5
1032
330
28
100
AcDbEntity
8
GRID
100
AcDbText
10
-2350.0
20
0.0
30
0.0
40
300.0
1
Y1
50
0.0
41
1.0
7
JP
72
1
11
-2350.0
21
0.0
31
0.0
100
AcDbText
73
2
0
TEXT
5
1033
330
28
100
AcDbEntity
8
GRID
100
AcDbText
10
-2350.0
20
910.0
30
0.0
40
300.0
1
Y2
50
0.0
41
1.0
7
JP
72
1
11
-2350.0
21
910.0
31
0.0
100
AcDbText
73
2
0
TEXT
5
1034
330
28
100
AcDbEntity
8
GRID
100
AcDbText
10
-2350.0
20
1820.0
30
0.0
40
300.0
1
Y3
50
0.0
41
1.0
7
JP
72
1
11
-2350.0
21
1820.0
31
0.0
100
AcDbText
73
2
0
TEXT
5
1035
330
28
100
AcDbEntity
8
GRID
100
AcDbText
10
-2350.0
20
2730.0
30
0.0
40
300.0
1
Y4
50
0.0
41
1.0
7
JP
72
1
11
-2350.0
21
2730.0
31
0.0
100
AcDbText
73
2
0
TEXT
5
1036
330
28
100
AcDbEntity
8
GRID
100
AcDbText
10
-2350.0
20
3640.0
30
0.0
40
300.0
1
Y5
50
0.0
41
1.0
7
JP
72
1
11
-2350.0
21
3640.0
31
0.0
100
AcDbText
73
2
0
TEXT
5
1037
330
28
100
AcDbEntity
8
GRID
100
AcDbText
10
-2350.0
20
4550.0
30
0.0
40
300.0
1
Y6
50
0.0
41
1.0
7
JP
72
1
11
-2350.0
21
4550.0
31
0.0
100
AcDbText
73
2
0
TEXT
5
1038
330
28
100
AcDbEntity
8
GRID
100
AcDbText
10
-2350.0
20
5460.0
30
0.0
40
300.0
1
Y7
50
0.0
41
1.0
7
JP
72
1
11
-2350.0
21
5460.0
31
0.0
100
AcDbText
73
2
0
TEXT
5
1039
330
28
100
AcDbEntity
8
GRID
100
AcDbText
10
-2350.0
20
6370.0
30
0.0
40
300.0
1
Y8
50
0.0
41
1.0
7
JP
72
1
11
-2350.0
21
6370.0
31
0.0
100
AcDbText
73
2
0
TEXT
5
1040
330
28
100
AcDbEntity
8
GRID
100
AcDbText
10
-2350.0
20
7280.0
30
0.0
40
300.0
1
Y9
50
0.0
41
1.0
7
JP
72
1
11
-2350.0
21
7280.0
31
0.0
100
AcDbText
73
2
0
TEXT
5
1041
330
28
100
AcDbEntity
8
GRID
100
AcDbText
10
-2350.0
20
8190.0
30
0.0
40
300.0
1
Y10
50
0.0
41
1.0
7
JP
72
1
11
-2350.0
21
8190.0
31
0.0
100
AcDbText
73
2
0
LINE
5
1042
330
28
100
AcDbEntity
8
WALL
100
AcDbLine
10
-60.0
20
-60.0
30
0.0
11
455.0
21
-60.0
31
0.0
0
LINE
5
1043
330
28
100
AcDbEntity
8
WALL
100
AcDbLine
10
1365.0
20
-60.0
30
0.0
11
6370.0
21
-60.0
31
0.0
0
LINE
5
1044
330
28
100
AcDbEntity
8
WALL
100
AcDbLine
10
8190.0
20
-60.0
30
0.0
11
9160.0
21
-60.0
31
0.0
0
LINE
5
1045
330
28
100
AcDbEntity
8
WALL
100
AcDbLine
10
60.0
20
60.0
30
0.0
11
455.0
21
60.0
31
0.0
0
LINE
5
1046
330
28
100
AcDbEntity
8
WALL
100
AcDbLine
10
1365.0
20
60.0
30
0.0
11
1760.0
21
60.0
31
0.0
0
LINE
5
1047
330
28
100
AcDbEntity
8
WALL
100
AcDbLine
10
1880.0
20
60.0
30
0.0
11
3580.0
21
60.0
31
0.0
0
LINE
5
1048
330
28
100
AcDbEntity
8
WALL
100
AcDbLine
10
3700.0
20
60.0
30
0.0
11
5400.0
21
60.0
31
0.0
0
LINE
5
1049
330
28
100
AcDbEntity
8
WALL
100
AcDbLine
10
5520.0
20
60.0
30
0.0
11
6370.0
21
60.0
31
0.0
0
LINE
5
1050
330
28
100
AcDbEntity
8
WALL
100
AcDbLine
10
8190.0
20
60.0
30
0.0
11
9040.0
21
60.0
31
0.0
0
LINE
5
1051
330
28
100
AcDbEntity
8
WALL
100
AcDbLine
10
455.0
20
-60.0
30
0.0
11
455.0
21
60.0
31
0.0
0
LINE
5
1052
330
28
100
AcDbEntity
8
WALL
100
AcDbLine
10
1365.0
20
-60.0
30
0.0
11
1365.0
21
60.0
31
0.0
0
LINE
5
1053
330
28
100
AcDbEntity
8
WALL
100
AcDbLine
10
6370.0
20
-60.0
30
0.0
11
6370.0
21
60.0
31
0.0
0
LINE
5
1054
330
28
100
AcDbEntity
8
WALL
100
AcDbLine
10
8190.0
20
-60.0
30
0.0
11
8190.0
21
60.0
31
0.0
0
LINE
5
1055
330
28
100
AcDbEntity
8
WALL
100
AcDbLine
10
9160.0
20
-60.0
30
0.0
11
9160.0
21
1820.0
31
0.0
0
LINE
5
1056
330
28
100
AcDbEntity
8
WALL
100
AcDbLine
10
9160.0
20
3640.0
30
0.0
11
9160.0
21
6394.8528
31
0.0
0
LINE
5
1057
330
28
100
AcDbEntity
8
WALL
100
AcDbLine
10
9040.0
20
60.0
30
0.0
11
9040.0
21
1820.0
31
0.0
0
LINE
5
1058
330
28
100
AcDbEntity
8
WALL
100
AcDbLine
10
9040.0
20
3640.0
30
0.0
11
9040.0
21
4490.0
31
0.0
0
LINE
5
1059
330
28
100
AcDbEntity
8
WALL
100
AcDbLine
10
9040.0
20
4610.0
30
0.0
11
9040.0
21
6345.1472
31
0.0
0
LINE
5
1060
330
28
100
AcDbEntity
8
WALL
100
AcDbLine
10
9040.0
20
1820.0
30
0.0
11
9160.0
21
1820.0
31
0.0
0
LINE
5
1061
330
28
100
AcDbEntity
8
WALL
100
AcDbLine
10
9040.0
20
3640.0
30
0.0
11
9160.0
21
3640.0
31
0.0
0
LINE
5
1062
330
28
100
AcDbEntity
8
WALL
100
AcDbLine
10
9160.0
20
6394.8528
30
0.0
11
8647.4517
21
6907.4011
31
0.0
0
LINE
5
1063
330
28
100
AcDbEntity
8
WALL
100
AcDbLine
10
7798.9235
20
7755.9293
30
0.0
11
7304.8528
21
8250.0
31
0.0
0
LINE
5
1064
330
28
100
AcDbEntity
8
WALL
100
AcDbLine
10
9040.0
20
6345.1472
30
0.0
11
8562.5989
21
6822.5483
31
0.0
0
LINE
5
1065
330
28
100
AcDbEntity
8
WALL
100
AcDbLine
10
7714.0707
20
7671.0765
30
0.0
11
7255.1472
21
8130.0
31
0.0
0
LINE
5
1066
330
28
100
AcDbEntity
8
WALL
100
AcDbLine
10
8562.5989
20
6822.5483
30
0.0
11
8647.4517
21
6907.4011
31
0.0
0
LINE
5
1067
330
28
100
AcDbEntity
8
WALL
100
AcDbLine
10
7714.0707
20
7671.0765
30
0.0
11
7798.9235
21
7755.9293
31
0.0
0
LINE
5
1068
330
28
100
AcDbEntity
8
WALL
100
AcDbLine
10
-60.0
20
8250.0
30
0.0
11
2730.0
21
8250.0
31
0.0
0
LINE
5
1069
330
28
100
AcDbEntity
8
WALL
100
AcDbLine
10
4550.0
20
8250.0
30
0.0
11
7304.8528
21
8250.0
31
0.0
0
LINE
5
1070
330
28
100
AcDbEntity
8
WALL
100
AcDbLine
10
60.0
20
8130.0
30
0.0
11
2730.0
21
8130.0
31
0.0
0
LINE
5
1071
330
28
100
AcDbEntity
8
WALL
100
AcDbLine
10
4550.0
20
8130.0
30
0.0
11
7255.1472
21
8130.0
31
0.0
0
LINE
5
1072
330
28
100
AcDbEntity
8
WALL
100
AcDbLine
10
2730.0
20
8130.0
30
0.0
11
2730.0
21
8250.0
31
0.0
0
LINE
5
1073
330
28
100
AcDbEntity
8
WALL
100
AcDbLine
10
4550.0
20
8130.0
30
0.0
11
4550.0
21
8250.0
31
0.0
0
LINE
5
1074
330
28
100
AcDbEntity
8
WALL
100
AcDbLine
10
-60.0
20
-60.0
30
0.0
11
-60.0
21
8250.0
31
0.0
0
LINE
5
1075
330
28
100
AcDbEntity
8
WALL
100
AcDbLine
10
60.0
20
60.0
30
0.0
11
60.0
21
1760.0
31
0.0
0
LINE
5
1076
330
28
100
AcDbEntity
8
WALL
100
AcDbLine
10
60.0
20
1880.0
30
0.0
11
60.0
21
2215.0
31
0.0
0
LINE
5
1077
330
28
100
AcDbEntity
8
WALL
100
AcDbLine
10
60.0
20
2335.0
30
0.0
11
60.0
21
4490.0
31
0.0
0
LINE
5
1078
330
28
100
AcDbEntity
8
WALL
100
AcDbLine
10
60.0
20
4610.0
30
0.0
11
60.0
21
8130.0
31
0.0
0
LINE
5
1079
330
28
100
AcDbEntity
8
WALL
100
AcDbLine
10
1760.0
20
60.0
30
0.0
11
1760.0
21
455.0
31
0.0
0
LINE
5
1080
330
28
100
AcDbEntity
8
WALL
100
AcDbLine
10
1760.0
20
1365.0
30
0.0
11
1760.0
21
1760.0
31
0.0
0
LINE
5
1081
330
28
100
AcDbEntity
8
WALL
100
AcDbLine
10
1760.0
20
1880.0
30
0.0
11
1760.0
21
2215.0
31
0.0
0
LINE
5
1082
330
28
100
AcDbEntity
8
WALL
100
AcDbLine
10
1760.0
20
2335.0
30
0.0
11
1760.0
21
4490.0
31
0.0
0
LINE
5
1083
330
28
100
AcDbEntity
8
WALL
100
AcDbLine
10
1880.0
20
60.0
30
0.0
11
1880.0
21
455.0
31
0.0
0
LINE
5
1084
330
28
100
AcDbEntity
8
WALL
100
AcDbLine
10
1880.0
20
1365.0
30
0.0
11
1880.0
21
1760.0
31
0.0
0
LINE
5
1085
330
28
100
AcDbEntity
8
WALL
100
AcDbLine
10
1880.0
20
1880.0
30
0.0
11
1880.0
21
2670.0
31
0.0
0
LINE
5
1086
330
28
100
AcDbEntity
8
WALL
100
AcDbLine
10
1880.0
20
2790.0
30
0.0
11
1880.0
21
4490.0
31
0.0
0
LINE
5
1087
330
28
100
AcDbEntity
8
WALL
100
AcDbLine
10
1760.0
20
455.0
30
0.0
11
1880.0
21
455.0
31
0.0
0
LINE
5
1088
330
28
100
AcDbEntity
8
WALL
100
AcDbLine
10
1760.0
20
1365.0
30
0.0
11
1880.0
21
1365.0
31
0.0
0
LINE
5
1089
330
28
100
AcDbEntity
8
WALL
100
AcDbLine
10
3580.0
20
60.0
30
0.0
11
3580.0
21
1760.0
31
0.0
0
LINE
5
1090
330
28
100
AcDbEntity
8
WALL
100
AcDbLine
10
3580.0
20
1880.0
30
0.0
11
3580.0
21
2670.0
31
0.0
0
LINE
5
1091
330
28
100
AcDbEntity
8
WALL
100
AcDbLine
10
3580.0
20
2790.0
30
0.0
11
3580.0
21
4490.0
31
0.0
0
LINE
5
1092
330
28
100
AcDbEntity
8
WALL
100
AcDbLine
10
3700.0
20
60.0
30
0.0
11
3700.0
21
1760.0
31
0.0
0
LINE
5
1093
330
28
100
AcDbEntity
8
WALL
100
AcDbLine
10
3700.0
20
1880.0
30
0.0
11
3700.0
21
4490.0
31
0.0
0
LINE
5
1094
330
28
100
AcDbEntity
8
WALL
100
AcDbLine
10
5400.0
20
60.0
30
0.0
11
5400.0
21
1760.0
31
0.0
0
LINE
5
1095
330
28
100
AcDbEntity
8
WALL
100
AcDbLine
10
5400.0
20
1880.0
30
0.0
11
5400.0
21
4490.0
31
0.0
0
LINE
5
1096
330
28
100
AcDbEntity
8
WALL
100
AcDbLine
10
5520.0
20
60.0
30
0.0
11
5520.0
21
4490.0
31
0.0
0
LINE
5
1097
330
28
100
AcDbEntity
8
WALL
100
AcDbLine
10
60.0
20
1760.0
30
0.0
11
1760.0
21
1760.0
31
0.0
0
LINE
5
1098
330
28
100
AcDbEntity
8
WALL
100
AcDbLine
10
1880.0
20
1760.0
30
0.0
11
3580.0
21
1760.0
31
0.0
0
LINE
5
1099
330
28
100
AcDbEntity
8
WALL
100
AcDbLine
10
3700.0
20
1760.0
30
0.0
11
5400.0
21
1760.0
31
0.0
0
LINE
5
1100
330
28
100
AcDbEntity
8
WALL
100
AcDbLine
10
60.0
20
1880.0
30
0.0
11
1760.0
21
1880.0
31
0.0
0
LINE
5
1101
330
28
100
AcDbEntity
8
WALL
100
AcDbLine
10
1880.0
20
1880.0
30
0.0
11
3580.0
21
1880.0
31
0.0
0
LINE
5
1102
330
28
100
AcDbEntity
8
WALL
100
AcDbLine
10
3700.0
20
1880.0
30
0.0
11
5400.0
21
1880.0
31
0.0
0
LINE
5
1103
330
28
100
AcDbEntity
8
WALL
100
AcDbLine
10
60.0
20
2215.0
30
0.0
11
1760.0
21
2215.0
31
0.0
0
LINE
5
1104
330
28
100
AcDbEntity
8
WALL
100
AcDbLine
10
60.0
20
2335.0
30
0.0
11
1760.0
21
2335.0
31
0.0
0
LINE
5
1105
330
28
100
AcDbEntity
8
WALL
100
AcDbLine
10
1880.0
20
2670.0
30
0.0
11
3580.0
21
2670.0
31
0.0
0
LINE
5
1106
330
28
100
AcDbEntity
8
WALL
100
AcDbLine
10
1880.0
20
2790.0
30
0.0
11
3580.0
21
2790.0
31
0.0
0
LINE
5
1107
330
28
100
AcDbEntity
8
WALL
100
AcDbLine
10
60.0
20
4490.0
30
0.0
11
455.0
21
4490.0
31
0.0
0
LINE
5
1108
330
28
100
AcDbEntity
8
WALL
100
AcDbLine
10
1365.0
20
4490.0
30
0.0
11
1760.0
21
4490.0
31
0.0
0
LINE
5
1109
330
28
100
AcDbEntity
8
WALL
100
AcDbLine
10
1880.0
20
4490.0
30
0.0
11
3580.0
21
4490.0
31
0.0
0
LINE
5
1110
330
28
100
AcDbEntity
8
WALL
100
AcDbLine
10
3700.0
20
4490.0
30
0.0
11
5400.0
21
4490.0
31
0.0
0
LINE
5
1111
330
28
100
AcDbEntity
8
WALL
100
AcDbLine
10
5520.0
20
4490.0
30
0.0
11
6370.0
21
4490.0
31
0.0
0
LINE
5
1112
330
28
100
AcDbEntity
8
WALL
100
AcDbLine
10
7280.0
20
4490.0
30
0.0
11
9040.0
21
4490.0
31
0.0
0
LINE
5
1113
330
28
100
AcDbEntity
8
WALL
100
AcDbLine
10
60.0
20
4610.0
30
0.0
11
455.0
21
4610.0
31
0.0
0
LINE
5
1114
330
28
100
AcDbEntity
8
WALL
100
AcDbLine
10
1365.0
20
4610.0
30
0.0
11
6370.0
21
4610.0
31
0.0
0
LINE
5
1115
330
28
100
AcDbEntity
8
WALL
100
AcDbLine
10
7280.0
20
4610.0
30
0.0
11
9040.0
21
4610.0
31
0.0
0
LINE
5
1116
330
28
100
AcDbEntity
8
WALL
100
AcDbLine
10
455.0
20
4490.0
30
0.0
11
455.0
21
4610.0
31
0.0
0
LINE
5
1117
330
28
100
AcDbEntity
8
WALL
100
AcDbLine
10
1365.0
20
4490.0
30
0.0
11
1365.0
21
4610.0
31
0.0
0
LINE
5
1118
330
28
100
AcDbEntity
8
WALL
100
AcDbLine
10
6370.0
20
4490.0
30
0.0
11
6370.0
21
4610.0
31
0.0
0
LINE
5
1119
330
28
100
AcDbEntity
8
WALL
100
AcDbLine
10
7280.0
20
4490.0
30
0.0
11
7280.0
21
4610.0
31
0.0
0
LINE
5
1120
330
28
100
AcDbEntity
8
OPENING
100
AcDbLine
10
455.0
20
0.0
30
0.0
11
455.0
21
910.0
31
0.0
0
ARC
5
1121
330
28
100
AcDbEntity
8
OPENING
100
AcDbCircle
10
455.0
20
0.0
30
0.0
40
910.0
100
AcDbArc
50
0.0
51
90.0
0
LINE
5
1122
330
28
100
AcDbEntity
8
OPENING
100
AcDbLine
10
6370.0
20
-20.0
30
0.0
11
8190.0
21
-20.0
31
0.0
0
LINE
5
1123
330
28
100
AcDbEntity
8
OPENING
100
AcDbLine
10
6370.0
20
20.0
30
0.0
11
8190.0
21
20.0
31
0.0
0
LINE
5
1124
330
28
100
AcDbEntity
8
OPENING
100
AcDbLine
10
9080.0
20
1820.0
30
0.0
11
9080.0
21
3640.0
31
0.0
0
LINE
5
1125
330
28
100
AcDbEntity
8
OPENING
100
AcDbLine
10
9120.0
20
1820.0
30
0.0
11
9120.0
21
3640.0
31
0.0
0
LINE
5
1126
330
28
100
AcDbEntity
8
OPENING
100
AcDbLine
10
8619.1674
20
6879.1168
30
0.0
11
7770.6392
21
7727.6450
31
0.0
0
LINE
5
1127
330
28
100
AcDbEntity
8
OPENING
100
AcDbLine
10
8590.8832
20
6850.8326
30
0.0
11
7742.3550
21
7699.3608
31
0.0
0
LINE
5
1128
330
28
100
AcDbEntity
8
OPENING
100
AcDbLine
10
2730.0
20
8170.0
30
0.0
11
4550.0
21
8170.0
31
0.0
0
LINE
5
1129
330
28
100
AcDbEntity
8
OPENING
100
AcDbLine
10
2730.0
20
8210.0
30
0.0
11
4550.0
21
8210.0
31
0.0
0
LINE
5
1130
330
28
100
AcDbEntity
8
OPENING
100
AcDbLine
10
1820.0
20
455.0
30
0.0
11
2730.0
21
455.0
31
0.0
0
ARC
5
1131
330
28
100
AcDbEntity
8
OPENING
100
AcDbCircle
10
1820.0
20
455.0
30
0.0
40
910.0
100
AcDbArc
50
0.0
51
90.0
0
LINE
5
1132
330
28
100
AcDbEntity
8
OPENING
100
AcDbLine
10
455.0
20
4550.0
30
0.0
11
455.0
21
5460.0
31
0.0
0
ARC
5
1133
330
28
100
AcDbEntity
8
OPENING
100
AcDbCircle
10
455.0
20
4550.0
30
0.0
40
910.0
100
AcDbArc
50
0.0
51
90.0
0
LINE
5
1134
330
28
100
AcDbEntity
8
OPENING
100
AcDbLine
10
7280.0
20
4550.0
30
0.0
11
7280.0
21
5460.0
31
0.0
0
ARC
5
1135
330
28
100
AcDbEntity
8
OPENING
100
AcDbCircle
10
7280.0
20
4550.0
30
0.0
40
910.0
100
AcDbArc
50
90.0
51
180.0
0
LINE
5
1136
330
28
100
AcDbEntity
8
STAIR
100
AcDbLine
10
3700.0
20
260.0
30
0.0
11
4550.0
21
260.0
31
0.0
0
LINE
5
1137
330
28
100
AcDbEntity
8
STAIR
100
AcDbLine
10
3700.0
20
460.0
30
0.0
11
4550.0
21
460.0
31
0.0
0
LINE
5
1138
330
28
100
AcDbEntity
8
STAIR
100
AcDbLine
10
3700.0
20
660.0
30
0.0
11
4550.0
21
660.0
31
0.0
0
LINE
5
1139
330
28
100
AcDbEntity
8
STAIR
100
AcDbLine
10
3700.0
20
860.0
30
0.0
11
4550.0
21
860.0
31
0.0
0
LINE
5
1140
330
28
100
AcDbEntity
8
STAIR
100
AcDbLine
10
3700.0
20
1060.0
30
0.0
11
4550.0
21
1060.0
31
0.0
0
LINE
5
1141
330
28
100
AcDbEntity
8
STAIR
100
AcDbLine
10
3700.0
20
1260.0
30
0.0
11
4550.0
21
1260.0
31
0.0
0
LINE
5
1142
330
28
100
AcDbEntity
8
STAIR
100
AcDbLine
10
4550.0
20
260.0
30
0.0
11
5400.0
21
260.0
31
0.0
0
LINE
5
1143
330
28
100
AcDbEntity
8
STAIR
100
AcDbLine
10
4550.0
20
460.0
30
0.0
11
5400.0
21
460.0
31
0.0
0
LINE
5
1144
330
28
100
AcDbEntity
8
STAIR
100
AcDbLine
10
4550.0
20
660.0
30
0.0
11
5400.0
21
660.0
31
0.0
0
LINE
5
1145
330
28
100
AcDbEntity
8
STAIR
100
AcDbLine
10
4550.0
20
860.0
30
0.0
11
5400.0
21
860.0
31
0.0
0
LINE
5
1146
330
28
100
AcDbEntity
8
STAIR
100
AcDbLine
10
4550.0
20
1060.0
30
0.0
11
5400.0
21
1060.0
31
0.0
0
LINE
5
1147
330
28
100
AcDbEntity
8
STAIR
100
AcDbLine
10
4550.0
20
1260.0
30
0.0
11
5400.0
21
1260.0
31
0.0
0
LINE
5
1148
330
28
100
AcDbEntity
8
STAIR
100
AcDbLine
10
3700.0
20
1360.0
30
0.0
11
5400.0
21
1360.0
31
0.0
0
LINE
5
1149
330
28
100
AcDbEntity
8
STAIR
100
AcDbLine
10
4550.0
20
60.0
30
0.0
11
4550.0
21
1360.0
31
0.0
0
TEXT
5
1150
330
28
100
AcDbEntity
8
STAIR
100
AcDbText
10
3760.0
20
140.0
30
0.0
40
200.0
1
UP
50
0.0
41
1.0
7
JP
72
0
11
3760.0
21
140.0
31
0.0
100
AcDbText
73
0
0
TEXT
5
1151
330
28
100
AcDbEntity
8
ROOM
100
AcDbText
10
910.0
20
910.0
30
0.0
40
250.0
1
玄関
50
0.0
41
1.0
7
JP
72
1
11
910.0
21
910.0
31
0.0
100
AcDbText
73
2
0
TEXT
5
1152
330
28
100
AcDbEntity
8
ROOM
100
AcDbText
10
910.0
20
2047.5
30
0.0
40
250.0
1
収納
50
0.0
41
1.0
7
JP
72
1
11
910.0
21
2047.5
31
0.0
100
AcDbText
73
2
0
TEXT
5
1153
330
28
100
AcDbEntity
8
ROOM
100
AcDbText
10
910.0
20
3412.5
30
0.0
40
250.0
1
洗面脱衣
50
0.0
41
1.0
7
JP
72
1
11
910.0
21
3412.5
31
0.0
100
AcDbText
73
2
0
TEXT
5
1154
330
28
100
AcDbEntity
8
ROOM
100
AcDbText
10
2730.0
20
910.0
30
0.0
40
250.0
1
ホール
50
0.0
41
1.0
7
JP
72
1
11
2730.0
21
910.0
31
0.0
100
AcDbText
73
2
0
TEXT
5
1155
330
28
100
AcDbEntity
8
ROOM
100
AcDbText
10
2730.0
20
2275.0
30
0.0
40
250.0
1
便所
50
0.0
41
1.0
7
JP
72
1
11
2730.0
21
2275.0
31
0.0
100
AcDbText
73
2
0
TEXT
5
1156
330
28
100
AcDbEntity
8
ROOM
100
AcDbText
10
2730.0
20
3640.0
30
0.0
40
250.0
1
浴室
50
0.0
41
1.0
7
JP
72
1
11
2730.0
21
3640.0
31
0.0
100
AcDbText
73
2
0
TEXT
5
1157
330
28
100
AcDbEntity
8
ROOM
100
AcDbText
10
4550.0
20
1560.0
30
0.0
40
250.0
1
階段
50
0.0
41
1.0
7
JP
72
1
11
4550.0
21
1560.0
31
0.0
100
AcDbText
73
2
0
TEXT
5
1158
330
28
100
AcDbEntity
8
ROOM
100
AcDbText
10
4550.0
20
3185.0
30
0.0
40
250.0
1
納戸
50
0.0
41
1.0
7
JP
72
1
11
4550.0
21
3185.0
31
0.0
100
AcDbText
73
2
0
TEXT
5
1159
330
28
100
AcDbEntity
8
ROOM
100
AcDbText
10
7280.0
20
2275.0
30
0.0
40
250.0
1
和室
50
0.0
41
1.0
7
JP
72
1
11
7280.0
21
2275.0
31
0.0
100
AcDbText
73
2
0
TEXT
5
1160
330
28
100
AcDbEntity
8
ROOM
100
AcDbText
10
4342.0
20
6306.0
30
0.0
40
250.0
1
LDK
50
0.0
41
1.0
7
JP
72
1
11
4342.0
21
6306.0
31
0.0
100
AcDbText
73
2
0
TEXT
5
1161
330
28
100
AcDbEntity
8
TEXT
100
AcDbText
10
0.0
20
-3400.0
30
0.0
40
400.0
1
1階平面図　S=1:100
50
0.0
41
1.0
7
JP
72
0
11
0.0
21
-3400.0
31
0.0
100
AcDbText
73
0
0
DIMENSION
5
2301
330
28
100
AcDbEntity
8
DIM
100
AcDbDimension
280
0
2
*D1
10
910.0
20
-600.0
30
0.0
11
455.0
21
-415.0
31
0.0
70
32
71
5
72
1
42
910.0
3
Standard
100
AcDbAlignedDimension
13
0.0
23
0.0
33
0.0
14
910.0
24
0.0
34
0.0
50
0.0
100
AcDbRotatedDimension
0
DIMENSION
5
2302
330
28
100
AcDbEntity
8
DIM
100
AcDbDimension
280
0
2
*D2
10
1820.0
20
-600.0
30
0.0
11
1365.0
21
-415.0
31
0.0
70
32
71
5
72
1
42
910.0
3
Standard
100
AcDbAlignedDimension
13
910.0
23
0.0
33
0.0
14
1820.0
24
0.0
34
0.0
50
0.0
100
AcDbRotatedDimension
0
DIMENSION
5
2303
330
28
100
AcDbEntity
8
DIM
100
AcDbDimension
280
0
2
*D3
10
2730.0
20
-600.0
30
0.0
11
2275.0
21
-415.0
31
0.0
70
32
71
5
72
1
42
910.0
3
Standard
100
AcDbAlignedDimension
13
1820.0
23
0.0
33
0.0
14
2730.0
24
0.0
34
0.0
50
0.0
100
AcDbRotatedDimension
0
DIMENSION
5
2304
330
28
100
AcDbEntity
8
DIM
100
AcDbDimension
280
0
2
*D4
10
3640.0
20
-600.0
30
0.0
11
3185.0
21
-415.0
31
0.0
70
32
71
5
72
1
42
910.0
3
Standard
100
AcDbAlignedDimension
13
2730.0
23
0.0
33
0.0
14
3640.0
24
0.0
34
0.0
50
0.0
100
AcDbRotatedDimension
0
DIMENSION
5
2305
330
28
100
AcDbEntity
8
DIM
100
AcDbDimension
280
0
2
*D5
10
4550.0
20
-600.0
30
0.0
11
4095.0
21
-415.0
31
0.0
70
32
71
5
72
1
42
910.0
3
Standard
100
AcDbAlignedDimension
13
3640.0
23
0.0
33
0.0
14
4550.0
24
0.0
34
0.0
50
0.0
100
AcDbRotatedDimension
0
DIMENSION
5
2306
330
28
100
AcDbEntity
8
DIM
100
AcDbDimension
280
0
2
*D6
10
5460.0
20
-600.0
30
0.0
11
5005.0
21
-415.0
31
0.0
70
32
71
5
72
1
42
910.0
3
Standard
100
AcDbAlignedDimension
13
4550.0
23
0.0
33
0.0
14
5460.0
24
0.0
34
0.0
50
0.0
100
AcDbRotatedDimension
0
DIMENSION
5
2307
330
28
100
AcDbEntity
8
DIM
100
AcDbDimension
280
0
2
*D7
10
6370.0
20
-600.0
30
0.0
11
5915.0
21
-415.0
31
0.0
70
32
71
5
72
1
42
910.0
3
Standard
100
AcDbAlignedDimension
13
5460.0
23
0.0
33
0.0
14
6370.0
24
0.0
34
0.0
50
0.0
100
AcDbRotatedDimension
0
DIMENSION
5
2308
330
28
100
AcDbEntity
8
DIM
100
AcDbDimension
280
0
2
*D8
10
7280.0
20
-600.0
30
0.0
11
6825.0
21
-415.0
31
0.0
70
32
71
5
72
1
42
910.0
3
Standard
100
AcDbAlignedDimension
13
6370.0
23
0.0
33
0.0
14
7280.0
24
0.0
34
0.0
50
0.0
100
AcDbRotatedDimension
0
DIMENSION
5
2309
330
28
100
AcDbEntity
8
DIM
100
AcDbDimension
280
0
2
*D9
10
8190.0
20
-600.0
30
0.0
11
7735.0
21
-415.0
31
0.0
70
32
71
5
72
1
42
910.0
3
Standard
100
AcDbAlignedDimension
13
7280.0
23
0.0
33
0.0
14
8190.0
24
0.0
34
0.0
50
0.0
100
AcDbRotatedDimension
0
DIMENSION
5
2310
330
28
100
AcDbEntity
8
DIM
100
AcDbDimension
280
0
2
*D10
10
9100.0
20
-600.0
30
0.0
11
8645.0
21
-415.0
31
0.0
70
32
71
5
72
1
42
910.0
3
Standard
100
AcDbAlignedDimension
13
8190.0
23
0.0
33
0.0
14
9100.0
24
0.0
34
0.0
50
0.0
100
AcDbRotatedDimension
0
DIMENSION
5
2311
330
28
100
AcDbEntity
8
DIM
100
AcDbDimension
280
0
2
*D11
10
9100.0
20
-1600.0
30
0.0
11
4550.0
21
-1415.0
31
0.0
70
32
71
5
72
1
42
9100.0
3
Standard
100
AcDbAlignedDimension
13
0.0
23
0.0
33
0.0
14
9100.0
24
0.0
34
0.0
50
0.0
100
AcDbRotatedDimension
0
DIMENSION
5
2312
330
28
100
AcDbEntity
8
DIM
100
AcDbDimension
280
0
2
*D12
10
-600.0
20
910.0
30
0.0
11
-785.0
21
455.0
31
0.0
70
32
71
5
72
1
42
910.0
3
Standard
100
AcDbAlignedDimension
13
0.0
23
0.0
33
0.0
14
0.0
24
910.0
34
0.0
50
90.0
100
AcDbRotatedDimension
0
DIMENSION
5
2313
330
28
100
AcDbEntity
8
DIM
100
AcDbDimension
280
0
2
*D13
10
-600.0
20
1820.0
30
0.0
11
-785.0
21
1365.0
31
0.0
70
32
71
5
72
1
42
910.0
3
Standard
100
AcDbAlignedDimension
13
0.0
23
910.0
33
0.0
14
0.0
24
1820.0
34
0.0
50
90.0
100
AcDbRotatedDimension
0
DIMENSION
5
2314
330
28
100
AcDbEntity
8
DIM
100
AcDbDimension
280
0
2
*D14
10
-600.0
20
2730.0
30
0.0
11
-785.0
21
2275.0
31
0.0
70
32
71
5
72
1
42
910.0
3
Standard
100
AcDbAlignedDimension
13
0.0
23
1820.0
33
0.0
14
0.0
24
2730.0
34
0.0
50
90.0
100
AcDbRotatedDimension
0
DIMENSION
5
2315
330
28
100
AcDbEntity
8
DIM
100
AcDbDimension
280
0
2
*D15
10
-600.0
20
3640.0
30
0.0
11
-785.0
21
3185.0
31
0.0
70
32
71
5
72
1
42
910.0
3
Standard
100
AcDbAlignedDimension
13
0.0
23
2730.0
33
0.0
14
0.0
24
3640.0
34
0.0
50
90.0
100
AcDbRotatedDimension
0
DIMENSION
5
2316
330
28
100
AcDbEntity
8
DIM
100
AcDbDimension
280
0
2
*D16
10
-600.0
20
4550.0
30
0.0
11
-785.0
21
4095.0
31
0.0
70
32
71
5
72
1
42
910.0
3
Standard
100
AcDbAlignedDimension
13
0.0
23
3640.0
33
0.0
14
0.0
24
4550.0
34
0.0
50
90.0
100
AcDbRotatedDimension
0
DIMENSION
5
2317
330
28
100
AcDbEntity
8
DIM
100
AcDbDimension
280
0
2
*D17
10
-600.0
20
5460.0
30
0.0
11
-785.0
21
5005.0
31
0.0
70
32
71
5
72
1
42
910.0
3
Standard
100
AcDbAlignedDimension
13
0.0
23
4550.0
33
0.0
14
0.0
24
5460.0
34
0.0
50
90.0
100
AcDbRotatedDimension
0
DIMENSION
5
2318
330
28
100
AcDbEntity
8
DIM
100
AcDbDimension
280
0
2
*D18
10
-600.0
20
6370.0
30
0.0
11
-785.0
21
5915.0
31
0.0
70
32
71
5
72
1
42
910.0
3
Standard
100
AcDbAlignedDimension
13
0.0
23
5460.0
33
0.0
14
0.0
24
6370.0
34
0.0
50
90.0
100
AcDbRotatedDimension
0
DIMENSION
5
2319
330
28
100
AcDbEntity
8
DIM
100
AcDbDimension
280
0
2
*D19
10
-600.0
20
7280.0
30
0.0
11
-785.0
21
6825.0
31
0.0
70
32
71
5
72
1
42
910.0
3
Standard
100
AcDbAlignedDimension
13
0.0
23
6370.0
33
0.0
14
0.0
24
7280.0
34
0.0
50
90.0
100
AcDbRotatedDimension
0
DIMENSION
5
2320
330
28
100
AcDbEntity
8
DIM
100
AcDbDimension
280
0
2
*D20
10
-600.0
20
8190.0
30
0.0
11
-785.0
21
7735.0
31
0.0
70
32
71
5
72
1
42
910.0
3
Standard
100
AcDbAlignedDimension
13
0.0
23
7280.0
33
0.0
14
0.0
24
8190.0
34
0.0
50
90.0
100
AcDbRotatedDimension
0
DIMENSION
5
2321
330
28
100
AcDbEntity
8
DIM
100
AcDbDimension
280
0
2
*D21
10
-1600.0
20
8190.0
30
0.0
11
-1785.0
21
4095.0
31
0.0
70
32
71
5
72
1
42
8190.0
3
Standard
100
AcDbAlignedDimension
13
0.0
23
0.0
33
0.0
14
0.0
24
8190.0
34
0.0
50
90.0
100
AcDbRotatedDimension
0
DIMENSION
5
2322
330
28
100
AcDbEntity
8
DIM
100
AcDbDimension
280
0
2
*D22
10
9700.0
20
910.0
30
0.0
11
9515.0
21
455.0
31
0.0
70
32
71
5
72
1
42
910.0
3
Standard
100
AcDbAlignedDimension
13
9100.0
23
0.0
33
0.0
14
9100.0
24
910.0
34
0.0
50
90.0
100
AcDbRotatedDimension
0
DIMENSION
5
2323
330
28
100
AcDbEntity
8
DIM
100
AcDbDimension
280
0
2
*D23
10
9700.0
20
1820.0
30
0.0
11
9515.0
21
1365.0
31
0.0
70
32
71
5
72
1
42
910.0
3
Standard
100
AcDbAlignedDimension
13
9100.0
23
910.0
33
0.0
14
9100.0
24
1820.0
34
0.0
50
90.0
100
AcDbRotatedDimension
0
DIMENSION
5
2324
330
28
100
AcDbEntity
8
DIM
100
AcDbDimension
280
0
2
*D24
10
9700.0
20
2730.0
30
0.0
11
9515.0
21
2275.0
31
0.0
70
32
71
5
72
1
42
910.0
3
Standard
100
AcDbAlignedDimension
13
9100.0
23
1820.0
33
0.0
14
9100.0
24
2730.0
34
0.0
50
90.0
100
AcDbRotatedDimension
0
DIMENSION
5
2325
330
28
100
AcDbEntity
8
DIM
100
AcDbDimension
280
0
2
*D25
10
9700.0
20
3640.0
30
0.0
11
9515.0
21
3185.0
31
0.0
70
32
71
5
72
1
42
910.0
3
Standard
100
AcDbAlignedDimension
13
9100.0
23
2730.0
33
0.0
14
9100.0
24
3640.0
34
0.0
50
90.0
100
AcDbRotatedDimension
0
DIMENSION
5
2326
330
28
100
AcDbEntity
8
DIM
100
AcDbDimension
280
0
2
*D26
10
9700.0
20
4550.0
30
0.0
11
9515.0
21
4095.0
31
0.0
70
32
71
5
72
1
42
910.0
3
Standard
100
AcDbAlignedDimension
13
9100.0
23
3640.0
33
0.0
14
9100.0
24
4550.0
34
0.0
50
90.0
100
AcDbRotatedDimension
0
DIMENSION
5
2327
330
28
100
AcDbEntity
8
DIM
100
AcDbDimension
280
0
2
*D27
10
9700.0
20
5460.0
30
0.0
11
9515.0
21
5005.0
31
0.0
70
32
71
5
72
1
42
910.0
3
Standard
100
AcDbAlignedDimension
13
9100.0
23
4550.0
33
0.0
14
9100.0
24
5460.0
34
0.0
50
90.0
100
AcDbRotatedDimension
0
DIMENSION
5
2328
330
28
100
AcDbEntity
8
DIM
100
AcDbDimension
280
0
2
*D28
10
9700.0
20
6370.0
30
0.0
11
9515.0
21
5915.0
31
0.0
70
32
71
5
72
1
42
910.0
3
Standard
100
AcDbAlignedDimension
13
9100.0
23
5460.0
33
0.0
14
9100.0
24
6370.0
34
0.0
50
90.0
100
AcDbRotatedDimension
0
DIMENSION
5
2329
330
28
100
AcDbEntity
8
DIM
100
AcDbDimension
280
0
2
*D29
10
10700.0
20
6370.0
30
0.0
11
10515.0
21
3185.0
31
0.0
70
32
71
5
72
1
42
6370.0
3
Standard
100
AcDbAlignedDimension
13
9100.0
23
0.0
33
0.0
14
9100.0
24
6370.0
34
0.0
50
90.0
100
AcDbRotatedDimension
0
DIMENSION
5
2330
330
28
100
AcDbEntity
8
DIM
100
AcDbDimension
280
0
2
*D30
10
910.0
20
8790.0
30
0.0
11
455.0
21
8975.0
31
0.0
70
32
71
5
72
1
42
910.0
3
Standard
100
AcDbAlignedDimension
13
0.0
23
8190.0
33
0.0
14
910.0
24
8190.0
34
0.0
50
0.0
100
AcDbRotatedDimension
0
DIMENSION
5
2331
330
28
100
AcDbEntity
8
DIM
100
AcDbDimension
280
0
2
*D31
10
1820.0
20
8790.0
30
0.0
11
1365.0
21
8975.0
31
0.0
70
32
71
5
72
1
42
910.0
3
Standard
100
AcDbAlignedDimension
13
910.0
23
8190.0
33
0.0
14
1820.0
24
8190.0
34
0.0
50
0.0
100
AcDbRotatedDimension
0
DIMENSION
5
2332
330
28
100
AcDbEntity
8
DIM
100
AcDbDimension
280
0
2
*D32
10
2730.0
20
8790.0
30
0.0
11
2275.0
21
8975.0
31
0.0
70
32
71
5
72
1
42
910.0
3
Standard
100
AcDbAlignedDimension
13
1820.0
23
8190.0
33
0.0
14
2730.0
24
8190.0
34
0.0
50
0.0
100
AcDbRotatedDimension
0
DIMENSION
5
2333
330
28
100
AcDbEntity
8
DIM
100
AcDbDimension
280
0
2
*D33
10
3640.0
20
8790.0
30
0.0
11
3185.0
21
8975.0
31
0.0
70
32
71
5
72
1
42
910.0
3
Standard
100
AcDbAlignedDimension
13
2730.0
23
8190.0
33
0.0
14
3640.0
24
8190.0
34
0.0
50
0.0
100
AcDbRotatedDimension
0
DIMENSION
5
2334
330
28
100
AcDbEntity
8
DIM
100
AcDbDimension
280
0
2
*D34
10
4550.0
20
8790.0
30
0.0
11
4095.0
21
8975.0
31
0.0
70
32
71
5
72
1
42
910.0
3
Standard
100
AcDbAlignedDimension
13
3640.0
23
8190.0
33
0.0
14
4550.0
24
8190.0
34
0.0
50
0.0
100
AcDbRotatedDimension
0
DIMENSION
5
2335
330
28
100
AcDbEntity
8
DIM
100
AcDbDimension
280
0
2
*D35
10
5460.0
20
8790.0
30
0.0
11
5005.0
21
8975.0
31
0.0
70
32
71
5
72
1
42
910.0
3
Standard
100
AcDbAlignedDimension
13
4550.0
23
8190.0
33
0.0
14
5460.0
24
8190.0
34
0.0
50
0.0
100
AcDbRotatedDimension
0
DIMENSION
5
2336
330
28
100
AcDbEntity
8
DIM
100
AcDbDimension
280
0
2
*D36
10
6370.0
20
8790.0
30
0.0
11
5915.0
21
8975.0
31
0.0
70
32
71
5
72
1
42
910.0
3
Standard
100
AcDbAlignedDimension
13
5460.0
23
8190.0
33
0.0
14
6370.0
24
8190.0
34
0.0
50
0.0
100
AcDbRotatedDimension
0
DIMENSION
5
2337
330
28
100
AcDbEntity
8
DIM
100
AcDbDimension
280
0
2
*D37
10
7280.0
20
8790.0
30
0.0
11
6825.0
21
8975.0
31
0.0
70
32
71
5
72
1
42
910.0
3
Standard
100
AcDbAlignedDimension
13
6370.0
23
8190.0
33
0.0
14
7280.0
24
8190.0
34
0.0
50
0.0
100
AcDbRotatedDimension
0
DIMENSION
5
2338
330
28
100
AcDbEntity
8
DIM
100
AcDbDimension
280
0
2
*D38
10
7280.0
20
9790.0
30
0.0
11
3640.0
21
9975.0
31
0.0
70
32
71
5
72
1
42
7280.0
3
Standard
100
AcDbAlignedDimension
13
0.0
23
8190.0
33
0.0
14
7280.0
24
8190.0
34
0.0
50
0.0
100
AcDbRotatedDimension
0
ENDSEC
0
SECTION
2
OBJECTS
0
DICTIONARY
5
34
330
0
100
AcDbDictionary
281
1
3
ACAD_GROUP
350
35
3
ACAD_LAYOUT
350
36
0
DICTIONARY
5
35
330
34
100
AcDbDictionary
281
1
0
DICTIONARY
5
36
330
34
100
AcDbDictionary
281
1
3
Model
350
37
3
Layout1
350
38
0
LAYOUT
5
37
330
36
100
AcDbPlotSettings
1

2
none_device
4

6

40
0.0
41
0.0
42
0.0
43
0.0
44
0.0
45
0.0
46
0.0
47
0.0
48
0.0
49
0.0
140
0.0
141
0.0
142
1.0
143
1.0
70
1712
72
0
73
0
74
0
7

75
0
147
1.0
148
0.0
149
0.0
100
AcDbLayout
1
Model
70
1
71
0
10
0.0
20
0.0
11
420.0
21
297.0
12
0.0
22
0.0
32
0.0
14
-2600.0
24
-3700.0
34
0.0
15
11200.0
25
10200.0
35
0.0
146
0.0
13
0.0
23
0.0
33
0.0
16
1.0
26
0.0
36
0.0
17
0.0
27
1.0
37
0.0
76
0
330
28
0
LAYOUT
5
38
330
36
100
AcDbPlotSettings
1

2
none_device
4

6

40
0.0
41
0.0
42
0.0
43
0.0
44
0.0
45
0.0
46
0.0
47
0.0
48
0.0
49
0.0
140
0.0
141
0.0
142
1.0
143
1.0
70
1712
72
0
73
0
74
5
7

75
16
147
1.0
148
0.0
149
0.0
100
AcDbLayout
1
Layout1
70
1
71
1
10
0.0
20
0.0
11
420.0
21
297.0
12
0.0
22
0.0
32
0.0
14
0.0
24
0.0
34
0.0
15
0.0
25
0.0
35
0.0
146
0.0
13
0.0
23
0.0
33
0.0
16
1.0
26
0.0
36
0.0
17
0.0
27
1.0
37
0.0
76
0
330
29
0
ENDSEC
0
EOF
